%TF.GenerationSoftware,Altium Limited,Altium Designer,22.2.1 (43)*%
G04 Layer_Physical_Order=3*
G04 Layer_Color=16440176*
%FSLAX45Y45*%
%MOMM*%
%TF.SameCoordinates,02F1B47A-F79C-4BE6-BEC0-26DF2024C161*%
%TF.FilePolarity,Positive*%
%TF.FileFunction,Copper,L3,Inr,Signal*%
%TF.Part,Single*%
G01*
G75*
%TA.AperFunction,Conductor*%
%ADD59C,0.25400*%
%ADD61C,0.50000*%
%TA.AperFunction,ComponentPad*%
%ADD65R,1.00000X1.00000*%
%ADD66C,1.00000*%
%TA.AperFunction,ViaPad*%
%ADD67C,1.52400*%
%TA.AperFunction,ComponentPad*%
%ADD68R,1.50000X1.50000*%
%ADD69C,2.19989*%
%ADD70C,0.54991*%
%ADD71R,1.30000X1.30000*%
%ADD72C,1.30000*%
%ADD73C,1.32080*%
%TA.AperFunction,ViaPad*%
%ADD74C,0.50000*%
G36*
X4622487Y9684439D02*
X4623996Y9680189D01*
X4626511Y9676439D01*
X4630033Y9673189D01*
X4634560Y9670439D01*
X4640094Y9668189D01*
X4646633Y9666439D01*
X4654179Y9665189D01*
X4662731Y9664439D01*
X4672289Y9664189D01*
Y9614189D01*
X4662731Y9613939D01*
X4654179Y9613189D01*
X4646633Y9611939D01*
X4640094Y9610189D01*
X4634560Y9607939D01*
X4630033Y9605189D01*
X4626511Y9601939D01*
X4623996Y9598189D01*
X4622487Y9593939D01*
X4621984Y9589189D01*
Y9689189D01*
X4622487Y9684439D01*
D02*
G37*
G36*
X4608156Y9426795D02*
X4612547Y9423310D01*
X4617185Y9420235D01*
X4622072Y9417570D01*
X4627206Y9415315D01*
X4632588Y9413470D01*
X4638218Y9412035D01*
X4644095Y9411010D01*
X4650221Y9410395D01*
X4656594Y9410190D01*
Y9360190D01*
X4650221Y9359985D01*
X4644095Y9359370D01*
X4638218Y9358345D01*
X4632588Y9356910D01*
X4627206Y9355065D01*
X4622072Y9352810D01*
X4617185Y9350145D01*
X4612547Y9347070D01*
X4608156Y9343585D01*
X4604014Y9339690D01*
Y9430690D01*
X4608156Y9426795D01*
D02*
G37*
G36*
X17800000Y8500000D02*
X5330001D01*
Y8632628D01*
X5334419Y8635580D01*
X5338840Y8642196D01*
X5340392Y8650000D01*
Y9278128D01*
X5352125Y9282988D01*
X5653319Y8981794D01*
X5668204Y8971848D01*
X5685763Y8968355D01*
X5866758D01*
X6297557Y8537557D01*
X6312442Y8527611D01*
X6330000Y8524118D01*
X15489999D01*
X15507558Y8527611D01*
X15522443Y8537557D01*
X16362444Y9377557D01*
X16372389Y9392442D01*
X16375882Y9410000D01*
Y11049221D01*
X16372389Y11066779D01*
X16362444Y11081664D01*
X16081664Y11362443D01*
X16066779Y11372389D01*
X16049220Y11375881D01*
X15800000D01*
X15782442Y11372389D01*
X15767557Y11362443D01*
X15757611Y11347558D01*
X15754118Y11330000D01*
X15757611Y11312442D01*
X15767557Y11297557D01*
X15782442Y11287611D01*
X15800000Y11284118D01*
X16030215D01*
X16284119Y11030216D01*
Y10807829D01*
X16275731Y10803960D01*
X16271419Y10803468D01*
X16132443Y10942443D01*
X16117558Y10952389D01*
X16100000Y10955882D01*
X15800000D01*
X15782442Y10952389D01*
X15767557Y10942443D01*
X15757611Y10927558D01*
X15754118Y10910000D01*
X15757611Y10892442D01*
X15767557Y10877557D01*
X15782442Y10867611D01*
X15800000Y10864118D01*
X16080995D01*
X16194118Y10750995D01*
Y10427829D01*
X16186490Y10424310D01*
X16181418Y10423128D01*
X16167558Y10432389D01*
X16150000Y10435882D01*
X16132442Y10432389D01*
X16117557Y10422443D01*
X16107611Y10407558D01*
X16104118Y10390000D01*
X16107611Y10372442D01*
X16115924Y10360000D01*
X16107611Y10347558D01*
X16104118Y10330000D01*
X16107611Y10312442D01*
X16115924Y10300000D01*
X16107611Y10287558D01*
X16104118Y10270000D01*
X16107611Y10252442D01*
X16117557Y10237557D01*
X16132442Y10227611D01*
X16150000Y10224118D01*
X16167558Y10227611D01*
X16181418Y10236872D01*
X16186490Y10235690D01*
X16194118Y10232171D01*
Y9459005D01*
X16157269Y9422156D01*
X16145566Y9428413D01*
X16145882Y9430000D01*
X16142389Y9447558D01*
X16132443Y9462443D01*
X16117558Y9472389D01*
X16100000Y9475882D01*
X16082442Y9472389D01*
X16067557Y9462443D01*
X16057611Y9447558D01*
X16054118Y9430000D01*
X16057611Y9412442D01*
X16067557Y9397557D01*
X16082442Y9387611D01*
X16100000Y9384119D01*
X16101587Y9384434D01*
X16107845Y9372730D01*
X15420995Y8685882D01*
X10808484D01*
X10806521Y8688326D01*
X10809137Y8705348D01*
X10812443Y8707557D01*
X11712443Y9607557D01*
X11722389Y9622442D01*
X11725882Y9640000D01*
Y9790000D01*
X11722389Y9807558D01*
X11712443Y9822443D01*
X11282443Y10252443D01*
X11267558Y10262389D01*
X11250000Y10265882D01*
X10640000D01*
X10622442Y10262389D01*
X10607557Y10252443D01*
X10597611Y10237558D01*
X10594119Y10220000D01*
X10596390Y10208582D01*
X10587883Y10195882D01*
X10349005D01*
X10229886Y10315000D01*
X10299005Y10384119D01*
X13589999D01*
X13607558Y10387611D01*
X13622443Y10397557D01*
X16132443Y12907558D01*
X16142389Y12922443D01*
X16145882Y12939999D01*
X16142389Y12957558D01*
X16132443Y12972443D01*
X16117558Y12982388D01*
X16100000Y12985883D01*
X16082442Y12982388D01*
X16067557Y12972443D01*
X13570995Y10475882D01*
X10280000D01*
X10262442Y10472389D01*
X10247557Y10462443D01*
X10225279Y10440166D01*
X10213126Y10443853D01*
X10212389Y10447558D01*
X10202443Y10462443D01*
X10187558Y10472389D01*
X10170000Y10475882D01*
X10152442Y10472389D01*
X10137557Y10462443D01*
X10110995Y10435882D01*
X9235332D01*
X9232417Y10440083D01*
X9229706Y10448582D01*
X9238089Y10461127D01*
X9241581Y10478685D01*
X9238089Y10496243D01*
X9228143Y10511128D01*
Y10517557D01*
X9238089Y10532442D01*
X9241581Y10550000D01*
X9238089Y10567558D01*
X9228143Y10582443D01*
Y10587557D01*
X9238089Y10602442D01*
X9241581Y10620000D01*
X9238089Y10637558D01*
X9228143Y10652443D01*
X9213258Y10662389D01*
X9195700Y10665882D01*
X9178142Y10662389D01*
X9163257Y10652443D01*
X9153311Y10637558D01*
X9149818Y10620000D01*
X9153311Y10602442D01*
X9163257Y10587557D01*
Y10582443D01*
X9153311Y10567558D01*
X9149818Y10550000D01*
X9153311Y10532442D01*
X9163257Y10517557D01*
Y10511128D01*
X9153311Y10496243D01*
X9149818Y10478685D01*
X9153311Y10461127D01*
X9161694Y10448582D01*
X9158983Y10440083D01*
X9156068Y10435882D01*
X8970000D01*
X8952442Y10432389D01*
X8937557Y10422443D01*
X8480995Y9965882D01*
X6719005D01*
X5555881Y11129005D01*
Y11200000D01*
X5552389Y11217558D01*
X5542443Y11232443D01*
X5527558Y11242389D01*
X5510000Y11245881D01*
X5492442Y11242389D01*
X5477557Y11232443D01*
X5467611Y11217558D01*
X5464118Y11200000D01*
Y11110000D01*
X5467611Y11092442D01*
X5477557Y11077557D01*
X6667557Y9887557D01*
X6682442Y9877611D01*
X6700000Y9874118D01*
X8500000D01*
X8517558Y9877611D01*
X8532443Y9887557D01*
X8989005Y10344119D01*
X9887883D01*
X9896390Y10331418D01*
X9894118Y10320000D01*
X9897611Y10302442D01*
X9907557Y10287557D01*
X9922442Y10277611D01*
X9940000Y10274118D01*
X10140995D01*
X10297557Y10117557D01*
X10312442Y10107611D01*
X10330000Y10104118D01*
X11190996D01*
X11544118Y9750996D01*
Y9659005D01*
X10738995Y8853881D01*
X9450000D01*
X9432442Y8850389D01*
X9417557Y8840443D01*
X9407611Y8825558D01*
X9404118Y8808000D01*
X9405992Y8798582D01*
X9396546Y8785882D01*
X9167297D01*
X9157558Y8792389D01*
X9140000Y8795882D01*
X9122442Y8792389D01*
X9107557Y8782443D01*
X9097611Y8767558D01*
X9094118Y8750000D01*
X9097611Y8732442D01*
X9107557Y8717557D01*
X9117557Y8707557D01*
X9120863Y8705348D01*
X9123479Y8688326D01*
X9121516Y8685882D01*
X6889005D01*
X5615882Y9959005D01*
Y10307500D01*
X5612389Y10325058D01*
X5602443Y10339943D01*
X5587558Y10349889D01*
X5570000Y10353381D01*
X5552442Y10349889D01*
X5537557Y10339943D01*
X5527611Y10325058D01*
X5524118Y10307500D01*
Y9940000D01*
X5527611Y9922442D01*
X5537557Y9907557D01*
X6817499Y8627615D01*
X6812639Y8615881D01*
X6349005D01*
X5918206Y9046680D01*
X5903321Y9056626D01*
X5885763Y9060119D01*
X5704767D01*
X5347253Y9417633D01*
X5332368Y9427579D01*
X5330001Y9428050D01*
X5330000Y9464118D01*
X5450000D01*
X5467558Y9467611D01*
X5482443Y9477557D01*
X5492389Y9492442D01*
X5495882Y9510000D01*
X5492389Y9527558D01*
X5482443Y9542443D01*
X5467558Y9552389D01*
X5450000Y9555881D01*
X5330000D01*
Y9593308D01*
X5544660D01*
X5562219Y9596800D01*
X5577104Y9606746D01*
X5607348Y9636990D01*
X5617294Y9651875D01*
X5620786Y9669434D01*
X5617294Y9686992D01*
X5607348Y9701877D01*
X5592463Y9711823D01*
X5574905Y9715315D01*
X5557347Y9711823D01*
X5542462Y9701877D01*
X5525656Y9685071D01*
X5341508D01*
X5338373Y9689719D01*
X5335883Y9697771D01*
X5338839Y9702196D01*
X5340392Y9709999D01*
X5340392Y10409999D01*
X5338840Y10417803D01*
X5334419Y10424419D01*
X5330000Y10427372D01*
X5330000Y14270000D01*
X17799998Y14270000D01*
X17800000Y8500000D01*
D02*
G37*
%LPC*%
G36*
X10704917Y14141171D02*
X10686644Y14138765D01*
X10669615Y14131711D01*
X10654993Y14120491D01*
X10649285Y14113052D01*
X10633550D01*
X10627842Y14120491D01*
X10613219Y14131711D01*
X10596191Y14138765D01*
X10577917Y14141171D01*
X10559644Y14138765D01*
X10542615Y14131711D01*
X10527993Y14120491D01*
X10522285Y14113052D01*
X10506550D01*
X10500842Y14120491D01*
X10486220Y14131711D01*
X10469191Y14138765D01*
X10450918Y14141171D01*
X10432644Y14138765D01*
X10415616Y14131711D01*
X10400993Y14120491D01*
X10389773Y14105869D01*
X10382720Y14088840D01*
X10380314Y14070567D01*
X10382720Y14052293D01*
X10389773Y14035265D01*
X10400993Y14020642D01*
X10415616Y14009422D01*
X10432644Y14002370D01*
X10450918Y13999963D01*
X10469191Y14002370D01*
X10486220Y14009422D01*
X10500842Y14020642D01*
X10506550Y14028081D01*
X10522285D01*
X10527993Y14020642D01*
X10542615Y14009422D01*
X10559644Y14002370D01*
X10577917Y13999963D01*
X10596191Y14002370D01*
X10613219Y14009422D01*
X10627842Y14020642D01*
X10633550Y14028081D01*
X10649285D01*
X10654993Y14020642D01*
X10669615Y14009422D01*
X10686644Y14002370D01*
X10704917Y13999963D01*
X10723191Y14002370D01*
X10740219Y14009422D01*
X10754842Y14020642D01*
X10766062Y14035265D01*
X10773115Y14052293D01*
X10775521Y14070567D01*
X10773115Y14088840D01*
X10766062Y14105869D01*
X10754842Y14120491D01*
X10740219Y14131711D01*
X10723191Y14138765D01*
X10704917Y14141171D01*
D02*
G37*
G36*
X16995877Y14057030D02*
X16970764Y14053725D01*
X16947362Y14044031D01*
X16927267Y14028612D01*
X16911847Y14008514D01*
X16902155Y13985114D01*
X16898846Y13960001D01*
X16902155Y13934888D01*
X16911847Y13911485D01*
X16927267Y13891389D01*
X16947362Y13875970D01*
X16970764Y13866277D01*
X16995877Y13862970D01*
X17020992Y13866277D01*
X17044392Y13875970D01*
X17064488Y13891389D01*
X17079909Y13911485D01*
X17089601Y13934888D01*
X17092908Y13960001D01*
X17089601Y13985114D01*
X17079909Y14008514D01*
X17064488Y14028612D01*
X17044392Y14044031D01*
X17020992Y14053725D01*
X16995877Y14057030D01*
D02*
G37*
G36*
X16741760D02*
X16716647Y14053725D01*
X16693245Y14044031D01*
X16673151Y14028612D01*
X16657729Y14008514D01*
X16648036Y13985114D01*
X16644730Y13960001D01*
X16648036Y13934888D01*
X16657729Y13911485D01*
X16673151Y13891389D01*
X16693245Y13875970D01*
X16716647Y13866277D01*
X16741760Y13862970D01*
X16766873Y13866277D01*
X16790276Y13875970D01*
X16810370Y13891389D01*
X16825790Y13911485D01*
X16835484Y13934888D01*
X16838789Y13960001D01*
X16835484Y13985114D01*
X16825790Y14008514D01*
X16810370Y14028612D01*
X16790276Y14044031D01*
X16766873Y14053725D01*
X16741760Y14057030D01*
D02*
G37*
G36*
X16487643D02*
X16462529Y14053725D01*
X16439128Y14044031D01*
X16419032Y14028612D01*
X16403612Y14008514D01*
X16393919Y13985114D01*
X16390613Y13960001D01*
X16393919Y13934888D01*
X16403612Y13911485D01*
X16419032Y13891389D01*
X16439128Y13875970D01*
X16462529Y13866277D01*
X16487643Y13862970D01*
X16512756Y13866277D01*
X16536159Y13875970D01*
X16556253Y13891389D01*
X16571674Y13911485D01*
X16581366Y13934888D01*
X16584673Y13960001D01*
X16581366Y13985114D01*
X16571674Y14008514D01*
X16556253Y14028612D01*
X16536159Y14044031D01*
X16512756Y14053725D01*
X16487643Y14057030D01*
D02*
G37*
G36*
X16233525D02*
X16208412Y14053725D01*
X16185010Y14044031D01*
X16164915Y14028612D01*
X16149495Y14008514D01*
X16139803Y13985114D01*
X16136494Y13960001D01*
X16139803Y13934888D01*
X16149495Y13911485D01*
X16164915Y13891389D01*
X16185010Y13875970D01*
X16208412Y13866277D01*
X16233525Y13862970D01*
X16258640Y13866277D01*
X16282040Y13875970D01*
X16302136Y13891389D01*
X16317557Y13911485D01*
X16327249Y13934888D01*
X16330556Y13960001D01*
X16327249Y13985114D01*
X16317557Y14008514D01*
X16302136Y14028612D01*
X16282040Y14044031D01*
X16258640Y14053725D01*
X16233525Y14057030D01*
D02*
G37*
G36*
X15979408D02*
X15954295Y14053725D01*
X15930893Y14044031D01*
X15910797Y14028612D01*
X15895377Y14008514D01*
X15885684Y13985114D01*
X15882378Y13960001D01*
X15885684Y13934888D01*
X15895377Y13911485D01*
X15910797Y13891389D01*
X15930893Y13875970D01*
X15954295Y13866277D01*
X15979408Y13862970D01*
X16004521Y13866277D01*
X16027924Y13875970D01*
X16048018Y13891389D01*
X16063438Y13911485D01*
X16073132Y13934888D01*
X16076437Y13960001D01*
X16073132Y13985114D01*
X16063438Y14008514D01*
X16048018Y14028612D01*
X16027924Y14044031D01*
X16004521Y14053725D01*
X15979408Y14057030D01*
D02*
G37*
G36*
X15725291D02*
X15700177Y14053725D01*
X15676776Y14044031D01*
X15656680Y14028612D01*
X15641260Y14008514D01*
X15631567Y13985114D01*
X15628261Y13960001D01*
X15631567Y13934888D01*
X15641260Y13911485D01*
X15656680Y13891389D01*
X15676776Y13875970D01*
X15700177Y13866277D01*
X15725291Y13862970D01*
X15750404Y13866277D01*
X15773807Y13875970D01*
X15793901Y13891389D01*
X15809322Y13911485D01*
X15819014Y13934888D01*
X15822321Y13960001D01*
X15819014Y13985114D01*
X15809322Y14008514D01*
X15793901Y14028612D01*
X15773807Y14044031D01*
X15750404Y14053725D01*
X15725291Y14057030D01*
D02*
G37*
G36*
X15471173D02*
X15446060Y14053725D01*
X15422658Y14044031D01*
X15402563Y14028612D01*
X15387143Y14008514D01*
X15377451Y13985114D01*
X15374142Y13960001D01*
X15377451Y13934888D01*
X15387143Y13911485D01*
X15402563Y13891389D01*
X15422658Y13875970D01*
X15446060Y13866277D01*
X15471173Y13862970D01*
X15496288Y13866277D01*
X15519688Y13875970D01*
X15539784Y13891389D01*
X15555203Y13911485D01*
X15564897Y13934888D01*
X15568204Y13960001D01*
X15564897Y13985114D01*
X15555203Y14008514D01*
X15539784Y14028612D01*
X15519688Y14044031D01*
X15496288Y14053725D01*
X15471173Y14057030D01*
D02*
G37*
G36*
X15217056D02*
X15191943Y14053725D01*
X15168541Y14044031D01*
X15148445Y14028612D01*
X15133025Y14008514D01*
X15123332Y13985114D01*
X15120026Y13960001D01*
X15123332Y13934888D01*
X15133025Y13911485D01*
X15148445Y13891389D01*
X15168541Y13875970D01*
X15191943Y13866277D01*
X15217056Y13862970D01*
X15242169Y13866277D01*
X15265572Y13875970D01*
X15285666Y13891389D01*
X15301086Y13911485D01*
X15310780Y13934888D01*
X15314085Y13960001D01*
X15310780Y13985114D01*
X15301086Y14008514D01*
X15285666Y14028612D01*
X15265572Y14044031D01*
X15242169Y14053725D01*
X15217056Y14057030D01*
D02*
G37*
G36*
X14962939D02*
X14937825Y14053725D01*
X14914424Y14044031D01*
X14894328Y14028612D01*
X14878908Y14008514D01*
X14869215Y13985114D01*
X14865909Y13960001D01*
X14869215Y13934888D01*
X14878908Y13911485D01*
X14894328Y13891389D01*
X14914424Y13875970D01*
X14937825Y13866277D01*
X14962939Y13862970D01*
X14988052Y13866277D01*
X15011453Y13875970D01*
X15031549Y13891389D01*
X15046970Y13911485D01*
X15056662Y13934888D01*
X15059969Y13960001D01*
X15056662Y13985114D01*
X15046970Y14008514D01*
X15031549Y14028612D01*
X15011453Y14044031D01*
X14988052Y14053725D01*
X14962939Y14057030D01*
D02*
G37*
G36*
X14708821D02*
X14683708Y14053725D01*
X14660306Y14044031D01*
X14640211Y14028612D01*
X14624791Y14008514D01*
X14615099Y13985114D01*
X14611790Y13960001D01*
X14615099Y13934888D01*
X14624791Y13911485D01*
X14640211Y13891389D01*
X14660306Y13875970D01*
X14683708Y13866277D01*
X14708821Y13862970D01*
X14733934Y13866277D01*
X14757336Y13875970D01*
X14777432Y13891389D01*
X14792851Y13911485D01*
X14802545Y13934888D01*
X14805852Y13960001D01*
X14802545Y13985114D01*
X14792851Y14008514D01*
X14777432Y14028612D01*
X14757336Y14044031D01*
X14733934Y14053725D01*
X14708821Y14057030D01*
D02*
G37*
G36*
X14454704D02*
X14429591Y14053725D01*
X14406189Y14044031D01*
X14386093Y14028612D01*
X14370673Y14008514D01*
X14360980Y13985114D01*
X14357674Y13960001D01*
X14360980Y13934888D01*
X14370673Y13911485D01*
X14386093Y13891389D01*
X14406189Y13875970D01*
X14429591Y13866277D01*
X14454704Y13862970D01*
X14479817Y13866277D01*
X14503220Y13875970D01*
X14523314Y13891389D01*
X14538734Y13911485D01*
X14548428Y13934888D01*
X14551733Y13960001D01*
X14548428Y13985114D01*
X14538734Y14008514D01*
X14523314Y14028612D01*
X14503220Y14044031D01*
X14479817Y14053725D01*
X14454704Y14057030D01*
D02*
G37*
G36*
X14200587D02*
X14175473Y14053725D01*
X14152072Y14044031D01*
X14131976Y14028612D01*
X14116556Y14008514D01*
X14106863Y13985114D01*
X14103557Y13960001D01*
X14106863Y13934888D01*
X14116556Y13911485D01*
X14131976Y13891389D01*
X14152072Y13875970D01*
X14175473Y13866277D01*
X14200587Y13862970D01*
X14225700Y13866277D01*
X14249101Y13875970D01*
X14269197Y13891389D01*
X14284618Y13911485D01*
X14294310Y13934888D01*
X14297617Y13960001D01*
X14294310Y13985114D01*
X14284618Y14008514D01*
X14269197Y14028612D01*
X14249101Y14044031D01*
X14225700Y14053725D01*
X14200587Y14057030D01*
D02*
G37*
G36*
X13946469D02*
X13921356Y14053725D01*
X13897954Y14044031D01*
X13877859Y14028612D01*
X13862439Y14008514D01*
X13852745Y13985114D01*
X13849438Y13960001D01*
X13852745Y13934888D01*
X13859032Y13919713D01*
X13722659Y13783340D01*
X13579436D01*
X13574576Y13795074D01*
X13652065Y13872562D01*
X13667239Y13866277D01*
X13692352Y13862970D01*
X13717465Y13866277D01*
X13740868Y13875970D01*
X13760962Y13891389D01*
X13776382Y13911485D01*
X13786076Y13934888D01*
X13789381Y13960001D01*
X13786076Y13985114D01*
X13776382Y14008514D01*
X13760962Y14028612D01*
X13740868Y14044031D01*
X13717465Y14053725D01*
X13692352Y14057030D01*
X13667239Y14053725D01*
X13643837Y14044031D01*
X13623741Y14028612D01*
X13608321Y14008514D01*
X13598628Y13985114D01*
X13595322Y13960001D01*
X13598628Y13934888D01*
X13604913Y13919713D01*
X13503941Y13818739D01*
X13106601D01*
X13101741Y13830473D01*
X13143829Y13872562D01*
X13159004Y13866277D01*
X13184117Y13862970D01*
X13209230Y13866277D01*
X13232632Y13875970D01*
X13252728Y13891389D01*
X13268147Y13911485D01*
X13277841Y13934888D01*
X13281146Y13960001D01*
X13277841Y13985114D01*
X13268147Y14008514D01*
X13252728Y14028612D01*
X13232632Y14044031D01*
X13209230Y14053725D01*
X13184117Y14057030D01*
X13159004Y14053725D01*
X13135602Y14044031D01*
X13115508Y14028612D01*
X13100087Y14008514D01*
X13090393Y13985114D01*
X13087086Y13960001D01*
X13090393Y13934888D01*
X13096680Y13919713D01*
X13031107Y13854140D01*
X12957559D01*
X12955113Y13866277D01*
X12978516Y13875970D01*
X12998610Y13891389D01*
X13014030Y13911485D01*
X13023724Y13934888D01*
X13027029Y13960001D01*
X13023724Y13985114D01*
X13014030Y14008514D01*
X12998610Y14028612D01*
X12978516Y14044031D01*
X12955113Y14053725D01*
X12930000Y14057030D01*
X12904887Y14053725D01*
X12881485Y14044031D01*
X12861389Y14028612D01*
X12845969Y14008514D01*
X12836276Y13985114D01*
X12832970Y13960001D01*
X12836276Y13934888D01*
X12845969Y13911485D01*
X12861389Y13891389D01*
X12881485Y13875970D01*
X12904886Y13866277D01*
X12902440Y13854140D01*
X7840674D01*
X7827916Y13851604D01*
X7817099Y13844376D01*
X5686425Y11713701D01*
X5679197Y11702885D01*
X5676659Y11690126D01*
Y11070000D01*
X5679197Y11057241D01*
X5686425Y11046425D01*
X5804434Y10928416D01*
X5807611Y10912442D01*
X5817557Y10897557D01*
X5832442Y10887611D01*
X5850000Y10884118D01*
X5867558Y10887611D01*
X5882443Y10897557D01*
X5892389Y10912442D01*
X5895717Y10929172D01*
X5899013Y10931314D01*
X5907832Y10935017D01*
X5996659Y10846190D01*
Y10740000D01*
X5999197Y10727241D01*
X6006425Y10716425D01*
X6629125Y10093725D01*
X6639941Y10086497D01*
X6652700Y10083960D01*
X8041933D01*
X8045404Y10076851D01*
X8046766Y10071260D01*
X8037611Y10057558D01*
X8034119Y10040000D01*
X8037611Y10022442D01*
X8047557Y10007557D01*
X8062442Y9997611D01*
X8080000Y9994118D01*
X8097558Y9997611D01*
X8112443Y10007557D01*
X8122389Y10022442D01*
X8125882Y10040000D01*
X8122389Y10057558D01*
X8113234Y10071260D01*
X8114596Y10076851D01*
X8118067Y10083960D01*
X8261933D01*
X8265404Y10076851D01*
X8266766Y10071260D01*
X8257611Y10057558D01*
X8254118Y10040000D01*
X8257611Y10022442D01*
X8267556Y10007557D01*
X8282442Y9997611D01*
X8300000Y9994118D01*
X8317558Y9997611D01*
X8332443Y10007557D01*
X8342389Y10022442D01*
X8345881Y10040000D01*
X8342389Y10057558D01*
X8333234Y10071260D01*
X8334595Y10076851D01*
X8338067Y10083960D01*
X8397300D01*
X8410059Y10086497D01*
X8420875Y10093725D01*
X9544088Y11216938D01*
X9551316Y11227754D01*
X9553854Y11240513D01*
Y11375940D01*
X9551316Y11388699D01*
X9544088Y11399515D01*
X9542792Y11400811D01*
Y11420640D01*
X9551840Y11434182D01*
X9555333Y11451740D01*
X9553623Y11460338D01*
X9563453Y11473038D01*
X14256380D01*
X14269138Y11475576D01*
X14279955Y11482804D01*
X15105794Y12308642D01*
X15118433Y12307397D01*
X15119872Y12305242D01*
X15134756Y12295296D01*
X15152315Y12291804D01*
X15169873Y12295296D01*
X15184758Y12305242D01*
X15194704Y12320127D01*
X15198196Y12337685D01*
X15194704Y12355243D01*
X15184758Y12370128D01*
X15182603Y12371568D01*
X15181358Y12384207D01*
X15193810Y12396659D01*
X15238190D01*
X15238397Y12396638D01*
X15239096Y12396529D01*
X15252441Y12387611D01*
X15266051Y12384904D01*
X15274734Y12373097D01*
X15274120Y12370000D01*
X15277611Y12352442D01*
X15287556Y12337557D01*
X15302441Y12327611D01*
X15320000Y12324118D01*
X15337558Y12327611D01*
X15352443Y12337557D01*
X15362389Y12352442D01*
X15365881Y12370000D01*
X15362389Y12387558D01*
X15352443Y12402443D01*
X15337558Y12412389D01*
X15323949Y12415096D01*
X15315266Y12426903D01*
X15315881Y12430000D01*
X15312389Y12447558D01*
X15302443Y12462443D01*
X15287558Y12472389D01*
X15270000Y12475882D01*
X15252441Y12472389D01*
X15239096Y12463472D01*
X15238631Y12463399D01*
X15237897Y12463341D01*
X15180000D01*
X15167241Y12460803D01*
X15156425Y12453575D01*
X14246564Y11543715D01*
X14239778Y11544667D01*
X14235274Y11558123D01*
X15428973Y12751823D01*
X15436201Y12762640D01*
X15438739Y12775399D01*
Y12841306D01*
X15451440Y12849268D01*
X15464993Y12846571D01*
X15483527Y12850256D01*
X15499236Y12860754D01*
X15509734Y12876465D01*
X15513420Y12894997D01*
X15509734Y12913528D01*
X15499236Y12929239D01*
X15483527Y12939735D01*
X15464993Y12943423D01*
X15451440Y12940726D01*
X15438739Y12948688D01*
Y13089230D01*
X15436201Y13101990D01*
X15428973Y13112807D01*
X15362505Y13179276D01*
X15351688Y13186502D01*
X15338930Y13189040D01*
X15065700D01*
X15052940Y13186502D01*
X15042125Y13179276D01*
X15018919Y13156070D01*
X15018758Y13155937D01*
X15018185Y13155521D01*
X15002441Y13152390D01*
X14987556Y13142442D01*
X14977611Y13127557D01*
X14974120Y13110001D01*
X14977611Y13092442D01*
X14987556Y13077557D01*
X15002441Y13067612D01*
X15020000Y13064117D01*
X15037558Y13067612D01*
X15052443Y13077557D01*
X15062389Y13092442D01*
X15065521Y13108185D01*
X15065797Y13108563D01*
X15066277Y13109126D01*
X15079510Y13122359D01*
X15116566D01*
X15124625Y13112543D01*
X15124120Y13110001D01*
X15127611Y13092442D01*
X15137556Y13077557D01*
X15152441Y13067612D01*
X15168185Y13064481D01*
X15168564Y13064203D01*
X15169127Y13063724D01*
X15179080Y13053769D01*
Y12901331D01*
X15170340Y12893671D01*
X15157007Y12895613D01*
X15152443Y12902443D01*
X15137558Y12912389D01*
X15120000Y12915881D01*
X15102441Y12912389D01*
X15087556Y12902443D01*
X15077611Y12887558D01*
X15074120Y12870000D01*
X15077611Y12852441D01*
X15087556Y12837556D01*
X15096481Y12831593D01*
X15099152Y12816302D01*
X14861098Y12578248D01*
X9201169D01*
X9198466Y12581419D01*
X9204330Y12594119D01*
X10250000D01*
X10267558Y12597611D01*
X10282443Y12607557D01*
X10352443Y12677557D01*
X10362389Y12692442D01*
X10365881Y12710000D01*
X10362389Y12727558D01*
X10352443Y12742443D01*
X10337558Y12752389D01*
X10320000Y12755882D01*
X10302442Y12752389D01*
X10287557Y12742443D01*
X10230995Y12685882D01*
X8202024D01*
X8184466Y12682389D01*
X8169581Y12672443D01*
X7056385Y11559248D01*
X7043746Y11560492D01*
X7042443Y11562443D01*
X7027558Y11572389D01*
X7010000Y11575882D01*
X6992442Y11572389D01*
X6977557Y11562443D01*
X6967611Y11547558D01*
X6964118Y11530000D01*
X6967611Y11512442D01*
X6977557Y11497557D01*
X6979508Y11496254D01*
X6980752Y11483615D01*
X6863019Y11365882D01*
X6486598D01*
X6479810Y11378582D01*
X6482389Y11382442D01*
X6485882Y11400000D01*
X6482389Y11417558D01*
X6472443Y11432443D01*
X6457558Y11442389D01*
X6440000Y11445882D01*
X6422442Y11442389D01*
X6407557Y11432443D01*
X6397611Y11417558D01*
X6394119Y11400000D01*
X6397611Y11382442D01*
X6400190Y11378582D01*
X6393402Y11365882D01*
X6240000D01*
X6222442Y11362389D01*
X6207557Y11352443D01*
X6197611Y11337558D01*
X6194118Y11320000D01*
X6197611Y11302442D01*
X6207557Y11287557D01*
X6222442Y11277611D01*
X6240000Y11274118D01*
X6882024D01*
X6899582Y11277611D01*
X6914467Y11287557D01*
X8221029Y12594119D01*
X9132297D01*
X9136150Y12581419D01*
X9130061Y12577350D01*
X9120116Y12562465D01*
X9116623Y12544907D01*
X9120116Y12527349D01*
X9124390Y12520951D01*
X9121745Y12503909D01*
X9119569Y12502455D01*
X9109623Y12487570D01*
X9106131Y12470012D01*
X9109623Y12452454D01*
X9119569Y12437569D01*
X9129349Y12431034D01*
X9129996Y12428514D01*
X9129064Y12416732D01*
X9117557Y12409043D01*
X9107611Y12394158D01*
X9104118Y12376600D01*
X9107611Y12359042D01*
X9117557Y12344157D01*
X9132442Y12334211D01*
X9150000Y12330719D01*
X9167558Y12334211D01*
X9181100Y12343260D01*
X9223254D01*
X9235788Y12330725D01*
X9246605Y12323498D01*
X9259363Y12320960D01*
X14887216D01*
X14892076Y12309226D01*
X14186189Y11603341D01*
X9181811D01*
X9181603Y11603362D01*
X9180904Y11603471D01*
X9167558Y11612389D01*
X9150000Y11615882D01*
X9132442Y11612389D01*
X9117557Y11602443D01*
X9107611Y11587558D01*
X9104118Y11570000D01*
X9107611Y11552442D01*
X9117202Y11538088D01*
X9107747Y11523937D01*
X9104254Y11506379D01*
X9107747Y11488821D01*
X9111284Y11483526D01*
X9117557Y11472443D01*
X9107611Y11457558D01*
X9104118Y11440000D01*
X9107611Y11422442D01*
X9117557Y11407557D01*
X9132442Y11397611D01*
X9150000Y11394118D01*
X9167558Y11397611D01*
X9182443Y11407557D01*
X9192389Y11422442D01*
X9195882Y11440000D01*
X9192389Y11457558D01*
X9190531Y11460338D01*
X9197320Y11473038D01*
X9394670D01*
X9401458Y11460338D01*
X9396077Y11452284D01*
X9392584Y11434726D01*
X9396077Y11417168D01*
X9406023Y11402283D01*
X9420908Y11392337D01*
X9438466Y11388845D01*
X9456024Y11392337D01*
X9463411Y11397273D01*
X9476111Y11390484D01*
Y11387001D01*
X9478649Y11374242D01*
X9485876Y11363426D01*
X9487173Y11362130D01*
Y11254323D01*
X8553092Y10320242D01*
X8540392Y10325503D01*
X8540392Y12217317D01*
X8538840Y12225121D01*
X8534419Y12231736D01*
X8527804Y12236157D01*
X8520000Y12237709D01*
X8439281Y12237709D01*
X8431477Y12236157D01*
X8424861Y12231737D01*
X8420441Y12225121D01*
X8418889Y12217317D01*
X8418889Y10310000D01*
X8420441Y10302196D01*
X8424861Y10295580D01*
X8431477Y10291160D01*
X8439281Y10289608D01*
X8504497Y10289608D01*
X8509757Y10276908D01*
X8383490Y10150641D01*
X8220391D01*
X8220393Y11300000D01*
X8218841Y11307804D01*
X8214420Y11314419D01*
X8207805Y11318840D01*
X8200001Y11320392D01*
X8140000D01*
X8132196Y11318840D01*
X8125581Y11314419D01*
X8121160Y11307804D01*
X8119608Y11300000D01*
Y10150641D01*
X6666510D01*
X6063340Y10753810D01*
Y10860000D01*
X6060803Y10872759D01*
X6059300Y10875008D01*
X6057657Y10886893D01*
X6063077Y10891298D01*
X6072443Y10897557D01*
X6082389Y10912442D01*
X6085882Y10930000D01*
X6082389Y10947558D01*
X6072443Y10962443D01*
X6057558Y10972389D01*
X6041584Y10975566D01*
X5993341Y11023810D01*
Y11826190D01*
X7883810Y13716660D01*
X13736469D01*
X13749228Y13719197D01*
X13760043Y13726425D01*
X13906181Y13872562D01*
X13921356Y13866277D01*
X13946469Y13862970D01*
X13971582Y13866277D01*
X13994984Y13875970D01*
X14015080Y13891389D01*
X14030499Y13911485D01*
X14040193Y13934888D01*
X14043500Y13960001D01*
X14040193Y13985114D01*
X14030499Y14008514D01*
X14015080Y14028612D01*
X13994984Y14044031D01*
X13971582Y14053725D01*
X13946469Y14057030D01*
D02*
G37*
G36*
X13438234D02*
X13413121Y14053725D01*
X13389719Y14044031D01*
X13369624Y14028612D01*
X13354204Y14008514D01*
X13344511Y13985114D01*
X13341203Y13960001D01*
X13344511Y13934888D01*
X13354204Y13911485D01*
X13369624Y13891389D01*
X13389719Y13875970D01*
X13413121Y13866277D01*
X13438234Y13862970D01*
X13463348Y13866277D01*
X13486749Y13875970D01*
X13506845Y13891389D01*
X13522266Y13911485D01*
X13531958Y13934888D01*
X13535265Y13960001D01*
X13531958Y13985114D01*
X13522266Y14008514D01*
X13506845Y14028612D01*
X13486749Y14044031D01*
X13463348Y14053725D01*
X13438234Y14057030D01*
D02*
G37*
G36*
X17249995Y14057030D02*
X17224881Y14053725D01*
X17201480Y14044031D01*
X17181384Y14028610D01*
X17165964Y14008514D01*
X17156271Y13985114D01*
X17152965Y13960001D01*
X17156271Y13934888D01*
X17165964Y13911485D01*
X17181384Y13891389D01*
X17201480Y13875969D01*
X17224881Y13866277D01*
X17249995Y13862970D01*
X17275108Y13866277D01*
X17298511Y13875969D01*
X17318605Y13891389D01*
X17334026Y13911485D01*
X17343718Y13934888D01*
X17347025Y13960001D01*
X17343718Y13985114D01*
X17334026Y14008514D01*
X17318605Y14028610D01*
X17298511Y14044031D01*
X17275108Y14053725D01*
X17249995Y14057030D01*
D02*
G37*
G36*
X17295953Y13395370D02*
X17278397Y13391878D01*
X17265955Y13383565D01*
X17253513Y13391878D01*
X17235954Y13395370D01*
X17218396Y13391878D01*
X17205954Y13383565D01*
X17193512Y13391878D01*
X17175954Y13395370D01*
X17158395Y13391878D01*
X17145953Y13383565D01*
X17133511Y13391878D01*
X17115955Y13395370D01*
X17098396Y13391878D01*
X17083511Y13381932D01*
X17073566Y13367047D01*
X17070073Y13349489D01*
X17073566Y13331931D01*
X17083511Y13317046D01*
X17098396Y13307100D01*
X17101465Y13306490D01*
X17100073Y13299489D01*
X17101465Y13292490D01*
X17098396Y13291878D01*
X17083511Y13281932D01*
X17073566Y13267047D01*
X17070073Y13249489D01*
X17073566Y13231931D01*
X17083511Y13217046D01*
X17098396Y13207100D01*
X17111086Y13204576D01*
X17110072Y13199489D01*
X17113274Y13183397D01*
X17103310Y13181415D01*
X17088425Y13171469D01*
X17078477Y13156584D01*
X17074986Y13139026D01*
X17078477Y13121468D01*
X17084438Y13112550D01*
X17083511Y13111932D01*
X17073566Y13097047D01*
X17070073Y13079489D01*
X17073566Y13061931D01*
X17083511Y13047046D01*
X17098396Y13037100D01*
X17101465Y13036490D01*
X17100073Y13029489D01*
X17101465Y13022488D01*
X17098396Y13021878D01*
X17083511Y13011932D01*
X17073566Y12997047D01*
X17070073Y12979489D01*
X17073566Y12961931D01*
X17083511Y12947046D01*
X17098396Y12937100D01*
X17111086Y12934576D01*
X17110072Y12929489D01*
X17113274Y12913397D01*
X17103310Y12911415D01*
X17093758Y12905032D01*
X17083511Y12911877D01*
X17065955Y12915370D01*
X17048396Y12911877D01*
X17035954Y12903564D01*
X17023512Y12911877D01*
X17005954Y12915370D01*
X16988396Y12911877D01*
X16975954Y12903564D01*
X16963512Y12911877D01*
X16945953Y12915370D01*
X16928397Y12911877D01*
X16915955Y12903564D01*
X16903513Y12911877D01*
X16885954Y12915370D01*
X16868396Y12911877D01*
X16855954Y12903564D01*
X16843512Y12911877D01*
X16825954Y12915370D01*
X16808395Y12911877D01*
X16795953Y12903564D01*
X16783511Y12911877D01*
X16765955Y12915370D01*
X16748396Y12911877D01*
X16735954Y12903564D01*
X16723512Y12911877D01*
X16705954Y12915370D01*
X16688396Y12911877D01*
X16675954Y12903564D01*
X16663512Y12911877D01*
X16645953Y12915370D01*
X16628397Y12911877D01*
X16613512Y12901932D01*
X16603564Y12887047D01*
X16600072Y12869489D01*
X16603564Y12851932D01*
X16613512Y12837045D01*
X16628397Y12827100D01*
X16631465Y12826489D01*
X16630074Y12819489D01*
X16631465Y12812488D01*
X16628397Y12811877D01*
X16613512Y12801932D01*
X16603564Y12787047D01*
X16600072Y12769489D01*
X16603564Y12751931D01*
X16613512Y12737046D01*
X16628397Y12727100D01*
X16641084Y12724576D01*
X16640073Y12719489D01*
X16643274Y12703397D01*
X16633308Y12701415D01*
X16618423Y12691469D01*
X16608478Y12676584D01*
X16604987Y12659026D01*
X16608478Y12641468D01*
X16618423Y12626583D01*
X16633308Y12616637D01*
X16650867Y12613145D01*
X16668425Y12616637D01*
X16680867Y12624951D01*
X16693309Y12616637D01*
X16710867Y12613145D01*
X16728426Y12616637D01*
X16740868Y12624951D01*
X16753310Y12616637D01*
X16770866Y12613145D01*
X16788425Y12616637D01*
X16800867Y12624951D01*
X16813309Y12616637D01*
X16830867Y12613145D01*
X16848425Y12616637D01*
X16860867Y12624951D01*
X16873309Y12616637D01*
X16890868Y12613145D01*
X16908424Y12616637D01*
X16920866Y12624951D01*
X16933308Y12616637D01*
X16950867Y12613145D01*
X16968425Y12616637D01*
X16980867Y12624951D01*
X16993309Y12616637D01*
X17010867Y12613145D01*
X17028426Y12616637D01*
X17040868Y12624951D01*
X17053310Y12616637D01*
X17070866Y12613145D01*
X17088425Y12616637D01*
X17100867Y12624951D01*
X17113309Y12616637D01*
X17130867Y12613145D01*
X17148425Y12616637D01*
X17160867Y12624951D01*
X17173309Y12616637D01*
X17190868Y12613145D01*
X17208424Y12616637D01*
X17220866Y12624951D01*
X17233308Y12616637D01*
X17250867Y12613145D01*
X17268425Y12616637D01*
X17280867Y12624951D01*
X17293309Y12616637D01*
X17310867Y12613145D01*
X17328426Y12616637D01*
X17343311Y12626583D01*
X17353256Y12641468D01*
X17356749Y12659026D01*
X17353548Y12675118D01*
X17363512Y12677100D01*
X17378397Y12687046D01*
X17388342Y12701931D01*
X17391837Y12719489D01*
X17388342Y12737047D01*
X17378397Y12751932D01*
X17363512Y12761878D01*
X17350824Y12764402D01*
X17351836Y12769489D01*
X17350443Y12776489D01*
X17353513Y12777100D01*
X17368398Y12787046D01*
X17378343Y12801932D01*
X17381836Y12819489D01*
X17378343Y12837047D01*
X17368398Y12851932D01*
X17353513Y12861877D01*
X17345638Y12863445D01*
X17346748Y12869026D01*
X17343549Y12885118D01*
X17353513Y12887100D01*
X17368398Y12897046D01*
X17378343Y12911931D01*
X17381836Y12929489D01*
X17378343Y12947047D01*
X17368398Y12961932D01*
X17353513Y12971878D01*
X17340823Y12974402D01*
X17341837Y12979489D01*
X17340443Y12986488D01*
X17343512Y12987100D01*
X17358397Y12997046D01*
X17368343Y13011931D01*
X17371835Y13029489D01*
X17368343Y13047047D01*
X17358397Y13061932D01*
X17343512Y13071878D01*
X17340443Y13072488D01*
X17341837Y13079489D01*
X17338342Y13097047D01*
X17332384Y13105965D01*
X17333310Y13106583D01*
X17343256Y13121468D01*
X17346748Y13139026D01*
X17343549Y13155118D01*
X17353513Y13157100D01*
X17368398Y13167046D01*
X17378343Y13181931D01*
X17381836Y13199489D01*
X17378343Y13217047D01*
X17368398Y13231932D01*
X17353513Y13241878D01*
X17340823Y13244402D01*
X17341837Y13249489D01*
X17340443Y13256490D01*
X17343512Y13257100D01*
X17358397Y13267046D01*
X17368343Y13281931D01*
X17371835Y13299489D01*
X17368343Y13317047D01*
X17358397Y13331932D01*
X17343512Y13341878D01*
X17340443Y13342488D01*
X17341837Y13349489D01*
X17338342Y13367047D01*
X17328397Y13381932D01*
X17313512Y13391878D01*
X17295953Y13395370D01*
D02*
G37*
G36*
X14870000Y13155881D02*
X14852441Y13152390D01*
X14837556Y13142442D01*
X14827611Y13127557D01*
X14824120Y13110001D01*
X14827611Y13092442D01*
X14837556Y13077557D01*
X14852441Y13067612D01*
X14870000Y13064117D01*
X14887558Y13067612D01*
X14902443Y13077557D01*
X14912389Y13092442D01*
X14915881Y13110001D01*
X14912389Y13127557D01*
X14902443Y13142442D01*
X14887558Y13152390D01*
X14870000Y13155881D01*
D02*
G37*
G36*
X13315012Y12943423D02*
X13296478Y12939737D01*
X13280769Y12929240D01*
X13270271Y12913528D01*
X13266585Y12894997D01*
X13270271Y12876465D01*
X13280769Y12860754D01*
X13296478Y12850258D01*
X13315012Y12846571D01*
X13333543Y12850258D01*
X13349252Y12860754D01*
X13359750Y12876465D01*
X13363437Y12894997D01*
X13359750Y12913528D01*
X13349252Y12929240D01*
X13333543Y12939737D01*
X13315012Y12943423D01*
D02*
G37*
G36*
X11924997Y12943422D02*
X11906465Y12939735D01*
X11890754Y12929239D01*
X11880257Y12913528D01*
X11876571Y12894997D01*
X11880257Y12876465D01*
X11890754Y12860754D01*
X11906465Y12850256D01*
X11924997Y12846571D01*
X11943529Y12850256D01*
X11959239Y12860754D01*
X11969736Y12876465D01*
X11973423Y12894997D01*
X11969736Y12913528D01*
X11959239Y12929239D01*
X11943529Y12939735D01*
X11924997Y12943422D01*
D02*
G37*
G36*
X14075005Y12943422D02*
X14056473Y12939735D01*
X14040762Y12929239D01*
X14030264Y12913528D01*
X14026579Y12894997D01*
X14030264Y12876463D01*
X14040762Y12860754D01*
X14056473Y12850256D01*
X14075005Y12846570D01*
X14093536Y12850256D01*
X14109247Y12860754D01*
X14119743Y12876463D01*
X14123430Y12894997D01*
X14119743Y12913528D01*
X14109247Y12929239D01*
X14093536Y12939735D01*
X14075005Y12943422D01*
D02*
G37*
G36*
X17569994Y13101094D02*
X17536060Y13096626D01*
X17504436Y13083528D01*
X17477281Y13062691D01*
X17456444Y13035536D01*
X17443346Y13003912D01*
X17438878Y12969978D01*
X17443346Y12936041D01*
X17456444Y12904419D01*
X17477281Y12877264D01*
X17504436Y12856427D01*
X17536060Y12843329D01*
X17569994Y12838861D01*
X17603931Y12843329D01*
X17635551Y12856427D01*
X17662708Y12877264D01*
X17683545Y12904419D01*
X17696643Y12936041D01*
X17701111Y12969978D01*
X17696643Y13003912D01*
X17683545Y13035536D01*
X17662708Y13062691D01*
X17635551Y13083528D01*
X17603931Y13096626D01*
X17569994Y13101094D01*
D02*
G37*
G36*
X11570005D02*
X11536070Y13096626D01*
X11504447Y13083528D01*
X11477292Y13062691D01*
X11456455Y13035536D01*
X11443357Y13003912D01*
X11438889Y12969978D01*
X11443357Y12936041D01*
X11456455Y12904419D01*
X11477292Y12877264D01*
X11504447Y12856427D01*
X11536070Y12843329D01*
X11570005Y12838861D01*
X11603941Y12843329D01*
X11635563Y12856427D01*
X11662719Y12877264D01*
X11683555Y12904419D01*
X11696654Y12936041D01*
X11701122Y12969978D01*
X11696654Y13003912D01*
X11683555Y13035536D01*
X11662719Y13062691D01*
X11635563Y13083528D01*
X11603941Y13096626D01*
X11570005Y13101094D01*
D02*
G37*
G36*
X14970000Y12915881D02*
X14952441Y12912389D01*
X14937556Y12902443D01*
X14927611Y12887558D01*
X14924118Y12870000D01*
X14927611Y12852441D01*
X14937556Y12837556D01*
X14952441Y12827611D01*
X14970000Y12824118D01*
X14987558Y12827611D01*
X15002443Y12837556D01*
X15012389Y12852441D01*
X15015881Y12870000D01*
X15012389Y12887558D01*
X15002443Y12902443D01*
X14987558Y12912389D01*
X14970000Y12915881D01*
D02*
G37*
G36*
X14820000D02*
X14802441Y12912389D01*
X14787556Y12902443D01*
X14777611Y12887558D01*
X14774120Y12870000D01*
X14777611Y12852441D01*
X14787556Y12837556D01*
X14802441Y12827611D01*
X14820000Y12824118D01*
X14837558Y12827611D01*
X14852443Y12837556D01*
X14862389Y12852441D01*
X14865881Y12870000D01*
X14862389Y12887558D01*
X14852443Y12902443D01*
X14837558Y12912389D01*
X14820000Y12915881D01*
D02*
G37*
G36*
X14522314Y12913567D02*
X14504758Y12910075D01*
X14489871Y12900130D01*
X14479926Y12885243D01*
X14476433Y12867685D01*
X14479926Y12850127D01*
X14489871Y12835242D01*
X14504758Y12825296D01*
X14522314Y12821803D01*
X14539873Y12825296D01*
X14554758Y12835242D01*
X14564703Y12850127D01*
X14568196Y12867685D01*
X14564703Y12885243D01*
X14554758Y12900130D01*
X14539873Y12910075D01*
X14522314Y12913567D01*
D02*
G37*
G36*
X7385000Y12338382D02*
X7367442Y12334889D01*
X7352557Y12324943D01*
X7342611Y12310058D01*
X7339118Y12292500D01*
X7342611Y12274942D01*
X7352557Y12260057D01*
X7367442Y12250111D01*
X7385000Y12246619D01*
X7402558Y12250111D01*
X7417443Y12260057D01*
X7427389Y12274942D01*
X7430882Y12292500D01*
X7427389Y12310058D01*
X7417443Y12324943D01*
X7402558Y12334889D01*
X7385000Y12338382D01*
D02*
G37*
G36*
X16139999Y12285882D02*
X16122443Y12282389D01*
X16107558Y12272443D01*
X16097610Y12257558D01*
X16094118Y12240000D01*
X16097610Y12222442D01*
X16107558Y12207557D01*
X16122443Y12197611D01*
X16139999Y12194119D01*
X16157558Y12197611D01*
X16172443Y12207557D01*
X16182388Y12222442D01*
X16185881Y12240000D01*
X16182388Y12257558D01*
X16172443Y12272443D01*
X16157558Y12282389D01*
X16139999Y12285882D01*
D02*
G37*
G36*
X10010000Y12265881D02*
X9992442Y12262389D01*
X9977557Y12252443D01*
X9967611Y12237558D01*
X9964119Y12220000D01*
X9967611Y12202442D01*
X9977557Y12187557D01*
X9992442Y12177611D01*
X10010000Y12174118D01*
X10027558Y12177611D01*
X10042443Y12187557D01*
X10052389Y12202442D01*
X10055882Y12220000D01*
X10052389Y12237558D01*
X10042443Y12252443D01*
X10027558Y12262389D01*
X10010000Y12265881D01*
D02*
G37*
G36*
X9010000Y12055881D02*
X8992442Y12052389D01*
X8977557Y12042443D01*
X8967611Y12027558D01*
X8964118Y12010000D01*
X8967611Y11992442D01*
X8977557Y11977557D01*
X8992442Y11967611D01*
X9010000Y11964118D01*
X9027558Y11967611D01*
X9042443Y11977557D01*
X9052389Y11992442D01*
X9055882Y12010000D01*
X9052389Y12027558D01*
X9042443Y12042443D01*
X9027558Y12052389D01*
X9010000Y12055881D01*
D02*
G37*
G36*
X6470000Y12015882D02*
X6452442Y12012389D01*
X6437557Y12002443D01*
X6427611Y11987558D01*
X6424118Y11970000D01*
X6427611Y11952442D01*
X6437557Y11937557D01*
X6452442Y11927611D01*
X6470000Y11924119D01*
X6487558Y11927611D01*
X6502443Y11937557D01*
X6512389Y11952442D01*
X6515881Y11970000D01*
X6512389Y11987558D01*
X6502443Y12002443D01*
X6487558Y12012389D01*
X6470000Y12015882D01*
D02*
G37*
G36*
X7695700Y11835882D02*
X7678142Y11832389D01*
X7663257Y11822443D01*
X7653311Y11807558D01*
X7649818Y11790000D01*
X7653311Y11772442D01*
X7663257Y11757557D01*
X7678142Y11747611D01*
X7695700Y11744118D01*
X7713258Y11747611D01*
X7728143Y11757557D01*
X7738089Y11772442D01*
X7741581Y11790000D01*
X7738089Y11807558D01*
X7728143Y11822443D01*
X7713258Y11832389D01*
X7695700Y11835882D01*
D02*
G37*
G36*
X17725809Y11914500D02*
X17535809D01*
Y11724500D01*
X17725809D01*
Y11914500D01*
D02*
G37*
G36*
X17635954Y11675370D02*
X17618396Y11671878D01*
X17605954Y11663564D01*
X17593512Y11671878D01*
X17575954Y11675370D01*
X17558395Y11671878D01*
X17545953Y11663564D01*
X17533511Y11671878D01*
X17515955Y11675370D01*
X17498396Y11671878D01*
X17485954Y11663564D01*
X17473512Y11671878D01*
X17455954Y11675370D01*
X17438396Y11671878D01*
X17425954Y11663564D01*
X17413512Y11671878D01*
X17395953Y11675370D01*
X17378397Y11671878D01*
X17365955Y11663564D01*
X17353513Y11671878D01*
X17335954Y11675370D01*
X17318396Y11671878D01*
X17305954Y11663564D01*
X17293512Y11671878D01*
X17275954Y11675370D01*
X17258395Y11671878D01*
X17245953Y11663564D01*
X17233511Y11671878D01*
X17215955Y11675370D01*
X17198396Y11671878D01*
X17185954Y11663564D01*
X17173512Y11671878D01*
X17155954Y11675370D01*
X17138396Y11671878D01*
X17125954Y11663564D01*
X17113512Y11671878D01*
X17095953Y11675370D01*
X17078397Y11671878D01*
X17065955Y11663564D01*
X17053513Y11671878D01*
X17035954Y11675370D01*
X17018396Y11671878D01*
X17005954Y11663564D01*
X16993512Y11671878D01*
X16975954Y11675370D01*
X16958395Y11671878D01*
X16943510Y11661932D01*
X16933565Y11647047D01*
X16930074Y11629489D01*
X16933565Y11611931D01*
X16943510Y11597046D01*
X16958395Y11587100D01*
X16961465Y11586489D01*
X16960072Y11579489D01*
X16961465Y11572488D01*
X16958395Y11571878D01*
X16943510Y11561932D01*
X16933565Y11547047D01*
X16930074Y11529489D01*
X16933565Y11511931D01*
X16943510Y11497046D01*
X16958395Y11487100D01*
X16971085Y11484576D01*
X16970073Y11479489D01*
X16973274Y11463397D01*
X16963309Y11461415D01*
X16948424Y11451469D01*
X16938478Y11436584D01*
X16934985Y11419026D01*
X16938478Y11401468D01*
X16948424Y11386583D01*
X16963309Y11376637D01*
X16980867Y11373145D01*
X16998425Y11376637D01*
X17010867Y11384951D01*
X17023309Y11376637D01*
X17040868Y11373145D01*
X17058424Y11376637D01*
X17070866Y11384951D01*
X17083308Y11376637D01*
X17100867Y11373145D01*
X17118425Y11376637D01*
X17130867Y11384951D01*
X17143309Y11376637D01*
X17160867Y11373145D01*
X17178426Y11376637D01*
X17190868Y11384951D01*
X17203310Y11376637D01*
X17220866Y11373145D01*
X17238425Y11376637D01*
X17250867Y11384951D01*
X17263309Y11376637D01*
X17280867Y11373145D01*
X17298425Y11376637D01*
X17310867Y11384951D01*
X17323309Y11376637D01*
X17340868Y11373145D01*
X17358424Y11376637D01*
X17370866Y11384951D01*
X17383308Y11376637D01*
X17400867Y11373145D01*
X17418425Y11376637D01*
X17430867Y11384951D01*
X17443309Y11376637D01*
X17460867Y11373145D01*
X17478426Y11376637D01*
X17490868Y11384951D01*
X17503310Y11376637D01*
X17520866Y11373145D01*
X17538425Y11376637D01*
X17550867Y11384951D01*
X17563309Y11376637D01*
X17580867Y11373145D01*
X17598425Y11376637D01*
X17610867Y11384951D01*
X17623309Y11376637D01*
X17640868Y11373145D01*
X17658424Y11376637D01*
X17673309Y11386583D01*
X17683257Y11401468D01*
X17686749Y11419026D01*
X17683548Y11435118D01*
X17693512Y11437100D01*
X17708397Y11447046D01*
X17718343Y11461931D01*
X17721835Y11479489D01*
X17718343Y11497047D01*
X17708397Y11511932D01*
X17693512Y11521878D01*
X17680824Y11524402D01*
X17681836Y11529489D01*
X17680443Y11536489D01*
X17683511Y11537100D01*
X17698396Y11547046D01*
X17708344Y11561931D01*
X17711836Y11579489D01*
X17708344Y11597047D01*
X17698396Y11611932D01*
X17683511Y11621878D01*
X17680443Y11622488D01*
X17681836Y11629489D01*
X17678343Y11647047D01*
X17668398Y11661932D01*
X17653513Y11671878D01*
X17635954Y11675370D01*
D02*
G37*
G36*
X6360000Y11695882D02*
X6342442Y11692389D01*
X6327557Y11682443D01*
X6317611Y11667558D01*
X6314118Y11650000D01*
X6317611Y11632442D01*
X6327557Y11617557D01*
X6342442Y11607611D01*
X6360000Y11604119D01*
X6377558Y11607611D01*
X6392443Y11617557D01*
X6402389Y11632442D01*
X6405882Y11650000D01*
X6402389Y11667558D01*
X6392443Y11682443D01*
X6377558Y11692389D01*
X6360000Y11695882D01*
D02*
G37*
G36*
X15800000Y11655881D02*
X15782442Y11652389D01*
X15767557Y11642443D01*
X15757611Y11627558D01*
X15754118Y11610000D01*
X15757611Y11592442D01*
X15767557Y11577557D01*
X15782442Y11567611D01*
X15800000Y11564118D01*
X15817558Y11567611D01*
X15832443Y11577557D01*
X15842389Y11592442D01*
X15845882Y11610000D01*
X15842389Y11627558D01*
X15832443Y11642443D01*
X15817558Y11652389D01*
X15800000Y11655881D01*
D02*
G37*
G36*
Y11515881D02*
X15782442Y11512389D01*
X15767557Y11502443D01*
X15757611Y11487558D01*
X15754118Y11470000D01*
X15757611Y11452442D01*
X15767557Y11437557D01*
X15782442Y11427611D01*
X15800000Y11424118D01*
X15817558Y11427611D01*
X15832443Y11437557D01*
X15842389Y11452442D01*
X15845882Y11470000D01*
X15842389Y11487558D01*
X15832443Y11502443D01*
X15817558Y11512389D01*
X15800000Y11515881D01*
D02*
G37*
G36*
X8750000Y12480392D02*
X8140000D01*
X8132196Y12478839D01*
X8125581Y12474419D01*
X8121160Y12467803D01*
X8119608Y12460000D01*
Y11430000D01*
X8121160Y11422196D01*
X8125581Y11415581D01*
X8132196Y11411160D01*
X8140000Y11409608D01*
X8199999D01*
X8207803Y11411160D01*
X8214419Y11415581D01*
X8218839Y11422196D01*
X8220391Y11430000D01*
X8220392Y12379608D01*
X8750000D01*
X8757804Y12381160D01*
X8764419Y12385581D01*
X8768840Y12392196D01*
X8770392Y12400000D01*
Y12460000D01*
X8768840Y12467803D01*
X8764419Y12474419D01*
X8757804Y12478839D01*
X8750000Y12480392D01*
D02*
G37*
G36*
X15800000Y11235882D02*
X15782442Y11232389D01*
X15767557Y11222443D01*
X15757611Y11207558D01*
X15754118Y11190000D01*
X15757611Y11172442D01*
X15767557Y11157557D01*
X15782442Y11147611D01*
X15800000Y11144118D01*
X15817558Y11147611D01*
X15832443Y11157557D01*
X15842389Y11172442D01*
X15845882Y11190000D01*
X15842389Y11207558D01*
X15832443Y11222443D01*
X15817558Y11232389D01*
X15800000Y11235882D01*
D02*
G37*
G36*
X7250000Y11165882D02*
X7232442Y11162389D01*
X7217557Y11152443D01*
X7207611Y11137558D01*
X7204118Y11120000D01*
X7207611Y11102442D01*
X7217557Y11087557D01*
X7232442Y11077611D01*
X7250000Y11074119D01*
X7267558Y11077611D01*
X7282443Y11087557D01*
X7292389Y11102442D01*
X7295881Y11120000D01*
X7292389Y11137558D01*
X7282443Y11152443D01*
X7267558Y11162389D01*
X7250000Y11165882D01*
D02*
G37*
G36*
X9010000Y11105567D02*
X8992442Y11102075D01*
X8977557Y11092129D01*
X8967611Y11077244D01*
X8964118Y11059686D01*
X8967611Y11042128D01*
X8977557Y11027242D01*
X8992442Y11017296D01*
X9010000Y11013804D01*
X9027558Y11017296D01*
X9042443Y11027242D01*
X9052389Y11042128D01*
X9055882Y11059686D01*
X9052389Y11077244D01*
X9042443Y11092129D01*
X9027558Y11102075D01*
X9010000Y11105567D01*
D02*
G37*
G36*
X15800000Y11095882D02*
X15782442Y11092389D01*
X15767557Y11082443D01*
X15757611Y11067558D01*
X15754118Y11050000D01*
X15757611Y11032442D01*
X15767557Y11017557D01*
X15782442Y11007611D01*
X15800000Y11004118D01*
X15817558Y11007611D01*
X15832443Y11017557D01*
X15842389Y11032442D01*
X15845882Y11050000D01*
X15842389Y11067558D01*
X15832443Y11082443D01*
X15817558Y11092389D01*
X15800000Y11095882D01*
D02*
G37*
G36*
X16670511Y10921836D02*
X16652953Y10918343D01*
X16638068Y10908397D01*
X16628122Y10893512D01*
X16625598Y10880824D01*
X16620511Y10881835D01*
X16602953Y10878343D01*
X16588068Y10868397D01*
X16578122Y10853512D01*
X16574631Y10835954D01*
X16578122Y10818396D01*
X16586436Y10805954D01*
X16578122Y10793512D01*
X16574631Y10775954D01*
X16578122Y10758396D01*
X16586436Y10745954D01*
X16578122Y10733512D01*
X16574631Y10715954D01*
X16578122Y10698396D01*
X16586436Y10685954D01*
X16578122Y10673512D01*
X16574631Y10655954D01*
X16578122Y10638396D01*
X16586124Y10626421D01*
X16577454Y10613446D01*
X16573961Y10595888D01*
X16577454Y10578330D01*
X16585767Y10565888D01*
X16577454Y10553446D01*
X16573961Y10535888D01*
X16577454Y10518330D01*
X16585767Y10505888D01*
X16577454Y10493446D01*
X16573961Y10475888D01*
X16577454Y10458330D01*
X16585767Y10445888D01*
X16577454Y10433446D01*
X16573961Y10415888D01*
X16577454Y10398330D01*
X16585767Y10385888D01*
X16577454Y10373446D01*
X16573961Y10355888D01*
X16577454Y10338330D01*
X16585883Y10325716D01*
X16577148Y10312645D01*
X16573656Y10295087D01*
X16577148Y10277529D01*
X16585461Y10265087D01*
X16577148Y10252645D01*
X16573656Y10235087D01*
X16577148Y10217529D01*
X16585461Y10205087D01*
X16577148Y10192645D01*
X16573656Y10175087D01*
X16577148Y10157529D01*
X16587094Y10142644D01*
Y10137530D01*
X16577148Y10122645D01*
X16573656Y10105087D01*
X16577148Y10087529D01*
X16587094Y10072644D01*
X16601979Y10062698D01*
X16619537Y10059205D01*
X16637096Y10062698D01*
X16651981Y10072644D01*
X16661926Y10087529D01*
X16664452Y10100217D01*
X16669537Y10099205D01*
X16685629Y10102406D01*
X16687611Y10092442D01*
X16697557Y10077557D01*
X16712442Y10067611D01*
X16730000Y10064118D01*
X16747559Y10067611D01*
X16762444Y10077557D01*
X16772389Y10092442D01*
X16775882Y10110000D01*
X16772389Y10127558D01*
X16762444Y10142443D01*
Y10147557D01*
X16772389Y10162442D01*
X16775882Y10180000D01*
X16772389Y10197558D01*
X16764076Y10210000D01*
X16772389Y10222442D01*
X16775882Y10240000D01*
X16772389Y10257558D01*
X16764076Y10270000D01*
X16772389Y10282442D01*
X16775882Y10300000D01*
X16772389Y10317558D01*
X16763960Y10330172D01*
X16772694Y10343243D01*
X16776187Y10360801D01*
X16772694Y10378359D01*
X16764381Y10390801D01*
X16772694Y10403243D01*
X16776187Y10420801D01*
X16772694Y10438359D01*
X16764381Y10450801D01*
X16772694Y10463243D01*
X16776187Y10480801D01*
X16772694Y10498359D01*
X16764381Y10510801D01*
X16772694Y10523243D01*
X16776187Y10540801D01*
X16772694Y10558359D01*
X16764381Y10570801D01*
X16772694Y10583243D01*
X16776187Y10600801D01*
X16772694Y10618359D01*
X16764693Y10630334D01*
X16773363Y10643309D01*
X16776855Y10660867D01*
X16773363Y10678425D01*
X16765050Y10690867D01*
X16773363Y10703309D01*
X16776855Y10720867D01*
X16773363Y10738425D01*
X16765050Y10750867D01*
X16773363Y10763309D01*
X16776855Y10780867D01*
X16773363Y10798425D01*
X16765050Y10810867D01*
X16773363Y10823309D01*
X16776855Y10840867D01*
X16773363Y10858425D01*
X16763417Y10873310D01*
X16748532Y10883256D01*
X16730974Y10886749D01*
X16714882Y10883548D01*
X16712900Y10893512D01*
X16702954Y10908397D01*
X16688069Y10918343D01*
X16670511Y10921836D01*
D02*
G37*
G36*
X11060000Y10915882D02*
X11042442Y10912389D01*
X11027557Y10902443D01*
X11017611Y10887558D01*
X11014118Y10870000D01*
X11017611Y10852442D01*
X11027557Y10837557D01*
X11042442Y10827611D01*
X11060000Y10824119D01*
X11077558Y10827611D01*
X11092443Y10837557D01*
X11102389Y10852442D01*
X11105881Y10870000D01*
X11102389Y10887558D01*
X11092443Y10902443D01*
X11077558Y10912389D01*
X11060000Y10915882D01*
D02*
G37*
G36*
X9940000Y10735882D02*
X9922442Y10732389D01*
X9907557Y10722443D01*
X9897611Y10707558D01*
X9894118Y10690000D01*
X9897611Y10672442D01*
X9907557Y10657557D01*
X9922442Y10647611D01*
X9940000Y10644119D01*
X9957558Y10647611D01*
X9972443Y10657557D01*
X9982389Y10672442D01*
X9985881Y10690000D01*
X9982389Y10707558D01*
X9972443Y10722443D01*
X9957558Y10732389D01*
X9940000Y10735882D01*
D02*
G37*
G36*
X9415874Y10594451D02*
X9398316Y10590959D01*
X9383431Y10581013D01*
X9373485Y10566128D01*
X9369993Y10548570D01*
X9373485Y10531012D01*
X9383431Y10516127D01*
X9398316Y10506181D01*
X9415874Y10502688D01*
X9422291Y10503965D01*
X9434054Y10498000D01*
X9437546Y10480442D01*
X9447492Y10465557D01*
X9462377Y10455611D01*
X9479935Y10452118D01*
X9497493Y10455611D01*
X9512378Y10465557D01*
X9522324Y10480442D01*
X9525817Y10498000D01*
X9522324Y10515558D01*
X9512378Y10530443D01*
X9497493Y10540389D01*
X9479935Y10543881D01*
X9473519Y10542605D01*
X9461756Y10548570D01*
X9458264Y10566128D01*
X9448318Y10581013D01*
X9433432Y10590959D01*
X9415874Y10594451D01*
D02*
G37*
G36*
X7025947Y10532568D02*
X7008389Y10529075D01*
X6993504Y10519130D01*
X6983558Y10504244D01*
X6980065Y10486686D01*
X6983558Y10469128D01*
X6993504Y10454243D01*
X7008389Y10444297D01*
X7025947Y10440805D01*
X7043505Y10444297D01*
X7058390Y10454243D01*
X7068336Y10469128D01*
X7071828Y10486686D01*
X7068336Y10504244D01*
X7058390Y10519130D01*
X7043505Y10529075D01*
X7025947Y10532568D01*
D02*
G37*
G36*
X9880000Y10201582D02*
X9862442Y10198089D01*
X9847557Y10188143D01*
X9837611Y10173258D01*
X9834119Y10155700D01*
X9837611Y10138142D01*
X9847557Y10123257D01*
X9862442Y10113311D01*
X9880000Y10109818D01*
X9897558Y10113311D01*
X9912443Y10123257D01*
X9922389Y10138142D01*
X9925882Y10155700D01*
X9922389Y10173258D01*
X9912443Y10188143D01*
X9897558Y10198089D01*
X9880000Y10201582D01*
D02*
G37*
G36*
X9010000Y10155253D02*
X8992442Y10151760D01*
X8977557Y10141814D01*
X8967611Y10126929D01*
X8964118Y10109371D01*
X8967611Y10091813D01*
X8977557Y10076928D01*
X8992442Y10066982D01*
X9010000Y10063490D01*
X9027558Y10066982D01*
X9042443Y10076928D01*
X9052389Y10091813D01*
X9055882Y10109371D01*
X9052389Y10126929D01*
X9042443Y10141814D01*
X9027558Y10151760D01*
X9010000Y10155253D01*
D02*
G37*
G36*
X17725809Y10094782D02*
X17535809D01*
Y9904782D01*
X17725809D01*
Y10094782D01*
D02*
G37*
G36*
X9870000Y9945882D02*
X9852442Y9942389D01*
X9837557Y9932443D01*
X9827611Y9917558D01*
X9824119Y9900000D01*
X9827611Y9882442D01*
X9837557Y9867557D01*
X9852442Y9857611D01*
X9870000Y9854118D01*
X9887558Y9857611D01*
X9902443Y9867557D01*
X9912389Y9882442D01*
X9915882Y9900000D01*
X9912389Y9917558D01*
X9902443Y9932443D01*
X9887558Y9942389D01*
X9870000Y9945882D01*
D02*
G37*
G36*
X9867203Y9817314D02*
X9849645Y9813822D01*
X9834760Y9803876D01*
X9824814Y9788991D01*
X9821321Y9771433D01*
X9824814Y9753875D01*
X9834760Y9738990D01*
X9849645Y9729044D01*
X9867203Y9725551D01*
X9884761Y9729044D01*
X9899646Y9738990D01*
X9909592Y9753875D01*
X9913085Y9771433D01*
X9909592Y9788991D01*
X9899646Y9803876D01*
X9884761Y9813822D01*
X9867203Y9817314D01*
D02*
G37*
G36*
X8840000Y9775882D02*
X8822442Y9772389D01*
X8807557Y9762443D01*
X8797611Y9747558D01*
X8794119Y9730000D01*
X8797611Y9712442D01*
X8807557Y9697557D01*
X8822442Y9687611D01*
X8840000Y9684119D01*
X8857558Y9687611D01*
X8872443Y9697557D01*
X8882389Y9712442D01*
X8885882Y9730000D01*
X8882389Y9747558D01*
X8872443Y9762443D01*
X8857558Y9772389D01*
X8840000Y9775882D01*
D02*
G37*
G36*
X17155087Y9686344D02*
X17137529Y9682852D01*
X17125087Y9674538D01*
X17112645Y9682852D01*
X17095087Y9686344D01*
X17077528Y9682852D01*
X17065086Y9674538D01*
X17052644Y9682852D01*
X17035088Y9686344D01*
X17017529Y9682852D01*
X17009668Y9677599D01*
X17000087Y9673895D01*
X16990506Y9677599D01*
X16982645Y9682852D01*
X16965086Y9686344D01*
X16947530Y9682852D01*
X16932645Y9672906D01*
X16922697Y9658021D01*
X16919205Y9640463D01*
X16922697Y9622905D01*
X16932645Y9608019D01*
X16947530Y9598074D01*
X16960217Y9595550D01*
X16959206Y9590463D01*
X16962405Y9574371D01*
X16952441Y9572389D01*
X16937556Y9562443D01*
X16927611Y9547558D01*
X16924118Y9530000D01*
X16925235Y9524385D01*
X16917529Y9522852D01*
X16902644Y9512906D01*
X16892699Y9498021D01*
X16889204Y9480463D01*
X16892699Y9462905D01*
X16902644Y9448019D01*
X16917529Y9438074D01*
X16920598Y9437463D01*
X16919205Y9430463D01*
X16920598Y9423462D01*
X16917529Y9422852D01*
X16902644Y9412906D01*
X16892699Y9398021D01*
X16889204Y9380463D01*
X16892699Y9362905D01*
X16902644Y9348019D01*
X16917529Y9338074D01*
X16930217Y9335550D01*
X16929205Y9330463D01*
X16932407Y9314371D01*
X16922443Y9312389D01*
X16907558Y9302443D01*
X16897610Y9287558D01*
X16894118Y9270000D01*
X16897610Y9252442D01*
X16907558Y9237557D01*
X16922443Y9227611D01*
X16939999Y9224118D01*
X16957558Y9227611D01*
X16965419Y9232863D01*
X16975000Y9236568D01*
X16984581Y9232863D01*
X16992442Y9227611D01*
X17010001Y9224118D01*
X17027557Y9227611D01*
X17039999Y9235924D01*
X17052441Y9227611D01*
X17070000Y9224118D01*
X17087558Y9227611D01*
X17100000Y9235924D01*
X17112442Y9227611D01*
X17130000Y9224118D01*
X17147559Y9227611D01*
X17160172Y9236039D01*
X17173244Y9227306D01*
X17190800Y9223813D01*
X17208359Y9227306D01*
X17220801Y9235619D01*
X17233243Y9227306D01*
X17250801Y9223813D01*
X17268359Y9227306D01*
X17280801Y9235619D01*
X17293243Y9227306D01*
X17310802Y9223813D01*
X17328358Y9227306D01*
X17340800Y9235619D01*
X17353242Y9227306D01*
X17370801Y9223813D01*
X17388359Y9227306D01*
X17400801Y9235619D01*
X17413243Y9227306D01*
X17430801Y9223813D01*
X17448360Y9227306D01*
X17460333Y9235307D01*
X17473309Y9226637D01*
X17490868Y9223145D01*
X17508424Y9226637D01*
X17520866Y9234951D01*
X17533308Y9226637D01*
X17550867Y9223145D01*
X17568425Y9226637D01*
X17580867Y9234951D01*
X17593309Y9226637D01*
X17610867Y9223145D01*
X17628426Y9226637D01*
X17640868Y9234951D01*
X17653310Y9226637D01*
X17670866Y9223145D01*
X17688425Y9226637D01*
X17703310Y9236583D01*
X17713255Y9251468D01*
X17716750Y9269026D01*
X17713548Y9285118D01*
X17723512Y9287100D01*
X17738397Y9297046D01*
X17748343Y9311931D01*
X17751836Y9329489D01*
X17748343Y9347047D01*
X17738397Y9361932D01*
X17723512Y9371878D01*
X17710825Y9374402D01*
X17711836Y9379489D01*
X17710443Y9386489D01*
X17713512Y9387100D01*
X17728397Y9397046D01*
X17738342Y9411931D01*
X17741837Y9429489D01*
X17738342Y9447047D01*
X17728397Y9461932D01*
X17713512Y9471878D01*
X17710443Y9472488D01*
X17711836Y9479489D01*
X17710718Y9485104D01*
X17718425Y9486637D01*
X17733310Y9496583D01*
X17743256Y9511468D01*
X17746748Y9529026D01*
X17743549Y9545118D01*
X17753513Y9547100D01*
X17768398Y9557046D01*
X17778343Y9571931D01*
X17781836Y9589489D01*
X17778343Y9607047D01*
X17768398Y9621932D01*
X17753513Y9631878D01*
X17740823Y9634402D01*
X17741835Y9639489D01*
X17738342Y9657047D01*
X17728397Y9671932D01*
X17713512Y9681878D01*
X17695953Y9685370D01*
X17678397Y9681878D01*
X17665955Y9673564D01*
X17653513Y9681878D01*
X17635954Y9685370D01*
X17618396Y9681878D01*
X17605954Y9673564D01*
X17593512Y9681878D01*
X17575954Y9685370D01*
X17558395Y9681878D01*
X17545953Y9673564D01*
X17533511Y9681878D01*
X17515955Y9685370D01*
X17498396Y9681878D01*
X17486421Y9673877D01*
X17473447Y9682546D01*
X17455888Y9686039D01*
X17438330Y9682546D01*
X17425888Y9674233D01*
X17413446Y9682546D01*
X17395888Y9686039D01*
X17378329Y9682546D01*
X17365887Y9674233D01*
X17353445Y9682546D01*
X17335889Y9686039D01*
X17318330Y9682546D01*
X17305888Y9674233D01*
X17293446Y9682546D01*
X17275888Y9686039D01*
X17258330Y9682546D01*
X17245888Y9674233D01*
X17233446Y9682546D01*
X17215887Y9686039D01*
X17198331Y9682546D01*
X17185716Y9674118D01*
X17172646Y9682852D01*
X17155087Y9686344D01*
D02*
G37*
G36*
X9750000Y9695882D02*
X9732442Y9692389D01*
X9717557Y9682443D01*
X9707611Y9667558D01*
X9704119Y9650000D01*
X9707611Y9632442D01*
X9717557Y9617557D01*
X9732442Y9607611D01*
X9750000Y9604118D01*
X9767558Y9607611D01*
X9782443Y9617557D01*
X9792389Y9632442D01*
X9795882Y9650000D01*
X9792389Y9667558D01*
X9782443Y9682443D01*
X9767558Y9692389D01*
X9750000Y9695882D01*
D02*
G37*
G36*
X9800000Y9565882D02*
X9782442Y9562389D01*
X9767557Y9552443D01*
X9757611Y9537558D01*
X9754118Y9520000D01*
X9757611Y9502442D01*
X9767557Y9487557D01*
X9782442Y9477611D01*
X9800000Y9474118D01*
X9817558Y9477611D01*
X9832443Y9487557D01*
X9842389Y9502442D01*
X9845882Y9520000D01*
X9842389Y9537558D01*
X9832443Y9552443D01*
X9817558Y9562389D01*
X9800000Y9565882D01*
D02*
G37*
G36*
X15865019Y9343404D02*
X15846487Y9339718D01*
X15830777Y9329221D01*
X15820280Y9313510D01*
X15816592Y9294979D01*
X15820280Y9276447D01*
X15830777Y9260736D01*
X15846487Y9250239D01*
X15865019Y9246553D01*
X15883551Y9250239D01*
X15899261Y9260736D01*
X15909760Y9276447D01*
X15913445Y9294979D01*
X15909760Y9313510D01*
X15899261Y9329221D01*
X15883551Y9339718D01*
X15865019Y9343404D01*
D02*
G37*
G36*
X14475005D02*
X14456471Y9339718D01*
X14440762Y9329221D01*
X14430264Y9313510D01*
X14426578Y9294979D01*
X14430264Y9276447D01*
X14440762Y9260736D01*
X14456471Y9250239D01*
X14475005Y9246553D01*
X14493536Y9250239D01*
X14509245Y9260736D01*
X14519743Y9276447D01*
X14523430Y9294979D01*
X14519743Y9313510D01*
X14509245Y9329221D01*
X14493536Y9339718D01*
X14475005Y9343404D01*
D02*
G37*
G36*
X13315012D02*
X13296478Y9339718D01*
X13280769Y9329221D01*
X13270271Y9313510D01*
X13266585Y9294979D01*
X13270271Y9276447D01*
X13280769Y9260736D01*
X13296478Y9250239D01*
X13315012Y9246553D01*
X13333543Y9250239D01*
X13349252Y9260736D01*
X13359750Y9276447D01*
X13363437Y9294979D01*
X13359750Y9313510D01*
X13349252Y9329221D01*
X13333543Y9339718D01*
X13315012Y9343404D01*
D02*
G37*
G36*
X11924996Y9343404D02*
X11906465Y9339718D01*
X11890754Y9329221D01*
X11880257Y9313510D01*
X11876571Y9294978D01*
X11880257Y9276447D01*
X11890754Y9260736D01*
X11906465Y9250239D01*
X11924996Y9246552D01*
X11943528Y9250239D01*
X11959239Y9260736D01*
X11969736Y9276447D01*
X11973422Y9294978D01*
X11969736Y9313510D01*
X11959239Y9329221D01*
X11943528Y9339718D01*
X11924996Y9343404D01*
D02*
G37*
G36*
X8900000Y9185882D02*
X8882442Y9182389D01*
X8867557Y9172443D01*
X8857611Y9157558D01*
X8854118Y9140000D01*
X8857611Y9122442D01*
X8867557Y9107557D01*
X8882442Y9097611D01*
X8900000Y9094118D01*
X8917558Y9097611D01*
X8932443Y9107557D01*
X8942389Y9122442D01*
X8945882Y9140000D01*
X8942389Y9157558D01*
X8932443Y9172443D01*
X8917558Y9182389D01*
X8900000Y9185882D01*
D02*
G37*
G36*
X11570006Y9101102D02*
X11536070Y9096634D01*
X11504447Y9083536D01*
X11477292Y9062699D01*
X11456455Y9035544D01*
X11443357Y9003921D01*
X11438889Y8969986D01*
X11443357Y8936050D01*
X11456455Y8904427D01*
X11477292Y8877272D01*
X11504447Y8856435D01*
X11536070Y8843337D01*
X11570006Y8838869D01*
X11603941Y8843337D01*
X11635564Y8856435D01*
X11662719Y8877272D01*
X11683556Y8904427D01*
X11696654Y8936050D01*
X11701122Y8969986D01*
X11696654Y9003921D01*
X11683556Y9035544D01*
X11662719Y9062699D01*
X11635564Y9083536D01*
X11603941Y9096634D01*
X11570006Y9101102D01*
D02*
G37*
G36*
X17569994Y9101102D02*
X17536060Y9096634D01*
X17504436Y9083536D01*
X17477281Y9062699D01*
X17456444Y9035544D01*
X17443346Y9003921D01*
X17438878Y8969985D01*
X17443346Y8936050D01*
X17456444Y8904427D01*
X17477281Y8877272D01*
X17504436Y8856435D01*
X17536060Y8843337D01*
X17569994Y8838869D01*
X17603929Y8843337D01*
X17635551Y8856435D01*
X17662708Y8877272D01*
X17683543Y8904427D01*
X17696643Y8936050D01*
X17701109Y8969985D01*
X17696643Y9003921D01*
X17683543Y9035544D01*
X17662708Y9062699D01*
X17635551Y9083536D01*
X17603929Y9096634D01*
X17569994Y9101102D01*
D02*
G37*
%LPD*%
G36*
X15054814Y13126852D02*
X15052937Y13124908D01*
X15049780Y13121208D01*
X15048500Y13119453D01*
X15047420Y13117761D01*
X15046536Y13116133D01*
X15045854Y13114568D01*
X15045370Y13113065D01*
X15045085Y13111626D01*
X15045000Y13110249D01*
X15020250Y13134999D01*
X15021626Y13135085D01*
X15023065Y13135370D01*
X15024567Y13135854D01*
X15026134Y13136537D01*
X15027760Y13137419D01*
X15029453Y13138499D01*
X15031207Y13139780D01*
X15033028Y13141258D01*
X15036853Y13144814D01*
X15054814Y13126852D01*
D02*
G37*
G36*
X15195085Y13108374D02*
X15195370Y13106935D01*
X15195854Y13105434D01*
X15196536Y13103867D01*
X15197420Y13102238D01*
X15198500Y13100546D01*
X15199780Y13098792D01*
X15201259Y13096973D01*
X15204814Y13093147D01*
X15186853Y13075186D01*
X15184908Y13077063D01*
X15181207Y13080220D01*
X15179453Y13081500D01*
X15177760Y13082581D01*
X15176134Y13083463D01*
X15174567Y13084146D01*
X15173065Y13084630D01*
X15171626Y13084915D01*
X15170250Y13085001D01*
X15195000Y13109750D01*
X15195085Y13108374D01*
D02*
G37*
G36*
X15280884Y13109659D02*
X15279819Y13104300D01*
X15283311Y13086742D01*
X15293257Y13071857D01*
X15308142Y13061911D01*
X15324110Y13058736D01*
X15336658Y13046188D01*
Y12819180D01*
X15216522Y12699043D01*
X15203883Y12700288D01*
X15202443Y12702443D01*
X15187558Y12712389D01*
X15170000Y12715882D01*
X15152441Y12712389D01*
X15137556Y12702443D01*
X15127611Y12687558D01*
X15124120Y12670000D01*
X15127611Y12652442D01*
X15137556Y12637557D01*
X15139713Y12636117D01*
X15140958Y12623478D01*
X14905119Y12387641D01*
X10505496D01*
X10501644Y12400341D01*
X10512443Y12407557D01*
X10522389Y12422442D01*
X10525882Y12440000D01*
X10522389Y12457558D01*
X10512443Y12472443D01*
X10497558Y12482389D01*
X10480000Y12485882D01*
X10462442Y12482389D01*
X10447557Y12472443D01*
X10437611Y12457558D01*
X10434119Y12440000D01*
X10437611Y12422442D01*
X10447557Y12407557D01*
X10458357Y12400341D01*
X10454504Y12387641D01*
X9935496D01*
X9931644Y12400341D01*
X9942443Y12407557D01*
X9952389Y12422442D01*
X9955882Y12440000D01*
X9952389Y12457558D01*
X9942443Y12472443D01*
X9927558Y12482389D01*
X9910000Y12485882D01*
X9892442Y12482389D01*
X9877557Y12472443D01*
X9867611Y12457558D01*
X9864118Y12440000D01*
X9867611Y12422442D01*
X9877557Y12407557D01*
X9888356Y12400341D01*
X9884504Y12387641D01*
X9273173D01*
X9260639Y12400175D01*
X9249822Y12407403D01*
X9237064Y12409941D01*
X9181100D01*
X9172663Y12415578D01*
X9172016Y12418098D01*
X9172948Y12429880D01*
X9184455Y12437569D01*
X9194401Y12452454D01*
X9197894Y12470012D01*
X9194401Y12487570D01*
X9190126Y12493968D01*
X9192772Y12511010D01*
X9193409Y12511435D01*
X9193874Y12511508D01*
X9194608Y12511567D01*
X9389786D01*
X9393639Y12498867D01*
X9387974Y12495081D01*
X9378028Y12480196D01*
X9374535Y12462638D01*
X9378028Y12445080D01*
X9387974Y12430195D01*
X9402859Y12420249D01*
X9420417Y12416756D01*
X9437975Y12420249D01*
X9452860Y12430195D01*
X9462806Y12445080D01*
X9466299Y12462638D01*
X9462806Y12480196D01*
X9452860Y12495081D01*
X9447195Y12498867D01*
X9451048Y12511567D01*
X14874907D01*
X14887666Y12514105D01*
X14898482Y12521332D01*
X15220860Y12843710D01*
X15233499Y12842465D01*
X15235211Y12839903D01*
X15250096Y12829958D01*
X15267654Y12826465D01*
X15285213Y12829958D01*
X15300098Y12839903D01*
X15310043Y12854788D01*
X15313536Y12872346D01*
X15310043Y12889903D01*
X15300098Y12904790D01*
X15285213Y12914735D01*
X15267654Y12918228D01*
X15258463Y12916399D01*
X15245761Y12925951D01*
Y13067580D01*
X15243224Y13080338D01*
X15235995Y13091154D01*
X15217491Y13109659D01*
X15218562Y13116425D01*
X15223433Y13122359D01*
X15270461D01*
X15280884Y13109659D01*
D02*
G37*
G36*
X9181392Y12561495D02*
X9182611Y12560679D01*
X9184015Y12559959D01*
X9185605Y12559335D01*
X9187381Y12558807D01*
X9189342Y12558375D01*
X9191488Y12558039D01*
X9193819Y12557799D01*
X9199038Y12557607D01*
Y12532207D01*
X9196336Y12532159D01*
X9191488Y12531775D01*
X9189342Y12531439D01*
X9187381Y12531007D01*
X9185605Y12530479D01*
X9184015Y12529855D01*
X9182611Y12529135D01*
X9181392Y12528319D01*
X9180358Y12527407D01*
Y12562407D01*
X9181392Y12561495D01*
D02*
G37*
G36*
X15252147Y12412500D02*
X15251112Y12413412D01*
X15249895Y12414228D01*
X15248489Y12414948D01*
X15246899Y12415572D01*
X15245123Y12416100D01*
X15243163Y12416532D01*
X15241017Y12416868D01*
X15238686Y12417108D01*
X15233466Y12417300D01*
Y12442700D01*
X15236169Y12442748D01*
X15241017Y12443132D01*
X15243163Y12443468D01*
X15245123Y12443900D01*
X15246899Y12444428D01*
X15248489Y12445052D01*
X15249895Y12445772D01*
X15251112Y12446588D01*
X15252147Y12447500D01*
Y12412500D01*
D02*
G37*
G36*
X5926659Y11792978D02*
Y11563756D01*
X5916842Y11555700D01*
X5912513Y11556561D01*
X5894955Y11553068D01*
X5880748Y11543576D01*
X5867558Y11552389D01*
X5850000Y11555882D01*
X5836041Y11553105D01*
X5823341Y11560419D01*
Y11706253D01*
X5914926Y11797838D01*
X5926659Y11792978D01*
D02*
G37*
G36*
X9168887Y11586588D02*
X9170106Y11585772D01*
X9171511Y11585052D01*
X9173101Y11584428D01*
X9174876Y11583900D01*
X9176837Y11583468D01*
X9178983Y11583132D01*
X9181314Y11582892D01*
X9186534Y11582700D01*
Y11557300D01*
X9183832Y11557252D01*
X9178983Y11556868D01*
X9176837Y11556532D01*
X9174876Y11556100D01*
X9173101Y11555572D01*
X9171511Y11554948D01*
X9170106Y11554228D01*
X9168887Y11553412D01*
X9167854Y11552500D01*
Y11587500D01*
X9168887Y11586588D01*
D02*
G37*
G36*
X9169023Y11522967D02*
X9170242Y11522151D01*
X9171646Y11521431D01*
X9173236Y11520807D01*
X9175012Y11520279D01*
X9176973Y11519847D01*
X9179119Y11519511D01*
X9181450Y11519271D01*
X9186669Y11519079D01*
Y11493679D01*
X9183967Y11493631D01*
X9179119Y11493247D01*
X9176973Y11492911D01*
X9175012Y11492479D01*
X9173236Y11491951D01*
X9171646Y11491327D01*
X9170242Y11490607D01*
X9169023Y11489791D01*
X9167989Y11488879D01*
Y11523879D01*
X9169023Y11522967D01*
D02*
G37*
G36*
X5757557Y11477557D02*
X5772442Y11467611D01*
X5790000Y11464119D01*
X5803959Y11466895D01*
X5816659Y11459581D01*
Y11293810D01*
X5766425Y11243575D01*
X5759198Y11232759D01*
X5756660Y11220000D01*
Y11100000D01*
X5759198Y11087241D01*
X5759801Y11086337D01*
X5750185Y11077870D01*
X5743341Y11083824D01*
Y11475974D01*
X5756041Y11479826D01*
X5757557Y11477557D01*
D02*
G37*
G36*
X5912513Y11464797D02*
X5916842Y11465659D01*
X5926659Y11457602D01*
Y11027085D01*
X5914926Y11022225D01*
X5823341Y11113810D01*
Y11206190D01*
X5873576Y11256425D01*
X5880803Y11267241D01*
X5883341Y11280000D01*
Y11462580D01*
X5892911Y11467696D01*
X5896041Y11468074D01*
X5912513Y11464797D01*
D02*
G37*
D59*
X6030000Y10740000D02*
X6652700Y10117300D01*
X5790000Y11100000D02*
Y11220000D01*
Y11100000D02*
X6030000Y10860000D01*
X6652700Y10117300D02*
X8397300D01*
X6030000Y10740000D02*
Y10860000D01*
X5710000Y11070000D02*
X5850000Y10930000D01*
X5710000Y11070000D02*
Y11690126D01*
X9509451Y11387001D02*
X9520513Y11375940D01*
X9509451Y11387001D02*
Y11451740D01*
X9520513Y11240513D02*
Y11375940D01*
X9150136Y11506379D02*
X14256380D01*
X15180000Y12430000D01*
X8397300Y10117300D02*
X9520513Y11240513D01*
X5790000Y11220000D02*
X5850000Y11280000D01*
Y11510000D01*
X5960000Y11010000D02*
X6040000Y10930000D01*
X5960000Y11010000D02*
Y11840000D01*
X5790000Y11720063D02*
X7855337Y13785400D01*
X5790000Y11510000D02*
Y11720063D01*
X5710000Y11690126D02*
X7840674Y13820799D01*
X14874907Y12544907D02*
X15212421Y12882420D01*
X9162505Y12544907D02*
X14874907D01*
X13517751Y13785400D02*
X13692352Y13960001D01*
X7840674Y13820799D02*
X13044917D01*
X7870000Y13750000D02*
X13736469D01*
X5960000Y11840000D02*
X7870000Y13750000D01*
X13736469D02*
X13946469Y13960001D01*
X13044917Y13820799D02*
X13184117Y13960001D01*
X7855337Y13785400D02*
X13517751D01*
X14918930Y12354300D02*
X15370000Y12805370D01*
X9259363Y12354300D02*
X14918930D01*
X9237064Y12376600D02*
X9259363Y12354300D01*
X15370000Y12805370D02*
Y13059998D01*
X15325700Y13104297D02*
Y13104300D01*
Y13104297D02*
X15370000Y13059998D01*
X15065700Y13155701D02*
X15338930D01*
X15020000Y13110001D02*
X15065700Y13155701D01*
X15338930D02*
X15405399Y13089230D01*
Y12775399D02*
Y13089230D01*
X15180000Y12430000D02*
X15270000D01*
X9150000Y11570000D02*
X14200000D01*
X15405399Y12775399D01*
X15212421Y12882420D02*
Y13067580D01*
X15170000Y13110001D02*
X15212421Y13067580D01*
X9150000Y12376600D02*
X9237064D01*
D61*
X4432784Y9510000D02*
X5450000D01*
X6700000Y9920000D02*
X8500000D01*
X8970000Y10390000D01*
X10130000D01*
X5510000Y11110000D02*
X6700000Y9920000D01*
X5510000Y11110000D02*
Y11200000D01*
X9450000Y8808000D02*
X10758000D01*
X11590000Y9640000D01*
X10250000Y12640000D02*
X10320000Y12710000D01*
X6882024Y11320000D02*
X8202024Y12640000D01*
X10250000D01*
X6240000Y11320000D02*
X6882024D01*
X10130000Y10390000D02*
X10170000Y10430000D01*
X13589999Y10430000D02*
X16100000Y12939999D01*
X10280000Y10430000D02*
X13589999D01*
X10160000Y10320000D02*
X10170000D01*
X9940000D02*
X10160000D01*
X10330000Y10150000D02*
X11210000D01*
X10160000Y10320000D02*
X10330000Y10150000D01*
X10170000Y10320000D02*
X10280000Y10430000D01*
X9150000Y8740000D02*
X10780000D01*
X11680000Y9640000D01*
Y9790000D01*
X11590000Y9640000D02*
Y9770001D01*
X4557594Y9639189D02*
X5544660D01*
X5574905Y9669434D01*
X11210000Y10150000D02*
X11590000Y9770001D01*
X9140000Y8750000D02*
X9150000Y8740000D01*
X15439999Y8640000D02*
X16239999Y9440000D01*
X6870000Y8640000D02*
X15439999D01*
X5314810Y9385190D02*
X5685763Y9014237D01*
X5814237D02*
X5885763D01*
X6330000Y8570000D01*
X5685763Y9014237D02*
X5814237D01*
X5570000Y9940000D02*
X6870000Y8640000D01*
X6330000Y8570000D02*
X15489999D01*
X16330000Y9410000D01*
X11250000Y10220000D02*
X11680000Y9790000D01*
X10640000Y10220000D02*
X11250000D01*
X4430594Y9512190D02*
X4432784Y9510000D01*
X4557594Y9385190D02*
X5314810D01*
X5570000Y9940000D02*
Y10307500D01*
X16239999Y9440000D02*
Y10770000D01*
X16100000Y10910000D02*
X16239999Y10770000D01*
X15800000Y10910000D02*
X16100000D01*
X15800000Y11330000D02*
X16049220D01*
X16330000Y11049221D01*
Y9410000D02*
Y11049221D01*
D65*
X10323917Y14070567D02*
D03*
D66*
X10450918D02*
D03*
X10577917D02*
D03*
X10704917D02*
D03*
D67*
X12930000Y14170000D02*
D03*
X17249995Y14170000D02*
D03*
X16995877Y14170000D02*
D03*
X16741760D02*
D03*
X16487643D02*
D03*
X16233525D02*
D03*
X15979408D02*
D03*
X15725291D02*
D03*
X15471173D02*
D03*
X15217056D02*
D03*
X14962939D02*
D03*
X14708821D02*
D03*
X14454704D02*
D03*
X14200587D02*
D03*
X13946469D02*
D03*
X13692352D02*
D03*
X13438234D02*
D03*
X13184117D02*
D03*
Y13960001D02*
D03*
X13438234D02*
D03*
X13692352D02*
D03*
X13946469D02*
D03*
X14200587D02*
D03*
X14454704D02*
D03*
X14708821D02*
D03*
X14962939D02*
D03*
X15217056D02*
D03*
X15471173D02*
D03*
X15725291D02*
D03*
X15979408D02*
D03*
X16233525D02*
D03*
X16487643D02*
D03*
X16741760D02*
D03*
X16995877D02*
D03*
X17249995Y13960001D02*
D03*
X12930000Y13960001D02*
D03*
D68*
X17630809Y11819500D02*
D03*
Y10977555D02*
D03*
Y10559001D02*
D03*
Y9999782D02*
D03*
D69*
X17569994Y12969978D02*
D03*
X17569994Y8969985D02*
D03*
X11570006Y8969986D02*
D03*
X11570005Y12969978D02*
D03*
D70*
X11924996Y9294978D02*
D03*
X13315012Y9294979D02*
D03*
X14475005D02*
D03*
X15865019D02*
D03*
X11924997Y12894997D02*
D03*
X13315012Y12894997D02*
D03*
X14075005Y12894997D02*
D03*
X15464993Y12894997D02*
D03*
D71*
X4557594Y9639189D02*
D03*
D72*
X4557594Y9385190D02*
D03*
X4684594Y9512190D02*
D03*
X4430594D02*
D03*
D73*
X1968100Y11240000D02*
D03*
Y10986000D02*
D03*
X2222100Y11494000D02*
D03*
X1460100D02*
D03*
Y10732000D02*
D03*
X2222100D02*
D03*
D74*
X9280000Y11085000D02*
D03*
Y11195000D02*
D03*
X6701013Y10001012D02*
D03*
X6362559Y10175417D02*
D03*
X6243989Y10293987D02*
D03*
X5850000Y10930000D02*
D03*
X6374582Y10057441D02*
D03*
X6224582Y10177441D02*
D03*
X6399998Y9999997D02*
D03*
X6304583Y10057441D02*
D03*
X6294582Y10177441D02*
D03*
X6234582Y10057441D02*
D03*
X9750000Y9650000D02*
D03*
X9800000Y9520000D02*
D03*
X10749997Y13299995D02*
D03*
Y13899995D02*
D03*
X9509451Y11451740D02*
D03*
X9438466Y11434726D02*
D03*
X10701012Y12668988D02*
D03*
X10320000Y12460000D02*
D03*
X9220000Y11750000D02*
D03*
X9866008Y12083984D02*
D03*
X10599997Y12999995D02*
D03*
X7599998Y10599997D02*
D03*
X6399998D02*
D03*
X6040000Y10930000D02*
D03*
X5850000Y11510000D02*
D03*
X5790000D02*
D03*
X5880000Y11150000D02*
D03*
X6340000Y10920000D02*
D03*
X17499995Y14199995D02*
D03*
X17649995Y13899995D02*
D03*
X17499995Y13599995D02*
D03*
X17649995Y13299995D02*
D03*
Y12699996D02*
D03*
X17499995Y12399996D02*
D03*
Y11199997D02*
D03*
Y10599997D02*
D03*
X17649995Y10299997D02*
D03*
X17199995Y13599995D02*
D03*
Y11199997D02*
D03*
X17349995Y10899997D02*
D03*
Y10299997D02*
D03*
Y9099997D02*
D03*
X17199995Y8799997D02*
D03*
X16899995Y12399996D02*
D03*
Y11199997D02*
D03*
X17049995Y10899997D02*
D03*
X16899995Y10599997D02*
D03*
X17049995Y10299997D02*
D03*
Y9099997D02*
D03*
X16899995Y8799997D02*
D03*
X16599995Y14199995D02*
D03*
X16749995Y12099996D02*
D03*
Y11499997D02*
D03*
Y9099997D02*
D03*
X16599995Y8799997D02*
D03*
X16299995D02*
D03*
X15999995Y13599995D02*
D03*
X16149995Y13299995D02*
D03*
X15999995Y12999995D02*
D03*
Y12399996D02*
D03*
Y11799996D02*
D03*
Y10599997D02*
D03*
Y9999997D02*
D03*
X16149995Y9699997D02*
D03*
Y9099997D02*
D03*
X15999995Y8799997D02*
D03*
X15699995Y12399996D02*
D03*
X15849995Y12099996D02*
D03*
X15699995Y11799996D02*
D03*
Y10599997D02*
D03*
X15849995Y10299997D02*
D03*
X15699995Y9999997D02*
D03*
X15849995Y9699997D02*
D03*
X15549995Y12699996D02*
D03*
X15399995Y12399996D02*
D03*
X15549995Y12099996D02*
D03*
X15399995Y11799996D02*
D03*
X15549995Y10899997D02*
D03*
X15399995Y10599997D02*
D03*
X15549995Y10299997D02*
D03*
X15399995Y9999997D02*
D03*
X15549995Y9099997D02*
D03*
X15399995Y8799997D02*
D03*
X15099995Y14199995D02*
D03*
Y13599995D02*
D03*
Y11799996D02*
D03*
X15249995Y10899997D02*
D03*
X15099995Y10599997D02*
D03*
X15249995Y10299997D02*
D03*
X15099995Y9999997D02*
D03*
X15249995Y9699997D02*
D03*
Y9099997D02*
D03*
X15099995Y8799997D02*
D03*
X14799995Y13599995D02*
D03*
Y11799996D02*
D03*
X14949995Y10899997D02*
D03*
X14799995Y10599997D02*
D03*
X14949995Y10299997D02*
D03*
X14799995Y9999997D02*
D03*
X14949995Y9699997D02*
D03*
Y9099997D02*
D03*
X14799995Y8799997D02*
D03*
X14649995Y10899997D02*
D03*
X14499995Y10599997D02*
D03*
X14649995Y10299997D02*
D03*
X14499995Y9999997D02*
D03*
X14649995Y9699997D02*
D03*
Y9099997D02*
D03*
X14499995Y8799997D02*
D03*
X14199995Y11799996D02*
D03*
Y11199997D02*
D03*
X14349995Y10899997D02*
D03*
X14199995Y10599997D02*
D03*
X14349995Y10299997D02*
D03*
X14199995Y9999997D02*
D03*
X14349995Y9699997D02*
D03*
Y9099997D02*
D03*
X14199995Y8799997D02*
D03*
X13899995Y12999995D02*
D03*
X14049995Y12699996D02*
D03*
X13899995Y11199997D02*
D03*
Y10599997D02*
D03*
X14049995Y10299997D02*
D03*
X13899995Y9999997D02*
D03*
X14049995Y9699997D02*
D03*
Y9099997D02*
D03*
X13899995Y8799997D02*
D03*
X13599995Y12999995D02*
D03*
X13749995Y12699996D02*
D03*
X13599995Y11799996D02*
D03*
Y11199997D02*
D03*
Y10599997D02*
D03*
X13749995Y10299997D02*
D03*
X13599995Y9999997D02*
D03*
X13749995Y9699997D02*
D03*
Y9099997D02*
D03*
X13599995Y8799997D02*
D03*
X13299995Y14199995D02*
D03*
Y12999995D02*
D03*
X13449995Y12699996D02*
D03*
Y12099996D02*
D03*
X13299995Y11799996D02*
D03*
Y10599997D02*
D03*
X13449995Y10299997D02*
D03*
X13299995Y9999997D02*
D03*
X13449995Y9699997D02*
D03*
Y9099997D02*
D03*
X13299995Y8799997D02*
D03*
X12999995Y13599995D02*
D03*
X13149995Y13299995D02*
D03*
Y12099996D02*
D03*
X12999995Y11799996D02*
D03*
Y11199997D02*
D03*
Y10599997D02*
D03*
Y9999997D02*
D03*
X13149995Y9699997D02*
D03*
Y9099997D02*
D03*
X12999995Y8799997D02*
D03*
X12699996Y14199995D02*
D03*
Y13599995D02*
D03*
X12849995Y13299995D02*
D03*
Y12099996D02*
D03*
X12699996Y11799996D02*
D03*
Y11199997D02*
D03*
Y9999997D02*
D03*
X12849995Y9699997D02*
D03*
Y9099997D02*
D03*
X12699996Y8799997D02*
D03*
X12399996Y14199995D02*
D03*
X12549996Y13899995D02*
D03*
X12399996Y13599995D02*
D03*
X12549996Y13299995D02*
D03*
Y12099996D02*
D03*
X12399996Y11799996D02*
D03*
Y11199997D02*
D03*
Y9999997D02*
D03*
X12549996Y9699997D02*
D03*
Y9099997D02*
D03*
X12399996Y8799997D02*
D03*
X12099996Y14199995D02*
D03*
X12249996Y13899995D02*
D03*
X12099996Y13599995D02*
D03*
X12249996Y13299995D02*
D03*
Y12099996D02*
D03*
X12099996Y11799996D02*
D03*
Y11199997D02*
D03*
X12249996Y10899997D02*
D03*
X12099996Y10599997D02*
D03*
X12249996Y9699997D02*
D03*
Y9099997D02*
D03*
X12099996Y8799997D02*
D03*
X11799996Y14199995D02*
D03*
X11949996Y13899995D02*
D03*
X11799996Y13599995D02*
D03*
X11949996Y13299995D02*
D03*
X11799996Y12999995D02*
D03*
X11949996Y12099996D02*
D03*
X11799996Y11799996D02*
D03*
Y11199997D02*
D03*
X11949996Y10899997D02*
D03*
X11799996Y10599997D02*
D03*
X11949996Y9699997D02*
D03*
X11799996Y9399997D02*
D03*
X11949996Y9099997D02*
D03*
X11799996Y8799997D02*
D03*
X11499997Y14199995D02*
D03*
X11649997Y13899995D02*
D03*
X11499997Y13599995D02*
D03*
X11649997Y13299995D02*
D03*
Y12099996D02*
D03*
X11499997Y11799996D02*
D03*
Y11199997D02*
D03*
X11649997Y10899997D02*
D03*
X11499997Y10599997D02*
D03*
X11649997Y10299997D02*
D03*
X11199997Y14199995D02*
D03*
X11349997Y13899995D02*
D03*
X11199997Y13599995D02*
D03*
X11349997Y13299995D02*
D03*
X11199997Y12999995D02*
D03*
X11349997Y12099996D02*
D03*
X11199997Y11799996D02*
D03*
Y11199997D02*
D03*
X11349997Y10899997D02*
D03*
Y10299997D02*
D03*
Y9099997D02*
D03*
X11199997Y8799997D02*
D03*
X10899997Y14199995D02*
D03*
X11049997Y13899995D02*
D03*
X10899997Y13599995D02*
D03*
X11049997Y13299995D02*
D03*
X10899997Y12999995D02*
D03*
X11049997Y12099996D02*
D03*
X10899997Y11799996D02*
D03*
Y11199997D02*
D03*
X10599997Y14199995D02*
D03*
Y13599995D02*
D03*
X10749997Y12099996D02*
D03*
X10299997Y14199995D02*
D03*
X10449997Y13899995D02*
D03*
X10299997Y13599995D02*
D03*
X10449997Y13299995D02*
D03*
X10299997Y12999995D02*
D03*
Y11199997D02*
D03*
X9999997Y14199995D02*
D03*
X10149997Y13899995D02*
D03*
X9999997Y13599995D02*
D03*
X10149997Y13299995D02*
D03*
Y10899997D02*
D03*
X9699997Y14199995D02*
D03*
X9849997Y13899995D02*
D03*
X9699997Y13599995D02*
D03*
X9849997Y13299995D02*
D03*
X9699997Y12999995D02*
D03*
X9399997Y14199995D02*
D03*
X9549997Y13899995D02*
D03*
X9399997Y13599995D02*
D03*
X9549997Y13299995D02*
D03*
X9399997Y12999995D02*
D03*
X9099997Y14199995D02*
D03*
X9249997Y13899995D02*
D03*
X9099997Y13599995D02*
D03*
X9249997Y13299995D02*
D03*
X9099997Y12999995D02*
D03*
X9249997Y9699997D02*
D03*
X8799997Y14199995D02*
D03*
X8949997Y13899995D02*
D03*
X8799997Y13599995D02*
D03*
X8949997Y13299995D02*
D03*
X8799997Y12999995D02*
D03*
Y12399996D02*
D03*
X8949997Y9699997D02*
D03*
X8799997Y8799997D02*
D03*
X8499997Y14199995D02*
D03*
X8649997Y13899995D02*
D03*
X8499997Y13599995D02*
D03*
X8649997Y13299995D02*
D03*
X8499997Y12999995D02*
D03*
X8649997Y9099997D02*
D03*
X8499997Y8799997D02*
D03*
X8199998Y14199995D02*
D03*
X8349998Y13899995D02*
D03*
X8199998Y13599995D02*
D03*
X8349998Y13299995D02*
D03*
X8199998Y12999995D02*
D03*
X8349998Y9699997D02*
D03*
Y9099997D02*
D03*
X8199998Y8799997D02*
D03*
X7899998Y14199995D02*
D03*
X8049998Y13899995D02*
D03*
X7899998Y13599995D02*
D03*
X8049998Y13299995D02*
D03*
X7899998Y12999995D02*
D03*
X8049998Y12699996D02*
D03*
Y12099996D02*
D03*
Y10899997D02*
D03*
X7899998Y10599997D02*
D03*
X8049998Y10299997D02*
D03*
X7899998Y9999997D02*
D03*
X8049998Y9699997D02*
D03*
Y9099997D02*
D03*
X7899998Y8799997D02*
D03*
X7599998Y14199995D02*
D03*
X7749998Y13899995D02*
D03*
Y13299995D02*
D03*
X7599998Y12999995D02*
D03*
X7749998Y12699996D02*
D03*
Y10899997D02*
D03*
Y10299997D02*
D03*
X7599998Y9999997D02*
D03*
X7749998Y9699997D02*
D03*
Y9099997D02*
D03*
X7599998Y8799997D02*
D03*
X7299998Y14199995D02*
D03*
X7449998Y13899995D02*
D03*
X7299998Y13599995D02*
D03*
Y12999995D02*
D03*
X7449998Y12699996D02*
D03*
Y10899997D02*
D03*
Y10299997D02*
D03*
X7299998Y9399997D02*
D03*
X7449998Y9099997D02*
D03*
X7299998Y8799997D02*
D03*
X6999998Y14199995D02*
D03*
X7149998Y13899995D02*
D03*
X6999998Y13599995D02*
D03*
X7149998Y13299995D02*
D03*
Y12699996D02*
D03*
X6999998Y12399996D02*
D03*
Y9999997D02*
D03*
X7149998Y9699997D02*
D03*
X6999998Y9399997D02*
D03*
X7149998Y9099997D02*
D03*
X6999998Y8799997D02*
D03*
X6699998Y14199995D02*
D03*
X6849998Y13899995D02*
D03*
X6699998Y13599995D02*
D03*
X6849998Y13299995D02*
D03*
X6699998Y12999995D02*
D03*
Y12399996D02*
D03*
X6849998Y10299997D02*
D03*
Y9699997D02*
D03*
X6699998Y9399997D02*
D03*
X6849998Y9099997D02*
D03*
X6399998Y14199995D02*
D03*
X6549998Y13899995D02*
D03*
X6399998Y13599995D02*
D03*
X6549998Y13299995D02*
D03*
X6399998Y12999995D02*
D03*
X6549998Y12699996D02*
D03*
Y9699997D02*
D03*
X6399998Y9399997D02*
D03*
X6549998Y9099997D02*
D03*
X6399998Y8799997D02*
D03*
X6099998Y14199995D02*
D03*
X6249998Y13899995D02*
D03*
X6099998Y13599995D02*
D03*
X6249998Y13299995D02*
D03*
X6099998Y12999995D02*
D03*
X6249998Y12699996D02*
D03*
X6099998Y12399996D02*
D03*
Y11799996D02*
D03*
X6249998Y11499997D02*
D03*
Y9699997D02*
D03*
Y9099997D02*
D03*
X5799998Y14199995D02*
D03*
X5949998Y13899995D02*
D03*
X5799998Y13599995D02*
D03*
X5949998Y13299995D02*
D03*
X5799998Y12999995D02*
D03*
X5949998Y12699996D02*
D03*
X5799998Y12399996D02*
D03*
X5949998Y12099996D02*
D03*
Y9099997D02*
D03*
X5799998Y8799997D02*
D03*
X5499998Y14199995D02*
D03*
X5649998Y13899995D02*
D03*
X5499998Y13599995D02*
D03*
X5649998Y13299995D02*
D03*
X5499998Y12999995D02*
D03*
X5649998Y12699996D02*
D03*
X5499998Y12399996D02*
D03*
X5649998Y12099996D02*
D03*
X5499998Y11799996D02*
D03*
Y10599997D02*
D03*
X5649998Y10299997D02*
D03*
X5499998Y8799997D02*
D03*
X10320000Y12710000D02*
D03*
X9152012Y12470012D02*
D03*
X9162505Y12544907D02*
D03*
X7385000Y12292500D02*
D03*
X9195700Y10550000D02*
D03*
Y10478685D02*
D03*
X9479935Y10498000D02*
D03*
X10170000Y10430000D02*
D03*
X5510000Y11200000D02*
D03*
X6240000Y11320000D02*
D03*
X10480000Y12440000D02*
D03*
X5912513Y11510679D02*
D03*
X9384300Y11740000D02*
D03*
X9910000Y12440000D02*
D03*
X9420417Y12462638D02*
D03*
X9310000Y11650000D02*
D03*
X6440000Y11400000D02*
D03*
X7025947Y10486686D02*
D03*
X6360000Y11650000D02*
D03*
X7030000Y10060000D02*
D03*
X7170000D02*
D03*
X7100000D02*
D03*
X7695700Y11790000D02*
D03*
X14870000Y13110001D02*
D03*
X15325700Y13104300D02*
D03*
X15267654Y12872346D02*
D03*
X15152315Y12337685D02*
D03*
X11590000Y9640000D02*
D03*
X11680000D02*
D03*
X15800000Y10910000D02*
D03*
Y11050000D02*
D03*
Y11190000D02*
D03*
X8900000Y9140000D02*
D03*
X8779122Y11106636D02*
D03*
X8710000Y11950000D02*
D03*
X9010000Y10109371D02*
D03*
X9220000Y10740000D02*
D03*
X8300000Y10040000D02*
D03*
X8080000Y10040000D02*
D03*
X7010000Y11530000D02*
D03*
X5450000Y9510000D02*
D03*
X5574905Y9669434D02*
D03*
X9450000Y8808000D02*
D03*
X9140000Y8750000D02*
D03*
X5814237Y9014237D02*
D03*
X9380000Y9770000D02*
D03*
X9210000D02*
D03*
X9350000Y10690000D02*
D03*
X8840000Y9730000D02*
D03*
X9940000Y10690000D02*
D03*
X16139999Y12240000D02*
D03*
X16100000Y12939999D02*
D03*
Y9430000D02*
D03*
X11060000Y10870000D02*
D03*
X10310000Y10280000D02*
D03*
X9940000Y10320000D02*
D03*
X16150000Y10390000D02*
D03*
Y10330000D02*
D03*
Y10270000D02*
D03*
X5570000Y10307500D02*
D03*
X15800000Y11330000D02*
D03*
Y11470000D02*
D03*
Y11610000D02*
D03*
X6470000Y11970000D02*
D03*
X7250000Y11120000D02*
D03*
X16730000Y10110000D02*
D03*
Y10180000D02*
D03*
Y10240000D02*
D03*
Y10300000D02*
D03*
X16730305Y10360801D02*
D03*
Y10420801D02*
D03*
Y10480801D02*
D03*
Y10540801D02*
D03*
Y10600801D02*
D03*
X16669843Y10635888D02*
D03*
Y10575888D02*
D03*
Y10515888D02*
D03*
Y10455888D02*
D03*
Y10395888D02*
D03*
X16669537Y10335087D02*
D03*
Y10275087D02*
D03*
Y10215087D02*
D03*
Y10145087D02*
D03*
X16619843Y10595888D02*
D03*
Y10535888D02*
D03*
Y10475888D02*
D03*
Y10415888D02*
D03*
Y10355888D02*
D03*
X16619537Y10295087D02*
D03*
Y10235087D02*
D03*
Y10175087D02*
D03*
Y10105087D02*
D03*
X16620511Y10655954D02*
D03*
Y10715954D02*
D03*
Y10775954D02*
D03*
Y10835954D02*
D03*
X16670511Y10695954D02*
D03*
Y10755954D02*
D03*
Y10815954D02*
D03*
Y10875954D02*
D03*
X16730974Y10840867D02*
D03*
Y10780867D02*
D03*
Y10720867D02*
D03*
Y10660867D02*
D03*
X16970000Y9530000D02*
D03*
X17039999D02*
D03*
X17100000D02*
D03*
X17160001D02*
D03*
X17220801Y9529695D02*
D03*
X17280801D02*
D03*
X17340800D02*
D03*
X17400801D02*
D03*
X17460802D02*
D03*
X17495888Y9590157D02*
D03*
X17435889D02*
D03*
X17375888D02*
D03*
X17315887D02*
D03*
X17255888D02*
D03*
X17195087Y9590463D02*
D03*
X17135088D02*
D03*
X17075087D02*
D03*
X17005087D02*
D03*
X17455888Y9640157D02*
D03*
X17395888D02*
D03*
X17335889D02*
D03*
X17275888D02*
D03*
X17215887D02*
D03*
X17155087Y9640463D02*
D03*
X17095087D02*
D03*
X17035088D02*
D03*
X16965086D02*
D03*
X17515955Y9639489D02*
D03*
X17575954D02*
D03*
X17635954D02*
D03*
X17695953D02*
D03*
X17555954Y9589489D02*
D03*
X17615955D02*
D03*
X17675954D02*
D03*
X17735954D02*
D03*
X17700867Y9529026D02*
D03*
X17640868D02*
D03*
X17580867D02*
D03*
X17520866D02*
D03*
X16650867Y12659026D02*
D03*
X16710867D02*
D03*
X16770866D02*
D03*
X16830867D02*
D03*
X16865955Y12719489D02*
D03*
X16805954D02*
D03*
X16745953D02*
D03*
X16685954D02*
D03*
X16825954Y12769489D02*
D03*
X16765955D02*
D03*
X16705954D02*
D03*
X16645953D02*
D03*
X16855954Y12819489D02*
D03*
X16795953D02*
D03*
X16735954D02*
D03*
X16675954D02*
D03*
X16825954Y12869489D02*
D03*
X16765955D02*
D03*
X16705954D02*
D03*
X16645953D02*
D03*
X16890868Y12659026D02*
D03*
X16950867D02*
D03*
X17010867D02*
D03*
X17070866D02*
D03*
X17105954Y12719489D02*
D03*
X17045953D02*
D03*
X16985954D02*
D03*
X16925954D02*
D03*
X17065955Y12769489D02*
D03*
X17005954D02*
D03*
X16945953D02*
D03*
X16885954D02*
D03*
X17095953Y12819489D02*
D03*
X17035954D02*
D03*
X16975954D02*
D03*
X16915955D02*
D03*
X17065955Y12869489D02*
D03*
X17005954D02*
D03*
X16945953D02*
D03*
X16885954D02*
D03*
X17130867Y12659026D02*
D03*
X17190868D02*
D03*
X17250867D02*
D03*
X17310867D02*
D03*
X17345953Y12719489D02*
D03*
X17285954D02*
D03*
X17225954D02*
D03*
X17165955D02*
D03*
X17305954Y12769489D02*
D03*
X17245953D02*
D03*
X17185954D02*
D03*
X17125954D02*
D03*
X17335954Y12819489D02*
D03*
X17275954D02*
D03*
X17215955D02*
D03*
X17155954D02*
D03*
X17120866Y12869026D02*
D03*
X17180867D02*
D03*
X17240868D02*
D03*
X17300867D02*
D03*
X17335954Y12929489D02*
D03*
X17275954D02*
D03*
X17215955D02*
D03*
X17155954D02*
D03*
X17295953Y12979489D02*
D03*
X17235954D02*
D03*
X17175954D02*
D03*
X17115955D02*
D03*
X17325954Y13029489D02*
D03*
X17265955D02*
D03*
X17205954D02*
D03*
X17145953D02*
D03*
X17295953Y13079489D02*
D03*
X17235954D02*
D03*
X17175954D02*
D03*
X17115955D02*
D03*
X17120866Y13139026D02*
D03*
X17180867D02*
D03*
X17240868D02*
D03*
X17300867D02*
D03*
X17335954Y13199489D02*
D03*
X17275954D02*
D03*
X17215955D02*
D03*
X17155954D02*
D03*
X17295953Y13249489D02*
D03*
X17235954D02*
D03*
X17175954D02*
D03*
X17115955D02*
D03*
X17325954Y13299489D02*
D03*
X17265955D02*
D03*
X17205954D02*
D03*
X17145953D02*
D03*
X17295953Y13349489D02*
D03*
X17235954D02*
D03*
X17175954D02*
D03*
X17115955D02*
D03*
X17460867Y11419026D02*
D03*
X17520866D02*
D03*
X17580867D02*
D03*
X17640868D02*
D03*
X17675954Y11479489D02*
D03*
X17615955D02*
D03*
X17555954D02*
D03*
X17495953D02*
D03*
X17635954Y11529489D02*
D03*
X17575954D02*
D03*
X17515955D02*
D03*
X17455954D02*
D03*
X17665955Y11579489D02*
D03*
X17605954D02*
D03*
X17545953D02*
D03*
X17485954D02*
D03*
X17635954Y11629489D02*
D03*
X17575954D02*
D03*
X17515955D02*
D03*
X17455954D02*
D03*
X17220866Y11419026D02*
D03*
X17280867D02*
D03*
X17340868D02*
D03*
X17400867D02*
D03*
X17435954Y11479489D02*
D03*
X17375954D02*
D03*
X17315955D02*
D03*
X17255954D02*
D03*
X17395953Y11529489D02*
D03*
X17335954D02*
D03*
X17275954D02*
D03*
X17215955D02*
D03*
X17425954Y11579489D02*
D03*
X17365955D02*
D03*
X17305954D02*
D03*
X17245953D02*
D03*
X17395953Y11629489D02*
D03*
X17335954D02*
D03*
X17275954D02*
D03*
X17215955D02*
D03*
X16980867Y11419026D02*
D03*
X17040868D02*
D03*
X17100867D02*
D03*
X17160867D02*
D03*
X17195953Y11479489D02*
D03*
X17135954D02*
D03*
X17075954D02*
D03*
X17015955D02*
D03*
X17155954Y11529489D02*
D03*
X17095953D02*
D03*
X17035954D02*
D03*
X16975954D02*
D03*
X17185954Y11579489D02*
D03*
X17125954D02*
D03*
X17065955D02*
D03*
X17005954D02*
D03*
X17155954Y11629489D02*
D03*
X17095953D02*
D03*
X17035954D02*
D03*
X16975954D02*
D03*
X17490868Y9269026D02*
D03*
X17550867D02*
D03*
X17610867D02*
D03*
X17670866D02*
D03*
X17705954Y9329489D02*
D03*
X17645953D02*
D03*
X17585954D02*
D03*
X17525954D02*
D03*
X17665955Y9379489D02*
D03*
X17605954D02*
D03*
X17545953D02*
D03*
X17485954D02*
D03*
X17695953Y9429489D02*
D03*
X17635954D02*
D03*
X17575954D02*
D03*
X17515955D02*
D03*
X17665955Y9479489D02*
D03*
X17605954D02*
D03*
X17545953D02*
D03*
X17485954D02*
D03*
X16935088Y9480463D02*
D03*
X17005087D02*
D03*
X17065086D02*
D03*
X17125087D02*
D03*
X17185889Y9480157D02*
D03*
X17245888D02*
D03*
X17305888D02*
D03*
X17365887D02*
D03*
X17425888D02*
D03*
X16965086Y9430463D02*
D03*
X17035088D02*
D03*
X17095087D02*
D03*
X17155087D02*
D03*
X17215887Y9430157D02*
D03*
X17275888D02*
D03*
X17335889D02*
D03*
X17395888D02*
D03*
X17455888D02*
D03*
X16935088Y9380463D02*
D03*
X17005087D02*
D03*
X17065086D02*
D03*
X17125087D02*
D03*
X17185889Y9380157D02*
D03*
X17245888D02*
D03*
X17305888D02*
D03*
X17365887D02*
D03*
X17425888D02*
D03*
X16975087Y9330463D02*
D03*
X17045087D02*
D03*
X17105087D02*
D03*
X17165086D02*
D03*
X17225888Y9330157D02*
D03*
X17285889D02*
D03*
X17345888D02*
D03*
X17405888D02*
D03*
X17465887D02*
D03*
X17430801Y9269695D02*
D03*
X17370801D02*
D03*
X17310802D02*
D03*
X17250801D02*
D03*
X17190800D02*
D03*
X17130000Y9270000D02*
D03*
X17070000D02*
D03*
X17010001D02*
D03*
X16939999D02*
D03*
X9880000Y10155700D02*
D03*
X10640000Y10220000D02*
D03*
X9867203Y9771433D02*
D03*
X9870000Y9900000D02*
D03*
X15320000Y12370000D02*
D03*
X14522314Y12867685D02*
D03*
X15020000Y13110001D02*
D03*
X15170000D02*
D03*
X14820000Y12870000D02*
D03*
X14970000D02*
D03*
X15120000D02*
D03*
X9195700Y10620000D02*
D03*
X9150000Y12376600D02*
D03*
X15170000Y12670000D02*
D03*
X9415874Y10548570D02*
D03*
X9150136Y11506379D02*
D03*
X9150000Y11570000D02*
D03*
X15270000Y12430000D02*
D03*
X10010000Y12220000D02*
D03*
X9150000Y11440000D02*
D03*
X9010000Y12010000D02*
D03*
Y11059686D02*
D03*
%TF.MD5,abbd156b64a7226953e67ada287c6f2e*%
M02*
