%TF.GenerationSoftware,Altium Limited,Altium Designer,22.2.1 (43)*%
G04 Layer_Color=128*
%FSLAX45Y45*%
%MOMM*%
%TF.SameCoordinates,02F1B47A-F79C-4BE6-BEC0-26DF2024C161*%
%TF.FilePolarity,Positive*%
%TF.FileFunction,Paste,Bot*%
%TF.Part,Single*%
G01*
G75*
%TA.AperFunction,SMDPad,CuDef*%
%ADD22R,1.35000X0.95000*%
%ADD40R,1.45000X1.20000*%
%ADD75R,0.55000X0.55000*%
%ADD76R,0.52000X0.52000*%
%ADD77R,0.55000X0.55000*%
G04:AMPARAMS|DCode=79|XSize=0.45mm|YSize=0.3mm|CornerRadius=0.0495mm|HoleSize=0mm|Usage=FLASHONLY|Rotation=180.000|XOffset=0mm|YOffset=0mm|HoleType=Round|Shape=RoundedRectangle|*
%AMROUNDEDRECTD79*
21,1,0.45000,0.20100,0,0,180.0*
21,1,0.35100,0.30000,0,0,180.0*
1,1,0.09900,-0.17550,0.10050*
1,1,0.09900,0.17550,0.10050*
1,1,0.09900,0.17550,-0.10050*
1,1,0.09900,-0.17550,-0.10050*
%
%ADD79ROUNDEDRECTD79*%
%ADD80R,0.95620X1.20620*%
%ADD81R,0.24994X2.00000*%
G36*
X9330000Y11125000D02*
Y11125995D01*
X9329239Y11127832D01*
X9327832Y11129239D01*
X9325994Y11130000D01*
X9325000D01*
D01*
X9235000D01*
X9234005D01*
X9232168Y11129239D01*
X9230761Y11127832D01*
X9230000Y11125995D01*
Y11125000D01*
D01*
Y11065000D01*
Y11064005D01*
X9230761Y11062168D01*
X9232168Y11060761D01*
X9234005Y11060000D01*
X9235000D01*
D01*
X9325000D01*
X9325994D01*
X9327832Y11060761D01*
X9329239Y11062168D01*
X9330000Y11064005D01*
Y11065000D01*
D01*
Y11125000D01*
D02*
G37*
G36*
X9235000Y11220000D02*
X9234005D01*
X9232168Y11219239D01*
X9230761Y11217832D01*
X9230000Y11215995D01*
Y11215000D01*
D01*
Y11155000D01*
Y11154005D01*
X9230761Y11152168D01*
X9232168Y11150761D01*
X9234005Y11150000D01*
X9235000D01*
D01*
X9325000D01*
X9325994D01*
X9327832Y11150761D01*
X9329239Y11152168D01*
X9330000Y11154005D01*
Y11155000D01*
D01*
Y11215000D01*
Y11215995D01*
X9329239Y11217832D01*
X9327832Y11219239D01*
X9325994Y11220000D01*
X9325000D01*
D01*
X9235000D01*
D02*
G37*
D22*
X10340000Y10140000D02*
D03*
Y9990000D02*
D03*
D40*
X4287594Y9612190D02*
D03*
X4287594Y9412189D02*
D03*
D75*
X9115000Y11220000D02*
D03*
X9025000D02*
D03*
X9115000Y11290000D02*
D03*
X9025000D02*
D03*
X9183325Y10988109D02*
D03*
X9093324D02*
D03*
D76*
X8930000Y11140000D02*
D03*
X9010000D02*
D03*
D77*
X9120000Y11060000D02*
D03*
Y11150000D02*
D03*
D79*
X9182500Y11205000D02*
D03*
Y11140000D02*
D03*
Y11075000D02*
D03*
X9377500D02*
D03*
Y11140000D02*
D03*
Y11205000D02*
D03*
D80*
X1855600Y10730000D02*
D03*
X2060600D02*
D03*
D81*
X12620017Y8949996D02*
D03*
X12570004Y8949996D02*
D03*
X12520017D02*
D03*
X12470004Y8949996D02*
D03*
X12420017Y8949996D02*
D03*
X12370004D02*
D03*
X12320017D02*
D03*
X12270004D02*
D03*
X12220017D02*
D03*
X12170005D02*
D03*
X12120018D02*
D03*
X12070005Y8949996D02*
D03*
X12020018Y8949996D02*
D03*
X12670004D02*
D03*
X12720016D02*
D03*
X12770003Y8949996D02*
D03*
X12820016Y8949996D02*
D03*
X12870004Y8949996D02*
D03*
X12920016Y8949996D02*
D03*
X12970003Y8949996D02*
D03*
X13020015D02*
D03*
X13070003Y8949996D02*
D03*
X13120016Y8949996D02*
D03*
X13170003Y8949996D02*
D03*
X13220016D02*
D03*
X12620017Y9390000D02*
D03*
X12670004Y9390000D02*
D03*
X12720016Y9390000D02*
D03*
X12770003D02*
D03*
X12820016D02*
D03*
X12870003D02*
D03*
X12920016D02*
D03*
X12970003D02*
D03*
X13020016D02*
D03*
X13070003D02*
D03*
X13120016D02*
D03*
X13170003D02*
D03*
X13220015Y9390000D02*
D03*
X12570004D02*
D03*
X12520017Y9390000D02*
D03*
X12470005D02*
D03*
X12420017D02*
D03*
X12370004D02*
D03*
X12320017D02*
D03*
X12270004D02*
D03*
X12220017D02*
D03*
X12170005D02*
D03*
X12120018D02*
D03*
X12070005Y9390000D02*
D03*
X12020018Y9390000D02*
D03*
X15170000Y8949996D02*
D03*
X15120012Y8949996D02*
D03*
X15070000Y8949996D02*
D03*
X15020012Y8949996D02*
D03*
X14970000Y8949996D02*
D03*
X14920012D02*
D03*
X14870000D02*
D03*
X14820013D02*
D03*
X14770000D02*
D03*
X14720012Y8949996D02*
D03*
X14670000D02*
D03*
X14620013Y8949996D02*
D03*
X14570000Y8949996D02*
D03*
X15220010Y8949996D02*
D03*
X15270000Y8949996D02*
D03*
X15320010D02*
D03*
X15370000Y8949996D02*
D03*
X15420010Y8949996D02*
D03*
X15469998D02*
D03*
X15520010D02*
D03*
X15569998D02*
D03*
X15620010D02*
D03*
X15669998D02*
D03*
X15720010D02*
D03*
X15769997Y8949996D02*
D03*
X15170000Y9390000D02*
D03*
X15220010D02*
D03*
X15270000D02*
D03*
X15320010D02*
D03*
X15370000Y9390000D02*
D03*
X15420010Y9390000D02*
D03*
X15469998D02*
D03*
X15520010D02*
D03*
X15569998D02*
D03*
X15620010D02*
D03*
X15669998D02*
D03*
X15720010D02*
D03*
X15769998D02*
D03*
X15120012D02*
D03*
X15070000D02*
D03*
X15020012D02*
D03*
X14970000D02*
D03*
X14920012Y9390000D02*
D03*
X14870000Y9390000D02*
D03*
X14820013Y9390000D02*
D03*
X14770000Y9390000D02*
D03*
X14720013D02*
D03*
X14670000D02*
D03*
X14620013D02*
D03*
X14570000D02*
D03*
X12620017Y12549989D02*
D03*
X12570004D02*
D03*
X12520017D02*
D03*
X12470004D02*
D03*
X12420017Y12549988D02*
D03*
X12370004Y12549989D02*
D03*
X12320017Y12549988D02*
D03*
X12270005Y12549989D02*
D03*
X12220017Y12549988D02*
D03*
X12170005Y12549989D02*
D03*
X12120017Y12549988D02*
D03*
X12070005Y12549989D02*
D03*
X12020018D02*
D03*
X12670003Y12549988D02*
D03*
X12720017Y12549989D02*
D03*
X12770003Y12549988D02*
D03*
X12820016Y12549989D02*
D03*
X12870004Y12549988D02*
D03*
X12920016Y12549989D02*
D03*
X12970004Y12549988D02*
D03*
X13020015Y12549989D02*
D03*
X13070003D02*
D03*
X13120016D02*
D03*
X13170003Y12549988D02*
D03*
X13220016Y12549989D02*
D03*
X12620017Y12989993D02*
D03*
X12670004D02*
D03*
X12720017D02*
D03*
X12770003D02*
D03*
X12820016D02*
D03*
X12870004Y12989993D02*
D03*
X12920016Y12989993D02*
D03*
X12970004D02*
D03*
X13020015D02*
D03*
X13070003Y12989993D02*
D03*
X13120016Y12989993D02*
D03*
X13170003Y12989993D02*
D03*
X13220016Y12989993D02*
D03*
X12570004D02*
D03*
X12520017D02*
D03*
X12470004D02*
D03*
X12420017D02*
D03*
X12370004D02*
D03*
X12320017Y12989993D02*
D03*
X12270004Y12989993D02*
D03*
X12220016D02*
D03*
X12170005D02*
D03*
X12120018Y12989993D02*
D03*
X12070005Y12989993D02*
D03*
X12020018Y12989993D02*
D03*
X14770000Y12549989D02*
D03*
X14720012D02*
D03*
X14670000Y12549988D02*
D03*
X14620012Y12549989D02*
D03*
X14570000Y12549988D02*
D03*
X14520013Y12549989D02*
D03*
X14470000Y12549988D02*
D03*
X14420013Y12549989D02*
D03*
X14370000Y12549988D02*
D03*
X14320013Y12549989D02*
D03*
X14270001D02*
D03*
X14220013D02*
D03*
X14170001D02*
D03*
X14820013D02*
D03*
X14870000Y12549988D02*
D03*
X14920012D02*
D03*
X14970000D02*
D03*
X15020012D02*
D03*
X15070000D02*
D03*
X15120012D02*
D03*
X15170000D02*
D03*
X15220012D02*
D03*
X15269998Y12549989D02*
D03*
X15320010D02*
D03*
X15370000D02*
D03*
X14770000Y12989993D02*
D03*
X14820013Y12989993D02*
D03*
X14870000Y12989993D02*
D03*
X14920012Y12989993D02*
D03*
X14969998D02*
D03*
X15020012D02*
D03*
X15070000D02*
D03*
X15120012Y12989993D02*
D03*
X15170000Y12989993D02*
D03*
X15220012D02*
D03*
X15269998D02*
D03*
X15320010Y12989993D02*
D03*
X15370000Y12989993D02*
D03*
X14720012D02*
D03*
X14670000Y12989993D02*
D03*
X14620012Y12989993D02*
D03*
X14570000Y12989993D02*
D03*
X14520013Y12989993D02*
D03*
X14470000D02*
D03*
X14420013D02*
D03*
X14370001D02*
D03*
X14320013D02*
D03*
X14270001D02*
D03*
X14220013D02*
D03*
X14170001D02*
D03*
%TF.MD5,dd2d36a928e87212ed1bd7b2c29f4704*%
M02*
