%TF.GenerationSoftware,Altium Limited,Altium Designer,22.2.1 (43)*%
G04 Layer_Color=8388736*
%FSLAX45Y45*%
%MOMM*%
%TF.SameCoordinates,02F1B47A-F79C-4BE6-BEC0-26DF2024C161*%
%TF.FilePolarity,Negative*%
%TF.FileFunction,Soldermask,Top*%
%TF.Part,Single*%
G01*
G75*
%TA.AperFunction,NonConductor*%
%ADD11C,0.25400*%
%TA.AperFunction,SMDPad,CuDef*%
G04:AMPARAMS|DCode=12|XSize=1.5mm|YSize=0.45mm|CornerRadius=0.0495mm|HoleSize=0mm|Usage=FLASHONLY|Rotation=180.000|XOffset=0mm|YOffset=0mm|HoleType=Round|Shape=RoundedRectangle|*
%AMROUNDEDRECTD12*
21,1,1.50000,0.35100,0,0,180.0*
21,1,1.40100,0.45000,0,0,180.0*
1,1,0.09900,-0.70050,0.17550*
1,1,0.09900,0.70050,0.17550*
1,1,0.09900,0.70050,-0.17550*
1,1,0.09900,-0.70050,-0.17550*
%
%ADD12ROUNDEDRECTD12*%
G04:AMPARAMS|DCode=13|XSize=2.46916mm|YSize=0.62213mm|CornerRadius=0.31107mm|HoleSize=0mm|Usage=FLASHONLY|Rotation=180.000|XOffset=0mm|YOffset=0mm|HoleType=Round|Shape=RoundedRectangle|*
%AMROUNDEDRECTD13*
21,1,2.46916,0.00000,0,0,180.0*
21,1,1.84702,0.62213,0,0,180.0*
1,1,0.62213,-0.92351,0.00000*
1,1,0.62213,0.92351,0.00000*
1,1,0.62213,0.92351,0.00000*
1,1,0.62213,-0.92351,0.00000*
%
%ADD13ROUNDEDRECTD13*%
%ADD14R,2.46916X0.62213*%
%ADD15R,1.45000X3.50000*%
%ADD17R,1.30000X1.60000*%
%ADD18R,2.00000X1.60000*%
%ADD19R,0.95000X1.35000*%
%ADD22R,1.35000X0.95000*%
%ADD27R,2.13000X1.42000*%
%ADD31R,2.33000X1.99000*%
%ADD34R,0.35000X0.65000*%
%ADD38R,1.00000X1.50000*%
%ADD46R,0.95000X1.70000*%
%ADD48R,0.65000X0.35000*%
%ADD54R,1.87407X0.54213*%
G04:AMPARAMS|DCode=55|XSize=1.87407mm|YSize=0.54213mm|CornerRadius=0.27107mm|HoleSize=0mm|Usage=FLASHONLY|Rotation=0.000|XOffset=0mm|YOffset=0mm|HoleType=Round|Shape=RoundedRectangle|*
%AMROUNDEDRECTD55*
21,1,1.87407,0.00000,0,0,0.0*
21,1,1.33193,0.54213,0,0,0.0*
1,1,0.54213,0.66597,0.00000*
1,1,0.54213,-0.66597,0.00000*
1,1,0.54213,-0.66597,0.00000*
1,1,0.54213,0.66597,0.00000*
%
%ADD55ROUNDEDRECTD55*%
%TA.AperFunction,ComponentPad*%
%ADD71R,1.30000X1.30000*%
%ADD72C,1.30000*%
%TA.AperFunction,ViaPad*%
%ADD74C,0.50000*%
%TA.AperFunction,SMDPad,CuDef*%
%ADD88R,1.65320X1.40320*%
%TA.AperFunction,ComponentPad*%
%ADD89R,1.20320X1.20320*%
%ADD90C,1.20320*%
%TA.AperFunction,ViaPad*%
%ADD91C,1.72720*%
%TA.AperFunction,ComponentPad*%
%ADD92R,1.70320X1.70320*%
%ADD93C,2.40309*%
%ADD94C,0.75311*%
%ADD95C,1.52400*%
%TA.AperFunction,ViaPad*%
%ADD96C,0.70320*%
%TA.AperFunction,SMDPad,CuDef*%
%ADD101O,2.70320X0.90320*%
%ADD102R,1.25320X1.15320*%
%ADD103R,1.15320X1.25320*%
%ADD104R,1.25320X1.10320*%
%ADD105R,0.70320X1.40320*%
%ADD106R,0.70320X1.80320*%
G04:AMPARAMS|DCode=107|XSize=2.0032mm|YSize=3.2032mm|CornerRadius=0mm|HoleSize=0mm|Usage=FLASHONLY|Rotation=180.000|XOffset=0mm|YOffset=0mm|HoleType=Round|Shape=Octagon|*
%AMOCTAGOND107*
4,1,8,0.50080,-1.60160,-0.50080,-1.60160,-1.00160,-1.10080,-1.00160,1.10080,-0.50080,1.60160,0.50080,1.60160,1.00160,1.10080,1.00160,-1.10080,0.50080,-1.60160,0.0*
%
%ADD107OCTAGOND107*%

%ADD108R,0.80320X1.60320*%
%ADD109R,0.80320X2.00320*%
G04:AMPARAMS|DCode=110|XSize=2.1032mm|YSize=3.4032mm|CornerRadius=0mm|HoleSize=0mm|Usage=FLASHONLY|Rotation=180.000|XOffset=0mm|YOffset=0mm|HoleType=Round|Shape=Octagon|*
%AMOCTAGOND110*
4,1,8,0.52580,-1.70160,-0.52580,-1.70160,-1.05160,-1.17580,-1.05160,1.17580,-0.52580,1.70160,0.52580,1.70160,1.05160,1.17580,1.05160,-1.17580,0.52580,-1.70160,0.0*
%
%ADD110OCTAGOND110*%

G04:AMPARAMS|DCode=111|XSize=0.7532mm|YSize=1.0032mm|CornerRadius=0.1511mm|HoleSize=0mm|Usage=FLASHONLY|Rotation=180.000|XOffset=0mm|YOffset=0mm|HoleType=Round|Shape=RoundedRectangle|*
%AMROUNDEDRECTD111*
21,1,0.75320,0.70100,0,0,180.0*
21,1,0.45100,1.00320,0,0,180.0*
1,1,0.30220,-0.22550,0.35050*
1,1,0.30220,0.22550,0.35050*
1,1,0.30220,0.22550,-0.35050*
1,1,0.30220,-0.22550,-0.35050*
%
%ADD111ROUNDEDRECTD111*%
%ADD112R,2.35320X2.40320*%
G04:AMPARAMS|DCode=113|XSize=0.8532mm|YSize=1.8532mm|CornerRadius=0.15035mm|HoleSize=0mm|Usage=FLASHONLY|Rotation=270.000|XOffset=0mm|YOffset=0mm|HoleType=Round|Shape=RoundedRectangle|*
%AMROUNDEDRECTD113*
21,1,0.85320,1.55250,0,0,270.0*
21,1,0.55250,1.85320,0,0,270.0*
1,1,0.30070,-0.77625,-0.27625*
1,1,0.30070,-0.77625,0.27625*
1,1,0.30070,0.77625,0.27625*
1,1,0.30070,0.77625,-0.27625*
%
%ADD113ROUNDEDRECTD113*%
G04:AMPARAMS|DCode=114|XSize=1.6532mm|YSize=1.4032mm|CornerRadius=0mm|HoleSize=0mm|Usage=FLASHONLY|Rotation=135.000|XOffset=0mm|YOffset=0mm|HoleType=Round|Shape=Rectangle|*
%AMROTATEDRECTD114*
4,1,4,1.08060,-0.08839,0.08839,-1.08060,-1.08060,0.08839,-0.08839,1.08060,1.08060,-0.08839,0.0*
%
%ADD114ROTATEDRECTD114*%

%ADD115R,1.10320X1.25320*%
G04:AMPARAMS|DCode=116|XSize=0.8532mm|YSize=1.8532mm|CornerRadius=0.15035mm|HoleSize=0mm|Usage=FLASHONLY|Rotation=0.000|XOffset=0mm|YOffset=0mm|HoleType=Round|Shape=RoundedRectangle|*
%AMROUNDEDRECTD116*
21,1,0.85320,1.55250,0,0,0.0*
21,1,0.55250,1.85320,0,0,0.0*
1,1,0.30070,0.27625,-0.77625*
1,1,0.30070,-0.27625,-0.77625*
1,1,0.30070,-0.27625,0.77625*
1,1,0.30070,0.27625,0.77625*
%
%ADD116ROUNDEDRECTD116*%
%ADD117R,1.40320X1.65320*%
%ADD118R,0.60320X0.68320*%
%ADD119R,0.68320X0.60320*%
%ADD120R,1.00320X1.10320*%
%ADD121R,1.11320X1.42320*%
%ADD122R,0.50320X1.60320*%
%ADD123R,1.05320X0.50320*%
%ADD124R,0.50320X1.05320*%
%ADD125R,2.80320X2.80320*%
%ADD126R,1.10320X1.00320*%
%ADD127R,1.72820X0.85320*%
%ADD128R,0.80320X1.50320*%
%ADD129R,1.10320X2.30320*%
%ADD130R,3.40320X2.30320*%
D11*
X17720006Y8969985D02*
G03*
X17720006Y8969985I-150012J0D01*
G01*
X17720007Y12969978D02*
G03*
X17720007Y12969978I-150012J0D01*
G01*
X11720018D02*
G03*
X11720018Y12969978I-150012J0D01*
G01*
X11720018Y8969986D02*
G03*
X11720018Y8969986I-150012J0D01*
G01*
D12*
X9007593Y11116961D02*
D03*
Y11181961D02*
D03*
Y11246961D02*
D03*
Y11311961D02*
D03*
Y11376961D02*
D03*
Y11441961D02*
D03*
Y11506961D02*
D03*
Y11571961D02*
D03*
X9587593D02*
D03*
Y11506961D02*
D03*
Y11441961D02*
D03*
Y11376961D02*
D03*
Y11311961D02*
D03*
Y11246961D02*
D03*
Y11181961D02*
D03*
Y11116961D02*
D03*
Y12072818D02*
D03*
Y12137818D02*
D03*
Y12202818D02*
D03*
Y12267818D02*
D03*
Y12332818D02*
D03*
Y12397818D02*
D03*
Y12462818D02*
D03*
Y12527818D02*
D03*
X9007593D02*
D03*
Y12462818D02*
D03*
Y12397818D02*
D03*
Y12332818D02*
D03*
Y12267818D02*
D03*
Y12202818D02*
D03*
Y12137818D02*
D03*
Y12072818D02*
D03*
X9587593Y10161104D02*
D03*
Y10226104D02*
D03*
Y10291104D02*
D03*
Y10356104D02*
D03*
Y10421104D02*
D03*
Y10486104D02*
D03*
Y10551104D02*
D03*
Y10616104D02*
D03*
X9007593D02*
D03*
Y10551104D02*
D03*
Y10486104D02*
D03*
Y10421104D02*
D03*
Y10356104D02*
D03*
Y10291104D02*
D03*
Y10226104D02*
D03*
Y10161104D02*
D03*
D13*
X10077280Y9770000D02*
D03*
Y9897000D02*
D03*
Y10024000D02*
D03*
Y10151000D02*
D03*
X10560000D02*
D03*
Y10024000D02*
D03*
Y9897000D02*
D03*
D14*
Y9770000D02*
D03*
D15*
X3708100Y11620000D02*
D03*
X3088100D02*
D03*
X4498100Y10880000D02*
D03*
X3878100D02*
D03*
X3318100Y11250000D02*
D03*
X2698101D02*
D03*
X4118100D02*
D03*
X3498100D02*
D03*
X4918100Y11250000D02*
D03*
X4298100D02*
D03*
D17*
X8889544Y8650312D02*
D03*
X9139544D02*
D03*
X9438832Y8653151D02*
D03*
X9688832D02*
D03*
D18*
X9014544Y8940312D02*
D03*
X9563832Y8943151D02*
D03*
D19*
X10775000Y11520000D02*
D03*
X10925000D02*
D03*
X10555000Y12610000D02*
D03*
X10405000D02*
D03*
X10255000D02*
D03*
X10105000D02*
D03*
X5545000Y10200000D02*
D03*
X5395000D02*
D03*
X5575000Y9000000D02*
D03*
X5725000D02*
D03*
X16795000Y9571250D02*
D03*
X16645000D02*
D03*
X7385000Y12400000D02*
D03*
X7535000D02*
D03*
X6220000Y12150000D02*
D03*
X6370000D02*
D03*
D22*
X5500000Y10955000D02*
D03*
Y11105000D02*
D03*
X6234908Y11224191D02*
D03*
Y11074191D02*
D03*
X9850000Y10975000D02*
D03*
Y11125000D02*
D03*
X9820000Y10265000D02*
D03*
Y10415000D02*
D03*
X10810000Y10780000D02*
D03*
Y10930000D02*
D03*
X9600000Y9695000D02*
D03*
Y9845000D02*
D03*
X8800000Y9235000D02*
D03*
Y9385000D02*
D03*
X7980000Y11775000D02*
D03*
Y11925000D02*
D03*
X10840000Y9750000D02*
D03*
Y9600000D02*
D03*
X7341642Y10966623D02*
D03*
Y11116623D02*
D03*
D27*
X16231355Y10988582D02*
D03*
Y10718583D02*
D03*
X16230000Y11725000D02*
D03*
Y11455000D02*
D03*
D31*
X17223853Y12480500D02*
D03*
Y11878500D02*
D03*
Y9958123D02*
D03*
Y10560123D02*
D03*
D34*
X15942500Y10910000D02*
D03*
X15857500D02*
D03*
X15942500Y11050000D02*
D03*
X15857500D02*
D03*
X15945000Y11190000D02*
D03*
X15860001D02*
D03*
X15944238Y11331164D02*
D03*
X15859238D02*
D03*
X15944238Y11472366D02*
D03*
X15859238D02*
D03*
X15942500Y11610000D02*
D03*
X15857500D02*
D03*
X9727500Y11700000D02*
D03*
X9812500D02*
D03*
D38*
X8279281Y10860317D02*
D03*
X8599281D02*
D03*
X8279281Y10380317D02*
D03*
X8599281D02*
D03*
X8279281Y10620317D02*
D03*
X8599281D02*
D03*
X8279281Y11100317D02*
D03*
X8599281D02*
D03*
X8279281Y11340317D02*
D03*
X8599281D02*
D03*
X8279281Y11580317D02*
D03*
X8599281D02*
D03*
X8279281Y11820317D02*
D03*
X8599281D02*
D03*
X8279281Y12060317D02*
D03*
X8599281D02*
D03*
X8279281Y12300317D02*
D03*
X8599281D02*
D03*
D46*
X10440000Y11700000D02*
D03*
X10160000D02*
D03*
D48*
X8589280Y10207834D02*
D03*
Y10122834D02*
D03*
X8289281Y10122834D02*
D03*
Y10207834D02*
D03*
D54*
X6623814Y10739736D02*
D03*
D55*
Y10612736D02*
D03*
Y10485736D02*
D03*
Y10358736D02*
D03*
X7087027D02*
D03*
Y10485736D02*
D03*
Y10612736D02*
D03*
Y10739736D02*
D03*
D71*
X4557594Y9639189D02*
D03*
D72*
X4557594Y9385190D02*
D03*
X4684594Y9512190D02*
D03*
X4430594D02*
D03*
D74*
X9280000Y11085000D02*
D03*
Y11195000D02*
D03*
D88*
X5980318Y9424022D02*
D03*
X5980318Y9224022D02*
D03*
X5977473Y9817089D02*
D03*
Y9617089D02*
D03*
X7150000Y11120000D02*
D03*
Y10920000D02*
D03*
X6370000Y11960000D02*
D03*
Y11760000D02*
D03*
D89*
X10323917Y14070567D02*
D03*
D90*
X10450918D02*
D03*
X10577917D02*
D03*
X10704917D02*
D03*
D91*
X12930000Y14170000D02*
D03*
X17249995Y14170000D02*
D03*
X16995877Y14170000D02*
D03*
X16741760D02*
D03*
X16487643D02*
D03*
X16233525D02*
D03*
X15979408D02*
D03*
X15725291D02*
D03*
X15471173D02*
D03*
X15217056D02*
D03*
X14962939D02*
D03*
X14708821D02*
D03*
X14454704D02*
D03*
X14200587D02*
D03*
X13946469D02*
D03*
X13692352D02*
D03*
X13438234D02*
D03*
X13184117D02*
D03*
Y13960001D02*
D03*
X13438234D02*
D03*
X13692352D02*
D03*
X13946469D02*
D03*
X14200587D02*
D03*
X14454704D02*
D03*
X14708821D02*
D03*
X14962939D02*
D03*
X15217056D02*
D03*
X15471173D02*
D03*
X15725291D02*
D03*
X15979408D02*
D03*
X16233525D02*
D03*
X16487643D02*
D03*
X16741760D02*
D03*
X16995877D02*
D03*
X17249995Y13960001D02*
D03*
X12930000Y13960001D02*
D03*
D92*
X17630809Y11819500D02*
D03*
Y10977555D02*
D03*
Y10559001D02*
D03*
Y9999782D02*
D03*
D93*
X17569994Y12969978D02*
D03*
X17569994Y8969985D02*
D03*
X11570006Y8969986D02*
D03*
X11570005Y12969978D02*
D03*
D94*
X11924996Y9294978D02*
D03*
X13315012Y9294979D02*
D03*
X14475005D02*
D03*
X15865019D02*
D03*
X11924997Y12894997D02*
D03*
X13315012Y12894997D02*
D03*
X14075005Y12894997D02*
D03*
X15464993Y12894997D02*
D03*
D95*
X1968100Y11240000D02*
D03*
Y10986000D02*
D03*
X2222100Y11494000D02*
D03*
X1460100D02*
D03*
Y10732000D02*
D03*
X2222100D02*
D03*
D96*
X6701013Y10001012D02*
D03*
X6362559Y10175417D02*
D03*
X6243989Y10293987D02*
D03*
X5850000Y10930000D02*
D03*
X6374582Y10057441D02*
D03*
X6224582Y10177441D02*
D03*
X6399998Y9999997D02*
D03*
X6304583Y10057441D02*
D03*
X6294582Y10177441D02*
D03*
X6234582Y10057441D02*
D03*
X9750000Y9650000D02*
D03*
X9800000Y9520000D02*
D03*
X10749997Y13299995D02*
D03*
Y13899995D02*
D03*
X9509451Y11451740D02*
D03*
X9438466Y11434726D02*
D03*
X10701012Y12668988D02*
D03*
X10320000Y12460000D02*
D03*
X9220000Y11750000D02*
D03*
X9866008Y12083984D02*
D03*
X10599997Y12999995D02*
D03*
X7599998Y10599997D02*
D03*
X6399998D02*
D03*
X6040000Y10930000D02*
D03*
X5850000Y11510000D02*
D03*
X5790000D02*
D03*
X5880000Y11150000D02*
D03*
X6340000Y10920000D02*
D03*
X17499995Y14199995D02*
D03*
X17649995Y13899995D02*
D03*
X17499995Y13599995D02*
D03*
X17649995Y13299995D02*
D03*
Y12699996D02*
D03*
X17499995Y12399996D02*
D03*
Y11199997D02*
D03*
Y10599997D02*
D03*
X17649995Y10299997D02*
D03*
X17199995Y13599995D02*
D03*
Y11199997D02*
D03*
X17349995Y10899997D02*
D03*
Y10299997D02*
D03*
Y9099997D02*
D03*
X17199995Y8799997D02*
D03*
X16899995Y12399996D02*
D03*
Y11199997D02*
D03*
X17049995Y10899997D02*
D03*
X16899995Y10599997D02*
D03*
X17049995Y10299997D02*
D03*
Y9099997D02*
D03*
X16899995Y8799997D02*
D03*
X16599995Y14199995D02*
D03*
X16749995Y12099996D02*
D03*
Y11499997D02*
D03*
Y9099997D02*
D03*
X16599995Y8799997D02*
D03*
X16299995D02*
D03*
X15999995Y13599995D02*
D03*
X16149995Y13299995D02*
D03*
X15999995Y12999995D02*
D03*
Y12399996D02*
D03*
Y11799996D02*
D03*
Y10599997D02*
D03*
Y9999997D02*
D03*
X16149995Y9699997D02*
D03*
Y9099997D02*
D03*
X15999995Y8799997D02*
D03*
X15699995Y12399996D02*
D03*
X15849995Y12099996D02*
D03*
X15699995Y11799996D02*
D03*
Y10599997D02*
D03*
X15849995Y10299997D02*
D03*
X15699995Y9999997D02*
D03*
X15849995Y9699997D02*
D03*
X15549995Y12699996D02*
D03*
X15399995Y12399996D02*
D03*
X15549995Y12099996D02*
D03*
X15399995Y11799996D02*
D03*
X15549995Y10899997D02*
D03*
X15399995Y10599997D02*
D03*
X15549995Y10299997D02*
D03*
X15399995Y9999997D02*
D03*
X15549995Y9099997D02*
D03*
X15399995Y8799997D02*
D03*
X15099995Y14199995D02*
D03*
Y13599995D02*
D03*
Y11799996D02*
D03*
X15249995Y10899997D02*
D03*
X15099995Y10599997D02*
D03*
X15249995Y10299997D02*
D03*
X15099995Y9999997D02*
D03*
X15249995Y9699997D02*
D03*
Y9099997D02*
D03*
X15099995Y8799997D02*
D03*
X14799995Y13599995D02*
D03*
Y11799996D02*
D03*
X14949995Y10899997D02*
D03*
X14799995Y10599997D02*
D03*
X14949995Y10299997D02*
D03*
X14799995Y9999997D02*
D03*
X14949995Y9699997D02*
D03*
Y9099997D02*
D03*
X14799995Y8799997D02*
D03*
X14649995Y10899997D02*
D03*
X14499995Y10599997D02*
D03*
X14649995Y10299997D02*
D03*
X14499995Y9999997D02*
D03*
X14649995Y9699997D02*
D03*
Y9099997D02*
D03*
X14499995Y8799997D02*
D03*
X14199995Y11799996D02*
D03*
Y11199997D02*
D03*
X14349995Y10899997D02*
D03*
X14199995Y10599997D02*
D03*
X14349995Y10299997D02*
D03*
X14199995Y9999997D02*
D03*
X14349995Y9699997D02*
D03*
Y9099997D02*
D03*
X14199995Y8799997D02*
D03*
X13899995Y12999995D02*
D03*
X14049995Y12699996D02*
D03*
X13899995Y11199997D02*
D03*
Y10599997D02*
D03*
X14049995Y10299997D02*
D03*
X13899995Y9999997D02*
D03*
X14049995Y9699997D02*
D03*
Y9099997D02*
D03*
X13899995Y8799997D02*
D03*
X13599995Y12999995D02*
D03*
X13749995Y12699996D02*
D03*
X13599995Y11799996D02*
D03*
Y11199997D02*
D03*
Y10599997D02*
D03*
X13749995Y10299997D02*
D03*
X13599995Y9999997D02*
D03*
X13749995Y9699997D02*
D03*
Y9099997D02*
D03*
X13599995Y8799997D02*
D03*
X13299995Y14199995D02*
D03*
Y12999995D02*
D03*
X13449995Y12699996D02*
D03*
Y12099996D02*
D03*
X13299995Y11799996D02*
D03*
Y10599997D02*
D03*
X13449995Y10299997D02*
D03*
X13299995Y9999997D02*
D03*
X13449995Y9699997D02*
D03*
Y9099997D02*
D03*
X13299995Y8799997D02*
D03*
X12999995Y13599995D02*
D03*
X13149995Y13299995D02*
D03*
Y12099996D02*
D03*
X12999995Y11799996D02*
D03*
Y11199997D02*
D03*
Y10599997D02*
D03*
Y9999997D02*
D03*
X13149995Y9699997D02*
D03*
Y9099997D02*
D03*
X12999995Y8799997D02*
D03*
X12699996Y14199995D02*
D03*
Y13599995D02*
D03*
X12849995Y13299995D02*
D03*
Y12099996D02*
D03*
X12699996Y11799996D02*
D03*
Y11199997D02*
D03*
Y9999997D02*
D03*
X12849995Y9699997D02*
D03*
Y9099997D02*
D03*
X12699996Y8799997D02*
D03*
X12399996Y14199995D02*
D03*
X12549996Y13899995D02*
D03*
X12399996Y13599995D02*
D03*
X12549996Y13299995D02*
D03*
Y12099996D02*
D03*
X12399996Y11799996D02*
D03*
Y11199997D02*
D03*
Y9999997D02*
D03*
X12549996Y9699997D02*
D03*
Y9099997D02*
D03*
X12399996Y8799997D02*
D03*
X12099996Y14199995D02*
D03*
X12249996Y13899995D02*
D03*
X12099996Y13599995D02*
D03*
X12249996Y13299995D02*
D03*
Y12099996D02*
D03*
X12099996Y11799996D02*
D03*
Y11199997D02*
D03*
X12249996Y10899997D02*
D03*
X12099996Y10599997D02*
D03*
X12249996Y9699997D02*
D03*
Y9099997D02*
D03*
X12099996Y8799997D02*
D03*
X11799996Y14199995D02*
D03*
X11949996Y13899995D02*
D03*
X11799996Y13599995D02*
D03*
X11949996Y13299995D02*
D03*
X11799996Y12999995D02*
D03*
X11949996Y12099996D02*
D03*
X11799996Y11799996D02*
D03*
Y11199997D02*
D03*
X11949996Y10899997D02*
D03*
X11799996Y10599997D02*
D03*
X11949996Y9699997D02*
D03*
X11799996Y9399997D02*
D03*
X11949996Y9099997D02*
D03*
X11799996Y8799997D02*
D03*
X11499997Y14199995D02*
D03*
X11649997Y13899995D02*
D03*
X11499997Y13599995D02*
D03*
X11649997Y13299995D02*
D03*
Y12099996D02*
D03*
X11499997Y11799996D02*
D03*
Y11199997D02*
D03*
X11649997Y10899997D02*
D03*
X11499997Y10599997D02*
D03*
X11649997Y10299997D02*
D03*
X11199997Y14199995D02*
D03*
X11349997Y13899995D02*
D03*
X11199997Y13599995D02*
D03*
X11349997Y13299995D02*
D03*
X11199997Y12999995D02*
D03*
X11349997Y12099996D02*
D03*
X11199997Y11799996D02*
D03*
Y11199997D02*
D03*
X11349997Y10899997D02*
D03*
Y10299997D02*
D03*
Y9099997D02*
D03*
X11199997Y8799997D02*
D03*
X10899997Y14199995D02*
D03*
X11049997Y13899995D02*
D03*
X10899997Y13599995D02*
D03*
X11049997Y13299995D02*
D03*
X10899997Y12999995D02*
D03*
X11049997Y12099996D02*
D03*
X10899997Y11799996D02*
D03*
Y11199997D02*
D03*
X10599997Y14199995D02*
D03*
Y13599995D02*
D03*
X10749997Y12099996D02*
D03*
X10299997Y14199995D02*
D03*
X10449997Y13899995D02*
D03*
X10299997Y13599995D02*
D03*
X10449997Y13299995D02*
D03*
X10299997Y12999995D02*
D03*
Y11199997D02*
D03*
X9999997Y14199995D02*
D03*
X10149997Y13899995D02*
D03*
X9999997Y13599995D02*
D03*
X10149997Y13299995D02*
D03*
Y10899997D02*
D03*
X9699997Y14199995D02*
D03*
X9849997Y13899995D02*
D03*
X9699997Y13599995D02*
D03*
X9849997Y13299995D02*
D03*
X9699997Y12999995D02*
D03*
X9399997Y14199995D02*
D03*
X9549997Y13899995D02*
D03*
X9399997Y13599995D02*
D03*
X9549997Y13299995D02*
D03*
X9399997Y12999995D02*
D03*
X9099997Y14199995D02*
D03*
X9249997Y13899995D02*
D03*
X9099997Y13599995D02*
D03*
X9249997Y13299995D02*
D03*
X9099997Y12999995D02*
D03*
X9249997Y9699997D02*
D03*
X8799997Y14199995D02*
D03*
X8949997Y13899995D02*
D03*
X8799997Y13599995D02*
D03*
X8949997Y13299995D02*
D03*
X8799997Y12999995D02*
D03*
Y12399996D02*
D03*
X8949997Y9699997D02*
D03*
X8799997Y8799997D02*
D03*
X8499997Y14199995D02*
D03*
X8649997Y13899995D02*
D03*
X8499997Y13599995D02*
D03*
X8649997Y13299995D02*
D03*
X8499997Y12999995D02*
D03*
X8649997Y9099997D02*
D03*
X8499997Y8799997D02*
D03*
X8199998Y14199995D02*
D03*
X8349998Y13899995D02*
D03*
X8199998Y13599995D02*
D03*
X8349998Y13299995D02*
D03*
X8199998Y12999995D02*
D03*
X8349998Y9699997D02*
D03*
Y9099997D02*
D03*
X8199998Y8799997D02*
D03*
X7899998Y14199995D02*
D03*
X8049998Y13899995D02*
D03*
X7899998Y13599995D02*
D03*
X8049998Y13299995D02*
D03*
X7899998Y12999995D02*
D03*
X8049998Y12699996D02*
D03*
Y12099996D02*
D03*
Y10899997D02*
D03*
X7899998Y10599997D02*
D03*
X8049998Y10299997D02*
D03*
X7899998Y9999997D02*
D03*
X8049998Y9699997D02*
D03*
Y9099997D02*
D03*
X7899998Y8799997D02*
D03*
X7599998Y14199995D02*
D03*
X7749998Y13899995D02*
D03*
Y13299995D02*
D03*
X7599998Y12999995D02*
D03*
X7749998Y12699996D02*
D03*
Y10899997D02*
D03*
Y10299997D02*
D03*
X7599998Y9999997D02*
D03*
X7749998Y9699997D02*
D03*
Y9099997D02*
D03*
X7599998Y8799997D02*
D03*
X7299998Y14199995D02*
D03*
X7449998Y13899995D02*
D03*
X7299998Y13599995D02*
D03*
Y12999995D02*
D03*
X7449998Y12699996D02*
D03*
Y10899997D02*
D03*
Y10299997D02*
D03*
X7299998Y9399997D02*
D03*
X7449998Y9099997D02*
D03*
X7299998Y8799997D02*
D03*
X6999998Y14199995D02*
D03*
X7149998Y13899995D02*
D03*
X6999998Y13599995D02*
D03*
X7149998Y13299995D02*
D03*
Y12699996D02*
D03*
X6999998Y12399996D02*
D03*
Y9999997D02*
D03*
X7149998Y9699997D02*
D03*
X6999998Y9399997D02*
D03*
X7149998Y9099997D02*
D03*
X6999998Y8799997D02*
D03*
X6699998Y14199995D02*
D03*
X6849998Y13899995D02*
D03*
X6699998Y13599995D02*
D03*
X6849998Y13299995D02*
D03*
X6699998Y12999995D02*
D03*
Y12399996D02*
D03*
X6849998Y10299997D02*
D03*
Y9699997D02*
D03*
X6699998Y9399997D02*
D03*
X6849998Y9099997D02*
D03*
X6399998Y14199995D02*
D03*
X6549998Y13899995D02*
D03*
X6399998Y13599995D02*
D03*
X6549998Y13299995D02*
D03*
X6399998Y12999995D02*
D03*
X6549998Y12699996D02*
D03*
Y9699997D02*
D03*
X6399998Y9399997D02*
D03*
X6549998Y9099997D02*
D03*
X6399998Y8799997D02*
D03*
X6099998Y14199995D02*
D03*
X6249998Y13899995D02*
D03*
X6099998Y13599995D02*
D03*
X6249998Y13299995D02*
D03*
X6099998Y12999995D02*
D03*
X6249998Y12699996D02*
D03*
X6099998Y12399996D02*
D03*
Y11799996D02*
D03*
X6249998Y11499997D02*
D03*
Y9699997D02*
D03*
Y9099997D02*
D03*
X5799998Y14199995D02*
D03*
X5949998Y13899995D02*
D03*
X5799998Y13599995D02*
D03*
X5949998Y13299995D02*
D03*
X5799998Y12999995D02*
D03*
X5949998Y12699996D02*
D03*
X5799998Y12399996D02*
D03*
X5949998Y12099996D02*
D03*
Y9099997D02*
D03*
X5799998Y8799997D02*
D03*
X5499998Y14199995D02*
D03*
X5649998Y13899995D02*
D03*
X5499998Y13599995D02*
D03*
X5649998Y13299995D02*
D03*
X5499998Y12999995D02*
D03*
X5649998Y12699996D02*
D03*
X5499998Y12399996D02*
D03*
X5649998Y12099996D02*
D03*
X5499998Y11799996D02*
D03*
Y10599997D02*
D03*
X5649998Y10299997D02*
D03*
X5499998Y8799997D02*
D03*
X10320000Y12710000D02*
D03*
X9152012Y12470012D02*
D03*
X9162505Y12544907D02*
D03*
X7385000Y12292500D02*
D03*
X9195700Y10550000D02*
D03*
Y10478685D02*
D03*
X9479935Y10498000D02*
D03*
X10170000Y10430000D02*
D03*
X5510000Y11200000D02*
D03*
X6240000Y11320000D02*
D03*
X10480000Y12440000D02*
D03*
X5912513Y11510679D02*
D03*
X9384300Y11740000D02*
D03*
X9910000Y12440000D02*
D03*
X9420417Y12462638D02*
D03*
X9310000Y11650000D02*
D03*
X6440000Y11400000D02*
D03*
X7025947Y10486686D02*
D03*
X6360000Y11650000D02*
D03*
X7030000Y10060000D02*
D03*
X7170000D02*
D03*
X7100000D02*
D03*
X7695700Y11790000D02*
D03*
X14870000Y13110001D02*
D03*
X15325700Y13104300D02*
D03*
X15267654Y12872346D02*
D03*
X15152315Y12337685D02*
D03*
X11590000Y9640000D02*
D03*
X11680000D02*
D03*
X15800000Y10910000D02*
D03*
Y11050000D02*
D03*
Y11190000D02*
D03*
X8900000Y9140000D02*
D03*
X8779122Y11106636D02*
D03*
X8710000Y11950000D02*
D03*
X9010000Y10109371D02*
D03*
X9220000Y10740000D02*
D03*
X8300000Y10040000D02*
D03*
X8080000Y10040000D02*
D03*
X7010000Y11530000D02*
D03*
X5450000Y9510000D02*
D03*
X5574905Y9669434D02*
D03*
X9450000Y8808000D02*
D03*
X9140000Y8750000D02*
D03*
X5814237Y9014237D02*
D03*
X9380000Y9770000D02*
D03*
X9210000D02*
D03*
X9350000Y10690000D02*
D03*
X8840000Y9730000D02*
D03*
X9940000Y10690000D02*
D03*
X16139999Y12240000D02*
D03*
X16100000Y12939999D02*
D03*
Y9430000D02*
D03*
X11060000Y10870000D02*
D03*
X10310000Y10280000D02*
D03*
X9940000Y10320000D02*
D03*
X16150000Y10390000D02*
D03*
Y10330000D02*
D03*
Y10270000D02*
D03*
X5570000Y10307500D02*
D03*
X15800000Y11330000D02*
D03*
Y11470000D02*
D03*
Y11610000D02*
D03*
X6470000Y11970000D02*
D03*
X7250000Y11120000D02*
D03*
X16730000Y10110000D02*
D03*
Y10180000D02*
D03*
Y10240000D02*
D03*
Y10300000D02*
D03*
X16730305Y10360801D02*
D03*
Y10420801D02*
D03*
Y10480801D02*
D03*
Y10540801D02*
D03*
Y10600801D02*
D03*
X16669843Y10635888D02*
D03*
Y10575888D02*
D03*
Y10515888D02*
D03*
Y10455888D02*
D03*
Y10395888D02*
D03*
X16669537Y10335087D02*
D03*
Y10275087D02*
D03*
Y10215087D02*
D03*
Y10145087D02*
D03*
X16619843Y10595888D02*
D03*
Y10535888D02*
D03*
Y10475888D02*
D03*
Y10415888D02*
D03*
Y10355888D02*
D03*
X16619537Y10295087D02*
D03*
Y10235087D02*
D03*
Y10175087D02*
D03*
Y10105087D02*
D03*
X16620511Y10655954D02*
D03*
Y10715954D02*
D03*
Y10775954D02*
D03*
Y10835954D02*
D03*
X16670511Y10695954D02*
D03*
Y10755954D02*
D03*
Y10815954D02*
D03*
Y10875954D02*
D03*
X16730974Y10840867D02*
D03*
Y10780867D02*
D03*
Y10720867D02*
D03*
Y10660867D02*
D03*
X16970000Y9530000D02*
D03*
X17039999D02*
D03*
X17100000D02*
D03*
X17160001D02*
D03*
X17220801Y9529695D02*
D03*
X17280801D02*
D03*
X17340800D02*
D03*
X17400801D02*
D03*
X17460802D02*
D03*
X17495888Y9590157D02*
D03*
X17435889D02*
D03*
X17375888D02*
D03*
X17315887D02*
D03*
X17255888D02*
D03*
X17195087Y9590463D02*
D03*
X17135088D02*
D03*
X17075087D02*
D03*
X17005087D02*
D03*
X17455888Y9640157D02*
D03*
X17395888D02*
D03*
X17335889D02*
D03*
X17275888D02*
D03*
X17215887D02*
D03*
X17155087Y9640463D02*
D03*
X17095087D02*
D03*
X17035088D02*
D03*
X16965086D02*
D03*
X17515955Y9639489D02*
D03*
X17575954D02*
D03*
X17635954D02*
D03*
X17695953D02*
D03*
X17555954Y9589489D02*
D03*
X17615955D02*
D03*
X17675954D02*
D03*
X17735954D02*
D03*
X17700867Y9529026D02*
D03*
X17640868D02*
D03*
X17580867D02*
D03*
X17520866D02*
D03*
X16650867Y12659026D02*
D03*
X16710867D02*
D03*
X16770866D02*
D03*
X16830867D02*
D03*
X16865955Y12719489D02*
D03*
X16805954D02*
D03*
X16745953D02*
D03*
X16685954D02*
D03*
X16825954Y12769489D02*
D03*
X16765955D02*
D03*
X16705954D02*
D03*
X16645953D02*
D03*
X16855954Y12819489D02*
D03*
X16795953D02*
D03*
X16735954D02*
D03*
X16675954D02*
D03*
X16825954Y12869489D02*
D03*
X16765955D02*
D03*
X16705954D02*
D03*
X16645953D02*
D03*
X16890868Y12659026D02*
D03*
X16950867D02*
D03*
X17010867D02*
D03*
X17070866D02*
D03*
X17105954Y12719489D02*
D03*
X17045953D02*
D03*
X16985954D02*
D03*
X16925954D02*
D03*
X17065955Y12769489D02*
D03*
X17005954D02*
D03*
X16945953D02*
D03*
X16885954D02*
D03*
X17095953Y12819489D02*
D03*
X17035954D02*
D03*
X16975954D02*
D03*
X16915955D02*
D03*
X17065955Y12869489D02*
D03*
X17005954D02*
D03*
X16945953D02*
D03*
X16885954D02*
D03*
X17130867Y12659026D02*
D03*
X17190868D02*
D03*
X17250867D02*
D03*
X17310867D02*
D03*
X17345953Y12719489D02*
D03*
X17285954D02*
D03*
X17225954D02*
D03*
X17165955D02*
D03*
X17305954Y12769489D02*
D03*
X17245953D02*
D03*
X17185954D02*
D03*
X17125954D02*
D03*
X17335954Y12819489D02*
D03*
X17275954D02*
D03*
X17215955D02*
D03*
X17155954D02*
D03*
X17120866Y12869026D02*
D03*
X17180867D02*
D03*
X17240868D02*
D03*
X17300867D02*
D03*
X17335954Y12929489D02*
D03*
X17275954D02*
D03*
X17215955D02*
D03*
X17155954D02*
D03*
X17295953Y12979489D02*
D03*
X17235954D02*
D03*
X17175954D02*
D03*
X17115955D02*
D03*
X17325954Y13029489D02*
D03*
X17265955D02*
D03*
X17205954D02*
D03*
X17145953D02*
D03*
X17295953Y13079489D02*
D03*
X17235954D02*
D03*
X17175954D02*
D03*
X17115955D02*
D03*
X17120866Y13139026D02*
D03*
X17180867D02*
D03*
X17240868D02*
D03*
X17300867D02*
D03*
X17335954Y13199489D02*
D03*
X17275954D02*
D03*
X17215955D02*
D03*
X17155954D02*
D03*
X17295953Y13249489D02*
D03*
X17235954D02*
D03*
X17175954D02*
D03*
X17115955D02*
D03*
X17325954Y13299489D02*
D03*
X17265955D02*
D03*
X17205954D02*
D03*
X17145953D02*
D03*
X17295953Y13349489D02*
D03*
X17235954D02*
D03*
X17175954D02*
D03*
X17115955D02*
D03*
X17460867Y11419026D02*
D03*
X17520866D02*
D03*
X17580867D02*
D03*
X17640868D02*
D03*
X17675954Y11479489D02*
D03*
X17615955D02*
D03*
X17555954D02*
D03*
X17495953D02*
D03*
X17635954Y11529489D02*
D03*
X17575954D02*
D03*
X17515955D02*
D03*
X17455954D02*
D03*
X17665955Y11579489D02*
D03*
X17605954D02*
D03*
X17545953D02*
D03*
X17485954D02*
D03*
X17635954Y11629489D02*
D03*
X17575954D02*
D03*
X17515955D02*
D03*
X17455954D02*
D03*
X17220866Y11419026D02*
D03*
X17280867D02*
D03*
X17340868D02*
D03*
X17400867D02*
D03*
X17435954Y11479489D02*
D03*
X17375954D02*
D03*
X17315955D02*
D03*
X17255954D02*
D03*
X17395953Y11529489D02*
D03*
X17335954D02*
D03*
X17275954D02*
D03*
X17215955D02*
D03*
X17425954Y11579489D02*
D03*
X17365955D02*
D03*
X17305954D02*
D03*
X17245953D02*
D03*
X17395953Y11629489D02*
D03*
X17335954D02*
D03*
X17275954D02*
D03*
X17215955D02*
D03*
X16980867Y11419026D02*
D03*
X17040868D02*
D03*
X17100867D02*
D03*
X17160867D02*
D03*
X17195953Y11479489D02*
D03*
X17135954D02*
D03*
X17075954D02*
D03*
X17015955D02*
D03*
X17155954Y11529489D02*
D03*
X17095953D02*
D03*
X17035954D02*
D03*
X16975954D02*
D03*
X17185954Y11579489D02*
D03*
X17125954D02*
D03*
X17065955D02*
D03*
X17005954D02*
D03*
X17155954Y11629489D02*
D03*
X17095953D02*
D03*
X17035954D02*
D03*
X16975954D02*
D03*
X17490868Y9269026D02*
D03*
X17550867D02*
D03*
X17610867D02*
D03*
X17670866D02*
D03*
X17705954Y9329489D02*
D03*
X17645953D02*
D03*
X17585954D02*
D03*
X17525954D02*
D03*
X17665955Y9379489D02*
D03*
X17605954D02*
D03*
X17545953D02*
D03*
X17485954D02*
D03*
X17695953Y9429489D02*
D03*
X17635954D02*
D03*
X17575954D02*
D03*
X17515955D02*
D03*
X17665955Y9479489D02*
D03*
X17605954D02*
D03*
X17545953D02*
D03*
X17485954D02*
D03*
X16935088Y9480463D02*
D03*
X17005087D02*
D03*
X17065086D02*
D03*
X17125087D02*
D03*
X17185889Y9480157D02*
D03*
X17245888D02*
D03*
X17305888D02*
D03*
X17365887D02*
D03*
X17425888D02*
D03*
X16965086Y9430463D02*
D03*
X17035088D02*
D03*
X17095087D02*
D03*
X17155087D02*
D03*
X17215887Y9430157D02*
D03*
X17275888D02*
D03*
X17335889D02*
D03*
X17395888D02*
D03*
X17455888D02*
D03*
X16935088Y9380463D02*
D03*
X17005087D02*
D03*
X17065086D02*
D03*
X17125087D02*
D03*
X17185889Y9380157D02*
D03*
X17245888D02*
D03*
X17305888D02*
D03*
X17365887D02*
D03*
X17425888D02*
D03*
X16975087Y9330463D02*
D03*
X17045087D02*
D03*
X17105087D02*
D03*
X17165086D02*
D03*
X17225888Y9330157D02*
D03*
X17285889D02*
D03*
X17345888D02*
D03*
X17405888D02*
D03*
X17465887D02*
D03*
X17430801Y9269695D02*
D03*
X17370801D02*
D03*
X17310802D02*
D03*
X17250801D02*
D03*
X17190800D02*
D03*
X17130000Y9270000D02*
D03*
X17070000D02*
D03*
X17010001D02*
D03*
X16939999D02*
D03*
X9880000Y10155700D02*
D03*
X10640000Y10220000D02*
D03*
X9867203Y9771433D02*
D03*
X9870000Y9900000D02*
D03*
X15320000Y12370000D02*
D03*
X14522314Y12867685D02*
D03*
X15020000Y13110001D02*
D03*
X15170000D02*
D03*
X14820000Y12870000D02*
D03*
X14970000D02*
D03*
X15120000D02*
D03*
X9195700Y10620000D02*
D03*
X9150000Y12376600D02*
D03*
X15170000Y12670000D02*
D03*
X9415874Y10548570D02*
D03*
X9150136Y11506379D02*
D03*
X9150000Y11570000D02*
D03*
X15270000Y12430000D02*
D03*
X10010000Y12220000D02*
D03*
X9150000Y11440000D02*
D03*
X9010000Y12010000D02*
D03*
Y11059686D02*
D03*
D101*
X7990410Y11275391D02*
D03*
Y11402391D02*
D03*
Y11529391D02*
D03*
Y11656391D02*
D03*
X7500410Y11275391D02*
D03*
Y11402391D02*
D03*
Y11529391D02*
D03*
Y11656391D02*
D03*
D102*
X9810000Y12622500D02*
D03*
Y12477500D02*
D03*
X9610000Y10860000D02*
D03*
Y10715000D02*
D03*
X9600000Y11822500D02*
D03*
Y11677500D02*
D03*
D103*
X8912500Y11950000D02*
D03*
X8767500D02*
D03*
X8922500Y11010000D02*
D03*
X8777500D02*
D03*
X8789998Y10035000D02*
D03*
X8934998D02*
D03*
D104*
X16720000Y9382500D02*
D03*
Y9237500D02*
D03*
X16460001Y12867500D02*
D03*
Y13012500D02*
D03*
X16489999Y9800000D02*
D03*
Y9654999D02*
D03*
X9730000Y9367500D02*
D03*
Y9512500D02*
D03*
X8840000Y9494999D02*
D03*
Y9640000D02*
D03*
X9850000Y10692500D02*
D03*
Y10547500D02*
D03*
X10320000Y9652500D02*
D03*
Y9507500D02*
D03*
X10847938Y10187394D02*
D03*
Y10332394D02*
D03*
X11242243Y10185056D02*
D03*
Y10330057D02*
D03*
X10960000Y10727500D02*
D03*
Y10872500D02*
D03*
X10580000Y11902500D02*
D03*
Y11757500D02*
D03*
X9450000Y11737500D02*
D03*
Y11882500D02*
D03*
X9301351Y11741212D02*
D03*
Y11886212D02*
D03*
X9131351Y11741211D02*
D03*
Y11886211D02*
D03*
X9138325Y10781494D02*
D03*
X9138325Y10926494D02*
D03*
X9474054Y10778923D02*
D03*
Y10923923D02*
D03*
X9303375Y10778923D02*
D03*
Y10923923D02*
D03*
X9474114Y9846909D02*
D03*
Y9991909D02*
D03*
X9301351Y9846909D02*
D03*
Y9991909D02*
D03*
X9131351Y9846909D02*
D03*
Y9991910D02*
D03*
D105*
X16545000Y12189999D02*
D03*
X16845000Y12189999D02*
D03*
X16832500Y10248624D02*
D03*
X16532500D02*
D03*
X16532500Y11009082D02*
D03*
X16832500D02*
D03*
D106*
X16695000Y12209999D02*
D03*
X16682500Y10228623D02*
D03*
Y10989082D02*
D03*
D107*
X16695000Y12439999D02*
D03*
X16682500Y9998624D02*
D03*
Y10759082D02*
D03*
D108*
X16530000Y11454541D02*
D03*
X16830000D02*
D03*
D109*
X16680000Y11474541D02*
D03*
D110*
Y11724541D02*
D03*
D111*
X16400000Y9430000D02*
D03*
X16589999D02*
D03*
X16589999Y9175000D02*
D03*
X16495000D02*
D03*
X16400000D02*
D03*
D112*
X16231355Y10306124D02*
D03*
Y9851123D02*
D03*
X16230771Y12132500D02*
D03*
Y12587500D02*
D03*
D113*
X9579526Y9230972D02*
D03*
X9579526Y9357972D02*
D03*
Y9484972D02*
D03*
Y9611972D02*
D03*
X9014527Y9230972D02*
D03*
Y9357972D02*
D03*
Y9484972D02*
D03*
Y9611972D02*
D03*
X10042039Y10817319D02*
D03*
Y10690319D02*
D03*
Y10563319D02*
D03*
Y10436319D02*
D03*
X10607039Y10817319D02*
D03*
Y10690319D02*
D03*
Y10563319D02*
D03*
Y10436319D02*
D03*
X10042039Y11510817D02*
D03*
Y11383817D02*
D03*
Y11256817D02*
D03*
Y11129817D02*
D03*
X10607039Y11510817D02*
D03*
Y11383817D02*
D03*
Y11256817D02*
D03*
Y11129817D02*
D03*
X6574490Y12346905D02*
D03*
Y12219905D02*
D03*
Y12092905D02*
D03*
Y11965905D02*
D03*
X7139489Y12346905D02*
D03*
Y12219905D02*
D03*
Y12092905D02*
D03*
Y11965905D02*
D03*
D114*
X6168579Y10568579D02*
D03*
X6310000Y10710000D02*
D03*
D115*
X16292500Y12939999D02*
D03*
X16147501D02*
D03*
X16302499Y9430000D02*
D03*
X16157500D02*
D03*
X11115000Y10260000D02*
D03*
X10970000D02*
D03*
X10526426Y10978891D02*
D03*
X10671427D02*
D03*
X10250000Y10980000D02*
D03*
X10395000D02*
D03*
X10507499Y12120000D02*
D03*
X10652500D02*
D03*
X9975000Y12340000D02*
D03*
X10120000D02*
D03*
D116*
X5828473Y9797089D02*
D03*
X5701473Y9797089D02*
D03*
X5574473D02*
D03*
X5447473Y9797089D02*
D03*
X5828474Y9232089D02*
D03*
X5701473Y9232089D02*
D03*
X5574473D02*
D03*
X5447473D02*
D03*
D117*
X5777547Y9989610D02*
D03*
X5977547Y9989611D02*
D03*
X5606997Y9991431D02*
D03*
X5406997D02*
D03*
D118*
X11260000Y10604000D02*
D03*
Y10736000D02*
D03*
X11376723Y10737270D02*
D03*
Y10605269D02*
D03*
D119*
X10072001Y10280000D02*
D03*
X9940000D02*
D03*
X10272000Y10280000D02*
D03*
X10140000Y10280000D02*
D03*
X10472000D02*
D03*
X10340000D02*
D03*
X10676000Y10280000D02*
D03*
X10544000Y10280000D02*
D03*
D120*
X11046500Y10115456D02*
D03*
X11141500Y9915456D02*
D03*
X10951499D02*
D03*
X11052500Y10400000D02*
D03*
X10957501Y10600000D02*
D03*
X11147500D02*
D03*
D121*
X11583500Y9730000D02*
D03*
X11256500D02*
D03*
Y9920000D02*
D03*
X11583500D02*
D03*
D122*
X10202500Y11902189D02*
D03*
X10252500Y11902189D02*
D03*
X10302500D02*
D03*
X10352499D02*
D03*
X10402500Y11902189D02*
D03*
Y12342189D02*
D03*
X10352500D02*
D03*
X10302500D02*
D03*
X10252500D02*
D03*
X10202500D02*
D03*
D123*
X5659958Y11325124D02*
D03*
Y11275123D02*
D03*
Y11225124D02*
D03*
Y11175124D02*
D03*
Y11125124D02*
D03*
X6049958D02*
D03*
Y11175124D02*
D03*
Y11225124D02*
D03*
Y11275123D02*
D03*
Y11325124D02*
D03*
D124*
X5754958Y11030123D02*
D03*
X5804958D02*
D03*
X5854958D02*
D03*
X5904958D02*
D03*
X5954958D02*
D03*
Y11420124D02*
D03*
X5904958D02*
D03*
X5854958D02*
D03*
X5804958D02*
D03*
X5754958D02*
D03*
D125*
X5854958Y11225124D02*
D03*
D126*
X7580410Y12123818D02*
D03*
X7380410Y12028818D02*
D03*
Y12218818D02*
D03*
D127*
X7128190Y11656391D02*
D03*
Y11529391D02*
D03*
Y11402391D02*
D03*
Y11275391D02*
D03*
X6585789D02*
D03*
Y11402391D02*
D03*
Y11529391D02*
D03*
Y11656391D02*
D03*
D128*
X6856990Y10902321D02*
D03*
X6761990Y11072321D02*
D03*
X6951990D02*
D03*
D129*
X16930000Y13514999D02*
D03*
X16700000D02*
D03*
X16470000D02*
D03*
D130*
X16700000Y12945000D02*
D03*
%TF.MD5,00c8c85f99824249a67c5d4aa3b34e49*%
M02*
