M48
;Layer_Color=9474304
;FILE_FORMAT=4:4
METRIC,LZ
;TYPE=PLATED
T1F00S00C0.2000
T2F00S00C0.3000
T3F00S00C0.6000
T4F00S00C0.7620
T5F00S00C0.8000
T6F00S00C0.8128
T7F00S00C0.9000
;TYPE=NON_PLATED
T8F00S00C0.5499
T9F00S00C2.1999
%
T01
X00928Y011085
Y011195
T02
X0055Y0088
X0058
X00581424Y00901424
X00595Y0091
X00625
X00655
X00685
X00715
X00745
X00775
X0079Y0088
X0076
X0073
X007
Y0094
X0073
X00715Y0097
X00685
X00655
X00625
X00623458Y01005744
X00630458
X00637458
X0064Y01
X00636256Y01017542
X00629458Y01017744
X00622458
X00624399Y01029399
X0064Y0106
X00634Y01092
X00604Y01093
X00585
X00588Y01115
X00585Y01151
X00579
X00591251Y01151068
X00625Y0115
X00624Y01132
X00644Y0114
X00636Y01165
X0061Y0118
X0055
X00551Y0112
X0055Y0106
X00557Y0103075
X00565Y0103
X00557491Y00966943
X00545Y00951
X0064Y0094
X0067
X00670101Y01000101
X007Y01
X00703Y01006
X0071
X00717
X0076Y01
X0079
X00775Y0103
X00745
X0076Y0106
X0079
X00775Y0109
X00745
X00725Y01112
X00701Y01153
X0076957Y01179
X00702595Y01048669
X00685Y0103
X00775Y0097
X0064Y0088
X0082
X0085
X0088
X00914Y00875
X00945Y008808
X0089Y00914
X00865Y0091
X00835
X00805
Y0097
X00835
X0083Y01004
X00808Y01004
X00805Y0103
Y0109
X00877912Y01110664
X00901Y01105969
X00915Y01144
X00915014Y01150638
X00915Y01157
X00931Y01165
X0093843Y01174
X00922Y01175
X00943847Y01143473
X00950945Y01145174
X00935Y01069
X00922Y01074
X0091957Y01062
Y01055
Y01047868
X00941587Y01054857
X00947993Y010498
X00994Y01032
X00988Y0101557
X00987Y0099
X0098672Y00977143
X00975Y00965
X0098Y00952
X00938Y00977
X00921
X00925Y0097
X00895
X00884Y00973
X00901Y01010937
X01031Y01028
X01017Y01043
X01015Y0109
X00994Y01069
X0103Y0112
X0109
X0112
X0115
X0118
X01165Y0109
X01135
X01106Y01087
X0115Y0106
X0118
X01165Y0103
X01135
X01064Y01022
X01159Y00964
X01168
X0118Y0094
Y0088
X0112
X01135Y0091
X0115Y0118
X0118
X0112
X0109
X0121
X0124
X0127
X013
X0133
X0136
X0142
X0148
X0151
X0154
X0157
X0158Y01161
Y01147
Y01133
Y01119
Y01105
Y01091
X01555Y0109
X01525
X01495
X01465
X01435
X0145Y0106
X0148
X0151
X0154
X0157
X01585Y0103
X01555
X01525
X01495
X01465
X01435
X01405
X01375
X01345
X0136Y0106
X0139
X0142
Y0112
X0139
X0136
X013
X0127
X0124
X0121
X01225Y0109
X01195
X0121Y0106
X013
X0133
Y01
X0136
X0139
X0142
X0145
X0148
X0151
X0154
X0157
X01585Y0097
X01525
X01495
X01465
X01435
X01405
X01375
X01345
X01315
X01285
X01255
X01225
X01195
Y0091
X01225
X01255
X01285
X01315
X01345
X01375
X01405
X01435
X01465
X01495
X01525
X01555
X0154Y0088
X0151
X0148
X0145
X0142
X0139
X0136
X0133
X013
X0127
X0124
X0121
X0124Y01
X0127
X013
X016
X01615Y01027
Y01033
Y01039
X016Y0106
X01661984Y01059589
Y01053589
Y01047589
Y01041589
Y01035589
X01661954Y01029509
Y01023509
Y01017509
Y01010509
X01666954Y01014509
Y01021509
Y01027509
Y01033509
X01666984Y01039589
Y01045589
Y01051589
Y01057589
Y01063589
X01667051Y01069595
Y01075595
Y01081595
Y01087595
X01662051Y01083595
Y01077595
Y01071595
Y01065595
X01673097Y01066087
Y01072087
Y01078087
Y01084087
X01673031Y0106008
Y0105408
Y0104808
Y0104208
Y0103608
X01673Y0103
Y01024
Y01018
Y01011
X01705Y0103
X01735
X01765
X0175Y0106
X01735Y0109
X01705
X0172Y0112
X01722087Y01141903
X01728087
X01734087
X01740087
X01746087
X01752087
X01758087
X01764087
X01761595Y01147949
X01767595
X01763595Y01152949
X01757595
X01751595
X01745595
X01739595
X01733595
X01727595
X01721595
X01715595
X01709595
X01703595
X01697595
X01700595Y01157949
X01706595
X01712595
X01718595
X01724595
X01730595
X01736595
X01742595
X01748595
X01754595
X01760595
X01766595
X01763595Y01162949
X01757595
X01751595
X01745595
X01739595
X01733595
X01727595
X01721595
X01715595
X01709595
X01703595
X01697595
X01701595Y01147949
X01707595
X01713595
X01719595
X01725595
X01731595
X01737595
X01743595
X01749595
X01755595
X0175Y0112
X01716087Y01141903
X01710087
X01704087
X01698087
X0169Y0112
X01675Y0115
X0169Y0106
X01696509Y00964046
X01703509
X01709509
X01715509
X01721589Y00964016
X01727589
X01733589
X01739589
X01745589
X01751595Y00963949
X01757595
X01763595
X01769595
X01767595Y00958949
X01773595
X01770087Y00952903
X01764087
X01758087
X01752087
X0174608Y0095297
X0174008
X0173408
X0172808
X0172208
X01716Y00953
X0171
X01704
X01697
X01693509Y00948046
X01700509
X01706509
X01712509
X01718589Y00948016
X01724589
X01730589
X01736589
X01742589
X01748595Y00947949
X01754595
X01760595
X01766595
X01763595Y00942949
X01769595
X01766595Y00937949
X01760595
X01754595
X01748595
X01742589Y00938016
X01736589
X01730589
X01724589
X01718589
X01712509Y00938046
X01706509
X01700509
X01693509
X01696509Y00943046
X01703509
X01709509
X01715509
X01721589Y00943016
X01727589
X01733589
X01739589
X01745589
X01751595Y00942949
X01757595
X01758595Y00932949
X01752595
X01746589Y00933016
X01740589
X01734589
X01728589
X01722589
X01716509Y00933046
X01710509
X01704509
X01697509
X01701Y00927
X01707
X01713
X0171908Y0092697
X0172508
X0173108
X0173708
X0174308
X01749087Y00926903
X01755087
X01761087
X01767087
X01764595Y00932949
X01770595
X01761595Y00958949
X01755595
X01749589Y00959016
X01743589
X01737589
X01731589
X01725589
X01719509Y00959046
X01713509
X01707509
X01700509
X01694Y00927
X01705Y0091
X01735
X0172Y0088
X0169
X0166
X0163
X016
X01615Y0091
X0161Y00943
X01615Y0097
X01675Y0091
X016Y0118
X01614Y01224
X016Y0124
Y013
X0161Y01294
X01615Y0133
X016Y0136
X0172
X01717595Y01334949
X01711595
X01714595Y01329949
X01720595
X01726595
X01732595
X01729595Y01334949
X01723595
Y01324949
X01729595
X01727595Y01319949
X01733595
X01730087Y01313903
X01724087
X01718087
X01712087
X01711595Y01307949
X01717595
X01723595
X01729595
X01726595Y01302949
X01732595
X01729595Y01297949
X01723595
X01717595
X01711595
X01714595Y01302949
X01720595
X01721595Y01292949
X01715595
X01718087Y01286903
X01712087
X01706595Y01286949
X01700595
X01694595
X01688595
X01682595
X01676595
X01670595
X01664595
X01667595Y01281949
X01673595
X01679595
X01685595
X01691595
X01697595
X01703595
X01709595
X01715595
X01721595
X01727595
X01733595
X01730595Y01276949
X01724595
X01718595
X01712595
X01706595
X01700595
X01694595
X01688595
X01682595
X01676595
X01670595
X01664595
X01668595Y01271949
X01674595
X01680595
X01686595
X01692595
X01698595
X01704595
X01710595
X01716595
X01722595
X01728595
X01734595
X01731087Y01265903
X01725087
X01719087
X01713087
X01707087
X01701087
X01695087
X01689087
X01683087
X01677087
X01671087
X01665087
X0169Y0124
X01675Y0121
X0175Y0124
X01765Y0127
X01730087Y01286903
X01724087
X01727595Y01292949
X01733595
X01721595Y01319949
X01715595
X01717595Y01324949
X01711595
X01765Y0133
X0175Y0136
X01765Y0139
X0175Y0142
X0166
X0151
Y0136
X0148
X01487Y01311
X01502
X01517
X0153257Y0131043
X01526765Y01287235
X01512Y01287
X01497
X01482
X01452231Y01286768
X01405Y0127
X01375
X01345
X0136Y013
X0139
X0133
X01315Y0133
X01285
X01255
X01225
X01195
X0121Y0136
X0124
X0127
X013
X01255Y0139
X01225
X01195
X0121Y0142
X0124
X0127
X0133
X01345Y0121
X01315
X01285
X01255
X01225
X01195
X01515231Y01233768
X01532Y01237
X0154Y0124
X01527Y01243
X01517Y01267
X01555Y0127
X0157Y0124
X01585Y0121
X01555
X01165
X01135
X01105
X01075
X01048Y01244
X01032Y01246
Y01271
X0103Y013
X0106
X0109
X0112
X01135Y0133
X01165
X0118Y0136
X0115
X0112
X0109
X0106
X0103
X01
X0097
X0094
X0091
X0088
X0085
X0082
X00835Y0139
X00865
X00895
X00925
X00955
X00985
X01015
X01045
X01075
X01105
X01135
X01165
X0118Y0142
X0115
X0112
X0109
X0106
X0103
X01
X0097
X0094
X0091
X0088
X0085
X0082
X00805Y0139
Y0133
X00835
X00865
X00895
X00925
X00955
X00985
X01015
X01045
X01075
X01105
X01070101Y01266899
X00991Y01244
X01001Y01222
X00986601Y01208398
X00942042Y01246264
X00915201Y01247001
X00916251Y01254491
X00915Y0123766
X0088Y0124
X00871Y01195
X00901Y01201
X00805Y0121
Y0127
X0082Y013
X0085
X0088
X0091
X0094
X0097
X0118
X0079
X0076
X0073
X00745Y0127
X00775
Y0133
X0079Y0136
X00775Y0139
X00745
X00715
X00685
X00655
X00625
X00595
X00565
X0058Y0142
X0061
X0064
X0067
X007
X0073
X0076
X0079
X0073Y0136
X007
X0067
X0064
X0061
X0058
X0055
X00565Y0133
X00595
X00625
X00655
X00685
X00715
Y0127
X007Y0124
X0067
X00655Y0127
X00625
X00595
X00565
X0058Y013
X0061
X0064
X0067
X0061Y0124
X0058
X0055
X00565Y0121
X00595
X00647Y01197
X007385Y0122925
X0055Y013
Y0142
T03
X01032392Y01407057
X01045092
X01057792
X01070492
T04
X01597941Y01396
Y01417
X01623353
Y01396
X01648764
Y01417
X01674176
Y01396
X01699588
Y01417
X01725Y01417
Y01396
X01572529Y01396
Y01417
X01547117
Y01396
X01521706
Y01417
X01496294
Y01396
X01470882
Y01417
X0144547
Y01396
X01420059
Y01417
X01394647
Y01396
X01369235
Y01417
X01343823
Y01396
X01318412
Y01417
X01293
Y01396
T05
X00443059Y00951219
X00455759Y00963919
X00468459Y00951219
X00455759Y00938519
T06
X0014601Y010732
X0019681Y010986
Y01124
X0022221Y011494
X0014601
X0022221Y010732
T07
X01763081Y00999978
Y010559
Y01097756
Y0118195
T08
X011925Y00929498
X01331501Y00929498
X014475
X01586502
X01546499Y012895
X014075Y012895
X01331501Y012895
X011925Y012895
T09
X01157001Y00896999
X01756999Y00896999
X01756999Y01296998
X01157001
M30
