M48
;Layer_Color=9474304
;FILE_FORMAT=4:4
METRIC,LZ
;TYPE=PLATED
T1F00S00C0.3000
T2F00S00C0.8000
T3F00S00C0.8128
T4F00S00C0.9000
;TYPE=NON_PLATED
T5F00S00C0.5499
T6F00S00C2.1999
%
T01
X0058Y0028
X0061
X0064
X0067
X007
X0073
X0076
X0079
Y0034
X0076
X0073
X007
X0067
X0064
X0061
X0058
X00595Y0037
X00625
X00655
X00685
Y0031
X00625
X00595
X0082Y0028
X0085
X00855Y00347
X0088Y0037
X00925Y0037
X00955
X00959622Y00330164
X0097Y0028
X01
X0103
X01108Y00287
X0112Y0028
X0115
X0118
X01165Y0037
X01135
X01105
X01010622Y00385164
X0084Y0039
X0094Y0028
X0121
X0124
X0127
X013
X01308Y00295
Y00303164
Y00311164
Y00319164
X01315Y0037
X01285
X01255
X01225
X01195
X01225Y0031
X0136Y0028
X0139
X0142
X0145
X0148
X0151
X0154
X01555Y0031
X0154Y0034
X0151
X0148
X0145
X01465Y0037
Y0031
X0139Y0034
X01375Y0037
X01555
Y0043
X01525
Y0049
X01555
X0154Y0052
X0151
X0148
X0145
X01434535Y00534331
X0142Y0052
X0139
X0136
X01351622Y00532164
X0133Y0052
X013
X0127
X01285Y0055
X01315
Y0061
X01345
X01375
X01366808Y00595635
X0136Y0064
X0139
X01405Y0067
X01435
X01465
X01495
X01525
X01555
X0154Y007
X0151
X0148
X0145
X0142
X0139
X01405Y0073
X01435
X01465
X01495
X01525
X01555
X0154Y0064
X0151
X0148
X0145
X01465Y0061
X01495
X01525
X01555
X0154Y0058
X0151
X0148
X01495Y0055
X01525
X01555
X01465
X01452Y00556
X01465Y0049
X01495
X0148Y0046
X0145
X0142
X01435Y0049
X01405
X01375
X01345
X0133Y0046
X013
X0127
X0124
X0121
X01225Y0049
X01255
X01195
X0121Y004
X0124
X0127
X013
X01308381Y00405788
X01308Y00414164
Y0042173
X01308647Y00429213
X01345Y0043
X01405
X0142Y004
X0145
X0148
X01405Y0061
X0133Y0064
X013
X0127
X0124
X0121
X01225Y0067
X01255
X01285
X01315
X01345
X0133Y007
X013
X01285Y0073
X01345
X01375
X01225
X01195
X0121Y007
X0124
X01195Y0067
X01243622Y00593164
X01285Y0061
X0118Y0064
X01165Y0067
X01135
X0112Y007
X01128Y00718
X01109622Y00729164
X01075Y0073
X01039977Y00731
X01034937Y00737
X01024977Y0073604
X01004937Y00737
X009932Y00731495
X00988766Y00735928
X0098004Y00731
X00975Y00737
X00965506Y00730534
X00957566Y0073685
X00950041Y00732968
X00939Y00735
X00941Y00704
X00968777Y00702905
X00979564Y00699436
X0098723Y00699487
X00981436Y00689356
X0096904Y00688912
Y00642
X00964Y00636
X00979096Y00635268
X00979Y0064704
X00998Y00643
X01022Y00636
X0103Y0064
X0106
X01068017Y00659
X0109Y0064
X0112
X01147622Y00608164
X01114Y00567
X01105Y0055
X01086622Y00561164
X01075Y0055
X0109Y0052
X0112
X0115
X0118
X01177622Y00560164
X01165Y0049
X01135
X01105
X01075
X01045
X01015
X01011Y00481
X00999937Y00518495
X0103Y0052
X0106
Y0046
X0109
X0112
X0115
X0118
Y004
X0115
X0112
X01077622Y00401164
X0106Y004
X0103
X01
X0097
X0094
X00931Y00443
X00925Y0049
X00955
X00941937Y00518495
X00941852Y00532323
X0097422Y00534662
X00968Y00567
Y00575
X00953Y00584
X0094175Y00603
X00967Y00609
X00988Y00604
X0099322Y00592662
X00999Y00572
X0102222Y00565662
X0103Y0058
X01075Y00604
X0109Y007
X0106
X01041Y00704231
X01029936Y00704064
X01022287Y00704527
X0104104Y00687
X00985Y00748
X00895Y0073
X00865
X00835
X0085Y007
X0088
Y0064
X0091
X0085
X0082
X00829003Y00605036
X00838Y00605
X00846
X00818Y00592
X00809Y00577
X00818Y00562
X00822Y00557
X00836937Y00550495
X00843186Y00549985
X0085Y0052
X0088
X00895Y0049
X00865
X00835
X00805
X0082Y0052
X00805Y0055
X00865Y00575746
Y00582016
X00870937Y00586495
X0088Y0046
X0085
X0082
Y004
X0085
X0097Y0046
X0082Y007
X0118
X01165Y0073
X0079Y007
X0076
X0073
X007
X00685Y0073
Y0067
X00655
X00625
X00595
X0061Y007
X0064
X00625Y0073
X00595
X0058Y007
Y0064
X0061
X0064
X0067
X007
X00703678Y0063437
X0073Y0064
X0074722Y00629662
X00745Y0061
X00782564Y00603694
X00785Y0066
X00775Y0055
X00745
X00729Y00578
X00679
X0067Y0058
X0069022Y00608662
X00625Y0061
X00595
X0061Y0058
X0058
X00595Y0055
X0061Y0052
X0064
X00625Y0049
X00595
X0061Y0046
X0058
X00595Y0043
X00625
X0064Y004
X0067
X007
X0073
X00730622Y00429164
X0073Y0046
X0076
X0079
Y0052
X0076
X0073
X00745Y0049
X0079Y004
X0061
X0058
Y0052
X00625Y00565
T02
X00880316Y00314166
X00905716
X00893016Y00326866
Y00301466
T03
X002579Y005099
X003341
X003087Y005353
X003087Y005607
X003341Y005861
X002579
T04
X01535Y00307
X01533Y00365
Y00393
Y00452
T05
X007005Y003485
X00839502
X00955501
X01094502
X010545Y00708502
X00915501
X00839502
X007005
T06
X00665001Y00316001
X01265
Y00716
X00665001
M30
