%TF.GenerationSoftware,Altium Limited,Altium Designer,22.2.1 (43)*%
G04 Layer_Physical_Order=3*
G04 Layer_Color=16440176*
%FSLAX45Y45*%
%MOMM*%
%TF.SameCoordinates,3546A09D-0AB3-465C-A5BE-671B47EBA127*%
%TF.FilePolarity,Positive*%
%TF.FileFunction,Copper,L3,Inr,Signal*%
%TF.Part,Single*%
G01*
G75*
%TA.AperFunction,NonConductor*%
%ADD10C,1.00000*%
%TA.AperFunction,Conductor*%
%ADD57C,0.50000*%
%ADD58C,0.25400*%
%TA.AperFunction,ComponentPad*%
%ADD60R,1.50000X1.50000*%
%ADD61C,0.54991*%
%ADD62C,2.19989*%
%ADD63C,1.32080*%
%ADD64R,1.30000X1.30000*%
%ADD65C,1.30000*%
%TA.AperFunction,ViaPad*%
%ADD66C,0.50000*%
D10*
X9244006Y3140000D02*
G03*
X9244006Y3140000I-314006J0D01*
G01*
D57*
X10357866Y4430000D02*
X10776223Y4011643D01*
X9310000Y4430000D02*
X10357866D01*
X12051643Y3851643D02*
X13520000Y5320000D01*
X10106223Y3851643D02*
X12051643D01*
X12286223Y6081643D02*
X12436223Y5931643D01*
X11476223Y6081643D02*
X12286223D01*
X11201643D02*
X11476223D01*
X10675000Y5555000D02*
X11201643Y6081643D01*
X10280000Y5060000D02*
X10675000Y5455000D01*
Y5555000D01*
X9220000Y5060000D02*
X10280000D01*
X8650000Y5630000D02*
Y5757460D01*
Y5630000D02*
X9220000Y5060000D01*
X6970000Y5650000D02*
X7120000Y5800000D01*
X6250000Y5650000D02*
X6970000D01*
X7270000Y5800000D02*
X7290000Y5780000D01*
X7120000Y5800000D02*
X7270000D01*
X7036775Y5883225D02*
X7120000Y5800000D01*
X7036775Y5883225D02*
Y6343703D01*
X7290000Y5370000D02*
X9240195Y3419805D01*
X7290000Y5370000D02*
Y5780000D01*
X9240195Y3419805D02*
X12599074D01*
X12827235Y3191643D01*
X13080000D01*
D58*
X9982396Y7294071D02*
Y7347605D01*
X9850000Y7480000D02*
X9982396Y7347605D01*
X8430000Y5501708D02*
Y5842552D01*
Y5501708D02*
X8431860Y5499848D01*
X8430000Y5842552D02*
X9750000Y7162553D01*
X9420000Y6030000D02*
Y6685810D01*
X9814362Y6501419D02*
Y6893562D01*
X9790000Y6477057D02*
X9814362Y6501419D01*
X9420000Y6685810D02*
X9623314Y6889124D01*
X9340480Y7345293D02*
X9385293D01*
X8424131Y6428945D02*
X9340480Y7345293D01*
X9385293D02*
X9390000Y7350000D01*
X8370000Y6428695D02*
X9361305Y7420000D01*
X9635521Y7418902D02*
X9650400Y7404023D01*
X9430000Y7420000D02*
X9431098Y7418902D01*
X9635521D01*
X9361305Y7420000D02*
X9430000D01*
X9500400Y6971872D02*
Y7329664D01*
X9500411Y7329675D01*
X9650400Y7310000D02*
Y7404023D01*
Y7310000D02*
X9655057Y7305343D01*
X8370000Y6176160D02*
Y6428695D01*
X8294738Y6100898D02*
X8370000Y6176160D01*
X8424131Y6085869D02*
Y6428945D01*
Y6085869D02*
X8460000Y6050000D01*
X8290031Y6050360D02*
X8294738Y6055067D01*
Y6100898D01*
X9750000Y7162553D02*
Y7370000D01*
X9980000Y7291676D02*
X9982396Y7294071D01*
X9980000Y6941489D02*
Y7291676D01*
X9848511Y6941489D02*
X9980000D01*
Y6430000D02*
Y6941489D01*
X9795638Y6994362D02*
X9848511Y6941489D01*
X10221102Y5657726D02*
Y6358898D01*
X10220000Y6360000D02*
X10221102Y6358898D01*
Y5657726D02*
X10222204Y5656624D01*
X9623314Y6889124D02*
X9690400D01*
X8370000Y5510000D02*
Y5841472D01*
X9500400Y6971872D01*
X9790000Y6470400D02*
Y6477057D01*
X9984103Y5722773D02*
Y6425897D01*
Y5722773D02*
X9988207Y5718670D01*
X9980000Y6430000D02*
X9984103Y6425897D01*
X9988207Y5184951D02*
Y5718670D01*
X9418515Y5184951D02*
Y5323230D01*
X9419258Y6029257D02*
X9420000Y6030000D01*
X9419258Y5323972D02*
Y6029257D01*
X9418515Y5323230D02*
X9419258Y5323972D01*
D60*
X15350000Y3070000D02*
D03*
X15330000Y3930000D02*
D03*
Y4520000D02*
D03*
Y3650000D02*
D03*
D61*
X10545001Y7085019D02*
D03*
X9155011D02*
D03*
X8395018D02*
D03*
X7005003D02*
D03*
X10945025Y3485001D02*
D03*
X9555010D02*
D03*
X8395018D02*
D03*
X7005003D02*
D03*
D62*
X6650012Y7160000D02*
D03*
Y3160008D02*
D03*
X12650000D02*
D03*
Y7160000D02*
D03*
D63*
X3341000Y5099000D02*
D03*
X2579000D02*
D03*
Y5861000D02*
D03*
X3341000D02*
D03*
X3087000Y5353000D02*
D03*
X3087000Y5607000D02*
D03*
D64*
X8803160Y3141660D02*
D03*
D65*
X9057160D02*
D03*
X8930160Y3268660D02*
D03*
Y3014660D02*
D03*
D66*
X9887660Y7359283D02*
D03*
X9850000Y7480000D02*
D03*
X15549995Y7299998D02*
D03*
X15399995Y6999998D02*
D03*
X15549995Y6699998D02*
D03*
X15399995Y6399998D02*
D03*
X15549995Y6099998D02*
D03*
X15399995Y5799998D02*
D03*
X15549995Y5499998D02*
D03*
X15399995Y5199998D02*
D03*
X15549995Y4899999D02*
D03*
Y4299999D02*
D03*
Y3699999D02*
D03*
X15399995Y3399999D02*
D03*
X15549995Y3099999D02*
D03*
X15399995Y2799999D02*
D03*
X15249995Y7299998D02*
D03*
X15099995Y6999998D02*
D03*
X15249995Y6699998D02*
D03*
X15099995Y6399998D02*
D03*
X15249995Y6099998D02*
D03*
X15099995Y5799998D02*
D03*
X15249995Y5499998D02*
D03*
X15099995Y5199998D02*
D03*
X15249995Y4899999D02*
D03*
Y4299999D02*
D03*
X15099995Y3399999D02*
D03*
Y2799999D02*
D03*
X14949995Y7299998D02*
D03*
X14799995Y6999998D02*
D03*
X14949995Y6699998D02*
D03*
X14799995Y6399998D02*
D03*
X14949995Y6099998D02*
D03*
X14799995Y5799998D02*
D03*
X14949995Y5499998D02*
D03*
X14799995Y5199998D02*
D03*
X14949995Y4899999D02*
D03*
X14799995Y4599999D02*
D03*
Y3999999D02*
D03*
Y3399999D02*
D03*
Y2799999D02*
D03*
X14649995Y7299998D02*
D03*
X14499995Y6999998D02*
D03*
X14649995Y6699998D02*
D03*
X14499995Y6399998D02*
D03*
X14649995Y6099998D02*
D03*
Y5499998D02*
D03*
X14499995Y5199998D02*
D03*
X14649995Y4899999D02*
D03*
X14499995Y4599999D02*
D03*
Y3999999D02*
D03*
X14649995Y3699999D02*
D03*
X14499995Y3399999D02*
D03*
X14649995Y3099999D02*
D03*
X14499995Y2799999D02*
D03*
X14349995Y7299998D02*
D03*
X14199995Y6999998D02*
D03*
X14349995Y6699998D02*
D03*
X14199995Y5199998D02*
D03*
X14349995Y4899999D02*
D03*
X14199995Y4599999D02*
D03*
Y3999999D02*
D03*
Y2799999D02*
D03*
X14049995Y7299998D02*
D03*
X13899995Y6999998D02*
D03*
X14049995Y6699998D02*
D03*
X13899995Y6399998D02*
D03*
X14049995Y6099998D02*
D03*
X13899995Y5199998D02*
D03*
X14049995Y4899999D02*
D03*
Y4299999D02*
D03*
X13899995Y3399999D02*
D03*
Y2799999D02*
D03*
X13749995Y7299998D02*
D03*
X13599995Y6399998D02*
D03*
X13749995Y6099998D02*
D03*
X13599995Y5199998D02*
D03*
X13749995Y4899999D02*
D03*
Y3699999D02*
D03*
X13599995Y2799999D02*
D03*
X13449995Y7299998D02*
D03*
X13299995Y6999998D02*
D03*
X13449995Y6699998D02*
D03*
X13299995Y6399998D02*
D03*
X13449995Y6099998D02*
D03*
X13299995Y5199998D02*
D03*
X13449995Y4899999D02*
D03*
X13299995Y4599999D02*
D03*
X13449995Y4299999D02*
D03*
X12999995Y6999998D02*
D03*
X13149995Y6699998D02*
D03*
X12999995Y6399998D02*
D03*
X13149995Y6099998D02*
D03*
Y5499998D02*
D03*
X12999995Y5199998D02*
D03*
Y4599999D02*
D03*
Y3999999D02*
D03*
X13149995Y3699999D02*
D03*
X12999995Y2799999D02*
D03*
X12849995Y7299998D02*
D03*
Y6699998D02*
D03*
X12699996Y6399998D02*
D03*
X12849995Y6099998D02*
D03*
Y5499998D02*
D03*
X12699996Y5199998D02*
D03*
Y4599999D02*
D03*
Y3999999D02*
D03*
X12849995Y3699999D02*
D03*
X12699996Y2799999D02*
D03*
X12399996Y6999998D02*
D03*
X12549996Y6699998D02*
D03*
X12399996Y6399998D02*
D03*
X12549996Y4899999D02*
D03*
X12399996Y4599999D02*
D03*
Y3999999D02*
D03*
X12549996Y3699999D02*
D03*
X12399996Y2799999D02*
D03*
X12249996Y7299998D02*
D03*
X12099996Y6999998D02*
D03*
X12249996Y6699998D02*
D03*
X12099996Y6399998D02*
D03*
X12249996Y4899999D02*
D03*
X12099996Y4599999D02*
D03*
Y3999999D02*
D03*
X12249996Y3699999D02*
D03*
Y3099999D02*
D03*
X12099996Y2799999D02*
D03*
X11949996Y7299998D02*
D03*
X11799996Y6999998D02*
D03*
X11949996Y6699998D02*
D03*
X11799996Y6399998D02*
D03*
Y5199998D02*
D03*
X11949996Y4899999D02*
D03*
X11799996Y4599999D02*
D03*
Y3999999D02*
D03*
X11949996Y3699999D02*
D03*
X11799996Y2799999D02*
D03*
X11649997Y7299998D02*
D03*
Y6699998D02*
D03*
X11499997Y5199998D02*
D03*
X11649997Y4899999D02*
D03*
X11499997Y4599999D02*
D03*
Y3999999D02*
D03*
X11649997Y3699999D02*
D03*
X11499997Y2799999D02*
D03*
X11199997Y6999998D02*
D03*
X11349997Y6699998D02*
D03*
X11199997Y6399998D02*
D03*
Y5199998D02*
D03*
X11349997Y4899999D02*
D03*
X11199997Y4599999D02*
D03*
Y3999999D02*
D03*
X11349997Y3699999D02*
D03*
X11199997Y2799999D02*
D03*
X10899997Y6999998D02*
D03*
Y6399998D02*
D03*
X11049997Y5499998D02*
D03*
X10899997Y5199998D02*
D03*
X11049997Y4899999D02*
D03*
X10899997Y4599999D02*
D03*
X11049997Y3699999D02*
D03*
X10749997Y7299998D02*
D03*
X10599997Y6999998D02*
D03*
Y6399998D02*
D03*
X10749997Y5499998D02*
D03*
X10599997Y5199998D02*
D03*
X10749997Y4899999D02*
D03*
X10599997Y4599999D02*
D03*
Y3999999D02*
D03*
X10299997Y6399998D02*
D03*
Y5799998D02*
D03*
Y5199998D02*
D03*
X10449997Y4899999D02*
D03*
X10299997Y3999999D02*
D03*
Y2799999D02*
D03*
X10149997Y4899999D02*
D03*
X9999997Y3999999D02*
D03*
Y2799999D02*
D03*
X9699997Y4599999D02*
D03*
Y3999999D02*
D03*
Y2799999D02*
D03*
X9549997Y4899999D02*
D03*
X9399997Y3999999D02*
D03*
X9549997Y3699999D02*
D03*
X9399997Y2799999D02*
D03*
X9099997Y6399998D02*
D03*
X9249997Y4899999D02*
D03*
Y3699999D02*
D03*
X8949997Y7299998D02*
D03*
X8799997Y6999998D02*
D03*
Y6399998D02*
D03*
Y5199998D02*
D03*
X8949997Y4899999D02*
D03*
X8799997Y4599999D02*
D03*
X8649997Y7299998D02*
D03*
X8499997Y6999998D02*
D03*
Y6399998D02*
D03*
Y5199998D02*
D03*
X8649997Y4899999D02*
D03*
X8499997Y4599999D02*
D03*
Y3999999D02*
D03*
Y2799999D02*
D03*
X8349998Y7299998D02*
D03*
X8199998Y6999998D02*
D03*
Y6399998D02*
D03*
Y5199998D02*
D03*
X8349998Y4899999D02*
D03*
X8199998Y4599999D02*
D03*
Y3999999D02*
D03*
Y2799999D02*
D03*
X7899998Y6999998D02*
D03*
X8049998Y5499998D02*
D03*
X7899998Y5199998D02*
D03*
X8049998Y4899999D02*
D03*
X7899998Y4599999D02*
D03*
Y3999999D02*
D03*
Y3399999D02*
D03*
Y2799999D02*
D03*
X7599998Y6999998D02*
D03*
X7749998Y5499998D02*
D03*
X7599998Y5199998D02*
D03*
Y4599999D02*
D03*
Y3399999D02*
D03*
Y2799999D02*
D03*
X7299998Y6999998D02*
D03*
Y6399998D02*
D03*
X7449998Y6099998D02*
D03*
Y5499998D02*
D03*
X7299998Y5199998D02*
D03*
X7449998Y4899999D02*
D03*
X7299998Y4599999D02*
D03*
Y3999999D02*
D03*
Y3399999D02*
D03*
Y2799999D02*
D03*
X6999998Y6999998D02*
D03*
Y6399998D02*
D03*
Y3999999D02*
D03*
Y3399999D02*
D03*
Y2799999D02*
D03*
X6849998Y7299998D02*
D03*
Y6699998D02*
D03*
X6699998Y6399998D02*
D03*
Y5799998D02*
D03*
Y3999999D02*
D03*
X6849998Y3699999D02*
D03*
X6699998Y3399999D02*
D03*
X6849998Y3099999D02*
D03*
X6699998Y2799999D02*
D03*
X6399998Y6999998D02*
D03*
X6549998Y6699998D02*
D03*
X6399998Y6399998D02*
D03*
Y5199998D02*
D03*
Y3999999D02*
D03*
X6549998Y3699999D02*
D03*
X6399998Y3399999D02*
D03*
Y2799999D02*
D03*
X6249998Y7299998D02*
D03*
X6099998Y6999998D02*
D03*
X6249998Y6699998D02*
D03*
X6099998Y6399998D02*
D03*
X6249998Y6099998D02*
D03*
X6099998Y5799998D02*
D03*
Y5199998D02*
D03*
X6249998Y4899999D02*
D03*
X6099998Y4599999D02*
D03*
X6249998Y4299999D02*
D03*
X6099998Y3999999D02*
D03*
X6249998Y3699999D02*
D03*
X6099998Y3399999D02*
D03*
X6249998Y3099999D02*
D03*
X6099998Y2799999D02*
D03*
X5949998Y7299998D02*
D03*
X5799998Y6999998D02*
D03*
X5949998Y6699998D02*
D03*
X5799998Y6399998D02*
D03*
X5949998Y6099998D02*
D03*
X5799998Y5799998D02*
D03*
X5949998Y5499998D02*
D03*
X5799998Y5199998D02*
D03*
X5949998Y4899999D02*
D03*
X5799998Y4599999D02*
D03*
X5949998Y4299999D02*
D03*
X5799998Y3999999D02*
D03*
X5949998Y3699999D02*
D03*
X5799998Y3399999D02*
D03*
X5949998Y3099999D02*
D03*
X5799998Y2799999D02*
D03*
X7472203Y6296624D02*
D03*
X6902204Y6086624D02*
D03*
X9670000Y6090000D02*
D03*
X9742204Y5346624D02*
D03*
X9790963Y6352684D02*
D03*
X9880000Y6040000D02*
D03*
X9932204Y5926624D02*
D03*
X8431860Y5499848D02*
D03*
X13080000Y4217300D02*
D03*
X13083807Y4057883D02*
D03*
X9410000Y7040000D02*
D03*
X11080000Y2870000D02*
D03*
X10776223Y4011643D02*
D03*
X9310000Y4430000D02*
D03*
X10110000Y4810000D02*
D03*
X13668077Y5956353D02*
D03*
X13516223Y5321643D02*
D03*
X10106223Y3851643D02*
D03*
X9596223Y3301643D02*
D03*
X12436223Y5931643D02*
D03*
X8650000Y5757460D02*
D03*
Y5820160D02*
D03*
X8090000Y5770000D02*
D03*
X9680000Y5670000D02*
D03*
X11476223Y6081643D02*
D03*
X11776223Y5601643D02*
D03*
X10866223Y5611643D02*
D03*
X11280000Y7180000D02*
D03*
X11096223Y7291643D02*
D03*
X7850000Y6600000D02*
D03*
X7825642Y6036936D02*
D03*
X6790000Y5780000D02*
D03*
X7306223Y4291643D02*
D03*
X8800000Y3700000D02*
D03*
X13086475Y4292131D02*
D03*
X13080000Y4141643D02*
D03*
X7290000Y5780000D02*
D03*
X6250000Y5650000D02*
D03*
X7036775Y6343703D02*
D03*
X13080000Y2950000D02*
D03*
Y3031643D02*
D03*
Y3191643D02*
D03*
Y3111643D02*
D03*
X8550000Y3470000D02*
D03*
X9530000Y5840000D02*
D03*
X9680000Y5750000D02*
D03*
X9390000Y7350000D02*
D03*
X9500411Y7329675D02*
D03*
X9655057Y7305343D02*
D03*
X9575664Y7368502D02*
D03*
X8220000Y5570000D02*
D03*
X8180000Y5620000D02*
D03*
X8709368Y5864951D02*
D03*
X8180000Y5920000D02*
D03*
X8460000Y6050000D02*
D03*
X8290031Y6050360D02*
D03*
X8380000Y6050000D02*
D03*
X9750000Y7370000D02*
D03*
X10049368D02*
D03*
X10249768Y7360400D02*
D03*
X9931996Y7314947D02*
D03*
X10222869Y7045274D02*
D03*
X10299362Y7040638D02*
D03*
X10410000Y7042315D02*
D03*
X10410400Y6870000D02*
D03*
X10680168Y6590000D02*
D03*
X9990000Y5720000D02*
D03*
X14520000Y5560000D02*
D03*
X9795638Y6994362D02*
D03*
X9872303Y6994874D02*
D03*
X9690400Y6889124D02*
D03*
X9814362Y6893562D02*
D03*
X9687775Y7029051D02*
D03*
X10222204Y5656624D02*
D03*
X10220000Y6360000D02*
D03*
X9640000D02*
D03*
X9690400Y6420000D02*
D03*
X8369368Y5504951D02*
D03*
X9790000Y6470400D02*
D03*
X9800400Y7310000D02*
D03*
X10349368Y7370000D02*
D03*
X10399768Y7310000D02*
D03*
X9999368Y5184951D02*
D03*
X9419368D02*
D03*
X9417500Y6030000D02*
D03*
X9980000Y6430000D02*
D03*
X10750000Y6040000D02*
D03*
X11140000Y5670000D02*
D03*
X9418515Y5323230D02*
D03*
X14345349Y5343309D02*
D03*
X8400000Y3900000D02*
D03*
%TF.MD5,6ec23dde1fcd14437835c24d4b94c5bd*%
M02*
