%TF.GenerationSoftware,Altium Limited,Altium Designer,22.2.1 (43)*%
G04 Layer_Physical_Order=1*
G04 Layer_Color=255*
%FSLAX45Y45*%
%MOMM*%
%TF.SameCoordinates,3546A09D-0AB3-465C-A5BE-671B47EBA127*%
%TF.FilePolarity,Positive*%
%TF.FileFunction,Copper,L1,Top,Signal*%
%TF.Part,Single*%
G01*
G75*
%TA.AperFunction,NonConductor*%
%ADD10C,1.00000*%
%ADD11C,0.25400*%
%TA.AperFunction,SMDPad,CuDef*%
%ADD12R,2.33000X1.99000*%
%ADD13R,0.50000X1.20000*%
%ADD14R,0.50000X1.60000*%
G04:AMPARAMS|DCode=15|XSize=1.8mm|YSize=3mm|CornerRadius=0mm|HoleSize=0mm|Usage=FLASHONLY|Rotation=180.000|XOffset=0mm|YOffset=0mm|HoleType=Round|Shape=Octagon|*
%AMOCTAGOND15*
4,1,8,0.45000,-1.50000,-0.45000,-1.50000,-0.90000,-1.05000,-0.90000,1.05000,-0.45000,1.50000,0.45000,1.50000,0.90000,1.05000,0.90000,-1.05000,0.45000,-1.50000,0.0*
%
%ADD15OCTAGOND15*%

%ADD16R,0.35000X0.65000*%
%ADD17R,2.13000X1.42000*%
%ADD18R,0.60000X1.40000*%
%ADD19R,0.60000X1.80000*%
G04:AMPARAMS|DCode=20|XSize=1.9mm|YSize=3.2mm|CornerRadius=0mm|HoleSize=0mm|Usage=FLASHONLY|Rotation=180.000|XOffset=0mm|YOffset=0mm|HoleType=Round|Shape=Octagon|*
%AMOCTAGOND20*
4,1,8,0.47500,-1.60000,-0.47500,-1.60000,-0.95000,-1.12500,-0.95000,1.12500,-0.47500,1.60000,0.47500,1.60000,0.95000,1.12500,0.95000,-1.12500,0.47500,-1.60000,0.0*
%
%ADD20OCTAGOND20*%

%ADD21R,2.20000X2.15000*%
G04:AMPARAMS|DCode=22|XSize=0.55mm|YSize=0.8mm|CornerRadius=0.0495mm|HoleSize=0mm|Usage=FLASHONLY|Rotation=270.000|XOffset=0mm|YOffset=0mm|HoleType=Round|Shape=RoundedRectangle|*
%AMROUNDEDRECTD22*
21,1,0.55000,0.70100,0,0,270.0*
21,1,0.45100,0.80000,0,0,270.0*
1,1,0.09900,-0.35050,-0.22550*
1,1,0.09900,-0.35050,0.22550*
1,1,0.09900,0.35050,0.22550*
1,1,0.09900,0.35050,-0.22550*
%
%ADD22ROUNDEDRECTD22*%
%ADD23R,0.90000X1.05000*%
%ADD24R,1.05000X0.90000*%
%ADD25R,0.95000X1.35000*%
%ADD26R,2.10000X3.20000*%
%ADD27R,2.10000X0.90000*%
%ADD28R,1.35000X0.95000*%
%ADD29O,2.50000X0.70000*%
%ADD30R,1.20000X1.45000*%
%ADD31R,1.30000X1.60000*%
%ADD32R,2.00000X1.60000*%
G04:AMPARAMS|DCode=33|XSize=0.65mm|YSize=1.65mm|CornerRadius=0.04875mm|HoleSize=0mm|Usage=FLASHONLY|Rotation=90.000|XOffset=0mm|YOffset=0mm|HoleType=Round|Shape=RoundedRectangle|*
%AMROUNDEDRECTD33*
21,1,0.65000,1.55250,0,0,90.0*
21,1,0.55250,1.65000,0,0,90.0*
1,1,0.09750,0.77625,0.27625*
1,1,0.09750,0.77625,-0.27625*
1,1,0.09750,-0.77625,-0.27625*
1,1,0.09750,-0.77625,0.27625*
%
%ADD33ROUNDEDRECTD33*%
G04:AMPARAMS|DCode=34|XSize=1.87407mm|YSize=0.54213mm|CornerRadius=0.27107mm|HoleSize=0mm|Usage=FLASHONLY|Rotation=90.000|XOffset=0mm|YOffset=0mm|HoleType=Round|Shape=RoundedRectangle|*
%AMROUNDEDRECTD34*
21,1,1.87407,0.00000,0,0,90.0*
21,1,1.33193,0.54213,0,0,90.0*
1,1,0.54213,0.00000,0.66597*
1,1,0.54213,0.00000,-0.66597*
1,1,0.54213,0.00000,-0.66597*
1,1,0.54213,0.00000,0.66597*
%
%ADD34ROUNDEDRECTD34*%
%ADD35R,0.54213X1.87407*%
G04:AMPARAMS|DCode=36|XSize=1.45mm|YSize=3.5mm|CornerRadius=0mm|HoleSize=0mm|Usage=FLASHONLY|Rotation=45.000|XOffset=0mm|YOffset=0mm|HoleType=Round|Shape=Rectangle|*
%AMROTATEDRECTD36*
4,1,4,0.72479,-1.75009,-1.75009,0.72479,-0.72479,1.75009,1.75009,-0.72479,0.72479,-1.75009,0.0*
%
%ADD36ROTATEDRECTD36*%

%ADD37R,0.30000X1.40000*%
%ADD38R,1.42000X2.13000*%
%ADD39R,0.65000X0.35000*%
G04:AMPARAMS|DCode=40|XSize=0.65mm|YSize=1.65mm|CornerRadius=0.04875mm|HoleSize=0mm|Usage=FLASHONLY|Rotation=180.000|XOffset=0mm|YOffset=0mm|HoleType=Round|Shape=RoundedRectangle|*
%AMROUNDEDRECTD40*
21,1,0.65000,1.55250,0,0,180.0*
21,1,0.55250,1.65000,0,0,180.0*
1,1,0.09750,-0.27625,0.77625*
1,1,0.09750,0.27625,0.77625*
1,1,0.09750,0.27625,-0.77625*
1,1,0.09750,-0.27625,-0.77625*
%
%ADD40ROUNDEDRECTD40*%
%ADD41R,1.45000X1.20000*%
%ADD42R,0.48000X0.40000*%
%ADD43R,1.22000X0.91000*%
%ADD44R,2.46916X0.62213*%
G04:AMPARAMS|DCode=45|XSize=2.46916mm|YSize=0.62213mm|CornerRadius=0.31107mm|HoleSize=0mm|Usage=FLASHONLY|Rotation=0.000|XOffset=0mm|YOffset=0mm|HoleType=Round|Shape=RoundedRectangle|*
%AMROUNDEDRECTD45*
21,1,2.46916,0.00000,0,0,0.0*
21,1,1.84702,0.62213,0,0,0.0*
1,1,0.62213,0.92351,0.00000*
1,1,0.62213,-0.92351,0.00000*
1,1,0.62213,-0.92351,0.00000*
1,1,0.62213,0.92351,0.00000*
%
%ADD45ROUNDEDRECTD45*%
%ADD46R,0.80000X0.90000*%
G04:AMPARAMS|DCode=47|XSize=1.5mm|YSize=0.45mm|CornerRadius=0.0495mm|HoleSize=0mm|Usage=FLASHONLY|Rotation=180.000|XOffset=0mm|YOffset=0mm|HoleType=Round|Shape=RoundedRectangle|*
%AMROUNDEDRECTD47*
21,1,1.50000,0.35100,0,0,180.0*
21,1,1.40100,0.45000,0,0,180.0*
1,1,0.09900,-0.70050,0.17550*
1,1,0.09900,0.70050,0.17550*
1,1,0.09900,0.70050,-0.17550*
1,1,0.09900,-0.70050,-0.17550*
%
%ADD47ROUNDEDRECTD47*%
%ADD48R,1.00000X1.50000*%
%ADD49R,0.60000X1.30000*%
G04:AMPARAMS|DCode=50|XSize=1.45mm|YSize=1.2mm|CornerRadius=0mm|HoleSize=0mm|Usage=FLASHONLY|Rotation=225.000|XOffset=0mm|YOffset=0mm|HoleType=Round|Shape=Rectangle|*
%AMROTATEDRECTD50*
4,1,4,0.08839,0.93692,0.93692,0.08839,-0.08839,-0.93692,-0.93692,-0.08839,0.08839,0.93692,0.0*
%
%ADD50ROTATEDRECTD50*%

%ADD51R,2.60000X2.60000*%
%ADD52R,0.30000X0.85000*%
%ADD53R,0.85000X0.30000*%
%ADD54R,0.90000X0.80000*%
%ADD55R,1.52500X0.65000*%
%ADD56R,0.95000X1.70000*%
%TA.AperFunction,Conductor*%
%ADD57C,0.50000*%
%ADD58C,0.25400*%
%ADD59C,0.12700*%
%TA.AperFunction,ComponentPad*%
%ADD60R,1.50000X1.50000*%
%ADD61C,0.54991*%
%ADD62C,2.19989*%
%ADD63C,1.32080*%
%ADD64R,1.30000X1.30000*%
%ADD65C,1.30000*%
%TA.AperFunction,ViaPad*%
%ADD66C,0.50000*%
G36*
X15689999Y2500000D02*
X5499999D01*
X5499999Y5178479D01*
X5511733Y5183339D01*
X5705472Y4989600D01*
X5825963Y5110091D01*
X5586413Y5349641D01*
Y5419111D01*
X5647015Y5479713D01*
X5648432Y5481835D01*
X5749193Y5582596D01*
X5500000Y5831789D01*
X5500000Y7550000D01*
X15689999D01*
X15689999Y2500000D01*
D02*
G37*
%LPC*%
G36*
X9850000Y7518439D02*
X9835290Y7515513D01*
X9822820Y7507180D01*
X9814488Y7494710D01*
X9811562Y7480000D01*
X9814488Y7465290D01*
X9822820Y7452820D01*
X9835290Y7444488D01*
X9850000Y7441561D01*
X9864710Y7444488D01*
X9877180Y7452820D01*
X9885513Y7465290D01*
X9888439Y7480000D01*
X9885513Y7494710D01*
X9877180Y7507180D01*
X9864710Y7515513D01*
X9850000Y7518439D01*
D02*
G37*
G36*
X9575664Y7406940D02*
X9560954Y7404014D01*
X9548484Y7395682D01*
X9540152Y7383212D01*
X9537226Y7368502D01*
X9538137Y7363921D01*
X9530777Y7358990D01*
X9526440Y7357625D01*
X9515121Y7365188D01*
X9500411Y7368114D01*
X9485701Y7365188D01*
X9473231Y7356856D01*
X9464899Y7344385D01*
X9461973Y7329675D01*
X9464899Y7314966D01*
X9473231Y7302495D01*
X9485701Y7294163D01*
X9500411Y7291237D01*
X9515121Y7294163D01*
X9527592Y7302495D01*
X9535924Y7314966D01*
X9538850Y7329675D01*
X9537939Y7334256D01*
X9545299Y7339187D01*
X9549635Y7340552D01*
X9560954Y7332989D01*
X9575664Y7330063D01*
X9590374Y7332989D01*
X9602844Y7341322D01*
X9611177Y7353792D01*
X9614103Y7368502D01*
X9611177Y7383212D01*
X9602844Y7395682D01*
X9590374Y7404014D01*
X9575664Y7406940D01*
D02*
G37*
G36*
X10049368Y7408439D02*
X10034658Y7405512D01*
X10022188Y7397180D01*
X10013856Y7384710D01*
X10010929Y7370000D01*
X10013856Y7355290D01*
X10022188Y7342820D01*
X10034658Y7334487D01*
X10049368Y7331561D01*
X10064078Y7334487D01*
X10076548Y7342820D01*
X10084881Y7355290D01*
X10087807Y7370000D01*
X10084881Y7384710D01*
X10076548Y7397180D01*
X10064078Y7405512D01*
X10049368Y7408439D01*
D02*
G37*
G36*
X10249768Y7398839D02*
X10235058Y7395913D01*
X10222588Y7387580D01*
X10214255Y7375110D01*
X10211329Y7360400D01*
X10214255Y7345690D01*
X10222588Y7333220D01*
X10235058Y7324888D01*
X10249768Y7321961D01*
X10264478Y7324888D01*
X10276948Y7333220D01*
X10285280Y7345690D01*
X10288206Y7360400D01*
X10285280Y7375110D01*
X10276948Y7387580D01*
X10264478Y7395913D01*
X10249768Y7398839D01*
D02*
G37*
G36*
X9390000Y7388439D02*
X9375290Y7385513D01*
X9362820Y7377180D01*
X9354488Y7364710D01*
X9351561Y7350000D01*
X9354488Y7335290D01*
X9362820Y7322820D01*
X9375290Y7314488D01*
X9390000Y7311561D01*
X9404710Y7314488D01*
X9417180Y7322820D01*
X9425513Y7335290D01*
X9428439Y7350000D01*
X9425513Y7364710D01*
X9417180Y7377180D01*
X9404710Y7385513D01*
X9390000Y7388439D01*
D02*
G37*
G36*
X13101900Y7443998D02*
X10676824D01*
X10666913Y7442026D01*
X10658511Y7436412D01*
X10300874Y7078776D01*
X10299362Y7079077D01*
X10284652Y7076150D01*
X10272181Y7067818D01*
X10269720Y7064134D01*
X10269169Y7063932D01*
X10255027Y7065004D01*
X10250049Y7072454D01*
X10237578Y7080786D01*
X10222869Y7083712D01*
X10211048Y7081361D01*
X10208387Y7081862D01*
X10202332Y7085118D01*
X10197338Y7088830D01*
X10196978Y7090638D01*
X10193921Y7098702D01*
X10196978Y7106766D01*
X10198348Y7113652D01*
Y7148752D01*
X10196978Y7155638D01*
X10193077Y7161477D01*
X10187239Y7165378D01*
X10180353Y7166747D01*
X10040253D01*
X10033366Y7165378D01*
X10027528Y7161477D01*
X10024603Y7157099D01*
X9861202D01*
X9851291Y7155128D01*
X9842890Y7149514D01*
X9781850Y7088475D01*
X9776236Y7080073D01*
X9774265Y7070162D01*
Y7025422D01*
X9768457Y7021542D01*
X9760125Y7009072D01*
X9757199Y6994362D01*
X9759547Y6982560D01*
X9752557Y6969859D01*
X9712315D01*
X9700912Y6981262D01*
X9704949Y6995185D01*
X9714955Y7001871D01*
X9723287Y7014341D01*
X9726213Y7029051D01*
X9723287Y7043761D01*
X9714955Y7056231D01*
X9702485Y7064563D01*
X9687775Y7067490D01*
X9680710Y7066084D01*
X9662280Y7084514D01*
X9653878Y7090128D01*
X9643967Y7092099D01*
X9634999D01*
X9631184Y7098702D01*
X9634999Y7105304D01*
X9712253D01*
X9722163Y7107276D01*
X9730565Y7112890D01*
X9841778Y7224102D01*
X10310068D01*
X10319978Y7226074D01*
X10328380Y7231688D01*
X10343259Y7246567D01*
X10348873Y7254968D01*
X10350844Y7264879D01*
Y7297613D01*
X10363544Y7298864D01*
X10364255Y7295290D01*
X10372588Y7282820D01*
X10385058Y7274488D01*
X10399768Y7271562D01*
X10414478Y7274488D01*
X10426948Y7282820D01*
X10435280Y7295290D01*
X10438206Y7310000D01*
X10435280Y7324710D01*
X10426948Y7337180D01*
X10414478Y7345513D01*
X10399768Y7348439D01*
X10394934Y7347477D01*
X10391515Y7350134D01*
X10385530Y7358556D01*
X10387807Y7370000D01*
X10384880Y7384710D01*
X10376548Y7397180D01*
X10364078Y7405512D01*
X10349368Y7408439D01*
X10334658Y7405512D01*
X10322188Y7397180D01*
X10313855Y7384710D01*
X10310929Y7370000D01*
X10311688Y7366187D01*
X10306634Y7361133D01*
X10301021Y7352732D01*
X10299049Y7342821D01*
Y7275898D01*
X9964272D01*
X9960694Y7284232D01*
X9959731Y7288598D01*
X9967508Y7300237D01*
X9970434Y7314947D01*
X9967508Y7329657D01*
X9959176Y7342128D01*
X9946706Y7350460D01*
X9931996Y7353386D01*
X9924974Y7364938D01*
X9923172Y7373993D01*
X9914840Y7386463D01*
X9902370Y7394795D01*
X9887660Y7397721D01*
X9872950Y7394795D01*
X9860480Y7386463D01*
X9852147Y7373993D01*
X9849221Y7359283D01*
X9852147Y7344573D01*
X9860480Y7332102D01*
X9872950Y7323770D01*
X9887660Y7320844D01*
X9894682Y7309292D01*
X9896483Y7300237D01*
X9904260Y7288598D01*
X9903297Y7284232D01*
X9899720Y7275898D01*
X9838229D01*
X9831441Y7288598D01*
X9835913Y7295290D01*
X9838839Y7310000D01*
X9835913Y7324710D01*
X9827580Y7337180D01*
X9815110Y7345513D01*
X9800400Y7348439D01*
X9795566Y7347477D01*
X9792148Y7350134D01*
X9786162Y7358556D01*
X9788439Y7370000D01*
X9785513Y7384710D01*
X9777180Y7397180D01*
X9764710Y7405512D01*
X9750000Y7408439D01*
X9735290Y7405512D01*
X9722820Y7397180D01*
X9714488Y7384710D01*
X9711561Y7370000D01*
X9714488Y7355290D01*
X9722820Y7342820D01*
X9735290Y7334487D01*
X9750000Y7331561D01*
X9754834Y7332523D01*
X9758253Y7329866D01*
X9764238Y7321445D01*
X9761961Y7310000D01*
X9764888Y7295290D01*
X9773220Y7282820D01*
X9785690Y7274488D01*
X9798421Y7271955D01*
X9801969Y7265704D01*
X9803694Y7259268D01*
X9701526Y7157099D01*
X9621291D01*
X9620717Y7157716D01*
X9615870Y7168841D01*
X9616978Y7171765D01*
X9618348Y7178652D01*
Y7213752D01*
X9616978Y7220638D01*
X9613078Y7226477D01*
X9607239Y7230377D01*
X9600353Y7231747D01*
X9460253D01*
X9453366Y7230377D01*
X9447528Y7226477D01*
X9443627Y7220638D01*
X9442257Y7213752D01*
Y7208448D01*
X9436669Y7204714D01*
X9391688Y7159733D01*
X9386074Y7151331D01*
X9384102Y7141421D01*
Y7068037D01*
X9382820Y7067180D01*
X9374487Y7054710D01*
X9371561Y7040000D01*
X9374487Y7025290D01*
X9382820Y7012820D01*
X9395290Y7004487D01*
X9410000Y7001561D01*
X9424710Y7004487D01*
X9429557Y7007726D01*
X9442257Y7000938D01*
Y6983652D01*
X9443627Y6976765D01*
X9444736Y6973840D01*
X9439889Y6962717D01*
X9439315Y6962099D01*
X9365160D01*
Y7004160D01*
X9249760D01*
Y6873760D01*
X9348575D01*
X9353835Y6861060D01*
X9307878Y6815102D01*
X9219103D01*
Y6639702D01*
X9293708D01*
X9300497Y6627002D01*
X9298893Y6624602D01*
X9219103D01*
Y6449202D01*
X9316802D01*
X9323590Y6436502D01*
X9322319Y6434600D01*
X9319103D01*
X9316600Y6434102D01*
X9219103D01*
Y6258702D01*
X9344503D01*
Y6382884D01*
X9354013Y6384776D01*
X9362415Y6390390D01*
X9375129Y6403104D01*
X9386862Y6398243D01*
Y6281257D01*
X9388833Y6271346D01*
X9394447Y6262945D01*
X9436669Y6220723D01*
X9442257Y6216989D01*
Y6211685D01*
X9443627Y6204799D01*
X9444736Y6201874D01*
X9439889Y6190750D01*
X9439315Y6190133D01*
X9344503D01*
Y6243602D01*
X9219103D01*
Y6068202D01*
X9293708D01*
X9300497Y6055502D01*
X9298893Y6053102D01*
X9219103D01*
Y5877702D01*
X9324764D01*
X9331116Y5865002D01*
X9327164Y5859732D01*
X9318945D01*
X9309034Y5857761D01*
X9301326Y5852610D01*
X9218473D01*
Y5686793D01*
X9217913D01*
Y5511393D01*
X9219977D01*
Y5349138D01*
X9214815D01*
Y5173738D01*
X9340215D01*
Y5235540D01*
X9415358D01*
X9416608Y5222840D01*
X9404658Y5220463D01*
X9392188Y5212131D01*
X9383856Y5199660D01*
X9380930Y5184951D01*
X9383856Y5170241D01*
X9392188Y5157770D01*
X9404658Y5149438D01*
X9419368Y5146512D01*
X9424102Y5134854D01*
Y5117500D01*
X9369800D01*
Y5002100D01*
X9500200D01*
Y5117500D01*
X9475897D01*
Y5154319D01*
X9473926Y5164229D01*
X9468312Y5172631D01*
X9457506Y5183438D01*
X9457807Y5184951D01*
X9454881Y5199660D01*
X9446549Y5212131D01*
X9434078Y5220463D01*
X9422128Y5222840D01*
X9423379Y5235540D01*
X9783950D01*
X9793861Y5237511D01*
X9802263Y5243125D01*
X10010524Y5451387D01*
X10022257Y5446526D01*
Y5439719D01*
X10023627Y5432832D01*
X10026684Y5424769D01*
X10023627Y5416705D01*
X10022257Y5409818D01*
Y5374719D01*
X10023627Y5367832D01*
X10026684Y5359769D01*
X10023627Y5351705D01*
X10022257Y5344819D01*
Y5309719D01*
X10023627Y5302832D01*
X10027528Y5296994D01*
X10033366Y5293093D01*
X10040253Y5291723D01*
X10180353D01*
X10187239Y5293093D01*
X10193077Y5296994D01*
X10196002Y5301371D01*
X10232300D01*
Y5244800D01*
X10347700D01*
Y5366636D01*
X10355432Y5368174D01*
X10363833Y5373788D01*
X10378713Y5388667D01*
X10384326Y5397068D01*
X10386298Y5406979D01*
Y5891952D01*
X10599569D01*
Y5872649D01*
X10659968D01*
Y5963049D01*
X10599569D01*
Y5943747D01*
X10385898D01*
Y6106042D01*
Y6294235D01*
Y6474968D01*
X10386298Y6476979D01*
Y6603021D01*
X10385898Y6605032D01*
Y6796402D01*
Y6826919D01*
X10398598Y6833909D01*
X10410400Y6831561D01*
X10425110Y6834487D01*
X10437580Y6842820D01*
X10445913Y6855290D01*
X10448839Y6870000D01*
X10445913Y6884710D01*
X10437580Y6897180D01*
X10425110Y6905512D01*
X10410400Y6908439D01*
X10398598Y6906091D01*
X10385898Y6913081D01*
Y6969223D01*
X10383926Y6979133D01*
X10378312Y6987535D01*
X10363433Y7002414D01*
X10355032Y7008028D01*
X10345121Y7009999D01*
X10339506D01*
X10332717Y7022699D01*
X10334874Y7025928D01*
X10337800Y7040638D01*
X10337499Y7042151D01*
X10687551Y7392202D01*
X10706669D01*
X10711529Y7380469D01*
X10411513Y7080453D01*
X10410000Y7080754D01*
X10395290Y7077828D01*
X10382820Y7069496D01*
X10374488Y7057025D01*
X10371561Y7042315D01*
X10374488Y7027605D01*
X10382820Y7015135D01*
X10395290Y7006803D01*
X10410000Y7003877D01*
X10424710Y7006803D01*
X10437180Y7015135D01*
X10445513Y7027605D01*
X10448439Y7042315D01*
X10448138Y7043828D01*
X10491602Y7087293D01*
X10496717Y7086356D01*
X10504560Y7082290D01*
X10507137Y7069336D01*
X10516021Y7056040D01*
X10529317Y7047156D01*
X10545001Y7044036D01*
X10560684Y7047156D01*
X10573980Y7056040D01*
X10582864Y7069336D01*
X10585983Y7085019D01*
X10582864Y7100703D01*
X10573980Y7113998D01*
X10560684Y7122882D01*
X10547729Y7125459D01*
X10543664Y7133303D01*
X10542727Y7138418D01*
X10758412Y7354102D01*
X13009273D01*
X14149362Y6214013D01*
Y5735851D01*
Y5518739D01*
X14151334Y5508828D01*
X14156947Y5500426D01*
X14177214Y5480160D01*
X14177165Y5478789D01*
X14173203Y5467460D01*
X14105357D01*
Y5552251D01*
X14103386Y5562162D01*
X14097772Y5570564D01*
X13993382Y5674954D01*
X13994716Y5681660D01*
X13991316Y5698752D01*
X13981635Y5713243D01*
X13967143Y5722925D01*
X13950050Y5726325D01*
X13765349D01*
X13748256Y5722925D01*
X13733766Y5713243D01*
X13724084Y5698752D01*
X13720683Y5681660D01*
X13724084Y5664567D01*
X13733766Y5650077D01*
X13748256Y5640395D01*
X13765349Y5636995D01*
X13950050D01*
X13956757Y5638329D01*
X14053561Y5541524D01*
Y5434560D01*
X14054060Y5432057D01*
Y5337060D01*
X14262061D01*
Y5442768D01*
X14274760Y5447735D01*
X14291660Y5430835D01*
Y5337060D01*
X14308154D01*
X14309837Y5328599D01*
X14318169Y5316128D01*
X14330640Y5307796D01*
X14345349Y5304870D01*
X14360059Y5307796D01*
X14372530Y5316128D01*
X14380862Y5328599D01*
X14382545Y5337060D01*
X14407060D01*
Y5467460D01*
X14328284D01*
X14315004Y5480740D01*
X14313486Y5488370D01*
X14307872Y5496772D01*
X14306383Y5498262D01*
X14311243Y5509995D01*
X14432771D01*
X14449863Y5513395D01*
X14464354Y5523077D01*
X14469937Y5531432D01*
X14494896D01*
X14505290Y5524488D01*
X14520000Y5521561D01*
X14534711Y5524488D01*
X14547180Y5532820D01*
X14555511Y5545290D01*
X14558438Y5560000D01*
X14555511Y5574710D01*
X14547180Y5587180D01*
X14534711Y5595513D01*
X14520000Y5598439D01*
X14505290Y5595513D01*
X14492821Y5587180D01*
X14490178Y5583227D01*
X14466368D01*
X14464354Y5586243D01*
X14449863Y5595925D01*
X14432771Y5599325D01*
X14248068D01*
X14230975Y5595925D01*
X14216486Y5586243D01*
X14213857Y5582309D01*
X14201157Y5586162D01*
Y5725124D01*
X14241362Y5765329D01*
X14248068Y5763995D01*
X14432771D01*
X14449863Y5767395D01*
X14464354Y5777077D01*
X14474036Y5791567D01*
X14477435Y5808660D01*
X14474036Y5825752D01*
X14464354Y5840243D01*
X14449863Y5849925D01*
X14432771Y5853325D01*
X14248068D01*
X14230975Y5849925D01*
X14216486Y5840243D01*
X14213857Y5836309D01*
X14201157Y5840162D01*
Y5904158D01*
X14213857Y5908010D01*
X14216486Y5904077D01*
X14230975Y5894395D01*
X14248068Y5890995D01*
X14432771D01*
X14449863Y5894395D01*
X14464354Y5904077D01*
X14474036Y5918567D01*
X14477435Y5935660D01*
X14474036Y5952752D01*
X14464354Y5967243D01*
X14449863Y5976925D01*
X14432771Y5980325D01*
X14366318D01*
Y6179580D01*
X14364346Y6189491D01*
X14358733Y6197893D01*
X13120213Y7436412D01*
X13111810Y7442026D01*
X13101900Y7443998D01*
D02*
G37*
G36*
X9655057Y7343781D02*
X9640347Y7340855D01*
X9627877Y7332523D01*
X9619545Y7320053D01*
X9616619Y7305343D01*
X9619545Y7290633D01*
X9627877Y7278162D01*
X9640347Y7269830D01*
X9655057Y7266904D01*
X9669767Y7269830D01*
X9682238Y7278162D01*
X9690570Y7290633D01*
X9693496Y7305343D01*
X9690570Y7320053D01*
X9682238Y7332523D01*
X9669767Y7340855D01*
X9655057Y7343781D01*
D02*
G37*
G36*
X11096223Y7330082D02*
X11081513Y7327156D01*
X11079630Y7325897D01*
X10970000D01*
X10960090Y7323926D01*
X10951688Y7318312D01*
X10936688Y7303312D01*
X10931074Y7294910D01*
X10929103Y7285000D01*
Y7260200D01*
X10894800D01*
Y7099800D01*
X11015200D01*
X11024102Y7090787D01*
Y6822700D01*
X11022300D01*
Y6657300D01*
X11024102D01*
Y6640727D01*
X10999273Y6615898D01*
X10970200D01*
Y6655200D01*
X10854800D01*
Y6524800D01*
X10970200D01*
Y6564102D01*
X11010000D01*
X11019911Y6566074D01*
X11028312Y6571688D01*
X11061403Y6604778D01*
X11074103Y6599517D01*
Y6515665D01*
X10986047Y6427610D01*
X10980433Y6419208D01*
X10978462Y6409298D01*
Y6325460D01*
X10939760D01*
Y6130060D01*
X10974062D01*
Y6076435D01*
X10961362Y6075185D01*
X10961233Y6075833D01*
X10957349Y6081647D01*
X10951535Y6085531D01*
X10944678Y6086895D01*
X10789428D01*
X10782570Y6085531D01*
X10776757Y6081647D01*
X10772872Y6075833D01*
X10760044Y6076441D01*
X10750000Y6078439D01*
X10735290Y6075513D01*
X10722820Y6067180D01*
X10714488Y6054710D01*
X10711562Y6040000D01*
X10714488Y6025290D01*
X10722820Y6012820D01*
X10735290Y6004488D01*
X10750000Y6001562D01*
X10764710Y6004488D01*
X10765307Y6004886D01*
X10772872Y6006868D01*
X10776757Y6001055D01*
X10782570Y5997170D01*
X10789428Y5995806D01*
X10944678D01*
X10951535Y5997170D01*
X10957349Y6001055D01*
X10961233Y6006868D01*
X10961362Y6007517D01*
X10974062Y6006266D01*
Y5949435D01*
X10961362Y5948185D01*
X10961233Y5948833D01*
X10957349Y5954647D01*
X10951535Y5958531D01*
X10944678Y5959895D01*
X10789428D01*
X10782570Y5958531D01*
X10776757Y5954647D01*
X10772872Y5948833D01*
X10771513Y5941998D01*
X10744968D01*
Y5963049D01*
X10684569D01*
Y5872649D01*
X10744968D01*
Y5890202D01*
X10771508D01*
Y5886726D01*
X10772872Y5879868D01*
X10776757Y5874055D01*
X10782570Y5870170D01*
X10789428Y5868806D01*
X10944678D01*
X10951535Y5870170D01*
X10957349Y5874055D01*
X10961233Y5879868D01*
X10962597Y5886726D01*
Y5888453D01*
X11036242D01*
X11155656Y5769038D01*
X11164058Y5763424D01*
X11173969Y5761453D01*
X11336508D01*
Y5759726D01*
X11337872Y5752868D01*
X11341757Y5747055D01*
X11347570Y5743170D01*
X11354428Y5741806D01*
X11509678D01*
X11516535Y5743170D01*
X11522349Y5747055D01*
X11526233Y5752868D01*
X11527597Y5759726D01*
Y5814976D01*
X11526233Y5821833D01*
X11522349Y5827647D01*
X11516535Y5831531D01*
X11509678Y5832895D01*
X11354428D01*
X11347570Y5831531D01*
X11341757Y5827647D01*
X11337872Y5821833D01*
X11336508Y5814976D01*
Y5813248D01*
X11184696D01*
X11065281Y5932663D01*
X11056879Y5938277D01*
X11046969Y5940248D01*
X11025857D01*
Y6130060D01*
X11060160D01*
Y6325460D01*
X11030257D01*
Y6398570D01*
X11118313Y6486626D01*
X11123926Y6495027D01*
X11125898Y6504938D01*
Y6517019D01*
X11224103D01*
Y6467539D01*
X11226074Y6457628D01*
X11231688Y6449226D01*
X11246567Y6434347D01*
X11254969Y6428733D01*
X11264879Y6426762D01*
X11366860D01*
Y6394960D01*
X11497260D01*
Y6510360D01*
X11366860D01*
Y6478557D01*
X11275898D01*
Y6657300D01*
X11277700D01*
Y6822700D01*
X11075898D01*
Y7097300D01*
X11127700D01*
Y7262700D01*
X11127700D01*
X11130058Y7274423D01*
X11131735Y7276933D01*
X11134661Y7291643D01*
X11131735Y7306353D01*
X11123403Y7318823D01*
X11110933Y7327156D01*
X11096223Y7330082D01*
D02*
G37*
G36*
X11277700Y7262700D02*
Y7262700D01*
X11273135Y7262700D01*
X11172300D01*
Y7097300D01*
X11273135D01*
X11277700Y7097300D01*
Y7097299D01*
X11284800Y7099800D01*
X11284801Y7099800D01*
X11405200D01*
Y7260200D01*
X11284800D01*
Y7260201D01*
X11277700Y7262700D01*
D02*
G37*
G36*
X9155011Y7126002D02*
X9139327Y7122882D01*
X9126032Y7113998D01*
X9117148Y7100703D01*
X9114028Y7085019D01*
X9117148Y7069336D01*
X9126032Y7056040D01*
X9139327Y7047156D01*
X9155011Y7044036D01*
X9170694Y7047156D01*
X9183990Y7056040D01*
X9192874Y7069336D01*
X9195994Y7085019D01*
X9192874Y7100703D01*
X9183990Y7113998D01*
X9170694Y7122882D01*
X9155011Y7126002D01*
D02*
G37*
G36*
X8395018D02*
X8379334Y7122882D01*
X8366038Y7113998D01*
X8357154Y7100703D01*
X8354035Y7085019D01*
X8357154Y7069336D01*
X8366038Y7056040D01*
X8379334Y7047156D01*
X8395018Y7044036D01*
X8410701Y7047156D01*
X8423997Y7056040D01*
X8432881Y7069336D01*
X8436000Y7085019D01*
X8432881Y7100703D01*
X8423997Y7113998D01*
X8410701Y7122882D01*
X8395018Y7126002D01*
D02*
G37*
G36*
X7005003D02*
X6989319Y7122882D01*
X6976023Y7113998D01*
X6967139Y7100703D01*
X6964020Y7085019D01*
X6967139Y7069336D01*
X6976023Y7056040D01*
X6989319Y7047156D01*
X7005003Y7044036D01*
X7020686Y7047156D01*
X7033982Y7056040D01*
X7042866Y7069336D01*
X7045985Y7085019D01*
X7042866Y7100703D01*
X7033982Y7113998D01*
X7020686Y7122882D01*
X7005003Y7126002D01*
D02*
G37*
G36*
X12650000Y7336261D02*
X12615613Y7332874D01*
X12582548Y7322844D01*
X12552074Y7306556D01*
X12525365Y7284635D01*
X12503444Y7257926D01*
X12487156Y7227452D01*
X12477126Y7194387D01*
X12473739Y7160000D01*
X12477126Y7125613D01*
X12487156Y7092548D01*
X12503444Y7062074D01*
X12525365Y7035364D01*
X12552074Y7013444D01*
X12582548Y6997156D01*
X12615613Y6987125D01*
X12650000Y6983739D01*
X12684387Y6987125D01*
X12717452Y6997156D01*
X12747926Y7013444D01*
X12774636Y7035364D01*
X12796556Y7062074D01*
X12812843Y7092548D01*
X12822874Y7125613D01*
X12826260Y7160000D01*
X12822874Y7194387D01*
X12812843Y7227452D01*
X12796556Y7257926D01*
X12774636Y7284635D01*
X12747926Y7306556D01*
X12717452Y7322844D01*
X12684387Y7332874D01*
X12650000Y7336261D01*
D02*
G37*
G36*
X6650012D02*
X6615625Y7332874D01*
X6582560Y7322844D01*
X6552086Y7306556D01*
X6525377Y7284635D01*
X6503456Y7257926D01*
X6487168Y7227452D01*
X6477138Y7194387D01*
X6473751Y7160000D01*
X6477138Y7125613D01*
X6487168Y7092548D01*
X6503456Y7062074D01*
X6525377Y7035364D01*
X6552086Y7013444D01*
X6582560Y6997156D01*
X6615625Y6987125D01*
X6650012Y6983739D01*
X6684399Y6987125D01*
X6717464Y6997156D01*
X6747938Y7013444D01*
X6774648Y7035364D01*
X6796568Y7062074D01*
X6812856Y7092548D01*
X6822887Y7125613D01*
X6826273Y7160000D01*
X6822887Y7194387D01*
X6812856Y7227452D01*
X6796568Y7257926D01*
X6774648Y7284635D01*
X6747938Y7306556D01*
X6717464Y7322844D01*
X6684399Y7332874D01*
X6650012Y7336261D01*
D02*
G37*
G36*
X10825200Y6655200D02*
X10709800D01*
Y6630817D01*
X10697100Y6624028D01*
X10694878Y6625513D01*
X10680168Y6628439D01*
X10665458Y6625513D01*
X10652988Y6617180D01*
X10644656Y6604710D01*
X10641730Y6590000D01*
X10644656Y6575290D01*
X10652988Y6562820D01*
X10665458Y6554488D01*
X10680168Y6551561D01*
X10694878Y6554488D01*
X10697100Y6555972D01*
X10709800Y6549183D01*
Y6524800D01*
X10825200D01*
Y6655200D01*
D02*
G37*
G36*
X7806983Y6781547D02*
X7646583D01*
Y6661146D01*
X7700862D01*
Y6641604D01*
X7649135D01*
X7642277Y6640240D01*
X7636464Y6636356D01*
X7632579Y6630542D01*
X7631215Y6623685D01*
Y6568435D01*
X7632579Y6561577D01*
X7636464Y6555764D01*
X7642277Y6551879D01*
X7649135Y6550515D01*
X7804385D01*
X7811242Y6551879D01*
X7817056Y6555764D01*
X7820930Y6561561D01*
X7850000D01*
X7864710Y6564488D01*
X7877180Y6572820D01*
X7885513Y6585290D01*
X7888439Y6600000D01*
X7885513Y6614710D01*
X7877180Y6627180D01*
X7864710Y6635513D01*
X7850000Y6638439D01*
X7813939D01*
X7811242Y6640240D01*
X7804385Y6641604D01*
X7752657D01*
Y6661146D01*
X7806983D01*
Y6781547D01*
D02*
G37*
G36*
X7239385Y6641604D02*
X7084135D01*
X7077277Y6640240D01*
X7071464Y6636356D01*
X7067579Y6630542D01*
X7066215Y6623685D01*
Y6568435D01*
X7067579Y6561577D01*
X7071464Y6555764D01*
X7077277Y6551879D01*
X7084135Y6550515D01*
X7239385D01*
X7246242Y6551879D01*
X7252056Y6555764D01*
X7255940Y6561577D01*
X7257304Y6568435D01*
Y6623685D01*
X7255940Y6630542D01*
X7252056Y6636356D01*
X7246242Y6640240D01*
X7239385Y6641604D01*
D02*
G37*
G36*
X7804385Y6514604D02*
X7649135D01*
X7642277Y6513240D01*
X7636464Y6509356D01*
X7632579Y6503542D01*
X7631215Y6496685D01*
Y6441435D01*
X7632579Y6434577D01*
X7636464Y6428764D01*
X7642277Y6424879D01*
X7649135Y6423515D01*
X7785679D01*
X7809698Y6399496D01*
X7805149Y6389316D01*
X7803630Y6387604D01*
X7649135D01*
X7642277Y6386240D01*
X7636464Y6382356D01*
X7632579Y6376542D01*
X7631493Y6371081D01*
X7624409Y6369601D01*
X7618515Y6369529D01*
X7500672Y6487372D01*
X7492270Y6492986D01*
X7482360Y6494957D01*
X7257304D01*
Y6496685D01*
X7255940Y6503542D01*
X7252056Y6509356D01*
X7246242Y6513240D01*
X7239385Y6514604D01*
X7084135D01*
X7077277Y6513240D01*
X7071464Y6509356D01*
X7067579Y6503542D01*
X7066215Y6496685D01*
Y6494957D01*
X6939060D01*
X6929149Y6492986D01*
X6920747Y6487372D01*
X6713147Y6279772D01*
X6707533Y6271370D01*
X6705562Y6261460D01*
Y6218068D01*
X6673760D01*
Y6155365D01*
X6662027Y6150504D01*
X6624218Y6188312D01*
X6615817Y6193926D01*
X6605906Y6195898D01*
X6591405D01*
X6589160Y6207668D01*
X6589160Y6208598D01*
Y6313068D01*
X6473760D01*
Y6208598D01*
X6473759Y6207668D01*
X6471515Y6195898D01*
X6410000D01*
X6400090Y6193926D01*
X6391688Y6188312D01*
X6361688Y6158312D01*
X6356074Y6149910D01*
X6354102Y6140000D01*
Y5956568D01*
X6271310D01*
Y5902792D01*
X6232147Y5863630D01*
X6226533Y5855228D01*
X6224562Y5845318D01*
Y5745160D01*
X6226533Y5735249D01*
X6232147Y5726847D01*
X6251198Y5707797D01*
X6259599Y5702183D01*
X6264851Y5701138D01*
X6263601Y5688438D01*
X6250000D01*
X6235290Y5685512D01*
X6222820Y5677180D01*
X6214487Y5664710D01*
X6211561Y5650000D01*
X6214487Y5635290D01*
X6222820Y5622820D01*
X6235290Y5614487D01*
X6250000Y5611561D01*
X6352891D01*
X6352892Y5611561D01*
X6355941Y5612168D01*
X6449210D01*
Y5682324D01*
X6461910Y5687585D01*
X6519103Y5630392D01*
Y5462700D01*
X6502300D01*
Y5307300D01*
X6587700D01*
Y5462700D01*
X6570898D01*
Y5641119D01*
X6568926Y5651030D01*
X6563313Y5659432D01*
X6478322Y5744422D01*
X6476305Y5745770D01*
X6480157Y5758470D01*
X6530725D01*
X6650139Y5639055D01*
X6658541Y5633441D01*
X6668452Y5631470D01*
X6813710D01*
Y5612168D01*
X6991610D01*
Y5702568D01*
X6813710D01*
Y5683265D01*
X6679179D01*
X6557357Y5805087D01*
Y6017668D01*
X6589160D01*
Y6123068D01*
X6473760D01*
Y6017668D01*
X6505562D01*
Y5810265D01*
X6449210D01*
Y5829568D01*
X6289295D01*
X6284034Y5842268D01*
X6307934Y5866168D01*
X6449210D01*
Y5956568D01*
X6405898D01*
Y6129273D01*
X6420727Y6144103D01*
X6595179D01*
X6780734Y5958547D01*
X6789136Y5952933D01*
X6799047Y5950962D01*
X6813710D01*
Y5866168D01*
X6991610D01*
Y5884916D01*
X7068825D01*
X7072055Y5880082D01*
X7073390Y5872750D01*
X7069369Y5864271D01*
X7065929Y5861972D01*
X7019547Y5815591D01*
X7013933Y5807189D01*
X7011962Y5797278D01*
Y5578087D01*
X7003343Y5569468D01*
X6991610Y5574328D01*
Y5575568D01*
X6813710D01*
Y5545897D01*
X6744879D01*
X6734968Y5543926D01*
X6726567Y5538312D01*
X6711688Y5523433D01*
X6706074Y5515031D01*
X6704102Y5505121D01*
Y5462700D01*
X6692300D01*
Y5307300D01*
X6777700D01*
Y5462700D01*
X6755898D01*
Y5494102D01*
X6813710D01*
Y5485168D01*
X6991610D01*
Y5504470D01*
X7000868D01*
X7010778Y5506441D01*
X7019180Y5512055D01*
X7056172Y5549047D01*
X7061786Y5557449D01*
X7063757Y5567360D01*
Y5615641D01*
X7069745Y5618998D01*
X7076457Y5620809D01*
X7090648Y5611327D01*
X7109260Y5607625D01*
X7289260D01*
X7307871Y5611327D01*
X7315600Y5601217D01*
X7305321Y5590939D01*
X7262500D01*
X7258787Y5590200D01*
X7159800D01*
Y5469800D01*
X7320200D01*
Y5501891D01*
X7321244Y5514061D01*
X7335953Y5516988D01*
X7348424Y5525320D01*
X7389139Y5566036D01*
X7389140Y5566036D01*
X7397472Y5578506D01*
X7400398Y5593216D01*
Y5743969D01*
X7400398Y5743970D01*
X7397472Y5758680D01*
X7389867Y5770062D01*
X7390882Y5774337D01*
X7395488Y5782762D01*
X7550724D01*
X7554327Y5764648D01*
X7564870Y5748870D01*
X7580648Y5738327D01*
X7599260Y5734625D01*
X7779260D01*
X7797871Y5738327D01*
X7813650Y5748870D01*
X7824192Y5764648D01*
X7827894Y5783260D01*
X7824192Y5801871D01*
X7819989Y5808162D01*
X7826777Y5820862D01*
X7906082D01*
X7924697Y5802247D01*
X7933099Y5796633D01*
X7943010Y5794662D01*
X8047026D01*
X8053941Y5781962D01*
X8051561Y5770000D01*
X8054488Y5755290D01*
X8062820Y5742820D01*
X8075290Y5734487D01*
X8090000Y5731561D01*
X8104710Y5734487D01*
X8110086Y5738079D01*
X8121160Y5742859D01*
X8121160Y5742859D01*
X8121160Y5742860D01*
X8231560D01*
Y5792860D01*
Y5898260D01*
X8224926D01*
X8216640Y5910960D01*
X8218438Y5920000D01*
X8215512Y5934710D01*
X8207180Y5947180D01*
X8194710Y5955513D01*
X8180000Y5958439D01*
X8165290Y5955513D01*
X8152820Y5947180D01*
X8144487Y5934710D01*
X8141561Y5920000D01*
X8143360Y5910960D01*
X8135073Y5898260D01*
X8121160D01*
Y5846457D01*
X7953737D01*
X7935122Y5865072D01*
X7926720Y5870686D01*
X7916809Y5872657D01*
X7826777D01*
X7819989Y5885357D01*
X7824192Y5891648D01*
X7827894Y5910260D01*
X7824192Y5928871D01*
X7813650Y5944650D01*
X7797871Y5955192D01*
X7779260Y5958894D01*
X7599260D01*
X7580648Y5955192D01*
X7564870Y5944650D01*
X7559195Y5936157D01*
X7531187D01*
X7520957Y5946387D01*
Y6064633D01*
X7570427Y6114102D01*
X7830068D01*
Y6079007D01*
X7825641Y6075374D01*
X7812105Y6072682D01*
X7797871Y6082192D01*
X7779260Y6085894D01*
X7599260D01*
X7580648Y6082192D01*
X7564870Y6071650D01*
X7554327Y6055871D01*
X7550625Y6037260D01*
X7554327Y6018648D01*
X7564870Y6002870D01*
X7580648Y5992327D01*
X7599260Y5988625D01*
X7779260D01*
X7797871Y5992327D01*
X7811358Y6001339D01*
X7825641Y5998497D01*
X7830068Y5994865D01*
Y5958668D01*
X7950468D01*
Y6119068D01*
X7885454D01*
X7880193Y6131768D01*
X7907072Y6158647D01*
X7912686Y6167049D01*
X7914657Y6176960D01*
Y6357060D01*
X7912686Y6366970D01*
X7907072Y6375372D01*
X7822304Y6460140D01*
Y6496685D01*
X7820940Y6503542D01*
X7817056Y6509356D01*
X7811242Y6513240D01*
X7804385Y6514604D01*
D02*
G37*
G36*
X13739903Y6363586D02*
X13666504D01*
Y6363572D01*
X13611234D01*
Y6298172D01*
X13684634D01*
Y6298186D01*
X13739903D01*
Y6363586D01*
D02*
G37*
G36*
X11497260Y6365360D02*
X11366860D01*
Y6279084D01*
X11352860Y6265084D01*
X11340160Y6270345D01*
Y6325460D01*
X11219760D01*
Y6130060D01*
X11254062D01*
Y6016444D01*
X11256033Y6006533D01*
X11261647Y5998131D01*
X11336508Y5923270D01*
Y5886726D01*
X11337872Y5879868D01*
X11341757Y5874055D01*
X11347570Y5870170D01*
X11354428Y5868806D01*
X11509678D01*
X11516535Y5870170D01*
X11522348Y5874055D01*
X11535867Y5871427D01*
X11566522Y5840772D01*
X11568850Y5837289D01*
X11631410Y5774729D01*
X11631956Y5774364D01*
Y5758875D01*
X11633320Y5752017D01*
X11637204Y5746204D01*
X11643018Y5742319D01*
X11649875Y5740955D01*
X11805125D01*
X11811982Y5742319D01*
X11817796Y5746204D01*
X11821680Y5752017D01*
X11823044Y5758875D01*
Y5814125D01*
X11822944Y5814629D01*
X11834649Y5820885D01*
X11910319Y5745214D01*
Y5555808D01*
X11899517D01*
Y5490408D01*
X11910991D01*
Y5473060D01*
X11900860D01*
Y5407660D01*
X11911662D01*
Y5391260D01*
X11780760D01*
Y5260860D01*
X11983462D01*
Y5244879D01*
X11985433Y5234968D01*
X11991047Y5226567D01*
X12005926Y5211688D01*
X12014328Y5206074D01*
X12024239Y5204102D01*
X12486018D01*
X12495929Y5206074D01*
X12504331Y5211688D01*
X12528313Y5235669D01*
X12533926Y5244071D01*
X12535898Y5253982D01*
Y5752560D01*
X12558160D01*
Y5867960D01*
X12452760D01*
Y5813248D01*
X12388044D01*
Y5814125D01*
X12386680Y5820983D01*
X12382796Y5826796D01*
X12376982Y5830680D01*
X12370125Y5832044D01*
X12214875D01*
X12208017Y5830680D01*
X12202204Y5826796D01*
X12198320Y5820983D01*
X12196956Y5814125D01*
Y5809157D01*
X12133260D01*
X12123349Y5807186D01*
X12114947Y5801572D01*
X11991047Y5677672D01*
X11985433Y5669270D01*
X11983462Y5659360D01*
Y5564742D01*
X11972132Y5557703D01*
X11962115Y5561285D01*
Y5755941D01*
X11960143Y5765852D01*
X11954529Y5774254D01*
X11823044Y5905739D01*
Y5941125D01*
X11821680Y5947983D01*
X11817796Y5953796D01*
X11811982Y5957680D01*
X11805125Y5959044D01*
X11649875D01*
X11643018Y5957680D01*
X11637204Y5953796D01*
X11633320Y5947983D01*
X11631956Y5941125D01*
Y5885875D01*
X11633320Y5879017D01*
X11637204Y5873204D01*
X11643018Y5869319D01*
X11649875Y5867955D01*
X11787578D01*
X11811885Y5843649D01*
X11805629Y5831944D01*
X11805125Y5832044D01*
X11649875D01*
X11647764Y5831625D01*
X11608108Y5871281D01*
X11605780Y5874764D01*
X11556086Y5924458D01*
X11547684Y5930072D01*
X11537773Y5932044D01*
X11527597D01*
Y5941976D01*
X11526233Y5948833D01*
X11522349Y5954647D01*
X11516535Y5958531D01*
X11509678Y5959895D01*
X11373133D01*
X11349114Y5983914D01*
X11353663Y5994094D01*
X11355183Y5995806D01*
X11509678D01*
X11516535Y5997170D01*
X11522349Y6001055D01*
X11526233Y6006868D01*
X11527597Y6013726D01*
Y6068975D01*
X11538696Y6078275D01*
X11575386D01*
Y6238675D01*
X11500676D01*
X11497260Y6249960D01*
X11497260Y6251375D01*
Y6365360D01*
D02*
G37*
G36*
X12550200Y6130200D02*
X12389800D01*
Y6091390D01*
X12377100Y6084602D01*
X12376982Y6084680D01*
X12370125Y6086044D01*
X12214875D01*
X12208017Y6084680D01*
X12202204Y6080796D01*
X12198320Y6074983D01*
X12196956Y6068125D01*
Y6012875D01*
X12198320Y6006017D01*
X12202204Y6000204D01*
X12208017Y5996319D01*
X12214875Y5994955D01*
X12370125D01*
X12376982Y5996319D01*
X12382796Y6000204D01*
X12387152Y6006171D01*
X12398264Y6009800D01*
X12444102D01*
Y5985727D01*
X12426529Y5968153D01*
X12421513Y5967156D01*
X12409042Y5958823D01*
X12400710Y5946353D01*
X12400332Y5944450D01*
X12387383Y5944450D01*
X12386680Y5947983D01*
X12382796Y5953796D01*
X12376982Y5957680D01*
X12370125Y5959044D01*
X12214875D01*
X12208017Y5957680D01*
X12202204Y5953796D01*
X12198320Y5947983D01*
X12196956Y5941125D01*
Y5885875D01*
X12198320Y5879017D01*
X12202204Y5873204D01*
X12208017Y5869319D01*
X12214875Y5867955D01*
X12370125D01*
X12376982Y5869319D01*
X12382796Y5873204D01*
X12386680Y5879017D01*
X12388044Y5885875D01*
Y5888453D01*
X12409351D01*
X12419261Y5890424D01*
X12426359Y5895167D01*
X12436223Y5893205D01*
X12450933Y5896131D01*
X12463403Y5904463D01*
X12471735Y5916933D01*
X12474661Y5931643D01*
X12472771Y5941146D01*
X12488312Y5956687D01*
X12493926Y5965089D01*
X12495898Y5975000D01*
Y6009800D01*
X12547760D01*
Y5952560D01*
X12653160D01*
Y5984362D01*
X12767632D01*
X12787760Y5964235D01*
Y5836157D01*
X12748159D01*
Y5867960D01*
X12642760D01*
Y5752560D01*
X12748159D01*
Y5784362D01*
X12787760D01*
Y5743460D01*
Y5616460D01*
X12903160D01*
Y5709320D01*
X12914893Y5714181D01*
X12925926Y5703147D01*
X12932761Y5698581D01*
Y5616460D01*
X13048160D01*
Y5743460D01*
Y5782762D01*
X13100459D01*
Y5754160D01*
X13205859D01*
Y5869560D01*
X13100459D01*
Y5834557D01*
X13048160D01*
Y5964235D01*
X13069887Y5985962D01*
X13195461D01*
Y5954160D01*
X13300861D01*
Y6069560D01*
X13195461D01*
Y6037757D01*
X13059160D01*
X13049249Y6035786D01*
X13040846Y6030172D01*
X13011536Y6000860D01*
X12932761D01*
Y5918738D01*
X12925926Y5914172D01*
X12914893Y5903139D01*
X12903160Y5907999D01*
Y6000860D01*
X12824384D01*
X12796672Y6028572D01*
X12788270Y6034186D01*
X12778360Y6036157D01*
X12653160D01*
Y6067960D01*
X12550200D01*
Y6130200D01*
D02*
G37*
G36*
X8290031Y6088798D02*
X8275321Y6085872D01*
X8262850Y6077540D01*
X8254518Y6065070D01*
X8251592Y6050360D01*
X8254518Y6035650D01*
X8255981Y6033460D01*
X8249193Y6020760D01*
X8243660D01*
Y5910360D01*
X8499060D01*
Y6020760D01*
X8499060D01*
X8494290Y6033460D01*
X8495513Y6035290D01*
X8498439Y6050000D01*
X8495513Y6064710D01*
X8487180Y6077180D01*
X8474710Y6085513D01*
X8460000Y6088439D01*
X8445290Y6085513D01*
X8432820Y6077180D01*
X8427056Y6068554D01*
X8425862Y6068156D01*
X8414138D01*
X8412944Y6068554D01*
X8407180Y6077180D01*
X8394710Y6085513D01*
X8380000Y6088439D01*
X8365290Y6085513D01*
X8352820Y6077180D01*
X8344488Y6064710D01*
X8343071Y6057587D01*
X8342777Y6057190D01*
X8329251Y6051747D01*
X8328008Y6052679D01*
X8325543Y6065070D01*
X8317211Y6077540D01*
X8304741Y6085872D01*
X8290031Y6088798D01*
D02*
G37*
G36*
X11805125Y6086044D02*
X11649875D01*
X11643018Y6084680D01*
X11637204Y6080796D01*
X11633320Y6074983D01*
X11631956Y6068125D01*
Y6012875D01*
X11633320Y6006017D01*
X11637204Y6000204D01*
X11643018Y5996319D01*
X11649875Y5994955D01*
X11805125D01*
X11811982Y5996319D01*
X11817796Y6000204D01*
X11821680Y6006017D01*
X11823044Y6012875D01*
Y6068125D01*
X11821680Y6074983D01*
X11817796Y6080796D01*
X11811982Y6084680D01*
X11805125Y6086044D01*
D02*
G37*
G36*
X13552634Y6363572D02*
X13479234D01*
Y6298172D01*
X13490036D01*
Y6284360D01*
X13441161D01*
Y6167960D01*
X13488962D01*
Y6037260D01*
X13490933Y6027349D01*
X13496547Y6018947D01*
X13546402Y5969093D01*
X13541541Y5957360D01*
X13441161D01*
Y5840960D01*
X13431113Y5834557D01*
X13395859D01*
Y5869560D01*
X13290460D01*
Y5754160D01*
X13395859D01*
Y5782762D01*
X13431113D01*
X13441161Y5776360D01*
Y5659960D01*
X13588560D01*
Y5776360D01*
X13598608Y5782762D01*
X13729967D01*
X13733766Y5777077D01*
X13748256Y5767395D01*
X13765349Y5763995D01*
X13950050D01*
X13967143Y5767395D01*
X13981635Y5777077D01*
X13991316Y5791567D01*
X13994716Y5808660D01*
X13991316Y5825752D01*
X13981635Y5840243D01*
X13967143Y5849925D01*
X13950050Y5853325D01*
X13765349D01*
X13748256Y5849925D01*
X13733766Y5840243D01*
X13729967Y5834557D01*
X13598608D01*
X13588560Y5840960D01*
Y5947862D01*
X13631326D01*
X13632564Y5941643D01*
X13640897Y5929173D01*
X13653368Y5920840D01*
X13668077Y5917914D01*
X13671368Y5918569D01*
X13672591Y5917347D01*
X13680994Y5911733D01*
X13690904Y5909762D01*
X13721542D01*
Y5891853D01*
X13993857D01*
Y5979466D01*
X13721542D01*
Y5961557D01*
X13705479D01*
X13703589Y5971063D01*
X13695258Y5983533D01*
X13682787Y5991865D01*
X13668077Y5994791D01*
X13667284Y5994633D01*
X13662714Y5997686D01*
X13652805Y5999657D01*
X13589087D01*
X13540758Y6047987D01*
Y6167960D01*
X13588560D01*
Y6284360D01*
X13541830D01*
Y6298172D01*
X13552634D01*
Y6363572D01*
D02*
G37*
G36*
X6991610Y5829568D02*
X6813710D01*
Y5818439D01*
X6790000D01*
X6775290Y5815513D01*
X6762820Y5807180D01*
X6754487Y5794710D01*
X6751561Y5780000D01*
X6754487Y5765290D01*
X6762820Y5752820D01*
X6775290Y5744488D01*
X6790000Y5741562D01*
X6813710D01*
Y5739168D01*
X6991610D01*
Y5829568D01*
D02*
G37*
G36*
X7779260Y5704894D02*
X7599260D01*
X7580648Y5701192D01*
X7564870Y5690650D01*
X7554327Y5674871D01*
X7550625Y5656260D01*
X7554327Y5637648D01*
X7564870Y5621870D01*
X7580648Y5611327D01*
X7599260Y5607625D01*
X7779260D01*
X7797871Y5611327D01*
X7813650Y5621870D01*
X7824192Y5637648D01*
X7827894Y5656260D01*
X7824192Y5674871D01*
X7813650Y5690650D01*
X7797871Y5701192D01*
X7779260Y5704894D01*
D02*
G37*
G36*
X13605200Y5630200D02*
X13484801D01*
Y5469800D01*
X13488962D01*
Y5449360D01*
X13441161D01*
Y5332960D01*
X13470026D01*
X13478082Y5323142D01*
X13477785Y5321643D01*
X13480370Y5308647D01*
X13479349Y5307404D01*
X13479349D01*
Y5242004D01*
X13552750D01*
Y5307404D01*
X13552750D01*
X13552008Y5308306D01*
X13554662Y5321643D01*
X13554362Y5323142D01*
X13562421Y5332960D01*
X13588560D01*
Y5365262D01*
X13601848D01*
X13602100Y5365312D01*
X13614799Y5355154D01*
Y5320104D01*
X13614799Y5319800D01*
X13614066Y5307404D01*
X13611349D01*
Y5242004D01*
X13684749D01*
Y5242679D01*
X13745743D01*
Y5308079D01*
X13737563D01*
X13735201Y5319800D01*
X13735201Y5320779D01*
Y5432299D01*
X13735696Y5434800D01*
Y5488384D01*
X13758643Y5511329D01*
X13765349Y5509995D01*
X13950050D01*
X13967143Y5513395D01*
X13981635Y5523077D01*
X13991316Y5537567D01*
X13994716Y5554660D01*
X13991316Y5571752D01*
X13981635Y5586243D01*
X13967143Y5595925D01*
X13950050Y5599325D01*
X13765349D01*
X13748256Y5595925D01*
X13733766Y5586243D01*
X13724084Y5571752D01*
X13720683Y5554660D01*
X13722018Y5547954D01*
X13683096Y5509033D01*
X13677483Y5500632D01*
X13675513Y5490721D01*
Y5480200D01*
X13614799D01*
X13605200Y5487685D01*
Y5630200D01*
D02*
G37*
G36*
X10944678Y5705895D02*
X10789428D01*
X10782570Y5704531D01*
X10776757Y5700647D01*
X10772872Y5694833D01*
X10771508Y5687976D01*
Y5632726D01*
X10772872Y5625868D01*
X10776757Y5620055D01*
X10782570Y5616170D01*
X10789428Y5614806D01*
X10789800D01*
Y5494800D01*
X10950200D01*
Y5615200D01*
X10957349Y5620055D01*
X10961233Y5625868D01*
X10962597Y5632726D01*
Y5687976D01*
X10961233Y5694833D01*
X10957349Y5700647D01*
X10951535Y5704531D01*
X10944678Y5705895D01*
D02*
G37*
G36*
X5998921Y5813944D02*
X5878430Y5693453D01*
X6014653Y5557230D01*
X6016074Y5550089D01*
X6021687Y5541688D01*
X6051320Y5512055D01*
X6059722Y5506441D01*
X6066863Y5505021D01*
X6143878Y5428006D01*
X6220342Y5504470D01*
X6271310D01*
Y5485168D01*
X6449210D01*
Y5575568D01*
X6271310D01*
Y5556265D01*
X6256600D01*
X5998921Y5813944D01*
D02*
G37*
G36*
X11509678Y5705895D02*
X11354428D01*
X11347570Y5704531D01*
X11341757Y5700647D01*
X11337872Y5694833D01*
X11336508Y5687976D01*
Y5632726D01*
X11337872Y5625868D01*
X11341757Y5620055D01*
X11347570Y5616170D01*
X11354428Y5614806D01*
X11362762D01*
Y5594460D01*
X11227260D01*
Y5464060D01*
X11446360D01*
Y5594460D01*
X11414557D01*
Y5614806D01*
X11509678D01*
X11516535Y5616170D01*
X11522349Y5620055D01*
X11526233Y5625868D01*
X11527597Y5632726D01*
Y5687976D01*
X11526233Y5694833D01*
X11522349Y5700647D01*
X11516535Y5704531D01*
X11509678Y5705895D01*
D02*
G37*
G36*
X11140000Y5708439D02*
X11125290Y5705513D01*
X11112820Y5697180D01*
X11104488Y5684710D01*
X11101561Y5670000D01*
X11104488Y5655290D01*
X11112820Y5642820D01*
X11114062Y5641990D01*
Y5594460D01*
X11082260D01*
Y5464060D01*
X11197660D01*
Y5594460D01*
X11165857D01*
Y5641936D01*
X11167180Y5642820D01*
X11175513Y5655290D01*
X11178439Y5670000D01*
X11175513Y5684710D01*
X11167180Y5697180D01*
X11154710Y5705513D01*
X11140000Y5708439D01*
D02*
G37*
G36*
X8231560Y5698260D02*
X8121160D01*
Y5642860D01*
X8135821D01*
X8143582Y5630159D01*
X8141561Y5620000D01*
X8144487Y5605290D01*
X8152820Y5592820D01*
X8165290Y5584487D01*
X8171258Y5583300D01*
X8181561Y5570000D01*
X8184488Y5555290D01*
X8192820Y5542820D01*
X8205290Y5534488D01*
X8220000Y5531561D01*
X8230959Y5533742D01*
X8243660Y5526356D01*
Y5520360D01*
X8321046D01*
X8331468Y5507659D01*
X8330929Y5504951D01*
X8333856Y5490241D01*
X8342188Y5477770D01*
X8354658Y5469438D01*
X8369368Y5466512D01*
X8384078Y5469438D01*
X8389253Y5472896D01*
X8404552Y5472670D01*
X8407261Y5470943D01*
X8417150Y5464336D01*
X8431860Y5461409D01*
X8446570Y5464336D01*
X8459040Y5472668D01*
X8467372Y5485138D01*
X8470299Y5499848D01*
X8468745Y5507659D01*
X8477608Y5520360D01*
X8499060D01*
Y5630760D01*
X8243660D01*
Y5613644D01*
X8231664Y5606668D01*
X8219671Y5610805D01*
X8218433Y5619720D01*
X8218438Y5619998D01*
X8218438Y5620000D01*
X8216418Y5630159D01*
X8224178Y5642860D01*
X8231560D01*
Y5698260D01*
D02*
G37*
G36*
X11805125Y5705044D02*
X11649875D01*
X11643018Y5703680D01*
X11637204Y5699796D01*
X11633320Y5693983D01*
X11631956Y5687125D01*
Y5631875D01*
X11633320Y5625017D01*
X11637204Y5619204D01*
X11643018Y5615319D01*
X11649875Y5613955D01*
X11730224D01*
X11738281Y5604138D01*
X11737784Y5601643D01*
X11740710Y5586933D01*
X11749043Y5574463D01*
X11749303Y5574289D01*
Y5554800D01*
X11749800Y5552298D01*
Y5439800D01*
X11870200D01*
Y5600200D01*
X11815846D01*
X11814661Y5601643D01*
X11811950Y5615271D01*
X11811983Y5615320D01*
X11817796Y5619204D01*
X11821680Y5625017D01*
X11823044Y5631875D01*
Y5687125D01*
X11821680Y5693983D01*
X11817796Y5699796D01*
X11811982Y5703680D01*
X11805125Y5705044D01*
D02*
G37*
G36*
X6682700Y5292700D02*
X6597300D01*
Y5240898D01*
X6515000D01*
X6505090Y5238927D01*
X6496688Y5233313D01*
X6414728Y5151352D01*
X6409114Y5142951D01*
X6407143Y5133040D01*
Y5041140D01*
X6400801Y5036902D01*
X6392003Y5023735D01*
X6388914Y5008203D01*
Y4875010D01*
X6392003Y4859478D01*
X6400801Y4846311D01*
X6413968Y4837513D01*
X6429500Y4834424D01*
X6445032Y4837513D01*
X6458199Y4846311D01*
X6466997Y4859478D01*
X6470086Y4875010D01*
Y5008203D01*
X6466997Y5023735D01*
X6458938Y5035796D01*
Y5122313D01*
X6525728Y5189103D01*
X6597300D01*
Y5137300D01*
X6682700D01*
Y5292700D01*
D02*
G37*
G36*
X9023873Y5852610D02*
X8898473D01*
Y5686793D01*
X8897913D01*
Y5511393D01*
X8899977D01*
Y5349138D01*
X8894815D01*
Y5173738D01*
X8902530D01*
X8914800Y5172700D01*
Y5112300D01*
X9005200D01*
Y5172700D01*
X9017470Y5173738D01*
X9020215D01*
Y5343082D01*
X9025377D01*
Y5518482D01*
X9023313D01*
Y5677210D01*
X9023873D01*
Y5852610D01*
D02*
G37*
G36*
X7072700Y5215200D02*
X6927300D01*
Y5155897D01*
X6807189D01*
X6797279Y5153926D01*
X6788877Y5148312D01*
X6688383Y5047818D01*
X6683500Y5048789D01*
X6667968Y5045700D01*
X6654801Y5036902D01*
X6646003Y5023735D01*
X6642914Y5008203D01*
Y4875010D01*
X6646003Y4859478D01*
X6654801Y4846311D01*
X6667968Y4837513D01*
X6683500Y4834424D01*
X6699032Y4837513D01*
X6712199Y4846311D01*
X6720997Y4859478D01*
X6724086Y4875010D01*
Y5008203D01*
X6723743Y5009929D01*
X6817916Y5104102D01*
X6927300D01*
Y5044800D01*
X7072700D01*
Y5215200D01*
D02*
G37*
G36*
X9999368Y5223389D02*
X9984658Y5220463D01*
X9972188Y5212131D01*
X9963856Y5199660D01*
X9960930Y5184951D01*
X9963856Y5170241D01*
X9972188Y5157770D01*
X9974102Y5156491D01*
Y5121200D01*
X9928600D01*
Y5005800D01*
X10059000D01*
Y5121200D01*
X10025897D01*
Y5157335D01*
X10026548Y5157770D01*
X10034881Y5170241D01*
X10037807Y5184951D01*
X10034881Y5199660D01*
X10026548Y5212131D01*
X10014078Y5220463D01*
X9999368Y5223389D01*
D02*
G37*
G36*
X6810500Y5048789D02*
X6794968Y5045700D01*
X6781801Y5036902D01*
X6773003Y5023735D01*
X6769914Y5008203D01*
Y4875010D01*
X6773003Y4859478D01*
X6781801Y4846311D01*
X6794968Y4837513D01*
X6810500Y4834424D01*
X6826032Y4837513D01*
X6839199Y4846311D01*
X6847997Y4859478D01*
X6851086Y4875010D01*
Y5008203D01*
X6847997Y5023735D01*
X6839199Y5036902D01*
X6826032Y5045700D01*
X6810500Y5048789D01*
D02*
G37*
G36*
X10059000Y4976200D02*
X9928600D01*
Y4940698D01*
X9879500D01*
X9869589Y4938726D01*
X9861188Y4933113D01*
X9823088Y4895013D01*
X9817474Y4886611D01*
X9815502Y4876700D01*
Y4701079D01*
X9817474Y4691169D01*
X9823088Y4682767D01*
X9837967Y4667888D01*
X9846368Y4662274D01*
X9856279Y4660303D01*
X9901355D01*
Y4658575D01*
X9902719Y4651718D01*
X9906604Y4645904D01*
X9912417Y4642020D01*
X9919275Y4640656D01*
X9971002D01*
Y4604745D01*
X9919275D01*
X9912417Y4603381D01*
X9906604Y4599496D01*
X9902719Y4593683D01*
X9901355Y4586825D01*
Y4531575D01*
X9902719Y4524718D01*
X9906604Y4518904D01*
X9912417Y4515020D01*
X9919275Y4513656D01*
X10074525D01*
X10081382Y4515020D01*
X10087196Y4518904D01*
X10091080Y4524718D01*
X10092444Y4531575D01*
Y4586825D01*
X10091080Y4593683D01*
X10087196Y4599496D01*
X10081382Y4603381D01*
X10074525Y4604745D01*
X10022797D01*
Y4640656D01*
X10074525D01*
X10081382Y4642020D01*
X10087196Y4645904D01*
X10091080Y4651718D01*
X10092444Y4658575D01*
Y4713825D01*
X10091080Y4720683D01*
X10087196Y4726496D01*
X10081382Y4730381D01*
X10074525Y4731745D01*
X9919275D01*
X9912417Y4730381D01*
X9906604Y4726496D01*
X9902719Y4720683D01*
X9901355Y4713825D01*
Y4712098D01*
X9867298D01*
Y4865973D01*
X9890227Y4888903D01*
X9919619D01*
X9928600Y4879922D01*
X9928600Y4865908D01*
X9919347Y4858801D01*
X9916943Y4858281D01*
X9912417Y4857381D01*
X9906604Y4853496D01*
X9902719Y4847683D01*
X9901355Y4840825D01*
Y4785575D01*
X9902719Y4778718D01*
X9906604Y4772904D01*
X9912417Y4769020D01*
X9919275Y4767656D01*
X10074525D01*
X10081382Y4769020D01*
X10085186Y4771561D01*
X10110000D01*
X10124710Y4774488D01*
X10137180Y4782820D01*
X10145513Y4795290D01*
X10148439Y4810000D01*
X10145513Y4824710D01*
X10137180Y4837180D01*
X10124710Y4845513D01*
X10110000Y4848439D01*
X10090575D01*
X10087196Y4853496D01*
X10081382Y4857381D01*
X10074525Y4858745D01*
X10070849D01*
X10059000Y4860801D01*
X10059000Y4871445D01*
Y4976200D01*
D02*
G37*
G36*
X14200000Y4748439D02*
X14199998Y4748439D01*
X13840001D01*
X13839999Y4748439D01*
X13825290Y4745512D01*
X13812820Y4737180D01*
X13734322Y4658682D01*
X13725989Y4646212D01*
X13723064Y4631502D01*
X13723064Y4631501D01*
Y4493490D01*
Y4426190D01*
X13710152D01*
X13658803Y4374840D01*
Y4152140D01*
X13668108Y4142836D01*
X13662923Y4131398D01*
X13662131Y4130851D01*
X13648116Y4133639D01*
X13648114Y4133639D01*
X13375201D01*
X13375200Y4133639D01*
X13360490Y4130713D01*
X13348019Y4122380D01*
X13273639Y4047999D01*
X13260939Y4053260D01*
Y4060000D01*
X13258012Y4074710D01*
X13257132Y4076028D01*
Y4138205D01*
Y4248655D01*
X13296815D01*
X13296817Y4248655D01*
X13311526Y4251581D01*
X13323997Y4259913D01*
X13436888Y4372805D01*
X13436890Y4372805D01*
X13445221Y4385276D01*
X13446802Y4393221D01*
X13539409D01*
Y4473983D01*
X13573802D01*
Y4440791D01*
X13649202D01*
Y4508708D01*
X13649940Y4512421D01*
Y4513491D01*
X13649202Y4517204D01*
Y4586190D01*
X13573802D01*
Y4550860D01*
X13539409D01*
Y4631621D01*
X13372009D01*
Y4470137D01*
X13371271Y4466421D01*
X13371271Y4466420D01*
Y4415907D01*
X13280894Y4325532D01*
X13255368D01*
Y4344425D01*
X13194968D01*
Y4321154D01*
X13188042Y4315170D01*
X13185905Y4314956D01*
X13173653Y4316970D01*
X13170367Y4321886D01*
Y4344425D01*
X13109969D01*
Y4333419D01*
X13107053D01*
X13092729Y4330570D01*
X13086475D01*
X13071765Y4327644D01*
X13059294Y4319311D01*
X13050961Y4306841D01*
X13048036Y4292131D01*
X13050961Y4277421D01*
X13059294Y4264951D01*
X13060815Y4263935D01*
X13060866Y4263809D01*
X13059946Y4249242D01*
X13052820Y4244480D01*
X13044487Y4232010D01*
X13041560Y4217300D01*
X13044487Y4202590D01*
X13052820Y4190120D01*
X13057326Y4187109D01*
Y4171835D01*
X13052820Y4168824D01*
X13044487Y4156353D01*
X13041560Y4141643D01*
X13044487Y4126933D01*
X13052820Y4114463D01*
X13065289Y4106131D01*
X13066656Y4105859D01*
X13068379Y4097061D01*
X13067976Y4092647D01*
X13056625Y4085063D01*
X13048294Y4072593D01*
X13045367Y4057883D01*
X13048294Y4043173D01*
X13056625Y4030702D01*
X13069096Y4022370D01*
X13083807Y4019444D01*
X13107300D01*
Y4014800D01*
X13167700D01*
Y4029154D01*
X13171759Y4032989D01*
X13185585Y4028580D01*
X13186987Y4021530D01*
X13195320Y4009059D01*
X13207790Y4000727D01*
X13208304Y4000625D01*
X13212485Y3986844D01*
X13081943Y3856304D01*
X10903880D01*
Y3875565D01*
X10880278D01*
Y3919800D01*
X10905200D01*
Y4080200D01*
X10789251D01*
X10784800Y4080200D01*
Y4080201D01*
X10776915Y4079320D01*
Y4079320D01*
X10646516D01*
Y3963920D01*
X10776915D01*
X10784800Y3954485D01*
Y3943754D01*
X10776915Y3934319D01*
X10646516D01*
Y3818919D01*
X10675777D01*
Y3805993D01*
X10674779Y3805795D01*
X10668941Y3801894D01*
X10665040Y3796056D01*
X10663670Y3789169D01*
Y3744069D01*
X10665040Y3737183D01*
X10668941Y3731344D01*
X10674779Y3727443D01*
X10681666Y3726074D01*
X10751766D01*
X10751858Y3726092D01*
X10764297Y3727428D01*
X10772590Y3724042D01*
X10773480Y3723239D01*
X10764471Y3710681D01*
X10758823D01*
X10758653Y3710795D01*
X10751766Y3712165D01*
X10681666D01*
X10674779Y3710795D01*
X10668941Y3706894D01*
X10665040Y3701056D01*
X10663670Y3694169D01*
Y3649069D01*
X10665040Y3642182D01*
X10668941Y3636344D01*
X10674779Y3632443D01*
X10681666Y3631074D01*
X10751766D01*
X10758653Y3632443D01*
X10760689Y3633804D01*
X10773480D01*
Y3615166D01*
X10903880D01*
Y3730566D01*
X10783145Y3730566D01*
X10782987D01*
X10782987D01*
X10779039Y3730566D01*
X10777121Y3731758D01*
X10772130Y3737948D01*
X10770258Y3750496D01*
X10773480Y3760165D01*
X10903880D01*
Y3779427D01*
X13097864D01*
X13097865Y3779427D01*
X13112575Y3782353D01*
X13125046Y3790685D01*
X13391122Y4056762D01*
X13632195D01*
X13683636Y4005320D01*
X13696106Y3996987D01*
X13710815Y3994061D01*
X13710817Y3994061D01*
X13854800D01*
Y3829800D01*
X14100200D01*
Y4070200D01*
X14015939D01*
Y4318181D01*
X14131451Y4433693D01*
X14152490D01*
Y4467678D01*
X14153229Y4471393D01*
X14153229Y4471394D01*
Y4506393D01*
X14152490Y4510106D01*
Y4579093D01*
X14077090D01*
Y4510106D01*
X14076352Y4506393D01*
Y4487315D01*
X13950320Y4361283D01*
X13941988Y4348812D01*
X13939061Y4334103D01*
X13939062Y4334101D01*
Y4070200D01*
X13898717D01*
X13895000Y4070939D01*
X13895000Y4070939D01*
X13726738D01*
X13709186Y4088490D01*
X13714847Y4100790D01*
X13812852D01*
X13864201Y4152140D01*
Y4374840D01*
X13812852Y4426190D01*
X13799940D01*
Y4493490D01*
Y4615580D01*
X13855922Y4671561D01*
X14184077D01*
X14226352Y4629287D01*
Y4486393D01*
Y4419093D01*
X14213441D01*
X14162091Y4367743D01*
Y4145043D01*
X14213441Y4093693D01*
X14316141D01*
X14367491Y4145043D01*
Y4237954D01*
X14836392D01*
X14836394Y4237954D01*
X14851103Y4240880D01*
X14863573Y4249212D01*
X14957179Y4342820D01*
X14965514Y4355290D01*
X14968439Y4370000D01*
X14968439Y4370001D01*
Y4408801D01*
X15089198D01*
Y4482656D01*
X15242300D01*
Y4432300D01*
X15417700D01*
Y4607700D01*
X15242300D01*
Y4559533D01*
X15089198D01*
Y4633201D01*
X14830798D01*
Y4408801D01*
X14891562D01*
Y4385922D01*
X14820471Y4314831D01*
X14367491D01*
Y4367743D01*
X14316141Y4419093D01*
X14303229D01*
Y4486393D01*
Y4645208D01*
X14303230Y4645209D01*
X14300304Y4659919D01*
X14291971Y4672390D01*
X14227180Y4737180D01*
X14214709Y4745512D01*
X14212270Y4745998D01*
X14200000Y4748439D01*
D02*
G37*
G36*
X9500200Y4972500D02*
X9369800D01*
Y4858745D01*
X9354275D01*
X9347417Y4857381D01*
X9341604Y4853496D01*
X9337719Y4847683D01*
X9336355Y4840825D01*
Y4785575D01*
X9337719Y4778718D01*
X9341604Y4772904D01*
X9347417Y4769020D01*
X9354275Y4767656D01*
X9406002D01*
Y4731745D01*
X9354275D01*
X9347417Y4730381D01*
X9341604Y4726496D01*
X9337719Y4720683D01*
X9336355Y4713825D01*
Y4658575D01*
X9337719Y4651718D01*
X9341604Y4645904D01*
X9347417Y4642020D01*
X9354275Y4640656D01*
X9509525D01*
X9516382Y4642020D01*
X9522196Y4645904D01*
X9526080Y4651718D01*
X9527444Y4658575D01*
Y4713825D01*
X9526080Y4720683D01*
X9522196Y4726496D01*
X9516382Y4730381D01*
X9509525Y4731745D01*
X9457797D01*
Y4767656D01*
X9509525D01*
X9516382Y4769020D01*
X9522196Y4772904D01*
X9526080Y4778718D01*
X9527444Y4785575D01*
Y4840825D01*
X9526080Y4847683D01*
X9522196Y4853496D01*
X9516382Y4857381D01*
X9509525Y4858745D01*
X9500200D01*
Y4972500D01*
D02*
G37*
G36*
X6556500Y5048789D02*
X6540968Y5045700D01*
X6527801Y5036902D01*
X6519003Y5023735D01*
X6515914Y5008203D01*
Y4875010D01*
X6519003Y4859478D01*
X6527801Y4846311D01*
X6534143Y4842074D01*
Y4577926D01*
X6527801Y4573689D01*
X6519003Y4560522D01*
X6515914Y4544990D01*
Y4505939D01*
X6469307D01*
Y4584797D01*
X6389693D01*
Y4371990D01*
X6469307D01*
Y4454143D01*
X6515914D01*
Y4411797D01*
X6519003Y4396265D01*
X6527801Y4383098D01*
X6534143Y4378860D01*
Y4349960D01*
X6536114Y4340049D01*
X6541728Y4331647D01*
X6797528Y4075847D01*
X6805930Y4070233D01*
X6815840Y4068262D01*
X7395113D01*
X7459570Y4003805D01*
X7417637Y3961872D01*
X7520450Y3859059D01*
X7640941Y3979550D01*
X7538128Y4082363D01*
X7496195Y4040430D01*
X7424153Y4112472D01*
X7415751Y4118086D01*
X7405840Y4120057D01*
X6826568D01*
X6585938Y4360687D01*
Y4384204D01*
X6593997Y4396265D01*
X6597086Y4411797D01*
Y4544990D01*
X6593997Y4560522D01*
X6585938Y4572583D01*
Y4847417D01*
X6593997Y4859478D01*
X6597086Y4875010D01*
Y5008203D01*
X6593997Y5023735D01*
X6585199Y5036902D01*
X6572032Y5045700D01*
X6556500Y5048789D01*
D02*
G37*
G36*
X9509525Y4477745D02*
X9354275D01*
X9347417Y4476381D01*
X9341604Y4472496D01*
X9338893Y4468439D01*
X9310000D01*
X9295290Y4465513D01*
X9282820Y4457180D01*
X9274487Y4444710D01*
X9271561Y4430000D01*
X9274487Y4415290D01*
X9282820Y4402820D01*
X9295290Y4394488D01*
X9310000Y4391561D01*
X9342117D01*
X9347417Y4388020D01*
X9354275Y4386656D01*
X9509525D01*
X9516382Y4388020D01*
X9522196Y4391904D01*
X9526080Y4397718D01*
X9527444Y4404575D01*
Y4459825D01*
X9526080Y4466683D01*
X9522196Y4472496D01*
X9516382Y4476381D01*
X9509525Y4477745D01*
D02*
G37*
G36*
X6810500Y4585576D02*
X6794968Y4582487D01*
X6781801Y4573689D01*
X6773003Y4560522D01*
X6769914Y4544990D01*
Y4411797D01*
X6773003Y4396265D01*
X6781801Y4383098D01*
X6794968Y4374300D01*
X6810500Y4371210D01*
X6826032Y4374300D01*
X6839199Y4383098D01*
X6847997Y4396265D01*
X6851086Y4411797D01*
Y4544990D01*
X6847997Y4560522D01*
X6839199Y4573689D01*
X6826032Y4582487D01*
X6810500Y4585576D01*
D02*
G37*
G36*
X9005200Y5087700D02*
X8914800D01*
Y5048925D01*
X8624833Y4758957D01*
X8553060D01*
X8543149Y4756986D01*
X8534747Y4751372D01*
X8416547Y4633172D01*
X8410933Y4624770D01*
X8408962Y4614860D01*
Y4446060D01*
X8324060D01*
Y4283363D01*
X8320625Y4280544D01*
X8265375D01*
X8258517Y4279180D01*
X8252704Y4275296D01*
X8248819Y4269482D01*
X8247455Y4262625D01*
Y4221097D01*
X8230200D01*
Y4290200D01*
X8069800D01*
Y4169800D01*
X8182298D01*
X8184800Y4169302D01*
X8247455D01*
Y4107375D01*
X8248819Y4100518D01*
X8252704Y4094704D01*
X8258517Y4090820D01*
X8265375Y4089456D01*
X8274102D01*
Y4000000D01*
X8276074Y3990090D01*
X8281688Y3981688D01*
X8361862Y3901513D01*
X8361561Y3900000D01*
X8364487Y3885290D01*
X8372820Y3872820D01*
X8385290Y3864488D01*
X8400000Y3861561D01*
X8414710Y3864488D01*
X8427180Y3872820D01*
X8435512Y3885290D01*
X8438439Y3900000D01*
X8435512Y3914710D01*
X8427180Y3927180D01*
X8414710Y3935513D01*
X8400000Y3938439D01*
X8398487Y3938138D01*
X8325897Y4010727D01*
Y4090504D01*
X8327482Y4090820D01*
X8333296Y4094704D01*
X8337180Y4100518D01*
X8338544Y4107375D01*
Y4262625D01*
X8338478Y4262959D01*
X8346677Y4274948D01*
X8347915Y4275660D01*
X8365085D01*
X8366322Y4274948D01*
X8374522Y4262959D01*
X8374455Y4262625D01*
Y4107375D01*
X8375819Y4100518D01*
X8379704Y4094704D01*
X8385517Y4090820D01*
X8392375Y4089456D01*
X8447625D01*
X8454482Y4090820D01*
X8460296Y4094704D01*
X8464180Y4100518D01*
X8465544Y4107375D01*
Y4262625D01*
X8465478Y4262959D01*
X8469460Y4275660D01*
X8469460D01*
Y4446060D01*
X8460757D01*
Y4604133D01*
X8563787Y4707162D01*
X8635560D01*
X8645470Y4709133D01*
X8653872Y4714747D01*
X8966425Y5027300D01*
X9005200D01*
Y5087700D01*
D02*
G37*
G36*
X7272700Y5215200D02*
X7127300D01*
Y5044800D01*
X7162742D01*
Y4379398D01*
X7129661D01*
Y4208998D01*
X7275061D01*
Y4253205D01*
X7306223D01*
X7320933Y4256131D01*
X7333403Y4264463D01*
X7341735Y4276933D01*
X7344661Y4291643D01*
X7341735Y4306353D01*
X7333403Y4318823D01*
X7320933Y4327156D01*
X7306223Y4330082D01*
X7275061D01*
Y4379398D01*
X7239619D01*
Y5044800D01*
X7272700D01*
Y5215200D01*
D02*
G37*
G36*
X6683500Y4585576D02*
X6667968Y4582487D01*
X6654801Y4573689D01*
X6646003Y4560522D01*
X6642914Y4544990D01*
Y4411797D01*
X6646003Y4396265D01*
X6654801Y4383098D01*
X6667968Y4374300D01*
X6683500Y4371210D01*
X6691131Y4372728D01*
X6787974Y4275886D01*
X6796376Y4270272D01*
X6806286Y4268301D01*
X6929661D01*
Y4208998D01*
X7075061D01*
Y4379398D01*
X6929661D01*
Y4320096D01*
X6817014D01*
X6724086Y4413023D01*
Y4544990D01*
X6720997Y4560522D01*
X6712199Y4573689D01*
X6699032Y4582487D01*
X6683500Y4585576D01*
D02*
G37*
G36*
X8669460Y4446060D02*
X8524060D01*
Y4280544D01*
X8519375D01*
X8512517Y4279180D01*
X8506704Y4275296D01*
X8502819Y4269482D01*
X8501455Y4262625D01*
Y4107375D01*
X8502819Y4100518D01*
X8506704Y4094704D01*
X8512517Y4090820D01*
X8519375Y4089456D01*
X8535325D01*
X8539249Y4086833D01*
X8549160Y4084862D01*
X8559070Y4086833D01*
X8562995Y4089456D01*
X8574625D01*
X8581482Y4090820D01*
X8587296Y4094704D01*
X8591180Y4100518D01*
X8592544Y4107375D01*
Y4210358D01*
X8595372Y4212247D01*
X8615072Y4231947D01*
X8620686Y4240349D01*
X8622657Y4250260D01*
Y4275660D01*
X8669460D01*
Y4334962D01*
X8754333D01*
X8817541Y4271753D01*
Y4264381D01*
X8817333Y4264070D01*
X8815362Y4254160D01*
Y4228760D01*
X8756060D01*
Y4083360D01*
X8926460D01*
Y4228760D01*
X8867157D01*
Y4246117D01*
X8867365Y4246428D01*
X8869336Y4256339D01*
Y4282481D01*
X8867365Y4292391D01*
X8861751Y4300793D01*
X8783372Y4379172D01*
X8774970Y4384786D01*
X8765060Y4386757D01*
X8669460D01*
Y4446060D01*
D02*
G37*
G36*
X9509525Y4604745D02*
X9354275D01*
X9347417Y4603381D01*
X9341604Y4599496D01*
X9337719Y4593683D01*
X9336355Y4586825D01*
Y4531575D01*
X9337719Y4524718D01*
X9341604Y4518904D01*
X9347417Y4515020D01*
X9354275Y4513656D01*
X9509525D01*
X9516382Y4515020D01*
X9522196Y4518904D01*
X9526080Y4524718D01*
X9527167Y4530179D01*
X9534250Y4531659D01*
X9540144Y4531731D01*
X9599602Y4472273D01*
Y4321227D01*
X9529388Y4251013D01*
X9523774Y4242611D01*
X9522877Y4238100D01*
X9347700D01*
Y4052700D01*
X9573100D01*
Y4210199D01*
X9573598Y4212700D01*
Y4221973D01*
X9643812Y4292188D01*
X9649426Y4300590D01*
X9651398Y4310500D01*
Y4483000D01*
X9649426Y4492911D01*
X9643812Y4501313D01*
X9567612Y4577513D01*
X9559210Y4583126D01*
X9549300Y4585098D01*
X9527444D01*
Y4586825D01*
X9526080Y4593683D01*
X9522196Y4599496D01*
X9516382Y4603381D01*
X9509525Y4604745D01*
D02*
G37*
G36*
X10074525Y4477745D02*
X9919275D01*
X9912417Y4476381D01*
X9906604Y4472496D01*
X9902719Y4466683D01*
X9901355Y4459825D01*
Y4404575D01*
X9902719Y4397718D01*
X9906604Y4391904D01*
X9912417Y4388020D01*
X9919275Y4386656D01*
X9971002D01*
Y4232700D01*
X9872300D01*
Y4047300D01*
X10097700D01*
Y4232700D01*
X10022797D01*
Y4386656D01*
X10074525D01*
X10081382Y4388020D01*
X10087196Y4391904D01*
X10091080Y4397718D01*
X10092444Y4404575D01*
Y4459825D01*
X10091080Y4466683D01*
X10087196Y4472496D01*
X10081382Y4476381D01*
X10074525Y4477745D01*
D02*
G37*
G36*
X15263066Y3962457D02*
X15248357Y3959531D01*
X15245226Y3957439D01*
X14959999D01*
X14945290Y3954513D01*
X14932819Y3946180D01*
X14924486Y3933710D01*
X14921561Y3919000D01*
X14924486Y3904290D01*
X14932819Y3891820D01*
X14945290Y3883488D01*
X14959999Y3880561D01*
X15258046D01*
X15258047Y3880561D01*
X15272757Y3883488D01*
X15285228Y3891820D01*
X15290247Y3896839D01*
X15298579Y3909309D01*
X15301505Y3924019D01*
X15298579Y3938728D01*
X15290247Y3951199D01*
X15277776Y3959531D01*
X15263066Y3962457D01*
D02*
G37*
G36*
X10511916Y3941819D02*
X10351516D01*
Y3821419D01*
X10408277D01*
Y3769121D01*
X10408277Y3769120D01*
X10408670Y3767142D01*
Y3744070D01*
X10410040Y3737183D01*
X10413941Y3731345D01*
X10419779Y3727444D01*
X10426666Y3726074D01*
X10496766D01*
X10503653Y3727444D01*
X10509491Y3731345D01*
X10513392Y3737183D01*
X10514762Y3744070D01*
Y3789169D01*
X10513392Y3796056D01*
X10509491Y3801894D01*
X10503653Y3805795D01*
X10496766Y3807165D01*
X10485154D01*
Y3821419D01*
X10511916D01*
Y3941819D01*
D02*
G37*
G36*
X9024503Y6815102D02*
X8899103D01*
Y6639702D01*
X8935905D01*
Y6624602D01*
X8899103D01*
Y6449202D01*
X8935905D01*
Y6434102D01*
X8899103D01*
Y6258702D01*
X8935905D01*
Y6243602D01*
X8899103D01*
Y6068202D01*
X8996600D01*
X8999103Y6067704D01*
X9002319D01*
X9003590Y6065802D01*
X8996802Y6053102D01*
X8899103D01*
Y5991300D01*
X8809819D01*
X8799909Y5989328D01*
X8791507Y5983714D01*
X8710881Y5903088D01*
X8709368Y5903389D01*
X8694658Y5900463D01*
X8688663Y5896457D01*
X8621560D01*
Y5898260D01*
X8511160D01*
Y5842860D01*
Y5742860D01*
X8614466D01*
X8614487Y5742750D01*
X8622820Y5730280D01*
X8635290Y5721947D01*
X8650000Y5719021D01*
X8664710Y5721947D01*
X8668412Y5724421D01*
X8681112Y5717633D01*
Y5696457D01*
X8621560D01*
Y5698260D01*
X8511160D01*
Y5642860D01*
X8621560D01*
Y5644662D01*
X8707010D01*
X8716921Y5646633D01*
X8725322Y5652247D01*
X8730936Y5660649D01*
X8732908Y5670560D01*
Y5835338D01*
X8736548Y5837770D01*
X8744880Y5850241D01*
X8747806Y5864951D01*
X8747505Y5866464D01*
X8820546Y5939505D01*
X8899103D01*
Y5877702D01*
X9024503D01*
Y6038617D01*
X9037203Y6043877D01*
X9114692Y5966388D01*
Y5172700D01*
X9094800D01*
Y5112300D01*
X9121417D01*
X9125270Y5099600D01*
X9121688Y5097206D01*
X9116074Y5088805D01*
X9115854Y5087700D01*
X9094800D01*
Y5027300D01*
X9114102D01*
Y4253027D01*
X8889835Y4028760D01*
X8756060D01*
Y3981957D01*
X8605460D01*
X8595549Y3979986D01*
X8587147Y3974372D01*
X8327043Y3714268D01*
X8320625Y3715545D01*
X8265375D01*
X8258517Y3714181D01*
X8252704Y3710296D01*
X8248819Y3704483D01*
X8247455Y3697625D01*
Y3671560D01*
X8082960D01*
Y3621657D01*
X7914968D01*
X7740430Y3796195D01*
X7782363Y3838128D01*
X7679550Y3940941D01*
X7559059Y3820450D01*
X7661872Y3717637D01*
X7703805Y3759570D01*
X7885928Y3577447D01*
X7894330Y3571833D01*
X7904241Y3569862D01*
X8082960D01*
Y3526160D01*
X8253359D01*
X8253360Y3526160D01*
X8265356Y3524460D01*
X8265375Y3524456D01*
X8320625D01*
X8327482Y3525820D01*
X8333296Y3529704D01*
X8337180Y3535518D01*
X8338544Y3542375D01*
Y3652519D01*
X8362722Y3676697D01*
X8374455Y3671837D01*
Y3542375D01*
X8375819Y3535518D01*
X8376231Y3534902D01*
X8378216Y3527200D01*
X8373208Y3518771D01*
X8366038Y3513980D01*
X8357154Y3500684D01*
X8354035Y3485001D01*
X8357154Y3469317D01*
X8366038Y3456022D01*
X8366968Y3455400D01*
X8363116Y3442700D01*
X8334800D01*
Y3424757D01*
X8253360D01*
Y3471559D01*
X8082960D01*
Y3326160D01*
X8253360D01*
Y3372962D01*
X8334800D01*
Y3297300D01*
X8505200D01*
Y3442700D01*
X8473955D01*
Y3519862D01*
X8471984Y3529773D01*
X8466370Y3538175D01*
X8464984Y3539560D01*
X8465544Y3542375D01*
Y3697625D01*
X8464180Y3704483D01*
X8460296Y3710296D01*
X8454482Y3714181D01*
X8447625Y3715545D01*
X8418163D01*
X8413303Y3727278D01*
X8616187Y3930162D01*
X8756060D01*
Y3883360D01*
X8926460D01*
Y3992135D01*
X9158312Y4223988D01*
X9163926Y4232390D01*
X9165898Y4242300D01*
Y5027300D01*
X9185200D01*
Y5087700D01*
X9164146D01*
X9163926Y5088805D01*
X9158312Y5097206D01*
X9154730Y5099600D01*
X9158583Y5112300D01*
X9185200D01*
Y5172700D01*
X9166487D01*
Y5977115D01*
X9164516Y5987026D01*
X9158902Y5995427D01*
X9042415Y6111914D01*
X9034013Y6117528D01*
X9024503Y6119420D01*
Y6243602D01*
X8987700D01*
Y6258702D01*
X9024503D01*
Y6434102D01*
X8987700D01*
Y6449202D01*
X9024503D01*
Y6624602D01*
X8987700D01*
Y6639702D01*
X9024503D01*
Y6815102D01*
D02*
G37*
G36*
X14959999Y3710439D02*
X14945290Y3707513D01*
X14932819Y3699181D01*
X14924487Y3686710D01*
X14921561Y3672001D01*
X14924487Y3657291D01*
X14932819Y3644820D01*
X14942203Y3635437D01*
X14954672Y3627105D01*
X14969382Y3624179D01*
X14969383Y3624179D01*
X15261668D01*
X15276379Y3627105D01*
X15288850Y3635437D01*
X15297182Y3647908D01*
X15300108Y3662618D01*
X15297182Y3677328D01*
X15288850Y3689798D01*
X15276379Y3698130D01*
X15261668Y3701056D01*
X14984373D01*
X14974709Y3707513D01*
X14959999Y3710439D01*
D02*
G37*
G36*
X8800000Y3738439D02*
X8785290Y3735512D01*
X8772820Y3727180D01*
X8764487Y3714710D01*
X8761561Y3700000D01*
Y3680200D01*
X8734800D01*
Y3621657D01*
X8719544D01*
Y3697625D01*
X8718180Y3704483D01*
X8714296Y3710296D01*
X8708482Y3714181D01*
X8701625Y3715545D01*
X8646375D01*
X8639517Y3714181D01*
X8633704Y3710296D01*
X8629819Y3704483D01*
X8628455Y3697625D01*
Y3542375D01*
X8629819Y3535518D01*
X8633704Y3529704D01*
X8639517Y3525820D01*
X8646375Y3524456D01*
X8701625D01*
X8708482Y3525820D01*
X8714296Y3529704D01*
X8718180Y3535518D01*
X8719544Y3542375D01*
Y3569862D01*
X8734800D01*
Y3519800D01*
X8843624D01*
X8843739Y3519800D01*
X8843739Y3519800D01*
X8843896Y3519799D01*
X8844005Y3518881D01*
X8844005D01*
X8844005Y3518880D01*
X8844005D01*
X8845085Y3507024D01*
X8813231Y3499377D01*
X8758450Y3476686D01*
X8707893Y3445704D01*
X8662805Y3407195D01*
X8624296Y3362107D01*
X8593314Y3311550D01*
X8570623Y3256769D01*
X8556781Y3199112D01*
X8552129Y3140000D01*
X8556781Y3080888D01*
X8570623Y3023231D01*
X8593314Y2968450D01*
X8624296Y2917893D01*
X8662805Y2872805D01*
X8707893Y2834296D01*
X8758450Y2803314D01*
X8813231Y2780623D01*
X8870888Y2766781D01*
X8930000Y2762129D01*
X8989112Y2766781D01*
X9046769Y2780623D01*
X9101550Y2803314D01*
X9152107Y2834296D01*
X9197195Y2872805D01*
X9235704Y2917893D01*
X9266686Y2968450D01*
X9289377Y3023231D01*
X9303219Y3080888D01*
X9307871Y3140000D01*
X9303219Y3199112D01*
X9289377Y3256769D01*
X9266686Y3311550D01*
X9235704Y3362107D01*
X9197195Y3407195D01*
X9152107Y3445704D01*
X9101550Y3476686D01*
X9046769Y3499377D01*
X8989112Y3513219D01*
X8930000Y3517871D01*
X8870888Y3513219D01*
X8864543Y3511696D01*
X8856549Y3520952D01*
X8855200Y3522514D01*
X8855200Y3523628D01*
Y3523628D01*
Y3523629D01*
X8855200D01*
X8855200Y3523629D01*
Y3680200D01*
X8838439D01*
Y3700000D01*
X8835512Y3714710D01*
X8827180Y3727180D01*
X8814710Y3735512D01*
X8800000Y3738439D01*
D02*
G37*
G36*
X14100200Y3720200D02*
X13854800D01*
Y3541722D01*
X13700916D01*
X13700916Y3541722D01*
X13686205Y3538796D01*
X13673735Y3530464D01*
X13673734Y3530463D01*
X13521709Y3378439D01*
X13120001D01*
X13120000Y3378439D01*
X13105290Y3375513D01*
X13092821Y3367180D01*
X13092819Y3367179D01*
X12829565Y3103925D01*
X12818335Y3110656D01*
X12822874Y3125621D01*
X12826260Y3160008D01*
X12822874Y3194395D01*
X12812843Y3227460D01*
X12796556Y3257934D01*
X12774636Y3284643D01*
X12747926Y3306564D01*
X12717452Y3322852D01*
X12684387Y3332882D01*
X12650000Y3336269D01*
X12615613Y3332882D01*
X12582548Y3322852D01*
X12552074Y3306564D01*
X12525365Y3284643D01*
X12503444Y3257934D01*
X12487156Y3227460D01*
X12477126Y3194395D01*
X12473739Y3160008D01*
X12477126Y3125621D01*
X12487156Y3092556D01*
X12503444Y3062082D01*
X12525365Y3035372D01*
X12552074Y3013452D01*
X12582548Y2997164D01*
X12615613Y2987133D01*
X12650000Y2983747D01*
X12684387Y2987133D01*
X12699352Y2991673D01*
X12706083Y2980443D01*
X12634078Y2908438D01*
X11080004D01*
X11080000Y2908439D01*
X11079996Y2908438D01*
X10880199D01*
Y2935200D01*
X10764800D01*
Y2804800D01*
X10880199D01*
Y2831561D01*
X11079998D01*
X11080000Y2831561D01*
X11080002Y2831561D01*
X12649998D01*
X12650000Y2831561D01*
X12664709Y2834487D01*
X12677180Y2842819D01*
X13029260Y3194900D01*
X13035657Y3193206D01*
X13041960Y3189639D01*
X13044487Y3176933D01*
X13052820Y3164463D01*
X13061446Y3158699D01*
X13061844Y3157505D01*
Y3145781D01*
X13061446Y3144587D01*
X13052820Y3138823D01*
X13044487Y3126353D01*
X13041560Y3111643D01*
X13044487Y3096933D01*
X13052820Y3084463D01*
X13061446Y3078699D01*
X13061844Y3077505D01*
Y3065781D01*
X13061446Y3064587D01*
X13052820Y3058823D01*
X13044487Y3046353D01*
X13041560Y3031643D01*
X13044487Y3016933D01*
X13052820Y3004463D01*
X13062675Y2997877D01*
X13063739Y2992849D01*
Y2988794D01*
X13062675Y2983766D01*
X13052820Y2977180D01*
X13044487Y2964710D01*
X13041560Y2950000D01*
X13044487Y2935290D01*
X13052820Y2922820D01*
X13065289Y2914487D01*
X13080000Y2911561D01*
X13097301D01*
Y2904800D01*
X13157700D01*
Y2927339D01*
X13163013Y2935290D01*
X13163525Y2937869D01*
X13176476D01*
X13176988Y2935290D01*
X13182300Y2927339D01*
Y2904800D01*
X13242700D01*
Y2927339D01*
X13248013Y2935290D01*
X13250938Y2950000D01*
Y2991561D01*
X13290800D01*
Y2946299D01*
X13529201D01*
Y2997145D01*
X13571330D01*
Y2952884D01*
X13656731D01*
Y3118284D01*
X13571330D01*
Y3074022D01*
X13529201D01*
Y3113699D01*
X13290800D01*
Y3068438D01*
X13250938D01*
Y3190000D01*
X13248013Y3204710D01*
X13242700Y3212661D01*
Y3235200D01*
X13182300D01*
Y3212661D01*
X13176988Y3204710D01*
X13176476Y3202132D01*
X13163525Y3202132D01*
X13163013Y3204710D01*
X13157700Y3212661D01*
Y3235200D01*
X13097301D01*
Y3230082D01*
X13082404D01*
X13078474Y3235842D01*
X13076743Y3242383D01*
X13135922Y3301561D01*
X13537630D01*
X13537631Y3301561D01*
X13552341Y3304487D01*
X13564812Y3312820D01*
X13716837Y3464845D01*
X13878284D01*
X13878284Y3464845D01*
X13892995Y3467771D01*
X13905464Y3476103D01*
X13909161Y3479800D01*
X13935014D01*
Y3256548D01*
X13935014Y3256547D01*
X13937941Y3241837D01*
X13946272Y3229367D01*
X14071561Y3104079D01*
Y3050000D01*
X14072301Y3046287D01*
Y2977300D01*
X14147699D01*
Y3046287D01*
X14148438Y3050000D01*
Y3119999D01*
X14148438Y3120001D01*
X14145512Y3134710D01*
X14137180Y3147181D01*
X14137180Y3147181D01*
X14011893Y3272469D01*
Y3479800D01*
X14100200D01*
Y3529800D01*
X14215199D01*
Y3690200D01*
X14100200D01*
Y3720200D01*
D02*
G37*
G36*
X10330200Y3645200D02*
X10214800D01*
Y3514800D01*
X10330200D01*
Y3541561D01*
X10413796D01*
X10413941Y3541344D01*
X10419779Y3537444D01*
X10426666Y3536074D01*
X10496766D01*
X10503653Y3537444D01*
X10509491Y3541344D01*
X10513392Y3547183D01*
X10514762Y3554069D01*
Y3599169D01*
X10513392Y3606056D01*
X10509491Y3611894D01*
X10503653Y3615795D01*
X10496766Y3617165D01*
X10452239D01*
X10445835Y3618439D01*
X10445834Y3618439D01*
X10330200D01*
Y3645200D01*
D02*
G37*
G36*
X10187700Y3942700D02*
X10032300D01*
Y3757300D01*
X10080311D01*
Y3645200D01*
X10069800D01*
Y3514800D01*
X10185200D01*
Y3645200D01*
X10157188D01*
Y3757300D01*
X10187700D01*
Y3942700D01*
D02*
G37*
G36*
X10945025Y3525984D02*
X10929342Y3522864D01*
X10916046Y3513980D01*
X10907162Y3500684D01*
X10904042Y3485001D01*
X10907162Y3469317D01*
X10916046Y3456022D01*
X10929342Y3447138D01*
X10945025Y3444018D01*
X10960709Y3447138D01*
X10974004Y3456022D01*
X10982888Y3469317D01*
X10986008Y3485001D01*
X10982888Y3500684D01*
X10974004Y3513980D01*
X10960709Y3522864D01*
X10945025Y3525984D01*
D02*
G37*
G36*
X9555010D02*
X9539327Y3522864D01*
X9526031Y3513980D01*
X9517147Y3500684D01*
X9514027Y3485001D01*
X9517147Y3469317D01*
X9526031Y3456022D01*
X9539327Y3447138D01*
X9555010Y3444018D01*
X9570694Y3447138D01*
X9583989Y3456022D01*
X9592873Y3469317D01*
X9595993Y3485001D01*
X9592873Y3500684D01*
X9583989Y3513980D01*
X9570694Y3522864D01*
X9555010Y3525984D01*
D02*
G37*
G36*
X7005003D02*
X6989319Y3522864D01*
X6976023Y3513980D01*
X6967139Y3500684D01*
X6964020Y3485001D01*
X6967139Y3469317D01*
X6976023Y3456022D01*
X6989319Y3447138D01*
X7005003Y3444018D01*
X7020686Y3447138D01*
X7033982Y3456022D01*
X7042866Y3469317D01*
X7045985Y3485001D01*
X7042866Y3500684D01*
X7033982Y3513980D01*
X7020686Y3522864D01*
X7005003Y3525984D01*
D02*
G37*
G36*
X8574625Y3715545D02*
X8519375D01*
X8512517Y3714181D01*
X8506704Y3710296D01*
X8502819Y3704483D01*
X8501455Y3697625D01*
Y3542375D01*
X8502819Y3535518D01*
X8506704Y3529704D01*
X8512517Y3525820D01*
X8519375Y3524456D01*
X8523682D01*
Y3497757D01*
X8522820Y3497180D01*
X8514487Y3484710D01*
X8511561Y3470000D01*
X8514487Y3455290D01*
X8522820Y3442820D01*
X8535290Y3434487D01*
X8550000Y3431561D01*
X8564710Y3434487D01*
X8577180Y3442820D01*
X8585512Y3455290D01*
X8588438Y3470000D01*
X8585512Y3484710D01*
X8577180Y3497180D01*
X8575477Y3498318D01*
Y3524625D01*
X8581482Y3525820D01*
X8587296Y3529704D01*
X8591180Y3535518D01*
X8592544Y3542375D01*
Y3697625D01*
X8591180Y3704483D01*
X8587296Y3710296D01*
X8581482Y3714181D01*
X8574625Y3715545D01*
D02*
G37*
G36*
X11172199Y3272764D02*
X10936799D01*
Y3138502D01*
X10602199D01*
Y3157764D01*
X10366799D01*
Y3140388D01*
X10327612D01*
Y3169035D01*
X10212212D01*
Y3038635D01*
X10327612D01*
Y3063511D01*
X10366799D01*
Y3042364D01*
X10602199D01*
Y3061625D01*
X10936799D01*
Y2927364D01*
X11172199D01*
Y3272764D01*
D02*
G37*
G36*
X9413100Y3948100D02*
X9257700D01*
Y3762700D01*
X9281561D01*
Y3580001D01*
X9281561Y3580000D01*
X9284487Y3565290D01*
X9292820Y3552820D01*
X9564746Y3280894D01*
X9569043Y3274463D01*
X9575473Y3270166D01*
X9768984Y3076656D01*
X9768984Y3076655D01*
X9781455Y3068323D01*
X9796165Y3065397D01*
X10067212D01*
Y3038635D01*
X10182611D01*
Y3169035D01*
X10162323D01*
Y3244138D01*
X10183058D01*
Y3404538D01*
X10062658D01*
Y3244138D01*
X10085446D01*
Y3169035D01*
X10067212D01*
Y3142274D01*
X9812086D01*
X9358438Y3595922D01*
Y3762700D01*
X9413100D01*
Y3948100D01*
D02*
G37*
G36*
X15089200Y3182200D02*
X14830800D01*
Y3038439D01*
X14447701D01*
Y3122700D01*
X14372301D01*
Y3033515D01*
X14362820Y3027180D01*
X14294078Y2958439D01*
X14045535D01*
X13986211Y3017764D01*
X13973741Y3026096D01*
X13959032Y3029022D01*
X13956731Y3041443D01*
Y3118283D01*
X13871330D01*
Y2952884D01*
X13915315D01*
X13919031Y2952144D01*
X13919032Y2952145D01*
X13943109D01*
X14002434Y2892820D01*
X14002434Y2892820D01*
X14014905Y2884487D01*
X14029614Y2881561D01*
X14029616Y2881561D01*
X14309999D01*
X14310001Y2881561D01*
X14324710Y2884487D01*
X14337180Y2892820D01*
X14405922Y2961562D01*
X14830800D01*
Y2957800D01*
X15089200D01*
Y3031561D01*
X15262300D01*
Y2982300D01*
X15437700D01*
Y3157700D01*
X15262300D01*
Y3108439D01*
X15089200D01*
Y3182200D01*
D02*
G37*
G36*
X6650012Y3336269D02*
X6615625Y3332882D01*
X6582560Y3322852D01*
X6552086Y3306564D01*
X6525377Y3284643D01*
X6503456Y3257934D01*
X6487168Y3227460D01*
X6477138Y3194395D01*
X6473751Y3160008D01*
X6477138Y3125621D01*
X6487168Y3092556D01*
X6503456Y3062082D01*
X6525377Y3035372D01*
X6552086Y3013452D01*
X6582560Y2997164D01*
X6615625Y2987133D01*
X6650012Y2983747D01*
X6684399Y2987133D01*
X6717464Y2997164D01*
X6747938Y3013452D01*
X6774648Y3035372D01*
X6796568Y3062082D01*
X6812856Y3092556D01*
X6822887Y3125621D01*
X6826273Y3160008D01*
X6822887Y3194395D01*
X6812856Y3227460D01*
X6796568Y3257934D01*
X6774648Y3284643D01*
X6747938Y3306564D01*
X6717464Y3322852D01*
X6684399Y3332882D01*
X6650012Y3336269D01*
D02*
G37*
G36*
X10735200Y2935200D02*
X10619800D01*
Y2908470D01*
X10602199D01*
Y2927764D01*
X10366799D01*
Y2812364D01*
X10602199D01*
Y2831593D01*
X10619800D01*
Y2804800D01*
X10735200D01*
Y2935200D01*
D02*
G37*
%LPD*%
G36*
X10334103Y6822299D02*
X10198348D01*
Y6823752D01*
X10196978Y6830638D01*
X10193921Y6838702D01*
X10196978Y6846766D01*
X10198348Y6853652D01*
Y6888752D01*
X10196978Y6895638D01*
X10193921Y6903702D01*
X10196978Y6911765D01*
X10198348Y6918652D01*
Y6953751D01*
X10202002Y6958204D01*
X10334103D01*
Y6822299D01*
D02*
G37*
G36*
X9778271Y6905364D02*
X9775923Y6893562D01*
X9778849Y6878852D01*
X9787182Y6866381D01*
X9799652Y6858049D01*
X9814362Y6855123D01*
X9816718Y6855592D01*
X9822974Y6843888D01*
X9639144Y6660057D01*
X9417546D01*
X9414401Y6659431D01*
X9402267Y6667839D01*
X9401700Y6668869D01*
Y6735629D01*
X9430422Y6764351D01*
X9441081Y6759308D01*
X9442257Y6758225D01*
Y6723652D01*
X9443627Y6716765D01*
X9447528Y6710927D01*
X9453366Y6707026D01*
X9460253Y6705656D01*
X9600353D01*
X9607239Y6707026D01*
X9613078Y6710927D01*
X9616978Y6716765D01*
X9618348Y6723652D01*
Y6728956D01*
X9623937Y6732690D01*
X9668312Y6777065D01*
X9673926Y6785467D01*
X9675898Y6795378D01*
Y6831340D01*
X9696445Y6851888D01*
X9705110Y6853611D01*
X9717580Y6861944D01*
X9725912Y6874414D01*
X9728839Y6889124D01*
X9725912Y6903834D01*
X9724890Y6905364D01*
X9731679Y6918064D01*
X9771281D01*
X9778271Y6905364D01*
D02*
G37*
G36*
X10015096Y6825211D02*
X10022257Y6820772D01*
Y6788652D01*
X10023627Y6781765D01*
X10026684Y6773702D01*
X10023627Y6765638D01*
X10022257Y6758752D01*
Y6723652D01*
X10023627Y6716765D01*
X10027528Y6710927D01*
X10033366Y6707026D01*
X10040253Y6705656D01*
X10084405D01*
Y6673217D01*
X10086376Y6663306D01*
X10091990Y6654904D01*
X10118347Y6628547D01*
X10126749Y6622933D01*
X10136660Y6620962D01*
X10219652D01*
X10219921Y6620799D01*
X10229032Y6608262D01*
X10228916Y6607281D01*
X10228916D01*
X10228917Y6602466D01*
Y6583857D01*
X10058487D01*
X9997457Y6644887D01*
Y6813933D01*
X10009813Y6826288D01*
X10015096Y6825211D01*
D02*
G37*
G36*
X10011818Y6903483D02*
X10008191Y6895128D01*
X9999789Y6889514D01*
X9953247Y6842972D01*
X9947633Y6834570D01*
X9945662Y6824660D01*
Y6634160D01*
X9947633Y6624249D01*
X9953247Y6615847D01*
X10029447Y6539647D01*
X10037849Y6534033D01*
X10047760Y6532062D01*
X10228917D01*
Y6476881D01*
X10333855D01*
X10334103Y6476579D01*
Y6320133D01*
X10251052D01*
X10247180Y6332820D01*
X10255512Y6345290D01*
X10258438Y6360000D01*
X10255512Y6374710D01*
X10247180Y6387180D01*
X10234710Y6395512D01*
X10220000Y6398439D01*
X10208676Y6396186D01*
X10200454Y6402737D01*
X10198225Y6406066D01*
X10198348Y6406685D01*
Y6441785D01*
X10196978Y6448672D01*
X10193077Y6454510D01*
X10187239Y6458411D01*
X10180353Y6459781D01*
X10040253D01*
X10033366Y6458411D01*
X10027528Y6454510D01*
X10026529Y6453015D01*
X10009963D01*
X10007180Y6457180D01*
X9994710Y6465513D01*
X9980000Y6468439D01*
X9965290Y6465513D01*
X9952820Y6457180D01*
X9944488Y6444710D01*
X9941562Y6430000D01*
X9944488Y6415290D01*
X9952820Y6402820D01*
X9965290Y6394488D01*
X9980000Y6391562D01*
X9994710Y6394488D01*
X10004786Y6401220D01*
X10019498D01*
X10026074Y6390127D01*
X10023627Y6383672D01*
X10022257Y6376785D01*
Y6341685D01*
X10023627Y6334799D01*
X10024736Y6331874D01*
X10019889Y6320750D01*
X10019314Y6320133D01*
X9671053D01*
X9667180Y6332820D01*
X9675513Y6345290D01*
X9678439Y6360000D01*
X9676162Y6371445D01*
X9682147Y6379866D01*
X9685566Y6382523D01*
X9690400Y6381562D01*
X9705110Y6384488D01*
X9717580Y6392820D01*
X9725912Y6405290D01*
X9728839Y6420000D01*
X9725912Y6434710D01*
X9717580Y6447180D01*
X9712406Y6450638D01*
X9716259Y6463338D01*
X9752966D01*
X9754487Y6455690D01*
X9762820Y6443220D01*
X9775290Y6434888D01*
X9790000Y6431961D01*
X9804710Y6434888D01*
X9817180Y6443220D01*
X9825512Y6455690D01*
X9828439Y6470400D01*
X9825512Y6485110D01*
X9817180Y6497580D01*
X9804710Y6505913D01*
X9790000Y6508839D01*
X9782935Y6507433D01*
X9782821Y6507548D01*
X9774419Y6513161D01*
X9764508Y6515133D01*
X9616002D01*
X9613078Y6519510D01*
X9607239Y6523411D01*
X9600353Y6524781D01*
X9460253D01*
X9453366Y6523411D01*
X9451357Y6522069D01*
X9439330Y6527073D01*
X9438657Y6527694D01*
Y6547233D01*
X9461587Y6570162D01*
X9688960D01*
Y6530860D01*
X9804360D01*
Y6661260D01*
X9730190D01*
X9725329Y6672993D01*
X9962640Y6910304D01*
X10007766D01*
X10011818Y6903483D01*
D02*
G37*
G36*
X10009421Y6261735D02*
X10005607Y6255133D01*
X9944436D01*
X9934525Y6253161D01*
X9926123Y6247548D01*
X9665533Y5986957D01*
X9606468D01*
X9605217Y5999657D01*
X9607239Y6000060D01*
X9613078Y6003961D01*
X9616978Y6009799D01*
X9618348Y6016685D01*
Y6051785D01*
X9616978Y6058672D01*
X9613921Y6066735D01*
X9616978Y6074799D01*
X9618348Y6081685D01*
Y6116785D01*
X9616978Y6123672D01*
X9613921Y6131735D01*
X9616978Y6139799D01*
X9618348Y6146685D01*
Y6181785D01*
X9616978Y6188672D01*
X9613921Y6196735D01*
X9616978Y6204799D01*
X9618348Y6211685D01*
Y6246785D01*
X9616978Y6253672D01*
X9615870Y6256597D01*
X9620716Y6267721D01*
X9621291Y6268338D01*
X10005607D01*
X10009421Y6261735D01*
D02*
G37*
G36*
X14314522Y6168853D02*
Y5980325D01*
X14248068D01*
X14230975Y5976925D01*
X14216486Y5967243D01*
X14213857Y5963309D01*
X14201157Y5967162D01*
Y6224740D01*
X14199187Y6234651D01*
X14193571Y6243053D01*
X13056155Y7380469D01*
X13061015Y7392202D01*
X13091173D01*
X14314522Y6168853D01*
D02*
G37*
G36*
X10019889Y6202721D02*
X10024736Y6191596D01*
X10023627Y6188672D01*
X10022257Y6181785D01*
Y6146685D01*
X10023627Y6139799D01*
X10026684Y6131735D01*
X10023627Y6123672D01*
X10022257Y6116785D01*
Y6081685D01*
X10023627Y6074799D01*
X10026684Y6066735D01*
X10023627Y6058672D01*
X10022257Y6051785D01*
Y6016685D01*
X10023627Y6009799D01*
X10027528Y6003961D01*
X10033366Y6000060D01*
X10040253Y5998690D01*
X10180353D01*
X10187239Y6000060D01*
X10193077Y6003961D01*
X10196002Y6008338D01*
X10230413D01*
Y5950713D01*
X10334103D01*
Y5917849D01*
X10334503Y5915838D01*
Y5613166D01*
X10247882D01*
X10244030Y5625866D01*
X10249384Y5629444D01*
X10257716Y5641914D01*
X10260642Y5656624D01*
X10257716Y5671334D01*
X10249384Y5683804D01*
X10236913Y5692137D01*
X10222204Y5695063D01*
X10209884Y5692612D01*
X10202446Y5697194D01*
X10198348Y5701300D01*
Y5734819D01*
X10196978Y5741705D01*
X10193077Y5747543D01*
X10187239Y5751444D01*
X10180353Y5752814D01*
X10040253D01*
X10033366Y5751444D01*
X10030263Y5749371D01*
X10017180Y5747180D01*
X10004710Y5755512D01*
X9990000Y5758439D01*
X9975290Y5755512D01*
X9962820Y5747180D01*
X9954488Y5734710D01*
X9951562Y5720000D01*
X9954488Y5705290D01*
X9962820Y5692820D01*
X9975290Y5684487D01*
X9990000Y5681561D01*
X10004710Y5684487D01*
X10009993Y5688018D01*
X10014299Y5686661D01*
X10023627Y5676705D01*
X10022257Y5669818D01*
Y5634719D01*
X10023627Y5627832D01*
X10024736Y5624907D01*
X10019889Y5613783D01*
X10019314Y5613166D01*
X9658089D01*
X9656838Y5625866D01*
X9664588Y5627408D01*
X9672914Y5632971D01*
X9680000Y5631562D01*
X9694710Y5634488D01*
X9707180Y5642820D01*
X9715512Y5655290D01*
X9718439Y5670000D01*
X9715512Y5684710D01*
X9707180Y5697180D01*
X9698554Y5702944D01*
X9698156Y5704138D01*
Y5715862D01*
X9698554Y5717056D01*
X9707180Y5722820D01*
X9715512Y5735290D01*
X9718439Y5750000D01*
X9715512Y5764710D01*
X9707180Y5777180D01*
X9694710Y5785512D01*
X9680000Y5788439D01*
X9665290Y5785512D01*
X9652820Y5777180D01*
X9644487Y5764710D01*
X9642764Y5756045D01*
X9635712Y5748994D01*
X9625375Y5749858D01*
X9617644Y5761180D01*
X9618348Y5764719D01*
Y5799818D01*
X9616978Y5806705D01*
X9613078Y5812543D01*
X9607239Y5816444D01*
X9600353Y5817814D01*
X9574629D01*
X9566552Y5830514D01*
X9568439Y5840000D01*
X9566091Y5851802D01*
X9573081Y5864502D01*
X9701660D01*
Y5819660D01*
X9817060D01*
Y5950060D01*
X9718479D01*
X9713618Y5961793D01*
X9955163Y6203338D01*
X10019314D01*
X10019889Y6202721D01*
D02*
G37*
G36*
X9701660Y5932235D02*
Y5916298D01*
X9494500D01*
X9484589Y5914326D01*
X9476188Y5908712D01*
X9394447Y5826972D01*
X9388833Y5818570D01*
X9386862Y5808660D01*
Y5547429D01*
X9385789Y5546435D01*
X9375038Y5541292D01*
X9361225Y5555105D01*
X9352823Y5560719D01*
X9343313Y5562611D01*
Y5677210D01*
X9343873D01*
Y5807937D01*
X9343945D01*
X9353856Y5809908D01*
X9362257Y5815522D01*
X9481897Y5935162D01*
X9676260D01*
X9686171Y5937133D01*
X9688960Y5938997D01*
X9701660Y5932235D01*
D02*
G37*
G36*
X10019889Y5560754D02*
X10024736Y5549630D01*
X10023627Y5546705D01*
X10022257Y5539818D01*
Y5534515D01*
X10016669Y5530781D01*
X9773223Y5287335D01*
X9620735D01*
X9618895Y5289656D01*
X9615110Y5300035D01*
X9616978Y5302832D01*
X9618348Y5309719D01*
Y5344819D01*
X9616978Y5351705D01*
X9613921Y5359769D01*
X9616978Y5367832D01*
X9618348Y5374719D01*
Y5409818D01*
X9616978Y5416705D01*
X9613921Y5424769D01*
X9616978Y5432832D01*
X9618348Y5439719D01*
Y5474819D01*
X9616978Y5481705D01*
X9613921Y5489769D01*
X9616978Y5497832D01*
X9618348Y5504719D01*
Y5539818D01*
X9616978Y5546705D01*
X9615870Y5549630D01*
X9620716Y5560754D01*
X9621291Y5561371D01*
X10019315D01*
X10019889Y5560754D01*
D02*
G37*
G36*
X7591047Y6323747D02*
X7599449Y6318133D01*
X7609360Y6316162D01*
X7631215D01*
Y6314435D01*
X7632579Y6307577D01*
X7636464Y6301764D01*
X7642277Y6297879D01*
X7649135Y6296515D01*
X7804385D01*
X7811242Y6297879D01*
X7817056Y6301764D01*
X7820940Y6307577D01*
X7822304Y6314435D01*
Y6368930D01*
X7824016Y6370450D01*
X7834196Y6374998D01*
X7862862Y6346332D01*
Y6187687D01*
X7841073Y6165897D01*
X7825243D01*
X7824629Y6166562D01*
X7819618Y6178597D01*
X7820940Y6180577D01*
X7822304Y6187435D01*
Y6242685D01*
X7820940Y6249542D01*
X7817056Y6255356D01*
X7811242Y6259240D01*
X7804385Y6260604D01*
X7649135D01*
X7642277Y6259240D01*
X7636464Y6255356D01*
X7632579Y6249542D01*
X7631215Y6242685D01*
Y6187435D01*
X7632579Y6180577D01*
X7633902Y6178597D01*
X7628890Y6166562D01*
X7628276Y6165897D01*
X7559700D01*
X7549789Y6163926D01*
X7541388Y6158312D01*
X7476747Y6093672D01*
X7471133Y6085270D01*
X7469162Y6075360D01*
Y6002757D01*
X7338848D01*
X7332060Y6015457D01*
X7334192Y6018648D01*
X7337894Y6037260D01*
X7334192Y6055871D01*
X7323650Y6071650D01*
X7307871Y6082192D01*
X7289260Y6085894D01*
X7109260D01*
X7090648Y6082192D01*
X7074870Y6071650D01*
X7064327Y6055871D01*
X7060625Y6037260D01*
X7064327Y6018648D01*
X7066459Y6015457D01*
X7059671Y6002757D01*
X6809774D01*
X6711596Y6100934D01*
X6716457Y6112668D01*
X6789160D01*
Y6218068D01*
X6757357D01*
Y6250732D01*
X6949787Y6443162D01*
X7066215D01*
Y6441435D01*
X7067579Y6434577D01*
X7071464Y6428764D01*
X7077277Y6424879D01*
X7084135Y6423515D01*
X7239385D01*
X7246242Y6424879D01*
X7252056Y6428764D01*
X7255940Y6434577D01*
X7257304Y6441435D01*
Y6443162D01*
X7471633D01*
X7591047Y6323747D01*
D02*
G37*
%LPC*%
G36*
X7239385Y6387604D02*
X7084135D01*
X7077277Y6386240D01*
X7071464Y6382356D01*
X7067579Y6376542D01*
X7054731Y6377046D01*
X7051485Y6379215D01*
X7036775Y6382141D01*
X7022065Y6379215D01*
X7009595Y6370883D01*
X7001262Y6358413D01*
X6998336Y6343703D01*
X6999536Y6337669D01*
X6982068Y6320200D01*
X6889800D01*
Y6199800D01*
X7050200D01*
Y6298573D01*
X7056427Y6303499D01*
X7071464Y6301763D01*
X7077277Y6297879D01*
X7084135Y6296515D01*
X7239385D01*
X7246242Y6297879D01*
X7252056Y6301764D01*
X7255940Y6307577D01*
X7257304Y6314435D01*
Y6369685D01*
X7255940Y6376542D01*
X7252056Y6382356D01*
X7246242Y6386240D01*
X7239385Y6387604D01*
D02*
G37*
G36*
Y6260604D02*
X7084135D01*
X7077277Y6259240D01*
X7071464Y6255356D01*
X7067579Y6249542D01*
X7066215Y6242685D01*
Y6187435D01*
X7067579Y6180577D01*
X7071464Y6174764D01*
X7077277Y6170879D01*
X7084135Y6169515D01*
X7239385D01*
X7246242Y6170879D01*
X7252056Y6174764D01*
X7255940Y6180577D01*
X7257304Y6187435D01*
Y6242685D01*
X7255940Y6249542D01*
X7252056Y6255356D01*
X7246242Y6259240D01*
X7239385Y6260604D01*
D02*
G37*
%LPD*%
G36*
X11454985Y6238675D02*
X11454985Y6237260D01*
Y6126176D01*
X11454488Y6123675D01*
Y6112462D01*
X11449042Y6108823D01*
X11440710Y6096353D01*
X11438829Y6086895D01*
X11354428D01*
X11347570Y6085531D01*
X11341757Y6081647D01*
X11337872Y6075833D01*
X11336508Y6068976D01*
Y6014480D01*
X11334796Y6012961D01*
X11324616Y6008412D01*
X11305857Y6027171D01*
Y6130060D01*
X11340160D01*
Y6201862D01*
X11352160D01*
X11362070Y6203833D01*
X11370472Y6209447D01*
X11410572Y6249547D01*
X11410848Y6249960D01*
X11451569D01*
X11454985Y6238675D01*
D02*
G37*
G36*
X12452760Y5752560D02*
X12484103D01*
Y5264709D01*
X12475291Y5255898D01*
X12148104D01*
X12137460Y5260860D01*
Y5391260D01*
X12095457D01*
Y5407660D01*
X12106260D01*
Y5473060D01*
X12095457D01*
Y5490408D01*
X12104917D01*
Y5523183D01*
X12158312Y5576578D01*
X12163926Y5584980D01*
X12165898Y5594891D01*
Y5757362D01*
X12197257D01*
X12198320Y5752017D01*
X12202204Y5746204D01*
X12208017Y5742319D01*
X12214875Y5740955D01*
X12370125D01*
X12376982Y5742319D01*
X12382796Y5746204D01*
X12386680Y5752017D01*
X12388044Y5758875D01*
Y5761453D01*
X12452760D01*
Y5752560D01*
D02*
G37*
%LPC*%
G36*
X12370125Y5705044D02*
X12214875D01*
X12208017Y5703680D01*
X12202204Y5699796D01*
X12198320Y5693983D01*
X12196956Y5687125D01*
Y5631875D01*
X12198320Y5625017D01*
X12202204Y5619204D01*
X12208017Y5615319D01*
X12214875Y5613955D01*
X12370125D01*
X12376982Y5615319D01*
X12382796Y5619204D01*
X12386680Y5625017D01*
X12388044Y5631875D01*
Y5687125D01*
X12386680Y5693983D01*
X12382796Y5699796D01*
X12376982Y5703680D01*
X12370125Y5705044D01*
D02*
G37*
%LPD*%
G36*
X8979016Y3386419D02*
X9026148Y3372122D01*
X9069585Y3348904D01*
X9107658Y3317658D01*
X9138904Y3279585D01*
X9162121Y3236148D01*
X9176419Y3189016D01*
X9181246Y3140000D01*
X9176419Y3090984D01*
X9162121Y3043852D01*
X9138904Y3000415D01*
X9107658Y2962342D01*
X9069585Y2931096D01*
X9026148Y2907879D01*
X8979016Y2893581D01*
X8930000Y2888754D01*
X8880984Y2893581D01*
X8833852Y2907879D01*
X8790415Y2931096D01*
X8752342Y2962342D01*
X8721096Y3000415D01*
X8697878Y3043852D01*
X8683581Y3090984D01*
X8678754Y3140000D01*
X8683581Y3189016D01*
X8697878Y3236148D01*
X8721096Y3279585D01*
X8752342Y3317658D01*
X8790415Y3348904D01*
X8833852Y3372122D01*
X8880984Y3386419D01*
X8930000Y3391246D01*
X8979016Y3386419D01*
D02*
G37*
%LPC*%
G36*
X8880860Y3219360D02*
X8725460D01*
Y3063960D01*
X8880860D01*
Y3219360D01*
D02*
G37*
G36*
X9057160Y3220030D02*
X9036876Y3217360D01*
X9017974Y3209531D01*
X9001743Y3197076D01*
X8989289Y3180845D01*
X8981460Y3161943D01*
X8978789Y3141660D01*
X8981460Y3121376D01*
X8989289Y3102474D01*
X9001743Y3086244D01*
X9017974Y3073789D01*
X9036876Y3065960D01*
X9057160Y3063289D01*
X9077443Y3065960D01*
X9096345Y3073789D01*
X9112576Y3086244D01*
X9125031Y3102474D01*
X9132860Y3121376D01*
X9135530Y3141660D01*
X9132860Y3161943D01*
X9125031Y3180845D01*
X9112576Y3197076D01*
X9096345Y3209531D01*
X9077443Y3217360D01*
X9057160Y3220030D01*
D02*
G37*
%LPD*%
D10*
X9244006Y3140000D02*
G03*
X9244006Y3140000I-314006J0D01*
G01*
D11*
X12800012Y7160000D02*
G03*
X12800012Y7160000I-150012J0D01*
G01*
Y3160008D02*
G03*
X12800012Y3160008I-150012J0D01*
G01*
X6800024D02*
G03*
X6800024Y3160008I-150012J0D01*
G01*
Y7160000D02*
G03*
X6800024Y7160000I-150012J0D01*
G01*
D12*
X14959999Y3672001D02*
D03*
X14960001Y3070000D02*
D03*
X14959999Y3919000D02*
D03*
X14959999Y4521001D02*
D03*
D13*
X14109999Y3050000D02*
D03*
X14410001D02*
D03*
X13611502Y4513491D02*
D03*
X13911502D02*
D03*
X14114790Y4506393D02*
D03*
X14414790Y4506393D02*
D03*
D14*
X14260001Y3070000D02*
D03*
X13761502Y4493490D02*
D03*
X14264790Y4486393D02*
D03*
D15*
X14260001Y3300000D02*
D03*
X13761502Y4263490D02*
D03*
X14264790Y4256393D02*
D03*
D16*
X13212500Y2950000D02*
D03*
X13127499D02*
D03*
X13212500Y3030000D02*
D03*
X13127499D02*
D03*
X13212500Y3110000D02*
D03*
X13127499D02*
D03*
X13212500Y3190000D02*
D03*
X13127499D02*
D03*
X13222501Y4060000D02*
D03*
X13137500D02*
D03*
X13218694Y4138205D02*
D03*
X13133693D02*
D03*
X13222501Y4220000D02*
D03*
X13137500D02*
D03*
X13225168Y4299225D02*
D03*
X13140169D02*
D03*
X10629768Y5917849D02*
D03*
X10714769D02*
D03*
D17*
X13410001Y2760000D02*
D03*
Y3029999D02*
D03*
D18*
X13614030Y3035584D02*
D03*
X13914030Y3035583D02*
D03*
D19*
X13764030Y3055583D02*
D03*
D20*
X13764030Y3305583D02*
D03*
D21*
X13522501Y3600000D02*
D03*
X13977499Y3600000D02*
D03*
Y3950000D02*
D03*
X13522501Y3950000D02*
D03*
D22*
X10461716Y3576619D02*
D03*
Y3766620D02*
D03*
X10716716Y3766619D02*
D03*
Y3671619D02*
D03*
X10716716Y3576619D02*
D03*
D23*
X10272500Y3580000D02*
D03*
X10127500D02*
D03*
X10269912Y3103835D02*
D03*
X10124911D02*
D03*
X10822500Y2870000D02*
D03*
X10677500Y2870000D02*
D03*
X11322432Y6582219D02*
D03*
X11177432D02*
D03*
X10767500Y6590000D02*
D03*
X10912500D02*
D03*
X14111760Y5402260D02*
D03*
X13966760D02*
D03*
X14349361D02*
D03*
X14204359D02*
D03*
X12990460Y5681660D02*
D03*
X12845461D02*
D03*
X12990460Y5935660D02*
D03*
X12845461D02*
D03*
X12990460Y5808660D02*
D03*
X12845461D02*
D03*
X11838460Y5326060D02*
D03*
X11693460D02*
D03*
X12079760D02*
D03*
X11934760D02*
D03*
X11388660Y5529260D02*
D03*
X11533660D02*
D03*
X11139960D02*
D03*
X11284960D02*
D03*
X10435000Y5470000D02*
D03*
X10290000D02*
D03*
X10435000Y5310000D02*
D03*
X10290000D02*
D03*
X10432500Y6180000D02*
D03*
X10287500D02*
D03*
X10433112Y6015913D02*
D03*
X10288113D02*
D03*
X10287500Y6680000D02*
D03*
X10432500D02*
D03*
X9162460Y6938960D02*
D03*
X9307460D02*
D03*
X9891660Y6596060D02*
D03*
X9746660D02*
D03*
X10431616Y6542081D02*
D03*
X10286616D02*
D03*
X9759360Y5884860D02*
D03*
X9904360D02*
D03*
D24*
X10838680Y3817865D02*
D03*
Y3672866D02*
D03*
X10711716Y4021620D02*
D03*
Y3876619D02*
D03*
X9435000Y4914800D02*
D03*
Y5059800D02*
D03*
X9993800Y4918500D02*
D03*
Y5063500D02*
D03*
X11432060Y6307660D02*
D03*
Y6452660D02*
D03*
D25*
X10845000Y4000000D02*
D03*
X10995000Y4000000D02*
D03*
X10122858Y3324338D02*
D03*
X10272858D02*
D03*
X14155000Y3610000D02*
D03*
X14305000D02*
D03*
X8040268Y6038868D02*
D03*
X7890268D02*
D03*
X10955000Y7180000D02*
D03*
X10805000D02*
D03*
X11495000D02*
D03*
X11345000D02*
D03*
X13675000Y5400000D02*
D03*
X13825000D02*
D03*
X8945000Y3600000D02*
D03*
X8795000D02*
D03*
X11665186Y6158475D02*
D03*
X11515186D02*
D03*
X13545000Y5550000D02*
D03*
X13395000D02*
D03*
X11810000Y5520000D02*
D03*
X11660000D02*
D03*
D26*
X11054499Y3100064D02*
D03*
D27*
X10484499Y2870064D02*
D03*
Y3100064D02*
D03*
Y3330064D02*
D03*
D28*
X7726783Y6871347D02*
D03*
Y6721346D02*
D03*
X6970000Y6260000D02*
D03*
Y6110000D02*
D03*
X10431716Y3881619D02*
D03*
X10431716Y4031620D02*
D03*
X12470000Y6070000D02*
D03*
Y6220000D02*
D03*
X7240000Y5530000D02*
D03*
Y5380000D02*
D03*
X8150000Y4230000D02*
D03*
Y4380000D02*
D03*
X10870000Y5555000D02*
D03*
Y5405000D02*
D03*
D29*
X7199260Y6037260D02*
D03*
Y5910260D02*
D03*
Y5783260D02*
D03*
Y5656260D02*
D03*
X7689260Y6037260D02*
D03*
Y5910260D02*
D03*
Y5783260D02*
D03*
Y5656260D02*
D03*
D30*
X7202361Y4294198D02*
D03*
X7002361D02*
D03*
X7200000Y5130000D02*
D03*
X7000000D02*
D03*
X8396760Y4360860D02*
D03*
X8596760D02*
D03*
D31*
X9335400Y3855400D02*
D03*
X9585400D02*
D03*
X9860000Y3850000D02*
D03*
X10110000D02*
D03*
D32*
X9460400Y4145400D02*
D03*
X9985000Y4140000D02*
D03*
D33*
X9996900Y4432200D02*
D03*
Y4559200D02*
D03*
Y4686200D02*
D03*
Y4813200D02*
D03*
X9431900Y4432200D02*
D03*
Y4559200D02*
D03*
Y4686200D02*
D03*
Y4813200D02*
D03*
X7161760Y6596060D02*
D03*
Y6469060D02*
D03*
Y6342060D02*
D03*
Y6215060D02*
D03*
X7726760Y6596060D02*
D03*
Y6469060D02*
D03*
Y6342060D02*
D03*
Y6215060D02*
D03*
X12292500Y5659500D02*
D03*
Y5786500D02*
D03*
Y5913500D02*
D03*
Y6040500D02*
D03*
X11727500Y5659500D02*
D03*
Y5786500D02*
D03*
Y5913500D02*
D03*
Y6040500D02*
D03*
X11432053Y5660351D02*
D03*
Y5787351D02*
D03*
Y5914351D02*
D03*
Y6041351D02*
D03*
X10867053Y5660351D02*
D03*
Y5787351D02*
D03*
Y5914351D02*
D03*
Y6041351D02*
D03*
D34*
X6429500Y4941607D02*
D03*
X6556500D02*
D03*
X6683500D02*
D03*
X6810500D02*
D03*
Y4478393D02*
D03*
X6683500D02*
D03*
X6556500D02*
D03*
D35*
X6429500D02*
D03*
D36*
X4602642Y5250768D02*
D03*
X5041048Y5689174D02*
D03*
X4087466Y5284867D02*
D03*
X4525872Y5723273D02*
D03*
X5117818Y5216668D02*
D03*
X5556224Y5655074D02*
D03*
X5632994Y5182569D02*
D03*
X6071400Y5620975D02*
D03*
X4010697Y5757372D02*
D03*
X3572291Y5318966D02*
D03*
D37*
X11050000Y6740000D02*
D03*
X11100000D02*
D03*
X11150000D02*
D03*
X11200000D02*
D03*
X11250000D02*
D03*
Y7180000D02*
D03*
X11200000D02*
D03*
X11150000D02*
D03*
X11100000D02*
D03*
X11050000D02*
D03*
D38*
X13185709Y4512422D02*
D03*
X13455708Y4512421D02*
D03*
D39*
X9140000Y5142500D02*
D03*
Y5057500D02*
D03*
X8960000D02*
D03*
Y5142500D02*
D03*
D40*
X8674000Y4185000D02*
D03*
X8547000D02*
D03*
X8420000D02*
D03*
X8293000D02*
D03*
X8674000Y3620000D02*
D03*
X8547000D02*
D03*
X8420000D02*
D03*
X8293000D02*
D03*
D41*
X8168160Y3598860D02*
D03*
Y3398860D02*
D03*
X8841260Y4156060D02*
D03*
Y3956060D02*
D03*
X8420000Y3170000D02*
D03*
Y3370000D02*
D03*
D42*
X13709042Y5275379D02*
D03*
X13841043D02*
D03*
X13516049Y5274704D02*
D03*
X13648048D02*
D03*
X13835204Y6330886D02*
D03*
X13703204D02*
D03*
X13647934Y6330872D02*
D03*
X13515935D02*
D03*
X12068217Y5523108D02*
D03*
X11936217D02*
D03*
X11937560Y5440360D02*
D03*
X12069560D02*
D03*
D43*
X13514861Y6226160D02*
D03*
Y5899160D02*
D03*
Y5718160D02*
D03*
Y5391160D02*
D03*
D44*
X13857700Y5935660D02*
D03*
D45*
Y5808660D02*
D03*
Y5681660D02*
D03*
Y5554660D02*
D03*
X14340421D02*
D03*
Y5681660D02*
D03*
Y5808660D02*
D03*
Y5935660D02*
D03*
D46*
X13248160Y6011860D02*
D03*
X13343159Y5811860D02*
D03*
X13153160D02*
D03*
X12600460Y6010260D02*
D03*
X12695459Y5810260D02*
D03*
X12505460D02*
D03*
D47*
X10110303Y6741202D02*
D03*
Y6806202D02*
D03*
Y6871202D02*
D03*
Y6936202D02*
D03*
Y7001202D02*
D03*
Y7066202D02*
D03*
Y7131202D02*
D03*
Y7196202D02*
D03*
X9530303D02*
D03*
Y7131202D02*
D03*
Y7066202D02*
D03*
Y7001202D02*
D03*
Y6936202D02*
D03*
Y6871202D02*
D03*
Y6806202D02*
D03*
Y6741202D02*
D03*
X10110303Y5327269D02*
D03*
Y5392269D02*
D03*
Y5457269D02*
D03*
Y5522269D02*
D03*
Y5587269D02*
D03*
Y5652269D02*
D03*
Y5717269D02*
D03*
Y5782269D02*
D03*
X9530303D02*
D03*
Y5717269D02*
D03*
Y5652269D02*
D03*
Y5587269D02*
D03*
Y5522269D02*
D03*
Y5457269D02*
D03*
Y5392269D02*
D03*
Y5327269D02*
D03*
X10110303Y6034235D02*
D03*
Y6099235D02*
D03*
Y6164235D02*
D03*
Y6229235D02*
D03*
Y6294235D02*
D03*
Y6359235D02*
D03*
Y6424235D02*
D03*
Y6489235D02*
D03*
X9530303D02*
D03*
Y6424235D02*
D03*
Y6359235D02*
D03*
Y6294235D02*
D03*
Y6229235D02*
D03*
Y6164235D02*
D03*
Y6099235D02*
D03*
Y6034235D02*
D03*
D48*
X9277515Y5261438D02*
D03*
X8957515D02*
D03*
X9280613Y5599093D02*
D03*
X8960613D02*
D03*
X9281173Y5764910D02*
D03*
X8961173D02*
D03*
X9281803Y5965402D02*
D03*
X8961803D02*
D03*
X9281803Y6155902D02*
D03*
X8961803D02*
D03*
X9281803Y6346402D02*
D03*
X8961803D02*
D03*
X9281803Y6727402D02*
D03*
X8961803D02*
D03*
X9281803Y6536902D02*
D03*
X8961803D02*
D03*
X9282677Y5430782D02*
D03*
X8962677D02*
D03*
D49*
X6735000Y5385000D02*
D03*
X6545000D02*
D03*
X6640000Y5215000D02*
D03*
D50*
X7670711Y3829289D02*
D03*
X7529289Y3970711D02*
D03*
D51*
X8371360Y5770560D02*
D03*
D52*
X8271360Y5965560D02*
D03*
X8321360D02*
D03*
X8371360D02*
D03*
X8421360D02*
D03*
X8471360D02*
D03*
Y5575560D02*
D03*
X8421360D02*
D03*
X8371360D02*
D03*
X8321360D02*
D03*
X8271360D02*
D03*
D53*
X8566360Y5870560D02*
D03*
Y5820560D02*
D03*
Y5770560D02*
D03*
Y5720560D02*
D03*
Y5670560D02*
D03*
X8176360D02*
D03*
Y5720560D02*
D03*
Y5770560D02*
D03*
Y5820560D02*
D03*
Y5870560D02*
D03*
D54*
X6531460Y6260368D02*
D03*
Y6070368D02*
D03*
X6731460Y6165368D02*
D03*
D55*
X6902660Y5911368D02*
D03*
Y5784368D02*
D03*
Y5657368D02*
D03*
Y5530368D02*
D03*
X6360260D02*
D03*
Y5657368D02*
D03*
Y5784368D02*
D03*
Y5911368D02*
D03*
D56*
X10999960Y6227760D02*
D03*
X11279960D02*
D03*
D57*
X5769997Y4630000D02*
X5799998Y4599999D01*
X4105410Y4630000D02*
X5769997D01*
X14264790Y4256393D02*
Y4486393D01*
X13761502Y4263491D02*
Y4493490D01*
Y4263491D02*
X13761502Y4263490D01*
X13134801Y4217300D02*
X13137500Y4220000D01*
X13080000Y4217300D02*
X13134801D01*
X13083807Y4057883D02*
X13137500D01*
X13225168Y4287094D02*
X13296817D01*
X3382410Y5353000D02*
X4105410Y4630000D01*
X3087000Y5353000D02*
X3382410D01*
X2579000Y5861000D02*
X3341000D01*
X2579000Y5099000D02*
Y5861000D01*
Y5099000D02*
X3341000D01*
X10822500Y2870000D02*
X11079999D01*
X11080000Y2870000D01*
X11080000Y2870000D02*
X12650000D01*
X11080000Y2870000D02*
X11080000Y2870000D01*
X12650000D02*
X13120000Y3340000D01*
X10722525Y4010810D02*
X10834190D01*
X9310000Y4430000D02*
X9429700D01*
X9431900Y4432200D01*
X10000100Y4810000D02*
X10110000D01*
X9996900Y4813200D02*
X10000100Y4810000D01*
X9320000Y3580000D02*
X9796165Y3103835D01*
X7726760Y6596060D02*
X7730700Y6600000D01*
X7850000D01*
X6790000Y5780000D02*
X6898292D01*
X6902660Y5784368D01*
X7201180Y4295379D02*
X7202361Y4294198D01*
X7200000Y5130000D02*
X7201180Y5128820D01*
Y4295379D02*
Y5128820D01*
X7204916Y4291643D02*
X7306223D01*
X7202361Y4294198D02*
X7204916Y4291643D01*
X8800000Y3605000D02*
Y3700000D01*
X8795000Y3600000D02*
X8800000Y3605000D01*
X14960001Y3070000D02*
X15350000D01*
X13080000Y4141643D02*
X13130255D01*
X13133693Y4138205D01*
X13135924Y4294980D02*
X13140169Y4299225D01*
X13107053Y4294980D02*
X13135924D01*
X13104202Y4292131D02*
X13107053Y4294980D01*
X13086475Y4292131D02*
X13104202D01*
X7277451Y5783260D02*
X7285355Y5775355D01*
X7291752D01*
X7290000Y5780000D02*
X7290567Y5779433D01*
X7326497D01*
X7361960Y5593216D02*
Y5743970D01*
X7326497Y5779433D02*
X7361960Y5743970D01*
X7262500Y5552500D02*
X7321243D01*
X7361960Y5593216D01*
X7240000Y5530000D02*
X7262500Y5552500D01*
X7199260Y5783260D02*
X7277451D01*
X6250000Y5650000D02*
X6352892D01*
X6360260Y5657368D01*
X13125858Y3031643D02*
X13127499Y3030000D01*
X13080000Y3031643D02*
X13125858D01*
X13080000Y3111643D02*
X13125858D01*
X13127499Y3110000D01*
X13125858Y3191643D02*
X13127499Y3190000D01*
X13080000Y3191643D02*
X13125858D01*
X13120000Y3340000D02*
X13537631D01*
X13080000Y2950000D02*
X13127499D01*
X13878284Y3503284D02*
X13975000Y3600000D01*
X13700916Y3503284D02*
X13878284D01*
X13537631Y3340000D02*
X13700916Y3503284D01*
X13975000Y3600000D02*
X13977499D01*
X13375200Y4095200D02*
X13648116D01*
X13097865Y3817865D02*
X13375200Y4095200D01*
X10838680Y3817865D02*
X13097865D01*
X10841840Y3821025D02*
Y4003160D01*
X13977499Y3950000D02*
Y4334103D01*
Y3900000D02*
Y3950000D01*
X13977499Y3950000D01*
X13895000Y4032500D02*
X13977499Y3950000D01*
X13710815Y4032500D02*
X13895000D01*
X13648116Y4095200D02*
X13710815Y4032500D01*
X13973453Y3256547D02*
Y3601548D01*
X10484531Y2870032D02*
X10677468D01*
X10484499Y2870064D02*
X10484531Y2870032D01*
X10677468D02*
X10677500Y2870000D01*
X13977499Y3600000D02*
X13987500Y3610000D01*
X14155000D01*
X10484499Y3100064D02*
X11054499D01*
X10269912Y3103835D02*
X10271798Y3101950D01*
X10482613D02*
X10484499Y3100064D01*
X10271798Y3101950D02*
X10482613D01*
X10272500Y3580000D02*
X10445835D01*
X10449216Y3576619D01*
X10461716D01*
X10123885Y3104862D02*
X10124911Y3103835D01*
X10122858Y3324338D02*
X10123885Y3323311D01*
Y3104862D02*
Y3323311D01*
X9320000Y3840000D02*
X9335400Y3855400D01*
X9320000Y3580000D02*
Y3840000D01*
X9796165Y3103835D02*
X10124911D01*
X10118750Y3588750D02*
Y3841250D01*
Y3588750D02*
X10127500Y3580000D01*
X10110000Y3850000D02*
X10118750Y3841250D01*
X10834190Y4010810D02*
X10841840Y4003160D01*
X10838680Y3817865D02*
X10841840Y3821025D01*
X10711716Y4021620D02*
X10722525Y4010810D01*
X10717339Y3672242D02*
X10838057D01*
X10716716Y3671619D02*
X10717339Y3672242D01*
X10838057D02*
X10838680Y3672866D01*
X10714216Y3769119D02*
Y3874119D01*
X10711716Y3876619D02*
X10714216Y3874119D01*
Y3769119D02*
X10716716Y3766619D01*
X10446716Y3769120D02*
Y3866619D01*
Y3769120D02*
X10449216Y3766620D01*
X10431716Y3881619D02*
X10446716Y3866619D01*
X10449216Y3766620D02*
X10461716D01*
X3087000Y5607000D02*
X3284257D01*
X3572291Y5318966D01*
X13409999Y3030000D02*
X13410001Y3029999D01*
X13212500Y3030000D02*
X13212502Y3030000D01*
X13409999D01*
X13212500Y3110000D02*
Y3190000D01*
Y3030000D02*
Y3110000D01*
Y2950000D02*
Y3030000D01*
X13455708Y4512421D02*
X13611502D01*
X13218694Y4063760D02*
Y4138205D01*
X13222501Y4036240D02*
Y4060000D01*
X13218694Y4138205D02*
Y4212649D01*
Y4287094D01*
X13225168D01*
X13409709Y4466421D02*
X13455708Y4512421D01*
X13409709Y4399985D02*
Y4466421D01*
X13296817Y4287094D02*
X13409709Y4399985D01*
X14389999Y3000000D02*
X14889999D01*
X14310001Y2920000D02*
X14389999Y3000000D01*
X14284792Y4276393D02*
X14836394D01*
X14264790Y4256393D02*
X14284792Y4276393D01*
X14109999Y3050000D02*
Y3120001D01*
X13973453Y3256547D02*
X14109999Y3120001D01*
X14959999Y3672001D02*
X14969382Y3662618D01*
X15261668D01*
X14959999Y3919000D02*
X15258047D01*
X15263066Y3924019D01*
X14960094Y4521094D02*
X15268719D01*
X14959999Y4521001D02*
X14960094Y4521094D01*
X13484245Y3035584D02*
X13614030D01*
X13478661Y3030000D02*
X13484245Y3035584D01*
X13611502Y4512421D02*
Y4513491D01*
X13977499Y4334103D02*
X14114790Y4471393D01*
Y4506393D01*
X14200000Y4710000D02*
X14264790Y4645209D01*
Y4486393D02*
Y4645209D01*
X13839999Y4710000D02*
X14200000D01*
X13761502Y4631502D02*
X13839999Y4710000D01*
X13761502Y4493490D02*
Y4631502D01*
X14889999Y3000000D02*
X14960001Y3070000D01*
X14029614Y2920000D02*
X14310001D01*
X13914030Y2995583D02*
Y3035583D01*
Y2995583D02*
X13919031Y2990583D01*
X13959032D01*
X14029614Y2920000D01*
X14930000Y4370000D02*
Y4491002D01*
X14959999Y4521001D01*
X14836394Y4276393D02*
X14930000Y4370000D01*
X13761502Y4263490D02*
X13765051Y4259941D01*
D58*
X8431860Y5499848D02*
Y5506505D01*
X8423660Y5514705D02*
X8431860Y5506505D01*
X8423660Y5514705D02*
Y5573260D01*
X8809819Y5965402D02*
X8961803D01*
X8709368Y5864951D02*
X8809819Y5965402D01*
X8978742Y5617222D02*
Y5741485D01*
X8960613Y5599093D02*
X8978742Y5617222D01*
X8959221Y5761005D02*
X8978742Y5741485D01*
X8962677Y5451938D02*
Y5599093D01*
X8957515Y5430782D02*
Y5451938D01*
X11537773Y5906146D02*
X11562621Y5881299D01*
X11587468Y5856452D01*
X11587162Y5855601D02*
X11649722Y5793042D01*
X11775200Y5554800D02*
Y5640551D01*
X10867053Y5557947D02*
Y5660351D01*
X8448057Y3431057D02*
Y3519862D01*
X8422160Y3405160D02*
X8448057Y3431057D01*
X8422160Y3545760D02*
Y3595760D01*
Y3545760D02*
X8448057Y3519862D01*
X7559700Y6140000D02*
X7851800D01*
X7495060Y6075360D02*
X7559700Y6140000D01*
X7851800D02*
X7888760Y6176960D01*
X6731460Y6165368D02*
Y6261460D01*
X6939060Y6469060D02*
X7161760D01*
X6731460Y6261460D02*
X6939060Y6469060D01*
X9410000Y7040000D02*
Y7141421D01*
X9454981Y7186402D01*
X7495060Y5970000D02*
Y6075360D01*
Y5935660D02*
Y5970000D01*
X7488200Y5976860D02*
X7495060Y5970000D01*
X6799047Y5976860D02*
X7488200D01*
X6605906Y6170000D02*
X6799047Y5976860D01*
X6410000Y6170000D02*
X6605906D01*
X6380000Y6140000D02*
X6410000Y6170000D01*
X6380000Y5931108D02*
Y6140000D01*
X6360260Y5911368D02*
X6380000Y5931108D01*
X13652805Y5973760D02*
X13690904Y5935660D01*
X13516049Y5274704D02*
Y5389971D01*
X13514861Y5391160D02*
Y5519860D01*
X13545000Y5550000D01*
X11480385Y6061151D02*
Y6123675D01*
X12409351Y5914351D02*
X12470000Y5975000D01*
X7943010Y5820560D02*
X8176360D01*
X7916809Y5846760D02*
X7943010Y5820560D01*
X9654677Y5651334D02*
X9673343Y5670000D01*
X9680000D01*
X11080000Y7300000D02*
X11097700Y7282300D01*
X7689260Y6037260D02*
X7888659D01*
X7888760Y6176960D02*
Y6357060D01*
X7776760Y6469060D02*
X7888760Y6357060D01*
X6988447Y6289954D02*
X7040552Y6342060D01*
X7382617Y5808660D02*
X7562081D01*
X7084241Y5843660D02*
X7347616D01*
X7382617Y5808660D01*
X7000868Y5530368D02*
X7037860Y5567360D01*
Y5797278D01*
X6902660Y5530368D02*
X7000868D01*
X6892292Y5520000D02*
X6902660Y5530368D01*
X7037860Y5797278D02*
X7084241Y5843660D01*
X8549580Y3470420D02*
X8550000Y3470000D01*
X8549160Y3595760D02*
X8549580Y3595340D01*
Y3470420D02*
Y3595340D01*
X9281645Y5796534D02*
X9318945Y5833834D01*
X9281645Y5771534D02*
Y5796534D01*
X9471170Y5961060D02*
X9676260D01*
X9318945Y5833834D02*
X9343945D01*
X9471170Y5961060D01*
X9412760Y5546948D02*
X9427639Y5532069D01*
X9412760Y5546948D02*
Y5808660D01*
X9427639Y5532069D02*
X9520503D01*
X9494500Y5890400D02*
X9753819D01*
X9759360Y5884860D01*
X9412760Y5808660D02*
X9494500Y5890400D01*
X9530000Y5782571D02*
X9530303Y5782269D01*
X9530000Y5782571D02*
Y5840000D01*
X9643403Y5720059D02*
X9673343Y5750000D01*
X9530303Y5717269D02*
X9533093Y5720059D01*
X9643403D01*
X9673343Y5750000D02*
X9680000D01*
X8271360Y5572300D02*
Y5575560D01*
X8269060Y5570000D02*
X8271360Y5572300D01*
X8220000Y5570000D02*
X8269060D01*
X8177700Y5670560D02*
X8180000Y5668260D01*
Y5620000D02*
Y5668260D01*
X8176360Y5670560D02*
X8177700D01*
X8566360Y5870560D02*
X8714260D01*
X8707010Y5863310D02*
X8714260Y5870560D01*
X8177700D02*
X8180000Y5872860D01*
Y5920000D01*
X8176360Y5870560D02*
X8177700D01*
X8460000Y6047621D02*
Y6050000D01*
X8423660Y5967860D02*
Y6011281D01*
X8460000Y6047621D01*
X8290031Y6043703D02*
Y6050360D01*
X8319060Y5967860D02*
Y6014674D01*
X8290031Y6043703D02*
X8319060Y6014674D01*
X8373660Y5967860D02*
Y6037003D01*
X8380000Y6043344D02*
Y6050000D01*
X8371360Y5965560D02*
X8373660Y5967860D01*
Y6037003D02*
X8380000Y6043344D01*
X10345121Y6984102D02*
X10360000Y6969223D01*
X10179903Y6984102D02*
X10345121D01*
X10360000Y6796402D02*
Y6969223D01*
X10299362Y7040638D02*
X10676824Y7418100D01*
X10410000Y7042315D02*
X10747685Y7380000D01*
X9949907Y7001202D02*
X10162803D01*
X10179903Y6984102D01*
X10353193Y6099235D02*
X10360000Y6106042D01*
X10110303Y6099235D02*
X10353193D01*
X10360000Y6106042D02*
Y6294235D01*
Y5917849D02*
Y6106042D01*
X10676824Y7418100D02*
X13101900D01*
X10120103Y6796402D02*
X10360000D01*
Y6603421D02*
Y6796402D01*
Y6294235D02*
Y6476579D01*
X10360400Y6476979D02*
Y6603021D01*
X10360000Y6476579D02*
X10360400Y6476979D01*
X10360000Y6603421D02*
X10360400Y6603021D01*
X10110303Y6294235D02*
X10360000D01*
X10234310Y5392269D02*
X10234479Y5392100D01*
X10110303Y5392269D02*
X10234310D01*
X10360400Y5406979D02*
Y5917849D01*
X10234479Y5392100D02*
X10345521D01*
X10360400Y5406979D01*
X10360000Y5917849D02*
X10629768D01*
X10360400Y5917849D02*
X10360400Y5917849D01*
X10110303Y5587269D02*
X10350000D01*
X10110303Y5457269D02*
X10309669D01*
X10680168Y6590000D02*
X10767500D01*
X9988907Y5717969D02*
X10109602D01*
X9531237Y5651334D02*
X9654677D01*
X7040552Y6342060D02*
X7161760D01*
X6964358Y6289954D02*
X6988447D01*
X7726760Y6721324D02*
X7726783Y6721346D01*
X7726760Y6596060D02*
Y6721324D01*
X7888659Y6037260D02*
X7890268Y6038868D01*
X7562081Y5808660D02*
X7587481Y5783260D01*
X7689260D01*
X7530078Y5846760D02*
X7916809D01*
X7466578Y5910260D02*
X7530078Y5846760D01*
X14340421Y5935660D02*
Y6179580D01*
X13101900Y7418100D02*
X14340421Y6179580D01*
X10747685Y7380000D02*
X13020000D01*
X14175259Y5735851D02*
Y6224740D01*
X13020000Y7380000D02*
X14175259Y6224740D01*
X14340421Y5554660D02*
X14343089Y5557330D01*
X14517329D01*
X14520000Y5560000D01*
X9530303Y5652269D02*
X9531237Y5651334D01*
X8319060Y5967860D02*
X8321360Y5965560D01*
X8421360D02*
X8423660Y5967860D01*
X9650000Y6795378D02*
Y6842067D01*
X9690400Y6882467D01*
X9908138Y7066236D02*
X9934618Y7092715D01*
X9800162Y7070162D02*
X9861202Y7131202D01*
X9872303Y6994874D02*
Y7001530D01*
X9908138Y7037366D02*
Y7066236D01*
X9795638Y6994362D02*
X9800162Y6998886D01*
X9872303Y7001530D02*
X9908138Y7037366D01*
X9800162Y6998886D02*
Y7070162D01*
X9892667Y6943962D02*
X9949907Y7001202D01*
X9643967Y7066202D02*
X9681118Y7029051D01*
X9687775D01*
X9701588Y6943962D02*
X9892667D01*
X9690400Y6882467D02*
Y6889124D01*
X9653299Y6992250D02*
X9701588Y6943962D01*
X9539254Y6992250D02*
X9653299D01*
X9934618Y7092715D02*
X10018268D01*
X10110303Y5652269D02*
X10112480Y5654446D01*
X10220026D01*
X10222204Y5656624D01*
X10110685Y6359617D02*
X10219617D01*
X10220000Y6360000D01*
X10110303Y6359235D02*
X10110685Y6359617D01*
X9532420Y6422118D02*
X9688282D01*
X9530303Y6359235D02*
X9530685Y6359617D01*
X9639617D02*
X9640000Y6360000D01*
X9530685Y6359617D02*
X9639617D01*
X9688282Y6422118D02*
X9690400Y6420000D01*
X8421360Y5575560D02*
X8423660Y5573260D01*
X8369368Y5504951D02*
X8370364Y5505947D01*
Y5574564D02*
X8371360Y5575560D01*
X8370364Y5505947D02*
Y5574564D01*
X9417546Y6634160D02*
X9649871D01*
X9951913Y6936202D02*
X10110303D01*
X9649871Y6634160D02*
X9951913Y6936202D01*
X9530303Y7001202D02*
X9539254Y6992250D01*
X10018268Y7092715D02*
X10027681Y7083302D01*
X10035192Y7076002D02*
X10100503D01*
X10110303Y7066202D01*
X10027892Y7083302D02*
X10035192Y7076002D01*
X10027681Y7083302D02*
X10027892D01*
X9530303Y7066202D02*
X9643967D01*
X9530303Y6489235D02*
X9764508D01*
X9783343Y6470400D01*
X9790000D01*
X9530303Y6424235D02*
X9532420Y6422118D01*
X9861202Y7131202D02*
X10110303D01*
X9712253D02*
X9831051Y7250000D01*
X9530303Y7131202D02*
X9712253D01*
X9831051Y7250000D02*
X10310068D01*
X9454981Y7186402D02*
X9520503D01*
X9530303Y7196202D01*
X10349368Y7367242D02*
Y7370000D01*
X10324947Y7342821D02*
X10349368Y7367242D01*
X10324947Y7264879D02*
Y7342821D01*
X10310068Y7250000D02*
X10324947Y7264879D01*
X9419368Y5184951D02*
X9450000Y5154319D01*
X9435000Y5059800D02*
X9450000Y5074800D01*
Y5154319D01*
X9431900Y4911700D02*
X9435000Y4914800D01*
X9431900Y4686200D02*
Y4813200D01*
Y4911700D01*
X9460400Y4145400D02*
X9480400D01*
X9431900Y4559200D02*
X9549300D01*
X9480400Y4145400D02*
X9547700Y4212700D01*
Y4232700D01*
X9625500Y4310500D01*
X9549300Y4559200D02*
X9625500Y4483000D01*
Y4310500D02*
Y4483000D01*
X9841400Y4701079D02*
Y4876700D01*
Y4701079D02*
X9856279Y4686200D01*
X9841400Y4876700D02*
X9879500Y4914800D01*
X9856279Y4686200D02*
X9996900D01*
X9879500Y4914800D02*
X9990100D01*
X9981100Y4145400D02*
X9996900Y4161200D01*
X9990100Y4914800D02*
X9993800Y4918500D01*
X9996900Y4559200D02*
Y4686200D01*
Y4161200D02*
Y4432200D01*
X9993800Y5063500D02*
X10000000Y5069700D01*
Y5180000D01*
X9317913Y5536793D02*
X9342913D01*
X9412637Y5467069D02*
X9520503D01*
X9280613Y5574093D02*
Y5599093D01*
Y5574093D02*
X9317913Y5536793D01*
X9342913D02*
X9412637Y5467069D01*
X10034981Y5512469D02*
X10100503D01*
X9783950Y5261438D02*
X10034981Y5512469D01*
X10100503D02*
X10110303Y5522269D01*
X9277515Y5261438D02*
X9783950D01*
X9379633Y5430782D02*
X9417203Y5393213D01*
X9529359D01*
X9282677Y5430782D02*
X9379633D01*
X9529359Y5393213D02*
X9530303Y5392269D01*
X9520503Y5532069D02*
X9530303Y5522269D01*
X9520503Y5467069D02*
X9530303Y5457269D01*
X9140000Y4242300D02*
Y5078894D01*
X8853760Y3956060D02*
X9140000Y4242300D01*
X8434860Y4348160D02*
Y4614860D01*
X8422160Y4335460D02*
X8434860Y4348160D01*
X8635560Y4733060D02*
X8960000Y5057500D01*
X8961803Y6155902D02*
Y6346402D01*
Y6130902D02*
Y6155902D01*
X8168160Y3595760D02*
X8295160D01*
X8957515Y5261438D02*
X8960000Y5258953D01*
Y5142500D02*
Y5258953D01*
X8962677Y5430782D02*
Y5451938D01*
X8957515Y5261438D02*
Y5430782D01*
X9422118Y6032117D02*
X9528185D01*
X9420000Y6030000D02*
X9422118Y6032117D01*
X9528185D02*
X9530303Y6034235D01*
X10107420Y6427118D02*
X10110303Y6424235D01*
X9980000Y6430000D02*
X9982882Y6427118D01*
X10107420D01*
X10750000Y6040000D02*
X10750675Y6040675D01*
X10866377D02*
X10867053Y6041351D01*
X10750675Y6040675D02*
X10866377D01*
X11139960Y5529260D02*
Y5669960D01*
X11140000Y5670000D01*
X10970000Y7300000D02*
X11080000D01*
X11097700Y7182300D02*
Y7282300D01*
Y7182300D02*
X11100000Y7180000D01*
X10955000Y7285000D02*
X10970000Y7300000D01*
X10955000Y7180000D02*
Y7285000D01*
X11050000Y6740000D02*
Y7180000D01*
X9605624Y6751002D02*
X9650000Y6795378D01*
X9530303Y6741202D02*
X9540103Y6751002D01*
X9605624D01*
X9418515Y5323230D02*
X9420534Y5325249D01*
X9528283D02*
X9530303Y5327269D01*
X9420534Y5325249D02*
X9528283D01*
X10109602Y5717969D02*
X10110303Y5717269D01*
X9988207Y5718670D02*
X9988907Y5717969D01*
X6687040Y4413444D02*
Y4480041D01*
Y4413444D02*
X6806286Y4294198D01*
X7002361D01*
X6687040Y4943254D02*
Y5009851D01*
X6807189Y5130000D01*
X7000000D01*
X6560040Y4349960D02*
X6815840Y4094160D01*
X7405840D01*
X6560040Y4349960D02*
Y4480041D01*
X6433040D02*
X6560040D01*
Y4943254D01*
X6433040D02*
Y5133040D01*
X6515000Y5215000D02*
X6640000D01*
X6433040Y5133040D02*
X6515000Y5215000D01*
X6744879Y5520000D02*
X6892292D01*
X6730000Y5390000D02*
X6735000Y5385000D01*
X6730000Y5390000D02*
Y5505121D01*
X6744879Y5520000D01*
X6545000Y5385000D02*
Y5641119D01*
X6460010Y5726109D02*
X6545000Y5641119D01*
X4083175Y5600323D02*
Y5684894D01*
X4530164Y5323246D02*
X4602642Y5250768D01*
X4525872Y5723273D02*
X4598351Y5650794D01*
Y5566224D02*
Y5650794D01*
X5560515Y5255047D02*
X5632994Y5182569D01*
X5560515Y5429839D02*
X5628702Y5498026D01*
X5556224Y5655074D02*
X5628702Y5582596D01*
X4014988Y5357345D02*
Y5532136D01*
X4530164Y5498037D02*
X4598351Y5566224D01*
X4530164Y5323246D02*
Y5498037D01*
X5113526Y5532125D02*
Y5616695D01*
X5628702Y5498026D02*
Y5582596D01*
X5560515Y5255047D02*
Y5429839D01*
X5045339Y5289147D02*
X5117818Y5216668D01*
X5045339Y5463938D02*
X5113526Y5532125D01*
X5041048Y5689174D02*
X5113526Y5616695D01*
X4014988Y5532136D02*
X4083175Y5600323D01*
X4014988Y5357345D02*
X4087466Y5284867D01*
X4010697Y5757372D02*
X4083175Y5684894D01*
X5045339Y5289147D02*
Y5463938D01*
X6071400Y5620975D02*
X6143878Y5548496D01*
X12140000Y5594891D02*
Y5783260D01*
X12068217Y5523108D02*
X12140000Y5594891D01*
X12133260Y5783260D02*
X12288717D01*
X12292808Y5787351D01*
X12478159D01*
X12505460Y5810260D02*
X12510000Y5805719D01*
X12024239Y5230000D02*
X12486018D01*
X12510000Y5253982D02*
Y5805719D01*
X12486018Y5230000D02*
X12510000Y5253982D01*
X12488900Y5786000D02*
X12505460Y5802560D01*
Y5810260D01*
X12009360Y5244879D02*
Y5659360D01*
Y5244879D02*
X12024239Y5230000D01*
X12009360Y5659360D02*
X12133260Y5783260D01*
X11200000Y6604787D02*
Y6740000D01*
X11177432Y6582219D02*
X11200000Y6604787D01*
X11150000Y6609651D02*
X11177432Y6582219D01*
X11150000Y6609651D02*
Y6732581D01*
X11050000Y6630000D02*
Y6740000D01*
X11010000Y6590000D02*
X11050000Y6630000D01*
X10912500Y6590000D02*
X11010000D01*
X11100000Y6504938D02*
Y6740000D01*
X11004360Y6409298D02*
X11100000Y6504938D01*
X11250000Y6467539D02*
Y6740000D01*
Y6467539D02*
X11264879Y6452660D01*
X11432060D01*
X11004360Y6232160D02*
Y6409298D01*
X12470000Y5975000D02*
Y6070000D01*
X10955000Y7180000D02*
X10962589Y7172411D01*
X10867053Y5557947D02*
X10870000Y5555000D01*
X11727808Y5660351D02*
X11755400D01*
X11775200Y5640551D01*
Y5554800D02*
X11810000Y5520000D01*
X11480385Y6123675D02*
X11515186Y6158475D01*
X11460585Y6041351D02*
X11480385Y6061151D01*
X11432053Y6041351D02*
X11460585D01*
X12292808Y5914351D02*
X12409351D01*
X8150000Y4230000D02*
X8184800Y4195200D01*
X8275360D01*
X8295160Y4175400D01*
Y4160760D02*
Y4175400D01*
X8676160Y3595760D02*
X8790760D01*
X8795000Y3600000D01*
X13514861Y5391160D02*
X13601848D01*
X13701410Y5490721D02*
X13709801Y5499111D01*
X13652844Y5442156D02*
X13688765D01*
X13601848Y5391160D02*
X13604279Y5393590D01*
X13640199D02*
Y5429511D01*
X13688765Y5442156D02*
X13701410Y5454800D01*
Y5490721D01*
X13604279Y5393590D02*
X13640199D01*
Y5429511D02*
X13652844Y5442156D01*
X13709801Y5499111D02*
X13765347Y5554660D01*
X13857700D01*
X13709801Y5434800D02*
Y5499111D01*
X13675000Y5400000D02*
X13709801Y5434800D01*
X13690904Y5935660D02*
X13800000D01*
X13795000Y5940660D02*
X13800000Y5935660D01*
X6069632Y5530368D02*
X6360260D01*
X6040000Y5560000D02*
X6069632Y5530368D01*
X7904241Y3595760D02*
X8168160D01*
X7670711Y3829289D02*
X7670711D01*
X7904241Y3595760D01*
X7405840Y4094160D02*
X7529289Y3970711D01*
X7529289D01*
X7670711Y3829289D02*
X7679550Y3838128D01*
X8300000Y4000000D02*
Y4155919D01*
Y4000000D02*
X8400000Y3900000D01*
X8295160Y4160760D02*
X8300000Y4155919D01*
X8295160Y3645760D02*
X8605460Y3956060D01*
X8841260D01*
X14079460Y5434560D02*
Y5552251D01*
X13857700Y5681660D02*
X13950050D01*
X14079460Y5552251D01*
X9530303Y5587269D02*
X10110303D01*
X10912500Y6590000D02*
Y6597500D01*
X9140590Y5160000D02*
Y5977115D01*
X8961803Y6130902D02*
X8999103Y6093602D01*
X9024103D01*
X9140590Y5977115D01*
X8841260Y3956060D02*
X8853760D01*
X8961803Y6536902D02*
Y6727402D01*
Y6346402D02*
Y6536902D01*
X8553060Y4733060D02*
X8635560D01*
X8434860Y4614860D02*
X8553060Y4733060D01*
X8765060Y4360860D02*
X8843439Y4282481D01*
X8841260Y4156060D02*
Y4254160D01*
X8843439Y4256339D01*
Y4282481D01*
X8596760Y4360860D02*
X8765060D01*
X8168160Y3398860D02*
X8415859D01*
X8549160Y4110760D02*
Y4160760D01*
X8295160Y3595760D02*
Y3645760D01*
X8422160Y4185759D02*
Y4335460D01*
X8549160Y4160760D02*
Y4210759D01*
X8568960Y4230559D01*
X8577060D01*
X8596760Y4250260D01*
Y4360860D01*
X14349361Y5402260D02*
Y5409760D01*
X14289560Y5469560D02*
X14349361Y5409760D01*
X14289560Y5469560D02*
Y5478460D01*
X14175259Y5518739D02*
Y5735851D01*
Y5518739D02*
X14195845Y5498153D01*
X14269865D01*
X14289560Y5478460D01*
X14248068Y5808660D02*
X14340421D01*
X14175259Y5735851D02*
X14248068Y5808660D01*
X14111760Y5402260D02*
X14204359D01*
X14079460Y5434560D02*
X14111760Y5402260D01*
X13515935Y6227234D02*
Y6330872D01*
X13514861Y6226160D02*
X13515935Y6227234D01*
X13703197Y6330879D02*
X13703204Y6330886D01*
X13647942Y6330879D02*
X13703197D01*
X13647934Y6330872D02*
X13647942Y6330879D01*
X13648048Y5274704D02*
X13648386Y5275041D01*
X13708707D01*
X13709042Y5275379D01*
X13514861Y5391160D02*
X13516049Y5389971D01*
X13578360Y5973760D02*
X13652805D01*
X13514861Y6037260D02*
Y6226160D01*
Y6037260D02*
X13578360Y5973760D01*
X13514861Y5808660D02*
X13857700D01*
X13346359D02*
X13514861D01*
Y5899160D01*
Y5718160D02*
Y5808660D01*
X13343159Y5811860D02*
X13346359Y5808660D01*
X12990460Y5935660D02*
Y5943160D01*
Y5928160D02*
Y5935660D01*
X13059160Y6011860D02*
X13248160D01*
X12990460Y5943160D02*
X13059160Y6011860D01*
X12600460Y6010260D02*
X12778360D01*
X12845461Y5943160D01*
Y5935660D02*
Y5943160D01*
X12958160Y5721460D02*
X12990460Y5689160D01*
X12920061Y5745639D02*
X12944238Y5721460D01*
X12958160D01*
X12990460Y5681660D02*
Y5689160D01*
X12920061Y5745639D02*
Y5871681D01*
X12944238Y5895860D01*
X12958160D01*
X12990460Y5928160D01*
Y5808660D02*
X13149960D01*
X13153160Y5811860D01*
X12845461Y5681660D02*
Y5808660D01*
X12695459Y5810260D02*
X12843860D01*
X12845461Y5808660D01*
X10999960Y6227760D02*
X11004360Y6232160D01*
X11279960Y6227760D02*
X11352160D01*
X11392260Y6267860D01*
Y6275360D01*
X11424560Y6307660D01*
X11432060D01*
X11649722Y5793042D02*
X11720959D01*
X11727500Y5786500D01*
X10999960Y5914651D02*
X11000260Y5914351D01*
X10999960Y5914651D02*
Y6227760D01*
X11279960Y6016444D02*
X11382053Y5914351D01*
X11279960Y6016444D02*
Y6227760D01*
X11382053Y5914351D02*
X11432053D01*
X11440257Y5906146D02*
X11537773D01*
X11432053Y5914351D02*
X11440257Y5906146D01*
X11000260Y5914351D02*
X11046969D01*
X10867053D02*
X11000260D01*
X12069560Y5440360D02*
Y5523108D01*
Y5336260D02*
Y5440360D01*
Y5336260D02*
X12079760Y5326060D01*
X11937560Y5328860D02*
Y5440360D01*
X11934760Y5326060D02*
X11937560Y5328860D01*
X11838460Y5326060D02*
X11934760D01*
X10714769Y5917849D02*
X10716518Y5916100D01*
X10865303D01*
X10867053Y5914351D01*
X11408460Y5660351D02*
X11432053D01*
X11388660Y5640551D02*
X11408460Y5660351D01*
X11388660Y5529260D02*
Y5640551D01*
X11284960Y5529260D02*
X11388660D01*
X11173969Y5787351D02*
X11432053D01*
X11046969Y5914351D02*
X11173969Y5787351D01*
X11936217Y5523108D02*
X11936888Y5522437D01*
Y5441031D02*
Y5522437D01*
Y5441031D02*
X11937560Y5440360D01*
X11727808Y5914351D02*
X11777808D01*
X11936217Y5755941D01*
Y5523108D02*
Y5755941D01*
X10110303Y5327269D02*
X10304251D01*
X9676260Y5961060D02*
X9944436Y6229235D01*
X10110303Y6034235D02*
X10276190D01*
X10110303Y6164235D02*
X10289035D01*
X10289060Y6164260D01*
X9520503Y6239035D02*
X9530303Y6229235D01*
X9454981Y6239035D02*
X9520503D01*
X9412760Y6281257D02*
X9454981Y6239035D01*
X9412760Y6281257D02*
Y6557960D01*
X9374660Y6591273D02*
X9417546Y6634160D01*
X9450860Y6596060D02*
X9746660D01*
X9412760Y6557960D02*
X9450860Y6596060D01*
X9307460Y6938960D02*
X9310218Y6936202D01*
X9530303D01*
X9971560Y6634160D02*
Y6824660D01*
Y6634160D02*
X10047760Y6557960D01*
X9971560Y6824660D02*
X10018102Y6871202D01*
X10110303D01*
X10241960Y6557960D02*
X10267360Y6532560D01*
X10047760Y6557960D02*
X10241960D01*
X10110303Y6673217D02*
Y6741202D01*
Y6673217D02*
X10136660Y6646860D01*
X10267360D01*
X9374660Y6439259D02*
Y6591273D01*
X9344102Y6408702D02*
X9374660Y6439259D01*
X9281803Y6561902D02*
X9375803Y6655902D01*
X9281803Y6536902D02*
Y6561902D01*
X9375803Y6655902D02*
Y6746356D01*
X9319103Y6408702D02*
X9344102D01*
X9281803Y6371402D02*
X9319103Y6408702D01*
X9281803Y6346402D02*
Y6371402D01*
X10110303Y6806202D02*
X10120103Y6796402D01*
X8707010Y5670560D02*
Y5863310D01*
X8566360Y5670560D02*
X8707010D01*
X9530303Y6294235D02*
X10110303D01*
X9277515Y5236438D02*
Y5261438D01*
X9944436Y6229235D02*
X10110303D01*
X9281803Y5965402D02*
Y5990402D01*
X9390636Y6099235D01*
X9530303D01*
X9281803Y6155902D02*
X9290136Y6164235D01*
X9530303D01*
X9528789Y6804688D02*
X9530303Y6806202D01*
X9375803Y6746356D02*
X9434135Y6804688D01*
X9528789D01*
X9281803Y6727402D02*
Y6752402D01*
X9400602Y6871202D01*
X9530303D01*
X7199260Y5910260D02*
X7466578D01*
X7520460D02*
X7689260D01*
X7495060Y5935660D02*
X7520460Y5910260D01*
X7726760Y6469060D02*
X7776760D01*
X7161760D02*
X7482360D01*
X7609360Y6342060D01*
X7726760D01*
X7198706Y5910814D02*
X7199260Y5910260D01*
X6903214Y5910814D02*
X7198706D01*
X6902660Y5911368D02*
X6903214Y5910814D01*
X6250460Y5745160D02*
X6269510Y5726109D01*
X6460010D01*
X6316510Y5911368D02*
X6360260D01*
X6250460Y5845318D02*
X6316510Y5911368D01*
X6250460Y5745160D02*
Y5845318D01*
X6531460Y5794360D02*
Y6070368D01*
Y5794360D02*
X6541452Y5784368D01*
X6668452Y5657368D02*
X6902660D01*
X6360260Y5784368D02*
X6541452D01*
X6668452Y5657368D01*
D59*
X8639907Y5757460D02*
X8650000D01*
X8566360Y5770560D02*
X8626807D01*
X8639907Y5757460D01*
X8649800Y5820360D02*
X8650000Y5820160D01*
X8566360Y5820560D02*
X8566560Y5820360D01*
X8649800D01*
X8090280Y5770280D02*
X8176080D01*
X8176360Y5770560D01*
X8090000Y5770000D02*
X8090280Y5770280D01*
D60*
X15350000Y3070000D02*
D03*
X15330000Y3930000D02*
D03*
Y4520000D02*
D03*
Y3650000D02*
D03*
D61*
X10545001Y7085019D02*
D03*
X9155011D02*
D03*
X8395018D02*
D03*
X7005003D02*
D03*
X10945025Y3485001D02*
D03*
X9555010D02*
D03*
X8395018D02*
D03*
X7005003D02*
D03*
D62*
X6650012Y7160000D02*
D03*
Y3160008D02*
D03*
X12650000D02*
D03*
Y7160000D02*
D03*
D63*
X3341000Y5099000D02*
D03*
X2579000D02*
D03*
Y5861000D02*
D03*
X3341000D02*
D03*
X3087000Y5353000D02*
D03*
X3087000Y5607000D02*
D03*
D64*
X8803160Y3141660D02*
D03*
D65*
X9057160D02*
D03*
X8930160Y3268660D02*
D03*
Y3014660D02*
D03*
D66*
X9887660Y7359283D02*
D03*
X9850000Y7480000D02*
D03*
X15549995Y7299998D02*
D03*
X15399995Y6999998D02*
D03*
X15549995Y6699998D02*
D03*
X15399995Y6399998D02*
D03*
X15549995Y6099998D02*
D03*
X15399995Y5799998D02*
D03*
X15549995Y5499998D02*
D03*
X15399995Y5199998D02*
D03*
X15549995Y4899999D02*
D03*
Y4299999D02*
D03*
Y3699999D02*
D03*
X15399995Y3399999D02*
D03*
X15549995Y3099999D02*
D03*
X15399995Y2799999D02*
D03*
X15249995Y7299998D02*
D03*
X15099995Y6999998D02*
D03*
X15249995Y6699998D02*
D03*
X15099995Y6399998D02*
D03*
X15249995Y6099998D02*
D03*
X15099995Y5799998D02*
D03*
X15249995Y5499998D02*
D03*
X15099995Y5199998D02*
D03*
X15249995Y4899999D02*
D03*
Y4299999D02*
D03*
X15099995Y3399999D02*
D03*
Y2799999D02*
D03*
X14949995Y7299998D02*
D03*
X14799995Y6999998D02*
D03*
X14949995Y6699998D02*
D03*
X14799995Y6399998D02*
D03*
X14949995Y6099998D02*
D03*
X14799995Y5799998D02*
D03*
X14949995Y5499998D02*
D03*
X14799995Y5199998D02*
D03*
X14949995Y4899999D02*
D03*
X14799995Y4599999D02*
D03*
Y3999999D02*
D03*
Y3399999D02*
D03*
Y2799999D02*
D03*
X14649995Y7299998D02*
D03*
X14499995Y6999998D02*
D03*
X14649995Y6699998D02*
D03*
X14499995Y6399998D02*
D03*
X14649995Y6099998D02*
D03*
Y5499998D02*
D03*
X14499995Y5199998D02*
D03*
X14649995Y4899999D02*
D03*
X14499995Y4599999D02*
D03*
Y3999999D02*
D03*
X14649995Y3699999D02*
D03*
X14499995Y3399999D02*
D03*
X14649995Y3099999D02*
D03*
X14499995Y2799999D02*
D03*
X14349995Y7299998D02*
D03*
X14199995Y6999998D02*
D03*
X14349995Y6699998D02*
D03*
X14199995Y5199998D02*
D03*
X14349995Y4899999D02*
D03*
X14199995Y4599999D02*
D03*
Y3999999D02*
D03*
Y2799999D02*
D03*
X14049995Y7299998D02*
D03*
X13899995Y6999998D02*
D03*
X14049995Y6699998D02*
D03*
X13899995Y6399998D02*
D03*
X14049995Y6099998D02*
D03*
X13899995Y5199998D02*
D03*
X14049995Y4899999D02*
D03*
Y4299999D02*
D03*
X13899995Y3399999D02*
D03*
Y2799999D02*
D03*
X13749995Y7299998D02*
D03*
X13599995Y6399998D02*
D03*
X13749995Y6099998D02*
D03*
X13599995Y5199998D02*
D03*
X13749995Y4899999D02*
D03*
Y3699999D02*
D03*
X13599995Y2799999D02*
D03*
X13449995Y7299998D02*
D03*
X13299995Y6999998D02*
D03*
X13449995Y6699998D02*
D03*
X13299995Y6399998D02*
D03*
X13449995Y6099998D02*
D03*
X13299995Y5199998D02*
D03*
X13449995Y4899999D02*
D03*
X13299995Y4599999D02*
D03*
X13449995Y4299999D02*
D03*
X12999995Y6999998D02*
D03*
X13149995Y6699998D02*
D03*
X12999995Y6399998D02*
D03*
X13149995Y6099998D02*
D03*
Y5499998D02*
D03*
X12999995Y5199998D02*
D03*
Y4599999D02*
D03*
Y3999999D02*
D03*
X13149995Y3699999D02*
D03*
X12999995Y2799999D02*
D03*
X12849995Y7299998D02*
D03*
Y6699998D02*
D03*
X12699996Y6399998D02*
D03*
X12849995Y6099998D02*
D03*
Y5499998D02*
D03*
X12699996Y5199998D02*
D03*
Y4599999D02*
D03*
Y3999999D02*
D03*
X12849995Y3699999D02*
D03*
X12699996Y2799999D02*
D03*
X12399996Y6999998D02*
D03*
X12549996Y6699998D02*
D03*
X12399996Y6399998D02*
D03*
X12549996Y4899999D02*
D03*
X12399996Y4599999D02*
D03*
Y3999999D02*
D03*
X12549996Y3699999D02*
D03*
X12399996Y2799999D02*
D03*
X12249996Y7299998D02*
D03*
X12099996Y6999998D02*
D03*
X12249996Y6699998D02*
D03*
X12099996Y6399998D02*
D03*
X12249996Y4899999D02*
D03*
X12099996Y4599999D02*
D03*
Y3999999D02*
D03*
X12249996Y3699999D02*
D03*
Y3099999D02*
D03*
X12099996Y2799999D02*
D03*
X11949996Y7299998D02*
D03*
X11799996Y6999998D02*
D03*
X11949996Y6699998D02*
D03*
X11799996Y6399998D02*
D03*
Y5199998D02*
D03*
X11949996Y4899999D02*
D03*
X11799996Y4599999D02*
D03*
Y3999999D02*
D03*
X11949996Y3699999D02*
D03*
X11799996Y2799999D02*
D03*
X11649997Y7299998D02*
D03*
Y6699998D02*
D03*
X11499997Y5199998D02*
D03*
X11649997Y4899999D02*
D03*
X11499997Y4599999D02*
D03*
Y3999999D02*
D03*
X11649997Y3699999D02*
D03*
X11499997Y2799999D02*
D03*
X11199997Y6999998D02*
D03*
X11349997Y6699998D02*
D03*
X11199997Y6399998D02*
D03*
Y5199998D02*
D03*
X11349997Y4899999D02*
D03*
X11199997Y4599999D02*
D03*
Y3999999D02*
D03*
X11349997Y3699999D02*
D03*
X11199997Y2799999D02*
D03*
X10899997Y6999998D02*
D03*
Y6399998D02*
D03*
X11049997Y5499998D02*
D03*
X10899997Y5199998D02*
D03*
X11049997Y4899999D02*
D03*
X10899997Y4599999D02*
D03*
X11049997Y3699999D02*
D03*
X10749997Y7299998D02*
D03*
X10599997Y6999998D02*
D03*
Y6399998D02*
D03*
X10749997Y5499998D02*
D03*
X10599997Y5199998D02*
D03*
X10749997Y4899999D02*
D03*
X10599997Y4599999D02*
D03*
Y3999999D02*
D03*
X10299997Y6399998D02*
D03*
Y5799998D02*
D03*
Y5199998D02*
D03*
X10449997Y4899999D02*
D03*
X10299997Y3999999D02*
D03*
Y2799999D02*
D03*
X10149997Y4899999D02*
D03*
X9999997Y3999999D02*
D03*
Y2799999D02*
D03*
X9699997Y4599999D02*
D03*
Y3999999D02*
D03*
Y2799999D02*
D03*
X9549997Y4899999D02*
D03*
X9399997Y3999999D02*
D03*
X9549997Y3699999D02*
D03*
X9399997Y2799999D02*
D03*
X9099997Y6399998D02*
D03*
X9249997Y4899999D02*
D03*
Y3699999D02*
D03*
X8949997Y7299998D02*
D03*
X8799997Y6999998D02*
D03*
Y6399998D02*
D03*
Y5199998D02*
D03*
X8949997Y4899999D02*
D03*
X8799997Y4599999D02*
D03*
X8649997Y7299998D02*
D03*
X8499997Y6999998D02*
D03*
Y6399998D02*
D03*
Y5199998D02*
D03*
X8649997Y4899999D02*
D03*
X8499997Y4599999D02*
D03*
Y3999999D02*
D03*
Y2799999D02*
D03*
X8349998Y7299998D02*
D03*
X8199998Y6999998D02*
D03*
Y6399998D02*
D03*
Y5199998D02*
D03*
X8349998Y4899999D02*
D03*
X8199998Y4599999D02*
D03*
Y3999999D02*
D03*
Y2799999D02*
D03*
X7899998Y6999998D02*
D03*
X8049998Y5499998D02*
D03*
X7899998Y5199998D02*
D03*
X8049998Y4899999D02*
D03*
X7899998Y4599999D02*
D03*
Y3999999D02*
D03*
Y3399999D02*
D03*
Y2799999D02*
D03*
X7599998Y6999998D02*
D03*
X7749998Y5499998D02*
D03*
X7599998Y5199998D02*
D03*
Y4599999D02*
D03*
Y3399999D02*
D03*
Y2799999D02*
D03*
X7299998Y6999998D02*
D03*
Y6399998D02*
D03*
X7449998Y6099998D02*
D03*
Y5499998D02*
D03*
X7299998Y5199998D02*
D03*
X7449998Y4899999D02*
D03*
X7299998Y4599999D02*
D03*
Y3999999D02*
D03*
Y3399999D02*
D03*
Y2799999D02*
D03*
X6999998Y6999998D02*
D03*
Y6399998D02*
D03*
Y3999999D02*
D03*
Y3399999D02*
D03*
Y2799999D02*
D03*
X6849998Y7299998D02*
D03*
Y6699998D02*
D03*
X6699998Y6399998D02*
D03*
Y5799998D02*
D03*
Y3999999D02*
D03*
X6849998Y3699999D02*
D03*
X6699998Y3399999D02*
D03*
X6849998Y3099999D02*
D03*
X6699998Y2799999D02*
D03*
X6399998Y6999998D02*
D03*
X6549998Y6699998D02*
D03*
X6399998Y6399998D02*
D03*
Y5199998D02*
D03*
Y3999999D02*
D03*
X6549998Y3699999D02*
D03*
X6399998Y3399999D02*
D03*
Y2799999D02*
D03*
X6249998Y7299998D02*
D03*
X6099998Y6999998D02*
D03*
X6249998Y6699998D02*
D03*
X6099998Y6399998D02*
D03*
X6249998Y6099998D02*
D03*
X6099998Y5799998D02*
D03*
Y5199998D02*
D03*
X6249998Y4899999D02*
D03*
X6099998Y4599999D02*
D03*
X6249998Y4299999D02*
D03*
X6099998Y3999999D02*
D03*
X6249998Y3699999D02*
D03*
X6099998Y3399999D02*
D03*
X6249998Y3099999D02*
D03*
X6099998Y2799999D02*
D03*
X5949998Y7299998D02*
D03*
X5799998Y6999998D02*
D03*
X5949998Y6699998D02*
D03*
X5799998Y6399998D02*
D03*
X5949998Y6099998D02*
D03*
X5799998Y5799998D02*
D03*
X5949998Y5499998D02*
D03*
X5799998Y5199998D02*
D03*
X5949998Y4899999D02*
D03*
X5799998Y4599999D02*
D03*
X5949998Y4299999D02*
D03*
X5799998Y3999999D02*
D03*
X5949998Y3699999D02*
D03*
X5799998Y3399999D02*
D03*
X5949998Y3099999D02*
D03*
X5799998Y2799999D02*
D03*
X7472203Y6296624D02*
D03*
X6902204Y6086624D02*
D03*
X9670000Y6090000D02*
D03*
X9742204Y5346624D02*
D03*
X9790963Y6352684D02*
D03*
X9880000Y6040000D02*
D03*
X9932204Y5926624D02*
D03*
X8431860Y5499848D02*
D03*
X13080000Y4217300D02*
D03*
X13083807Y4057883D02*
D03*
X9410000Y7040000D02*
D03*
X11080000Y2870000D02*
D03*
X10776223Y4011643D02*
D03*
X9310000Y4430000D02*
D03*
X10110000Y4810000D02*
D03*
X13668077Y5956353D02*
D03*
X13516223Y5321643D02*
D03*
X10106223Y3851643D02*
D03*
X9596223Y3301643D02*
D03*
X12436223Y5931643D02*
D03*
X8650000Y5757460D02*
D03*
Y5820160D02*
D03*
X8090000Y5770000D02*
D03*
X9680000Y5670000D02*
D03*
X11476223Y6081643D02*
D03*
X11776223Y5601643D02*
D03*
X10866223Y5611643D02*
D03*
X11280000Y7180000D02*
D03*
X11096223Y7291643D02*
D03*
X7850000Y6600000D02*
D03*
X7825642Y6036936D02*
D03*
X6790000Y5780000D02*
D03*
X7306223Y4291643D02*
D03*
X8800000Y3700000D02*
D03*
X13086475Y4292131D02*
D03*
X13080000Y4141643D02*
D03*
X7290000Y5780000D02*
D03*
X6250000Y5650000D02*
D03*
X7036775Y6343703D02*
D03*
X13080000Y2950000D02*
D03*
Y3031643D02*
D03*
Y3191643D02*
D03*
Y3111643D02*
D03*
X8550000Y3470000D02*
D03*
X9530000Y5840000D02*
D03*
X9680000Y5750000D02*
D03*
X9390000Y7350000D02*
D03*
X9500411Y7329675D02*
D03*
X9655057Y7305343D02*
D03*
X9575664Y7368502D02*
D03*
X8220000Y5570000D02*
D03*
X8180000Y5620000D02*
D03*
X8709368Y5864951D02*
D03*
X8180000Y5920000D02*
D03*
X8460000Y6050000D02*
D03*
X8290031Y6050360D02*
D03*
X8380000Y6050000D02*
D03*
X9750000Y7370000D02*
D03*
X10049368D02*
D03*
X10249768Y7360400D02*
D03*
X9931996Y7314947D02*
D03*
X10222869Y7045274D02*
D03*
X10299362Y7040638D02*
D03*
X10410000Y7042315D02*
D03*
X10410400Y6870000D02*
D03*
X10680168Y6590000D02*
D03*
X9990000Y5720000D02*
D03*
X14520000Y5560000D02*
D03*
X9795638Y6994362D02*
D03*
X9872303Y6994874D02*
D03*
X9690400Y6889124D02*
D03*
X9814362Y6893562D02*
D03*
X9687775Y7029051D02*
D03*
X10222204Y5656624D02*
D03*
X10220000Y6360000D02*
D03*
X9640000D02*
D03*
X9690400Y6420000D02*
D03*
X8369368Y5504951D02*
D03*
X9790000Y6470400D02*
D03*
X9800400Y7310000D02*
D03*
X10349368Y7370000D02*
D03*
X10399768Y7310000D02*
D03*
X9999368Y5184951D02*
D03*
X9419368D02*
D03*
X9417500Y6030000D02*
D03*
X9980000Y6430000D02*
D03*
X10750000Y6040000D02*
D03*
X11140000Y5670000D02*
D03*
X9418515Y5323230D02*
D03*
X14345349Y5343309D02*
D03*
X8400000Y3900000D02*
D03*
%TF.MD5,2a81d577ca137e26a9f283115c3ce9cf*%
M02*
