%TF.GenerationSoftware,Altium Limited,Altium Designer,22.2.1 (43)*%
G04 Layer_Color=8421504*
%FSLAX45Y45*%
%MOMM*%
%TF.SameCoordinates,3546A09D-0AB3-465C-A5BE-671B47EBA127*%
%TF.FilePolarity,Positive*%
%TF.FileFunction,Paste,Top*%
%TF.Part,Single*%
G01*
G75*
%TA.AperFunction,SMDPad,CuDef*%
%ADD12R,2.33000X1.99000*%
%ADD13R,0.50000X1.20000*%
%ADD14R,0.50000X1.60000*%
G04:AMPARAMS|DCode=15|XSize=1.8mm|YSize=3mm|CornerRadius=0mm|HoleSize=0mm|Usage=FLASHONLY|Rotation=180.000|XOffset=0mm|YOffset=0mm|HoleType=Round|Shape=Octagon|*
%AMOCTAGOND15*
4,1,8,0.45000,-1.50000,-0.45000,-1.50000,-0.90000,-1.05000,-0.90000,1.05000,-0.45000,1.50000,0.45000,1.50000,0.90000,1.05000,0.90000,-1.05000,0.45000,-1.50000,0.0*
%
%ADD15OCTAGOND15*%

%ADD16R,0.35000X0.65000*%
%ADD17R,2.13000X1.42000*%
%ADD18R,0.60000X1.40000*%
%ADD19R,0.60000X1.80000*%
G04:AMPARAMS|DCode=20|XSize=1.9mm|YSize=3.2mm|CornerRadius=0mm|HoleSize=0mm|Usage=FLASHONLY|Rotation=180.000|XOffset=0mm|YOffset=0mm|HoleType=Round|Shape=Octagon|*
%AMOCTAGOND20*
4,1,8,0.47500,-1.60000,-0.47500,-1.60000,-0.95000,-1.12500,-0.95000,1.12500,-0.47500,1.60000,0.47500,1.60000,0.95000,1.12500,0.95000,-1.12500,0.47500,-1.60000,0.0*
%
%ADD20OCTAGOND20*%

%ADD21R,2.20000X2.15000*%
G04:AMPARAMS|DCode=22|XSize=0.55mm|YSize=0.8mm|CornerRadius=0.0495mm|HoleSize=0mm|Usage=FLASHONLY|Rotation=270.000|XOffset=0mm|YOffset=0mm|HoleType=Round|Shape=RoundedRectangle|*
%AMROUNDEDRECTD22*
21,1,0.55000,0.70100,0,0,270.0*
21,1,0.45100,0.80000,0,0,270.0*
1,1,0.09900,-0.35050,-0.22550*
1,1,0.09900,-0.35050,0.22550*
1,1,0.09900,0.35050,0.22550*
1,1,0.09900,0.35050,-0.22550*
%
%ADD22ROUNDEDRECTD22*%
%ADD23R,0.90000X1.05000*%
%ADD24R,1.05000X0.90000*%
%ADD25R,0.95000X1.35000*%
%ADD26R,2.10000X3.20000*%
%ADD27R,2.10000X0.90000*%
%ADD28R,1.35000X0.95000*%
%ADD29O,2.50000X0.70000*%
%ADD30R,1.20000X1.45000*%
%ADD31R,1.30000X1.60000*%
%ADD32R,2.00000X1.60000*%
G04:AMPARAMS|DCode=33|XSize=0.65mm|YSize=1.65mm|CornerRadius=0.04875mm|HoleSize=0mm|Usage=FLASHONLY|Rotation=90.000|XOffset=0mm|YOffset=0mm|HoleType=Round|Shape=RoundedRectangle|*
%AMROUNDEDRECTD33*
21,1,0.65000,1.55250,0,0,90.0*
21,1,0.55250,1.65000,0,0,90.0*
1,1,0.09750,0.77625,0.27625*
1,1,0.09750,0.77625,-0.27625*
1,1,0.09750,-0.77625,-0.27625*
1,1,0.09750,-0.77625,0.27625*
%
%ADD33ROUNDEDRECTD33*%
G04:AMPARAMS|DCode=34|XSize=1.87407mm|YSize=0.54213mm|CornerRadius=0.27107mm|HoleSize=0mm|Usage=FLASHONLY|Rotation=90.000|XOffset=0mm|YOffset=0mm|HoleType=Round|Shape=RoundedRectangle|*
%AMROUNDEDRECTD34*
21,1,1.87407,0.00000,0,0,90.0*
21,1,1.33193,0.54213,0,0,90.0*
1,1,0.54213,0.00000,0.66597*
1,1,0.54213,0.00000,-0.66597*
1,1,0.54213,0.00000,-0.66597*
1,1,0.54213,0.00000,0.66597*
%
%ADD34ROUNDEDRECTD34*%
%ADD35R,0.54213X1.87407*%
G04:AMPARAMS|DCode=36|XSize=1.45mm|YSize=3.5mm|CornerRadius=0mm|HoleSize=0mm|Usage=FLASHONLY|Rotation=45.000|XOffset=0mm|YOffset=0mm|HoleType=Round|Shape=Rectangle|*
%AMROTATEDRECTD36*
4,1,4,0.72479,-1.75009,-1.75009,0.72479,-0.72479,1.75009,1.75009,-0.72479,0.72479,-1.75009,0.0*
%
%ADD36ROTATEDRECTD36*%

%ADD37R,0.30000X1.40000*%
%ADD38R,1.42000X2.13000*%
%ADD39R,0.65000X0.35000*%
G04:AMPARAMS|DCode=40|XSize=0.65mm|YSize=1.65mm|CornerRadius=0.04875mm|HoleSize=0mm|Usage=FLASHONLY|Rotation=180.000|XOffset=0mm|YOffset=0mm|HoleType=Round|Shape=RoundedRectangle|*
%AMROUNDEDRECTD40*
21,1,0.65000,1.55250,0,0,180.0*
21,1,0.55250,1.65000,0,0,180.0*
1,1,0.09750,-0.27625,0.77625*
1,1,0.09750,0.27625,0.77625*
1,1,0.09750,0.27625,-0.77625*
1,1,0.09750,-0.27625,-0.77625*
%
%ADD40ROUNDEDRECTD40*%
%ADD41R,1.45000X1.20000*%
%ADD42R,0.48000X0.40000*%
%ADD43R,1.22000X0.91000*%
%ADD44R,2.46916X0.62213*%
G04:AMPARAMS|DCode=45|XSize=2.46916mm|YSize=0.62213mm|CornerRadius=0.31107mm|HoleSize=0mm|Usage=FLASHONLY|Rotation=0.000|XOffset=0mm|YOffset=0mm|HoleType=Round|Shape=RoundedRectangle|*
%AMROUNDEDRECTD45*
21,1,2.46916,0.00000,0,0,0.0*
21,1,1.84702,0.62213,0,0,0.0*
1,1,0.62213,0.92351,0.00000*
1,1,0.62213,-0.92351,0.00000*
1,1,0.62213,-0.92351,0.00000*
1,1,0.62213,0.92351,0.00000*
%
%ADD45ROUNDEDRECTD45*%
%ADD46R,0.80000X0.90000*%
G04:AMPARAMS|DCode=47|XSize=1.5mm|YSize=0.45mm|CornerRadius=0.0495mm|HoleSize=0mm|Usage=FLASHONLY|Rotation=180.000|XOffset=0mm|YOffset=0mm|HoleType=Round|Shape=RoundedRectangle|*
%AMROUNDEDRECTD47*
21,1,1.50000,0.35100,0,0,180.0*
21,1,1.40100,0.45000,0,0,180.0*
1,1,0.09900,-0.70050,0.17550*
1,1,0.09900,0.70050,0.17550*
1,1,0.09900,0.70050,-0.17550*
1,1,0.09900,-0.70050,-0.17550*
%
%ADD47ROUNDEDRECTD47*%
%ADD48R,1.00000X1.50000*%
%ADD49R,0.60000X1.30000*%
G04:AMPARAMS|DCode=50|XSize=1.45mm|YSize=1.2mm|CornerRadius=0mm|HoleSize=0mm|Usage=FLASHONLY|Rotation=225.000|XOffset=0mm|YOffset=0mm|HoleType=Round|Shape=Rectangle|*
%AMROTATEDRECTD50*
4,1,4,0.08839,0.93692,0.93692,0.08839,-0.08839,-0.93692,-0.93692,-0.08839,0.08839,0.93692,0.0*
%
%ADD50ROTATEDRECTD50*%

%ADD51R,2.60000X2.60000*%
%ADD52R,0.30000X0.85000*%
%ADD53R,0.85000X0.30000*%
%ADD54R,0.90000X0.80000*%
%ADD55R,1.52500X0.65000*%
%ADD56R,0.95000X1.70000*%
D12*
X14959999Y3672001D02*
D03*
X14960001Y3070000D02*
D03*
X14959999Y3919000D02*
D03*
X14959999Y4521001D02*
D03*
D13*
X14109999Y3050000D02*
D03*
X14410001D02*
D03*
X13611502Y4513491D02*
D03*
X13911502D02*
D03*
X14114790Y4506393D02*
D03*
X14414790Y4506393D02*
D03*
D14*
X14260001Y3070000D02*
D03*
X13761502Y4493490D02*
D03*
X14264790Y4486393D02*
D03*
D15*
X14260001Y3300000D02*
D03*
X13761502Y4263490D02*
D03*
X14264790Y4256393D02*
D03*
D16*
X13212500Y2950000D02*
D03*
X13127499D02*
D03*
X13212500Y3030000D02*
D03*
X13127499D02*
D03*
X13212500Y3110000D02*
D03*
X13127499D02*
D03*
X13212500Y3190000D02*
D03*
X13127499D02*
D03*
X13222501Y4060000D02*
D03*
X13137500D02*
D03*
X13218694Y4138205D02*
D03*
X13133693D02*
D03*
X13222501Y4220000D02*
D03*
X13137500D02*
D03*
X13225168Y4299225D02*
D03*
X13140169D02*
D03*
X10629768Y5917849D02*
D03*
X10714769D02*
D03*
D17*
X13410001Y2760000D02*
D03*
Y3029999D02*
D03*
D18*
X13614030Y3035584D02*
D03*
X13914030Y3035583D02*
D03*
D19*
X13764030Y3055583D02*
D03*
D20*
X13764030Y3305583D02*
D03*
D21*
X13522501Y3600000D02*
D03*
X13977499Y3600000D02*
D03*
Y3950000D02*
D03*
X13522501Y3950000D02*
D03*
D22*
X10461716Y3576619D02*
D03*
Y3766620D02*
D03*
X10716716Y3766619D02*
D03*
Y3671619D02*
D03*
X10716716Y3576619D02*
D03*
D23*
X10272500Y3580000D02*
D03*
X10127500D02*
D03*
X10269912Y3103835D02*
D03*
X10124911D02*
D03*
X10822500Y2870000D02*
D03*
X10677500Y2870000D02*
D03*
X11322432Y6582219D02*
D03*
X11177432D02*
D03*
X10767500Y6590000D02*
D03*
X10912500D02*
D03*
X14111760Y5402260D02*
D03*
X13966760D02*
D03*
X14349361D02*
D03*
X14204359D02*
D03*
X12990460Y5681660D02*
D03*
X12845461D02*
D03*
X12990460Y5935660D02*
D03*
X12845461D02*
D03*
X12990460Y5808660D02*
D03*
X12845461D02*
D03*
X11838460Y5326060D02*
D03*
X11693460D02*
D03*
X12079760D02*
D03*
X11934760D02*
D03*
X11388660Y5529260D02*
D03*
X11533660D02*
D03*
X11139960D02*
D03*
X11284960D02*
D03*
X10435000Y5470000D02*
D03*
X10290000D02*
D03*
X10435000Y5310000D02*
D03*
X10290000D02*
D03*
X10432500Y6180000D02*
D03*
X10287500D02*
D03*
X10433112Y6015913D02*
D03*
X10288113D02*
D03*
X10287500Y6680000D02*
D03*
X10432500D02*
D03*
X9162460Y6938960D02*
D03*
X9307460D02*
D03*
X9891660Y6596060D02*
D03*
X9746660D02*
D03*
X10431616Y6542081D02*
D03*
X10286616D02*
D03*
X9759360Y5884860D02*
D03*
X9904360D02*
D03*
D24*
X10838680Y3817865D02*
D03*
Y3672866D02*
D03*
X10711716Y4021620D02*
D03*
Y3876619D02*
D03*
X9435000Y4914800D02*
D03*
Y5059800D02*
D03*
X9993800Y4918500D02*
D03*
Y5063500D02*
D03*
X11432060Y6307660D02*
D03*
Y6452660D02*
D03*
D25*
X10845000Y4000000D02*
D03*
X10995000Y4000000D02*
D03*
X10122858Y3324338D02*
D03*
X10272858D02*
D03*
X14155000Y3610000D02*
D03*
X14305000D02*
D03*
X8040268Y6038868D02*
D03*
X7890268D02*
D03*
X10955000Y7180000D02*
D03*
X10805000D02*
D03*
X11495000D02*
D03*
X11345000D02*
D03*
X13675000Y5400000D02*
D03*
X13825000D02*
D03*
X8945000Y3600000D02*
D03*
X8795000D02*
D03*
X11665186Y6158475D02*
D03*
X11515186D02*
D03*
X13545000Y5550000D02*
D03*
X13395000D02*
D03*
X11810000Y5520000D02*
D03*
X11660000D02*
D03*
D26*
X11054499Y3100064D02*
D03*
D27*
X10484499Y2870064D02*
D03*
Y3100064D02*
D03*
Y3330064D02*
D03*
D28*
X7726783Y6871347D02*
D03*
Y6721346D02*
D03*
X6970000Y6260000D02*
D03*
Y6110000D02*
D03*
X10431716Y3881619D02*
D03*
X10431716Y4031620D02*
D03*
X12470000Y6070000D02*
D03*
Y6220000D02*
D03*
X7240000Y5530000D02*
D03*
Y5380000D02*
D03*
X8150000Y4230000D02*
D03*
Y4380000D02*
D03*
X10870000Y5555000D02*
D03*
Y5405000D02*
D03*
D29*
X7199260Y6037260D02*
D03*
Y5910260D02*
D03*
Y5783260D02*
D03*
Y5656260D02*
D03*
X7689260Y6037260D02*
D03*
Y5910260D02*
D03*
Y5783260D02*
D03*
Y5656260D02*
D03*
D30*
X7202361Y4294198D02*
D03*
X7002361D02*
D03*
X7200000Y5130000D02*
D03*
X7000000D02*
D03*
X8396760Y4360860D02*
D03*
X8596760D02*
D03*
D31*
X9335400Y3855400D02*
D03*
X9585400D02*
D03*
X9860000Y3850000D02*
D03*
X10110000D02*
D03*
D32*
X9460400Y4145400D02*
D03*
X9985000Y4140000D02*
D03*
D33*
X9996900Y4432200D02*
D03*
Y4559200D02*
D03*
Y4686200D02*
D03*
Y4813200D02*
D03*
X9431900Y4432200D02*
D03*
Y4559200D02*
D03*
Y4686200D02*
D03*
Y4813200D02*
D03*
X7161760Y6596060D02*
D03*
Y6469060D02*
D03*
Y6342060D02*
D03*
Y6215060D02*
D03*
X7726760Y6596060D02*
D03*
Y6469060D02*
D03*
Y6342060D02*
D03*
Y6215060D02*
D03*
X12292500Y5659500D02*
D03*
Y5786500D02*
D03*
Y5913500D02*
D03*
Y6040500D02*
D03*
X11727500Y5659500D02*
D03*
Y5786500D02*
D03*
Y5913500D02*
D03*
Y6040500D02*
D03*
X11432053Y5660351D02*
D03*
Y5787351D02*
D03*
Y5914351D02*
D03*
Y6041351D02*
D03*
X10867053Y5660351D02*
D03*
Y5787351D02*
D03*
Y5914351D02*
D03*
Y6041351D02*
D03*
D34*
X6429500Y4941607D02*
D03*
X6556500D02*
D03*
X6683500D02*
D03*
X6810500D02*
D03*
Y4478393D02*
D03*
X6683500D02*
D03*
X6556500D02*
D03*
D35*
X6429500D02*
D03*
D36*
X4602642Y5250768D02*
D03*
X5041048Y5689174D02*
D03*
X4087466Y5284867D02*
D03*
X4525872Y5723273D02*
D03*
X5117818Y5216668D02*
D03*
X5556224Y5655074D02*
D03*
X5632994Y5182569D02*
D03*
X6071400Y5620975D02*
D03*
X4010697Y5757372D02*
D03*
X3572291Y5318966D02*
D03*
D37*
X11050000Y6740000D02*
D03*
X11100000D02*
D03*
X11150000D02*
D03*
X11200000D02*
D03*
X11250000D02*
D03*
Y7180000D02*
D03*
X11200000D02*
D03*
X11150000D02*
D03*
X11100000D02*
D03*
X11050000D02*
D03*
D38*
X13185709Y4512422D02*
D03*
X13455708Y4512421D02*
D03*
D39*
X9140000Y5142500D02*
D03*
Y5057500D02*
D03*
X8960000D02*
D03*
Y5142500D02*
D03*
D40*
X8674000Y4185000D02*
D03*
X8547000D02*
D03*
X8420000D02*
D03*
X8293000D02*
D03*
X8674000Y3620000D02*
D03*
X8547000D02*
D03*
X8420000D02*
D03*
X8293000D02*
D03*
D41*
X8168160Y3598860D02*
D03*
Y3398860D02*
D03*
X8841260Y4156060D02*
D03*
Y3956060D02*
D03*
X8420000Y3170000D02*
D03*
Y3370000D02*
D03*
D42*
X13709042Y5275379D02*
D03*
X13841043D02*
D03*
X13516049Y5274704D02*
D03*
X13648048D02*
D03*
X13835204Y6330886D02*
D03*
X13703204D02*
D03*
X13647934Y6330872D02*
D03*
X13515935D02*
D03*
X12068217Y5523108D02*
D03*
X11936217D02*
D03*
X11937560Y5440360D02*
D03*
X12069560D02*
D03*
D43*
X13514861Y6226160D02*
D03*
Y5899160D02*
D03*
Y5718160D02*
D03*
Y5391160D02*
D03*
D44*
X13857700Y5935660D02*
D03*
D45*
Y5808660D02*
D03*
Y5681660D02*
D03*
Y5554660D02*
D03*
X14340421D02*
D03*
Y5681660D02*
D03*
Y5808660D02*
D03*
Y5935660D02*
D03*
D46*
X13248160Y6011860D02*
D03*
X13343159Y5811860D02*
D03*
X13153160D02*
D03*
X12600460Y6010260D02*
D03*
X12695459Y5810260D02*
D03*
X12505460D02*
D03*
D47*
X10110303Y6741202D02*
D03*
Y6806202D02*
D03*
Y6871202D02*
D03*
Y6936202D02*
D03*
Y7001202D02*
D03*
Y7066202D02*
D03*
Y7131202D02*
D03*
Y7196202D02*
D03*
X9530303D02*
D03*
Y7131202D02*
D03*
Y7066202D02*
D03*
Y7001202D02*
D03*
Y6936202D02*
D03*
Y6871202D02*
D03*
Y6806202D02*
D03*
Y6741202D02*
D03*
X10110303Y5327269D02*
D03*
Y5392269D02*
D03*
Y5457269D02*
D03*
Y5522269D02*
D03*
Y5587269D02*
D03*
Y5652269D02*
D03*
Y5717269D02*
D03*
Y5782269D02*
D03*
X9530303D02*
D03*
Y5717269D02*
D03*
Y5652269D02*
D03*
Y5587269D02*
D03*
Y5522269D02*
D03*
Y5457269D02*
D03*
Y5392269D02*
D03*
Y5327269D02*
D03*
X10110303Y6034235D02*
D03*
Y6099235D02*
D03*
Y6164235D02*
D03*
Y6229235D02*
D03*
Y6294235D02*
D03*
Y6359235D02*
D03*
Y6424235D02*
D03*
Y6489235D02*
D03*
X9530303D02*
D03*
Y6424235D02*
D03*
Y6359235D02*
D03*
Y6294235D02*
D03*
Y6229235D02*
D03*
Y6164235D02*
D03*
Y6099235D02*
D03*
Y6034235D02*
D03*
D48*
X9277515Y5261438D02*
D03*
X8957515D02*
D03*
X9280613Y5599093D02*
D03*
X8960613D02*
D03*
X9281173Y5764910D02*
D03*
X8961173D02*
D03*
X9281803Y5965402D02*
D03*
X8961803D02*
D03*
X9281803Y6155902D02*
D03*
X8961803D02*
D03*
X9281803Y6346402D02*
D03*
X8961803D02*
D03*
X9281803Y6727402D02*
D03*
X8961803D02*
D03*
X9281803Y6536902D02*
D03*
X8961803D02*
D03*
X9282677Y5430782D02*
D03*
X8962677D02*
D03*
D49*
X6735000Y5385000D02*
D03*
X6545000D02*
D03*
X6640000Y5215000D02*
D03*
D50*
X7670711Y3829289D02*
D03*
X7529289Y3970711D02*
D03*
D51*
X8371360Y5770560D02*
D03*
D52*
X8271360Y5965560D02*
D03*
X8321360D02*
D03*
X8371360D02*
D03*
X8421360D02*
D03*
X8471360D02*
D03*
Y5575560D02*
D03*
X8421360D02*
D03*
X8371360D02*
D03*
X8321360D02*
D03*
X8271360D02*
D03*
D53*
X8566360Y5870560D02*
D03*
Y5820560D02*
D03*
Y5770560D02*
D03*
Y5720560D02*
D03*
Y5670560D02*
D03*
X8176360D02*
D03*
Y5720560D02*
D03*
Y5770560D02*
D03*
Y5820560D02*
D03*
Y5870560D02*
D03*
D54*
X6531460Y6260368D02*
D03*
Y6070368D02*
D03*
X6731460Y6165368D02*
D03*
D55*
X6902660Y5911368D02*
D03*
Y5784368D02*
D03*
Y5657368D02*
D03*
Y5530368D02*
D03*
X6360260D02*
D03*
Y5657368D02*
D03*
Y5784368D02*
D03*
Y5911368D02*
D03*
D56*
X10999960Y6227760D02*
D03*
X11279960D02*
D03*
%TF.MD5,b7c220698e281a2753ae2f384e2f6e1a*%
M02*
