%TF.GenerationSoftware,Altium Limited,Altium Designer,22.2.1 (43)*%
G04 Layer_Color=8388736*
%FSLAX45Y45*%
%MOMM*%
%TF.SameCoordinates,3546A09D-0AB3-465C-A5BE-671B47EBA127*%
%TF.FilePolarity,Negative*%
%TF.FileFunction,Soldermask,Top*%
%TF.Part,Single*%
G01*
G75*
%TA.AperFunction,NonConductor*%
%ADD11C,0.25400*%
%TA.AperFunction,SMDPad,CuDef*%
%ADD12R,2.33000X1.99000*%
%ADD16R,0.35000X0.65000*%
%ADD17R,2.13000X1.42000*%
%ADD25R,0.95000X1.35000*%
%ADD28R,1.35000X0.95000*%
%ADD31R,1.30000X1.60000*%
%ADD32R,2.00000X1.60000*%
G04:AMPARAMS|DCode=34|XSize=1.87407mm|YSize=0.54213mm|CornerRadius=0.27107mm|HoleSize=0mm|Usage=FLASHONLY|Rotation=90.000|XOffset=0mm|YOffset=0mm|HoleType=Round|Shape=RoundedRectangle|*
%AMROUNDEDRECTD34*
21,1,1.87407,0.00000,0,0,90.0*
21,1,1.33193,0.54213,0,0,90.0*
1,1,0.54213,0.00000,0.66597*
1,1,0.54213,0.00000,-0.66597*
1,1,0.54213,0.00000,-0.66597*
1,1,0.54213,0.00000,0.66597*
%
%ADD34ROUNDEDRECTD34*%
%ADD35R,0.54213X1.87407*%
G04:AMPARAMS|DCode=36|XSize=1.45mm|YSize=3.5mm|CornerRadius=0mm|HoleSize=0mm|Usage=FLASHONLY|Rotation=45.000|XOffset=0mm|YOffset=0mm|HoleType=Round|Shape=Rectangle|*
%AMROTATEDRECTD36*
4,1,4,0.72479,-1.75009,-1.75009,0.72479,-0.72479,1.75009,1.75009,-0.72479,0.72479,-1.75009,0.0*
%
%ADD36ROTATEDRECTD36*%

%ADD38R,1.42000X2.13000*%
%ADD39R,0.65000X0.35000*%
%ADD44R,2.46916X0.62213*%
G04:AMPARAMS|DCode=45|XSize=2.46916mm|YSize=0.62213mm|CornerRadius=0.31107mm|HoleSize=0mm|Usage=FLASHONLY|Rotation=0.000|XOffset=0mm|YOffset=0mm|HoleType=Round|Shape=RoundedRectangle|*
%AMROUNDEDRECTD45*
21,1,2.46916,0.00000,0,0,0.0*
21,1,1.84702,0.62213,0,0,0.0*
1,1,0.62213,0.92351,0.00000*
1,1,0.62213,-0.92351,0.00000*
1,1,0.62213,-0.92351,0.00000*
1,1,0.62213,0.92351,0.00000*
%
%ADD45ROUNDEDRECTD45*%
G04:AMPARAMS|DCode=47|XSize=1.5mm|YSize=0.45mm|CornerRadius=0.0495mm|HoleSize=0mm|Usage=FLASHONLY|Rotation=180.000|XOffset=0mm|YOffset=0mm|HoleType=Round|Shape=RoundedRectangle|*
%AMROUNDEDRECTD47*
21,1,1.50000,0.35100,0,0,180.0*
21,1,1.40100,0.45000,0,0,180.0*
1,1,0.09900,-0.70050,0.17550*
1,1,0.09900,0.70050,0.17550*
1,1,0.09900,0.70050,-0.17550*
1,1,0.09900,-0.70050,-0.17550*
%
%ADD47ROUNDEDRECTD47*%
%ADD48R,1.00000X1.50000*%
%ADD56R,0.95000X1.70000*%
%TA.AperFunction,ComponentPad*%
%ADD64R,1.30000X1.30000*%
%ADD65C,1.30000*%
%TA.AperFunction,SMDPad,CuDef*%
%ADD76R,1.40320X1.65320*%
%TA.AperFunction,ComponentPad*%
%ADD77R,1.70320X1.70320*%
%ADD78C,0.75311*%
%ADD79C,2.40309*%
%ADD80C,1.52400*%
%TA.AperFunction,ViaPad*%
%ADD81C,0.70320*%
%TA.AperFunction,SMDPad,CuDef*%
%ADD87R,0.70320X1.40320*%
%ADD88R,0.70320X1.80320*%
G04:AMPARAMS|DCode=89|XSize=2.0032mm|YSize=3.2032mm|CornerRadius=0mm|HoleSize=0mm|Usage=FLASHONLY|Rotation=180.000|XOffset=0mm|YOffset=0mm|HoleType=Round|Shape=Octagon|*
%AMOCTAGOND89*
4,1,8,0.50080,-1.60160,-0.50080,-1.60160,-1.00160,-1.10080,-1.00160,1.10080,-0.50080,1.60160,0.50080,1.60160,1.00160,1.10080,1.00160,-1.10080,0.50080,-1.60160,0.0*
%
%ADD89OCTAGOND89*%

%ADD90R,0.80320X1.60320*%
%ADD91R,0.80320X2.00320*%
G04:AMPARAMS|DCode=92|XSize=2.1032mm|YSize=3.4032mm|CornerRadius=0mm|HoleSize=0mm|Usage=FLASHONLY|Rotation=180.000|XOffset=0mm|YOffset=0mm|HoleType=Round|Shape=Octagon|*
%AMOCTAGOND92*
4,1,8,0.52580,-1.70160,-0.52580,-1.70160,-1.05160,-1.17580,-1.05160,1.17580,-0.52580,1.70160,0.52580,1.70160,1.05160,1.17580,1.05160,-1.17580,0.52580,-1.70160,0.0*
%
%ADD92OCTAGOND92*%

%ADD93R,2.40320X2.35320*%
G04:AMPARAMS|DCode=94|XSize=0.7532mm|YSize=1.0032mm|CornerRadius=0.1511mm|HoleSize=0mm|Usage=FLASHONLY|Rotation=270.000|XOffset=0mm|YOffset=0mm|HoleType=Round|Shape=RoundedRectangle|*
%AMROUNDEDRECTD94*
21,1,0.75320,0.70100,0,0,270.0*
21,1,0.45100,1.00320,0,0,270.0*
1,1,0.30220,-0.35050,-0.22550*
1,1,0.30220,-0.35050,0.22550*
1,1,0.30220,0.35050,0.22550*
1,1,0.30220,0.35050,-0.22550*
%
%ADD94ROUNDEDRECTD94*%
%ADD95R,1.10320X1.25320*%
%ADD96R,1.25320X1.10320*%
%ADD97R,2.30320X3.40320*%
%ADD98R,2.30320X1.10320*%
%ADD99O,2.70320X0.90320*%
G04:AMPARAMS|DCode=100|XSize=0.8532mm|YSize=1.8532mm|CornerRadius=0.15035mm|HoleSize=0mm|Usage=FLASHONLY|Rotation=90.000|XOffset=0mm|YOffset=0mm|HoleType=Round|Shape=RoundedRectangle|*
%AMROUNDEDRECTD100*
21,1,0.85320,1.55250,0,0,90.0*
21,1,0.55250,1.85320,0,0,90.0*
1,1,0.30070,0.77625,0.27625*
1,1,0.30070,0.77625,-0.27625*
1,1,0.30070,-0.77625,-0.27625*
1,1,0.30070,-0.77625,0.27625*
%
%ADD100ROUNDEDRECTD100*%
%ADD101R,0.50320X1.60320*%
G04:AMPARAMS|DCode=102|XSize=0.8532mm|YSize=1.8532mm|CornerRadius=0.15035mm|HoleSize=0mm|Usage=FLASHONLY|Rotation=180.000|XOffset=0mm|YOffset=0mm|HoleType=Round|Shape=RoundedRectangle|*
%AMROUNDEDRECTD102*
21,1,0.85320,1.55250,0,0,180.0*
21,1,0.55250,1.85320,0,0,180.0*
1,1,0.30070,-0.27625,0.77625*
1,1,0.30070,0.27625,0.77625*
1,1,0.30070,0.27625,-0.77625*
1,1,0.30070,-0.27625,-0.77625*
%
%ADD102ROUNDEDRECTD102*%
%ADD103R,1.65320X1.40320*%
%ADD104R,0.68320X0.60320*%
%ADD105R,1.42320X1.11320*%
%ADD106R,1.00320X1.10320*%
%ADD107R,0.80320X1.50320*%
G04:AMPARAMS|DCode=108|XSize=1.6532mm|YSize=1.4032mm|CornerRadius=0mm|HoleSize=0mm|Usage=FLASHONLY|Rotation=225.000|XOffset=0mm|YOffset=0mm|HoleType=Round|Shape=Rectangle|*
%AMROTATEDRECTD108*
4,1,4,0.08839,1.08060,1.08060,0.08839,-0.08839,-1.08060,-1.08060,-0.08839,0.08839,1.08060,0.0*
%
%ADD108ROTATEDRECTD108*%

%ADD109R,2.80320X2.80320*%
%ADD110R,0.50320X1.05320*%
%ADD111R,1.05320X0.50320*%
%ADD112R,1.10320X1.00320*%
%ADD113R,1.72820X0.85320*%
D11*
X6800024Y3160008D02*
G03*
X6800024Y3160008I-150012J0D01*
G01*
Y7160000D02*
G03*
X6800024Y7160000I-150012J0D01*
G01*
X12800012D02*
G03*
X12800012Y7160000I-150012J0D01*
G01*
Y3160008D02*
G03*
X12800012Y3160008I-150012J0D01*
G01*
D12*
X14959999Y3672001D02*
D03*
X14960001Y3070000D02*
D03*
X14959999Y3919000D02*
D03*
X14959999Y4521001D02*
D03*
D16*
X13212500Y2950000D02*
D03*
X13127499D02*
D03*
X13212500Y3030000D02*
D03*
X13127499D02*
D03*
X13212500Y3110000D02*
D03*
X13127499D02*
D03*
X13212500Y3190000D02*
D03*
X13127499D02*
D03*
X13222501Y4060000D02*
D03*
X13137500D02*
D03*
X13218694Y4138205D02*
D03*
X13133693D02*
D03*
X13222501Y4220000D02*
D03*
X13137500D02*
D03*
X13225168Y4299225D02*
D03*
X13140169D02*
D03*
X10629768Y5917849D02*
D03*
X10714769D02*
D03*
D17*
X13410001Y2760000D02*
D03*
Y3029999D02*
D03*
D25*
X10845000Y4000000D02*
D03*
X10995000Y4000000D02*
D03*
X10122858Y3324338D02*
D03*
X10272858D02*
D03*
X14155000Y3610000D02*
D03*
X14305000D02*
D03*
X8040268Y6038868D02*
D03*
X7890268D02*
D03*
X10955000Y7180000D02*
D03*
X10805000D02*
D03*
X11495000D02*
D03*
X11345000D02*
D03*
X13675000Y5400000D02*
D03*
X13825000D02*
D03*
X8945000Y3600000D02*
D03*
X8795000D02*
D03*
X11665186Y6158475D02*
D03*
X11515186D02*
D03*
X13545000Y5550000D02*
D03*
X13395000D02*
D03*
X11810000Y5520000D02*
D03*
X11660000D02*
D03*
D28*
X7726783Y6871347D02*
D03*
Y6721346D02*
D03*
X6970000Y6260000D02*
D03*
Y6110000D02*
D03*
X10431716Y3881619D02*
D03*
X10431716Y4031620D02*
D03*
X12470000Y6070000D02*
D03*
Y6220000D02*
D03*
X7240000Y5530000D02*
D03*
Y5380000D02*
D03*
X8150000Y4230000D02*
D03*
Y4380000D02*
D03*
X10870000Y5555000D02*
D03*
Y5405000D02*
D03*
D31*
X9335400Y3855400D02*
D03*
X9585400D02*
D03*
X9860000Y3850000D02*
D03*
X10110000D02*
D03*
D32*
X9460400Y4145400D02*
D03*
X9985000Y4140000D02*
D03*
D34*
X6429500Y4941607D02*
D03*
X6556500D02*
D03*
X6683500D02*
D03*
X6810500D02*
D03*
Y4478393D02*
D03*
X6683500D02*
D03*
X6556500D02*
D03*
D35*
X6429500D02*
D03*
D36*
X4602642Y5250768D02*
D03*
X5041048Y5689174D02*
D03*
X4087466Y5284867D02*
D03*
X4525872Y5723273D02*
D03*
X5117818Y5216668D02*
D03*
X5556224Y5655074D02*
D03*
X5632994Y5182569D02*
D03*
X6071400Y5620975D02*
D03*
X4010697Y5757372D02*
D03*
X3572291Y5318966D02*
D03*
D38*
X13185709Y4512422D02*
D03*
X13455708Y4512421D02*
D03*
D39*
X9140000Y5142500D02*
D03*
Y5057500D02*
D03*
X8960000D02*
D03*
Y5142500D02*
D03*
D44*
X13857700Y5935660D02*
D03*
D45*
Y5808660D02*
D03*
Y5681660D02*
D03*
Y5554660D02*
D03*
X14340421D02*
D03*
Y5681660D02*
D03*
Y5808660D02*
D03*
Y5935660D02*
D03*
D47*
X10110303Y6741202D02*
D03*
Y6806202D02*
D03*
Y6871202D02*
D03*
Y6936202D02*
D03*
Y7001202D02*
D03*
Y7066202D02*
D03*
Y7131202D02*
D03*
Y7196202D02*
D03*
X9530303D02*
D03*
Y7131202D02*
D03*
Y7066202D02*
D03*
Y7001202D02*
D03*
Y6936202D02*
D03*
Y6871202D02*
D03*
Y6806202D02*
D03*
Y6741202D02*
D03*
X10110303Y5327269D02*
D03*
Y5392269D02*
D03*
Y5457269D02*
D03*
Y5522269D02*
D03*
Y5587269D02*
D03*
Y5652269D02*
D03*
Y5717269D02*
D03*
Y5782269D02*
D03*
X9530303D02*
D03*
Y5717269D02*
D03*
Y5652269D02*
D03*
Y5587269D02*
D03*
Y5522269D02*
D03*
Y5457269D02*
D03*
Y5392269D02*
D03*
Y5327269D02*
D03*
X10110303Y6034235D02*
D03*
Y6099235D02*
D03*
Y6164235D02*
D03*
Y6229235D02*
D03*
Y6294235D02*
D03*
Y6359235D02*
D03*
Y6424235D02*
D03*
Y6489235D02*
D03*
X9530303D02*
D03*
Y6424235D02*
D03*
Y6359235D02*
D03*
Y6294235D02*
D03*
Y6229235D02*
D03*
Y6164235D02*
D03*
Y6099235D02*
D03*
Y6034235D02*
D03*
D48*
X9277515Y5261438D02*
D03*
X8957515D02*
D03*
X9280613Y5599093D02*
D03*
X8960613D02*
D03*
X9281173Y5764910D02*
D03*
X8961173D02*
D03*
X9281803Y5965402D02*
D03*
X8961803D02*
D03*
X9281803Y6155902D02*
D03*
X8961803D02*
D03*
X9281803Y6346402D02*
D03*
X8961803D02*
D03*
X9281803Y6727402D02*
D03*
X8961803D02*
D03*
X9281803Y6536902D02*
D03*
X8961803D02*
D03*
X9282677Y5430782D02*
D03*
X8962677D02*
D03*
D56*
X10999960Y6227760D02*
D03*
X11279960D02*
D03*
D64*
X8803160Y3141660D02*
D03*
D65*
X9057160D02*
D03*
X8930160Y3268660D02*
D03*
Y3014660D02*
D03*
D76*
X7202361Y4294198D02*
D03*
X7002361D02*
D03*
X7200000Y5130000D02*
D03*
X7000000D02*
D03*
X8396760Y4360860D02*
D03*
X8596760D02*
D03*
D77*
X15350000Y3070000D02*
D03*
X15330000Y3930000D02*
D03*
Y4520000D02*
D03*
Y3650000D02*
D03*
D78*
X10545001Y7085019D02*
D03*
X9155011D02*
D03*
X8395018D02*
D03*
X7005003D02*
D03*
X10945025Y3485001D02*
D03*
X9555010D02*
D03*
X8395018D02*
D03*
X7005003D02*
D03*
D79*
X6650012Y7160000D02*
D03*
Y3160008D02*
D03*
X12650000D02*
D03*
Y7160000D02*
D03*
D80*
X3341000Y5099000D02*
D03*
X2579000D02*
D03*
Y5861000D02*
D03*
X3341000D02*
D03*
X3087000Y5353000D02*
D03*
X3087000Y5607000D02*
D03*
D81*
X9887660Y7359283D02*
D03*
X9850000Y7480000D02*
D03*
X15549995Y7299998D02*
D03*
X15399995Y6999998D02*
D03*
X15549995Y6699998D02*
D03*
X15399995Y6399998D02*
D03*
X15549995Y6099998D02*
D03*
X15399995Y5799998D02*
D03*
X15549995Y5499998D02*
D03*
X15399995Y5199998D02*
D03*
X15549995Y4899999D02*
D03*
Y4299999D02*
D03*
Y3699999D02*
D03*
X15399995Y3399999D02*
D03*
X15549995Y3099999D02*
D03*
X15399995Y2799999D02*
D03*
X15249995Y7299998D02*
D03*
X15099995Y6999998D02*
D03*
X15249995Y6699998D02*
D03*
X15099995Y6399998D02*
D03*
X15249995Y6099998D02*
D03*
X15099995Y5799998D02*
D03*
X15249995Y5499998D02*
D03*
X15099995Y5199998D02*
D03*
X15249995Y4899999D02*
D03*
Y4299999D02*
D03*
X15099995Y3399999D02*
D03*
Y2799999D02*
D03*
X14949995Y7299998D02*
D03*
X14799995Y6999998D02*
D03*
X14949995Y6699998D02*
D03*
X14799995Y6399998D02*
D03*
X14949995Y6099998D02*
D03*
X14799995Y5799998D02*
D03*
X14949995Y5499998D02*
D03*
X14799995Y5199998D02*
D03*
X14949995Y4899999D02*
D03*
X14799995Y4599999D02*
D03*
Y3999999D02*
D03*
Y3399999D02*
D03*
Y2799999D02*
D03*
X14649995Y7299998D02*
D03*
X14499995Y6999998D02*
D03*
X14649995Y6699998D02*
D03*
X14499995Y6399998D02*
D03*
X14649995Y6099998D02*
D03*
Y5499998D02*
D03*
X14499995Y5199998D02*
D03*
X14649995Y4899999D02*
D03*
X14499995Y4599999D02*
D03*
Y3999999D02*
D03*
X14649995Y3699999D02*
D03*
X14499995Y3399999D02*
D03*
X14649995Y3099999D02*
D03*
X14499995Y2799999D02*
D03*
X14349995Y7299998D02*
D03*
X14199995Y6999998D02*
D03*
X14349995Y6699998D02*
D03*
X14199995Y5199998D02*
D03*
X14349995Y4899999D02*
D03*
X14199995Y4599999D02*
D03*
Y3999999D02*
D03*
Y2799999D02*
D03*
X14049995Y7299998D02*
D03*
X13899995Y6999998D02*
D03*
X14049995Y6699998D02*
D03*
X13899995Y6399998D02*
D03*
X14049995Y6099998D02*
D03*
X13899995Y5199998D02*
D03*
X14049995Y4899999D02*
D03*
Y4299999D02*
D03*
X13899995Y3399999D02*
D03*
Y2799999D02*
D03*
X13749995Y7299998D02*
D03*
X13599995Y6399998D02*
D03*
X13749995Y6099998D02*
D03*
X13599995Y5199998D02*
D03*
X13749995Y4899999D02*
D03*
Y3699999D02*
D03*
X13599995Y2799999D02*
D03*
X13449995Y7299998D02*
D03*
X13299995Y6999998D02*
D03*
X13449995Y6699998D02*
D03*
X13299995Y6399998D02*
D03*
X13449995Y6099998D02*
D03*
X13299995Y5199998D02*
D03*
X13449995Y4899999D02*
D03*
X13299995Y4599999D02*
D03*
X13449995Y4299999D02*
D03*
X12999995Y6999998D02*
D03*
X13149995Y6699998D02*
D03*
X12999995Y6399998D02*
D03*
X13149995Y6099998D02*
D03*
Y5499998D02*
D03*
X12999995Y5199998D02*
D03*
Y4599999D02*
D03*
Y3999999D02*
D03*
X13149995Y3699999D02*
D03*
X12999995Y2799999D02*
D03*
X12849995Y7299998D02*
D03*
Y6699998D02*
D03*
X12699996Y6399998D02*
D03*
X12849995Y6099998D02*
D03*
Y5499998D02*
D03*
X12699996Y5199998D02*
D03*
Y4599999D02*
D03*
Y3999999D02*
D03*
X12849995Y3699999D02*
D03*
X12699996Y2799999D02*
D03*
X12399996Y6999998D02*
D03*
X12549996Y6699998D02*
D03*
X12399996Y6399998D02*
D03*
X12549996Y4899999D02*
D03*
X12399996Y4599999D02*
D03*
Y3999999D02*
D03*
X12549996Y3699999D02*
D03*
X12399996Y2799999D02*
D03*
X12249996Y7299998D02*
D03*
X12099996Y6999998D02*
D03*
X12249996Y6699998D02*
D03*
X12099996Y6399998D02*
D03*
X12249996Y4899999D02*
D03*
X12099996Y4599999D02*
D03*
Y3999999D02*
D03*
X12249996Y3699999D02*
D03*
Y3099999D02*
D03*
X12099996Y2799999D02*
D03*
X11949996Y7299998D02*
D03*
X11799996Y6999998D02*
D03*
X11949996Y6699998D02*
D03*
X11799996Y6399998D02*
D03*
Y5199998D02*
D03*
X11949996Y4899999D02*
D03*
X11799996Y4599999D02*
D03*
Y3999999D02*
D03*
X11949996Y3699999D02*
D03*
X11799996Y2799999D02*
D03*
X11649997Y7299998D02*
D03*
Y6699998D02*
D03*
X11499997Y5199998D02*
D03*
X11649997Y4899999D02*
D03*
X11499997Y4599999D02*
D03*
Y3999999D02*
D03*
X11649997Y3699999D02*
D03*
X11499997Y2799999D02*
D03*
X11199997Y6999998D02*
D03*
X11349997Y6699998D02*
D03*
X11199997Y6399998D02*
D03*
Y5199998D02*
D03*
X11349997Y4899999D02*
D03*
X11199997Y4599999D02*
D03*
Y3999999D02*
D03*
X11349997Y3699999D02*
D03*
X11199997Y2799999D02*
D03*
X10899997Y6999998D02*
D03*
Y6399998D02*
D03*
X11049997Y5499998D02*
D03*
X10899997Y5199998D02*
D03*
X11049997Y4899999D02*
D03*
X10899997Y4599999D02*
D03*
X11049997Y3699999D02*
D03*
X10749997Y7299998D02*
D03*
X10599997Y6999998D02*
D03*
Y6399998D02*
D03*
X10749997Y5499998D02*
D03*
X10599997Y5199998D02*
D03*
X10749997Y4899999D02*
D03*
X10599997Y4599999D02*
D03*
Y3999999D02*
D03*
X10299997Y6399998D02*
D03*
Y5799998D02*
D03*
Y5199998D02*
D03*
X10449997Y4899999D02*
D03*
X10299997Y3999999D02*
D03*
Y2799999D02*
D03*
X10149997Y4899999D02*
D03*
X9999997Y3999999D02*
D03*
Y2799999D02*
D03*
X9699997Y4599999D02*
D03*
Y3999999D02*
D03*
Y2799999D02*
D03*
X9549997Y4899999D02*
D03*
X9399997Y3999999D02*
D03*
X9549997Y3699999D02*
D03*
X9399997Y2799999D02*
D03*
X9099997Y6399998D02*
D03*
X9249997Y4899999D02*
D03*
Y3699999D02*
D03*
X8949997Y7299998D02*
D03*
X8799997Y6999998D02*
D03*
Y6399998D02*
D03*
Y5199998D02*
D03*
X8949997Y4899999D02*
D03*
X8799997Y4599999D02*
D03*
X8649997Y7299998D02*
D03*
X8499997Y6999998D02*
D03*
Y6399998D02*
D03*
Y5199998D02*
D03*
X8649997Y4899999D02*
D03*
X8499997Y4599999D02*
D03*
Y3999999D02*
D03*
Y2799999D02*
D03*
X8349998Y7299998D02*
D03*
X8199998Y6999998D02*
D03*
Y6399998D02*
D03*
Y5199998D02*
D03*
X8349998Y4899999D02*
D03*
X8199998Y4599999D02*
D03*
Y3999999D02*
D03*
Y2799999D02*
D03*
X7899998Y6999998D02*
D03*
X8049998Y5499998D02*
D03*
X7899998Y5199998D02*
D03*
X8049998Y4899999D02*
D03*
X7899998Y4599999D02*
D03*
Y3999999D02*
D03*
Y3399999D02*
D03*
Y2799999D02*
D03*
X7599998Y6999998D02*
D03*
X7749998Y5499998D02*
D03*
X7599998Y5199998D02*
D03*
Y4599999D02*
D03*
Y3399999D02*
D03*
Y2799999D02*
D03*
X7299998Y6999998D02*
D03*
Y6399998D02*
D03*
X7449998Y6099998D02*
D03*
Y5499998D02*
D03*
X7299998Y5199998D02*
D03*
X7449998Y4899999D02*
D03*
X7299998Y4599999D02*
D03*
Y3999999D02*
D03*
Y3399999D02*
D03*
Y2799999D02*
D03*
X6999998Y6999998D02*
D03*
Y6399998D02*
D03*
Y3999999D02*
D03*
Y3399999D02*
D03*
Y2799999D02*
D03*
X6849998Y7299998D02*
D03*
Y6699998D02*
D03*
X6699998Y6399998D02*
D03*
Y5799998D02*
D03*
Y3999999D02*
D03*
X6849998Y3699999D02*
D03*
X6699998Y3399999D02*
D03*
X6849998Y3099999D02*
D03*
X6699998Y2799999D02*
D03*
X6399998Y6999998D02*
D03*
X6549998Y6699998D02*
D03*
X6399998Y6399998D02*
D03*
Y5199998D02*
D03*
Y3999999D02*
D03*
X6549998Y3699999D02*
D03*
X6399998Y3399999D02*
D03*
Y2799999D02*
D03*
X6249998Y7299998D02*
D03*
X6099998Y6999998D02*
D03*
X6249998Y6699998D02*
D03*
X6099998Y6399998D02*
D03*
X6249998Y6099998D02*
D03*
X6099998Y5799998D02*
D03*
Y5199998D02*
D03*
X6249998Y4899999D02*
D03*
X6099998Y4599999D02*
D03*
X6249998Y4299999D02*
D03*
X6099998Y3999999D02*
D03*
X6249998Y3699999D02*
D03*
X6099998Y3399999D02*
D03*
X6249998Y3099999D02*
D03*
X6099998Y2799999D02*
D03*
X5949998Y7299998D02*
D03*
X5799998Y6999998D02*
D03*
X5949998Y6699998D02*
D03*
X5799998Y6399998D02*
D03*
X5949998Y6099998D02*
D03*
X5799998Y5799998D02*
D03*
X5949998Y5499998D02*
D03*
X5799998Y5199998D02*
D03*
X5949998Y4899999D02*
D03*
X5799998Y4599999D02*
D03*
X5949998Y4299999D02*
D03*
X5799998Y3999999D02*
D03*
X5949998Y3699999D02*
D03*
X5799998Y3399999D02*
D03*
X5949998Y3099999D02*
D03*
X5799998Y2799999D02*
D03*
X7472203Y6296624D02*
D03*
X6902204Y6086624D02*
D03*
X9670000Y6090000D02*
D03*
X9742204Y5346624D02*
D03*
X9790963Y6352684D02*
D03*
X9880000Y6040000D02*
D03*
X9932204Y5926624D02*
D03*
X8431860Y5499848D02*
D03*
X13080000Y4217300D02*
D03*
X13083807Y4057883D02*
D03*
X9410000Y7040000D02*
D03*
X11080000Y2870000D02*
D03*
X10776223Y4011643D02*
D03*
X9310000Y4430000D02*
D03*
X10110000Y4810000D02*
D03*
X13668077Y5956353D02*
D03*
X13516223Y5321643D02*
D03*
X10106223Y3851643D02*
D03*
X9596223Y3301643D02*
D03*
X12436223Y5931643D02*
D03*
X8650000Y5757460D02*
D03*
Y5820160D02*
D03*
X8090000Y5770000D02*
D03*
X9680000Y5670000D02*
D03*
X11476223Y6081643D02*
D03*
X11776223Y5601643D02*
D03*
X10866223Y5611643D02*
D03*
X11280000Y7180000D02*
D03*
X11096223Y7291643D02*
D03*
X7850000Y6600000D02*
D03*
X7825642Y6036936D02*
D03*
X6790000Y5780000D02*
D03*
X7306223Y4291643D02*
D03*
X8800000Y3700000D02*
D03*
X13086475Y4292131D02*
D03*
X13080000Y4141643D02*
D03*
X7290000Y5780000D02*
D03*
X6250000Y5650000D02*
D03*
X7036775Y6343703D02*
D03*
X13080000Y2950000D02*
D03*
Y3031643D02*
D03*
Y3191643D02*
D03*
Y3111643D02*
D03*
X8550000Y3470000D02*
D03*
X9530000Y5840000D02*
D03*
X9680000Y5750000D02*
D03*
X9390000Y7350000D02*
D03*
X9500411Y7329675D02*
D03*
X9655057Y7305343D02*
D03*
X9575664Y7368502D02*
D03*
X8220000Y5570000D02*
D03*
X8180000Y5620000D02*
D03*
X8709368Y5864951D02*
D03*
X8180000Y5920000D02*
D03*
X8460000Y6050000D02*
D03*
X8290031Y6050360D02*
D03*
X8380000Y6050000D02*
D03*
X9750000Y7370000D02*
D03*
X10049368D02*
D03*
X10249768Y7360400D02*
D03*
X9931996Y7314947D02*
D03*
X10222869Y7045274D02*
D03*
X10299362Y7040638D02*
D03*
X10410000Y7042315D02*
D03*
X10410400Y6870000D02*
D03*
X10680168Y6590000D02*
D03*
X9990000Y5720000D02*
D03*
X14520000Y5560000D02*
D03*
X9795638Y6994362D02*
D03*
X9872303Y6994874D02*
D03*
X9690400Y6889124D02*
D03*
X9814362Y6893562D02*
D03*
X9687775Y7029051D02*
D03*
X10222204Y5656624D02*
D03*
X10220000Y6360000D02*
D03*
X9640000D02*
D03*
X9690400Y6420000D02*
D03*
X8369368Y5504951D02*
D03*
X9790000Y6470400D02*
D03*
X9800400Y7310000D02*
D03*
X10349368Y7370000D02*
D03*
X10399768Y7310000D02*
D03*
X9999368Y5184951D02*
D03*
X9419368D02*
D03*
X9417500Y6030000D02*
D03*
X9980000Y6430000D02*
D03*
X10750000Y6040000D02*
D03*
X11140000Y5670000D02*
D03*
X9418515Y5323230D02*
D03*
X14345349Y5343309D02*
D03*
X8400000Y3900000D02*
D03*
D87*
X14109999Y3050000D02*
D03*
X14410001D02*
D03*
X13611502Y4513491D02*
D03*
X13911502D02*
D03*
X14114790Y4506393D02*
D03*
X14414790Y4506393D02*
D03*
D88*
X14260001Y3070000D02*
D03*
X13761502Y4493490D02*
D03*
X14264790Y4486393D02*
D03*
D89*
X14260001Y3300000D02*
D03*
X13761502Y4263490D02*
D03*
X14264790Y4256393D02*
D03*
D90*
X13614030Y3035584D02*
D03*
X13914030Y3035583D02*
D03*
D91*
X13764030Y3055583D02*
D03*
D92*
X13764030Y3305583D02*
D03*
D93*
X13522501Y3600000D02*
D03*
X13977499Y3600000D02*
D03*
Y3950000D02*
D03*
X13522501Y3950000D02*
D03*
D94*
X10461716Y3576619D02*
D03*
Y3766620D02*
D03*
X10716716Y3766619D02*
D03*
Y3671619D02*
D03*
X10716716Y3576619D02*
D03*
D95*
X10272500Y3580000D02*
D03*
X10127500D02*
D03*
X10269912Y3103835D02*
D03*
X10124911D02*
D03*
X10822500Y2870000D02*
D03*
X10677500Y2870000D02*
D03*
X11322432Y6582219D02*
D03*
X11177432D02*
D03*
X10767500Y6590000D02*
D03*
X10912500D02*
D03*
X14111760Y5402260D02*
D03*
X13966760D02*
D03*
X14349361D02*
D03*
X14204359D02*
D03*
X12990460Y5681660D02*
D03*
X12845461D02*
D03*
X12990460Y5935660D02*
D03*
X12845461D02*
D03*
X12990460Y5808660D02*
D03*
X12845461D02*
D03*
X11838460Y5326060D02*
D03*
X11693460D02*
D03*
X12079760D02*
D03*
X11934760D02*
D03*
X11388660Y5529260D02*
D03*
X11533660D02*
D03*
X11139960D02*
D03*
X11284960D02*
D03*
X10435000Y5470000D02*
D03*
X10290000D02*
D03*
X10435000Y5310000D02*
D03*
X10290000D02*
D03*
X10432500Y6180000D02*
D03*
X10287500D02*
D03*
X10433112Y6015913D02*
D03*
X10288113D02*
D03*
X10287500Y6680000D02*
D03*
X10432500D02*
D03*
X9162460Y6938960D02*
D03*
X9307460D02*
D03*
X9891660Y6596060D02*
D03*
X9746660D02*
D03*
X10431616Y6542081D02*
D03*
X10286616D02*
D03*
X9759360Y5884860D02*
D03*
X9904360D02*
D03*
D96*
X10838680Y3817865D02*
D03*
Y3672866D02*
D03*
X10711716Y4021620D02*
D03*
Y3876619D02*
D03*
X9435000Y4914800D02*
D03*
Y5059800D02*
D03*
X9993800Y4918500D02*
D03*
Y5063500D02*
D03*
X11432060Y6307660D02*
D03*
Y6452660D02*
D03*
D97*
X11054499Y3100064D02*
D03*
D98*
X10484499Y2870064D02*
D03*
Y3100064D02*
D03*
Y3330064D02*
D03*
D99*
X7199260Y6037260D02*
D03*
Y5910260D02*
D03*
Y5783260D02*
D03*
Y5656260D02*
D03*
X7689260Y6037260D02*
D03*
Y5910260D02*
D03*
Y5783260D02*
D03*
Y5656260D02*
D03*
D100*
X9996900Y4432200D02*
D03*
Y4559200D02*
D03*
Y4686200D02*
D03*
Y4813200D02*
D03*
X9431900Y4432200D02*
D03*
Y4559200D02*
D03*
Y4686200D02*
D03*
Y4813200D02*
D03*
X7161760Y6596060D02*
D03*
Y6469060D02*
D03*
Y6342060D02*
D03*
Y6215060D02*
D03*
X7726760Y6596060D02*
D03*
Y6469060D02*
D03*
Y6342060D02*
D03*
Y6215060D02*
D03*
X12292500Y5659500D02*
D03*
Y5786500D02*
D03*
Y5913500D02*
D03*
Y6040500D02*
D03*
X11727500Y5659500D02*
D03*
Y5786500D02*
D03*
Y5913500D02*
D03*
Y6040500D02*
D03*
X11432053Y5660351D02*
D03*
Y5787351D02*
D03*
Y5914351D02*
D03*
Y6041351D02*
D03*
X10867053Y5660351D02*
D03*
Y5787351D02*
D03*
Y5914351D02*
D03*
Y6041351D02*
D03*
D101*
X11050000Y6740000D02*
D03*
X11100000D02*
D03*
X11150000D02*
D03*
X11200000D02*
D03*
X11250000D02*
D03*
Y7180000D02*
D03*
X11200000D02*
D03*
X11150000D02*
D03*
X11100000D02*
D03*
X11050000D02*
D03*
D102*
X8674000Y4185000D02*
D03*
X8547000D02*
D03*
X8420000D02*
D03*
X8293000D02*
D03*
X8674000Y3620000D02*
D03*
X8547000D02*
D03*
X8420000D02*
D03*
X8293000D02*
D03*
D103*
X8168160Y3598860D02*
D03*
Y3398860D02*
D03*
X8841260Y4156060D02*
D03*
Y3956060D02*
D03*
X8420000Y3170000D02*
D03*
Y3370000D02*
D03*
D104*
X13709042Y5275379D02*
D03*
X13841043D02*
D03*
X13516049Y5274704D02*
D03*
X13648048D02*
D03*
X13835204Y6330886D02*
D03*
X13703204D02*
D03*
X13647934Y6330872D02*
D03*
X13515935D02*
D03*
X12068217Y5523108D02*
D03*
X11936217D02*
D03*
X11937560Y5440360D02*
D03*
X12069560D02*
D03*
D105*
X13514861Y6226160D02*
D03*
Y5899160D02*
D03*
Y5718160D02*
D03*
Y5391160D02*
D03*
D106*
X13248160Y6011860D02*
D03*
X13343159Y5811860D02*
D03*
X13153160D02*
D03*
X12600460Y6010260D02*
D03*
X12695459Y5810260D02*
D03*
X12505460D02*
D03*
D107*
X6735000Y5385000D02*
D03*
X6545000D02*
D03*
X6640000Y5215000D02*
D03*
D108*
X7670711Y3829289D02*
D03*
X7529289Y3970711D02*
D03*
D109*
X8371360Y5770560D02*
D03*
D110*
X8271360Y5965560D02*
D03*
X8321360D02*
D03*
X8371360D02*
D03*
X8421360D02*
D03*
X8471360D02*
D03*
Y5575560D02*
D03*
X8421360D02*
D03*
X8371360D02*
D03*
X8321360D02*
D03*
X8271360D02*
D03*
D111*
X8566360Y5870560D02*
D03*
Y5820560D02*
D03*
Y5770560D02*
D03*
Y5720560D02*
D03*
Y5670560D02*
D03*
X8176360D02*
D03*
Y5720560D02*
D03*
Y5770560D02*
D03*
Y5820560D02*
D03*
Y5870560D02*
D03*
D112*
X6531460Y6260368D02*
D03*
Y6070368D02*
D03*
X6731460Y6165368D02*
D03*
D113*
X6902660Y5911368D02*
D03*
Y5784368D02*
D03*
Y5657368D02*
D03*
Y5530368D02*
D03*
X6360260D02*
D03*
Y5657368D02*
D03*
Y5784368D02*
D03*
Y5911368D02*
D03*
%TF.MD5,e2c054d837b25f4b5b2721c0589397d4*%
M02*
