%TF.GenerationSoftware,Altium Limited,Altium Designer,22.2.1 (43)*%
G04 Layer_Physical_Order=4*
G04 Layer_Color=16711680*
%FSLAX45Y45*%
%MOMM*%
%TF.SameCoordinates,3546A09D-0AB3-465C-A5BE-671B47EBA127*%
%TF.FilePolarity,Positive*%
%TF.FileFunction,Copper,L4,Bot,Signal*%
%TF.Part,Single*%
G01*
G75*
%TA.AperFunction,NonConductor*%
%ADD11C,0.25400*%
%TA.AperFunction,SMDPad,CuDef*%
%ADD28R,1.35000X0.95000*%
%ADD30R,1.20000X1.45000*%
%TA.AperFunction,Conductor*%
%ADD57C,0.50000*%
%ADD58C,0.25400*%
%TA.AperFunction,ComponentPad*%
%ADD60R,1.50000X1.50000*%
%ADD61C,0.54991*%
%ADD62C,2.19989*%
%ADD63C,1.32080*%
%ADD64R,1.30000X1.30000*%
%ADD65C,1.30000*%
%TA.AperFunction,ViaPad*%
%ADD66C,0.50000*%
%TA.AperFunction,ConnectorPad*%
%ADD67R,0.95000X1.05000*%
%TA.AperFunction,SMDPad,CuDef*%
%ADD68R,0.24994X2.00000*%
%ADD69R,0.95000X1.05000*%
%ADD70R,0.95620X1.20620*%
G36*
X15689999Y2500000D02*
X5499999D01*
X5500000Y7550000D01*
X9916587D01*
X9927299Y7545200D01*
X9927300Y7537299D01*
Y7505898D01*
X9878037D01*
X9877180Y7507180D01*
X9864710Y7515513D01*
X9850000Y7518439D01*
X9835290Y7515513D01*
X9822820Y7507180D01*
X9814488Y7494710D01*
X9811562Y7480000D01*
X9814488Y7465290D01*
X9822820Y7452820D01*
X9835290Y7444488D01*
X9850000Y7441561D01*
X9864710Y7444488D01*
X9877180Y7452820D01*
X9878037Y7454102D01*
X9927300D01*
Y7414800D01*
X10025698D01*
X10029551Y7402100D01*
X10022188Y7397180D01*
X10013856Y7384710D01*
X10010929Y7370000D01*
X10013856Y7355290D01*
X10022188Y7342820D01*
X10023470Y7341963D01*
Y7289124D01*
X10023905Y7286941D01*
Y7180218D01*
X10024809Y7175673D01*
Y7067315D01*
X10038157D01*
X10043017Y7055582D01*
X9943333Y6955898D01*
X9904689D01*
X9901134Y6963953D01*
X9900087Y6968598D01*
X9907815Y6980164D01*
X9910741Y6994874D01*
X9907815Y7009584D01*
X9899483Y7022054D01*
X9887013Y7030386D01*
X9872303Y7033312D01*
X9870790Y7033011D01*
X9848219Y7055582D01*
X9853080Y7067315D01*
X9975202D01*
Y7176492D01*
X9975903Y7180015D01*
X9975700Y7181037D01*
Y7290484D01*
X9973729Y7300395D01*
X9968959Y7307533D01*
X9970434Y7314947D01*
X9967508Y7329657D01*
X9959176Y7342128D01*
X9946706Y7350460D01*
X9931996Y7353386D01*
X9924974Y7364938D01*
X9923172Y7373993D01*
X9914840Y7386463D01*
X9902370Y7394795D01*
X9887660Y7397721D01*
X9872950Y7394795D01*
X9860480Y7386463D01*
X9852147Y7373993D01*
X9849221Y7359283D01*
X9852147Y7344573D01*
X9856225Y7338471D01*
X9855698Y7335824D01*
Y7303737D01*
X9849421Y7301498D01*
X9839186Y7309721D01*
X9838733Y7310529D01*
X9835913Y7324710D01*
X9827580Y7337180D01*
X9815110Y7345513D01*
X9800400Y7348439D01*
X9795566Y7347477D01*
X9792148Y7350134D01*
X9786162Y7358556D01*
X9788439Y7370000D01*
X9785513Y7384710D01*
X9777180Y7397180D01*
X9764710Y7405512D01*
X9750000Y7408439D01*
X9735290Y7405512D01*
X9722820Y7397180D01*
X9714488Y7384710D01*
X9711561Y7370000D01*
X9714488Y7355290D01*
X9722820Y7342820D01*
X9724102Y7341963D01*
Y7180021D01*
X9724809Y7176469D01*
Y7067315D01*
X9774324D01*
Y7066955D01*
X9776295Y7057044D01*
X9781909Y7048642D01*
X9786600Y7043951D01*
X9782420Y7030171D01*
X9780928Y7029874D01*
X9768457Y7021542D01*
X9760125Y7009072D01*
X9757199Y6994362D01*
X9760125Y6979652D01*
X9768457Y6967181D01*
X9780928Y6958849D01*
X9795638Y6955923D01*
X9810348Y6958849D01*
X9822818Y6967181D01*
X9826504Y6972698D01*
X9841742Y6972754D01*
X9845123Y6967693D01*
X9846622Y6966691D01*
X9846978Y6961779D01*
X9845207Y6952363D01*
X9839144Y6948312D01*
X9821427Y6930595D01*
X9814362Y6932000D01*
X9799652Y6929074D01*
X9787182Y6920742D01*
X9778849Y6908272D01*
X9775923Y6893562D01*
X9778849Y6878852D01*
X9787182Y6866381D01*
X9788634Y6865411D01*
X9784782Y6852711D01*
X9735184Y6852711D01*
X9729667Y6853012D01*
X9723355Y6855231D01*
X9722208Y6856565D01*
X9720739Y6863061D01*
X9721791Y6868246D01*
X9725912Y6874414D01*
X9728839Y6889124D01*
X9725912Y6903834D01*
X9717580Y6916304D01*
X9705110Y6924636D01*
X9690400Y6927562D01*
X9675690Y6924636D01*
X9663220Y6916304D01*
X9654887Y6903834D01*
X9651961Y6889124D01*
X9654887Y6874414D01*
X9660903Y6865411D01*
X9656456Y6854081D01*
X9655277Y6852711D01*
X9424810D01*
Y6627311D01*
X9675203D01*
Y6840759D01*
X9687903Y6851182D01*
X9690400Y6850685D01*
X9705110Y6853611D01*
X9707627Y6855293D01*
X9709793Y6856740D01*
X9709795Y6856740D01*
X9714466Y6856678D01*
X9722321Y6853859D01*
X9723174Y6852128D01*
X9724809Y6845135D01*
X9724809Y6840306D01*
Y6627311D01*
X9975202D01*
Y6852711D01*
X9843942D01*
X9840089Y6865411D01*
X9841542Y6866381D01*
X9849874Y6878852D01*
X9851598Y6887517D01*
X9868184Y6904103D01*
X9954060D01*
X9963971Y6906074D01*
X9972372Y6911688D01*
X10118330Y7057646D01*
X10123944Y7066047D01*
X10124196Y7067315D01*
X10174553D01*
X10176091Y7059584D01*
X10181705Y7051182D01*
X10184958Y7047929D01*
X10184430Y7045274D01*
X10187356Y7030564D01*
X10195688Y7018093D01*
X10208159Y7009761D01*
X10212947Y7008809D01*
X10217127Y6995028D01*
X10181705Y6959606D01*
X10176091Y6951205D01*
X10174120Y6941294D01*
Y6852711D01*
X10024809D01*
Y6627311D01*
X10275202D01*
Y6736488D01*
X10275902Y6740011D01*
Y6909278D01*
X10319534Y6952909D01*
X10346491D01*
X10356402Y6954880D01*
X10364804Y6960494D01*
X10408487Y7004178D01*
X10410000Y7003877D01*
X10424710Y7006803D01*
X10437180Y7015135D01*
X10445513Y7027605D01*
X10448439Y7042315D01*
X10445992Y7054615D01*
X10452748Y7067315D01*
X10475201D01*
Y7292715D01*
X10447671D01*
X10437294Y7305415D01*
X10438206Y7310000D01*
X10435280Y7324710D01*
X10426948Y7337180D01*
X10414478Y7345513D01*
X10399768Y7348439D01*
X10394934Y7347477D01*
X10391515Y7350134D01*
X10385530Y7358556D01*
X10387807Y7370000D01*
X10384880Y7384710D01*
X10376548Y7397180D01*
X10364078Y7405512D01*
X10349368Y7408439D01*
X10334658Y7405512D01*
X10322188Y7397180D01*
X10313855Y7384710D01*
X10310929Y7370000D01*
X10313855Y7355290D01*
X10322188Y7342820D01*
X10323470Y7341963D01*
Y7289124D01*
X10323904Y7286944D01*
Y7180218D01*
X10324808Y7175673D01*
Y7082318D01*
X10312108Y7076541D01*
X10299362Y7079077D01*
X10287902Y7076797D01*
X10275202Y7083948D01*
Y7176492D01*
X10275902Y7180015D01*
X10275699Y7181037D01*
Y7310413D01*
X10275666Y7310583D01*
Y7332363D01*
X10276948Y7333220D01*
X10285280Y7345690D01*
X10288206Y7360400D01*
X10285280Y7375110D01*
X10276948Y7387580D01*
X10264478Y7395913D01*
X10249768Y7398839D01*
X10235058Y7395913D01*
X10222588Y7387580D01*
X10214255Y7375110D01*
X10211329Y7360400D01*
X10214255Y7345690D01*
X10222588Y7333220D01*
X10223870Y7332363D01*
Y7310447D01*
X10223904Y7310277D01*
Y7292715D01*
X10075266D01*
Y7341963D01*
X10076548Y7342820D01*
X10084881Y7355290D01*
X10087807Y7370000D01*
X10084881Y7384710D01*
X10076548Y7397180D01*
X10064078Y7405512D01*
X10057126Y7406896D01*
X10048608Y7414038D01*
X10047700Y7420734D01*
Y7537299D01*
X10047700Y7545200D01*
X10058412Y7550000D01*
X15689999D01*
X15689999Y2500000D01*
D02*
G37*
%LPC*%
G36*
X9575664Y7406940D02*
X9560954Y7404014D01*
X9548484Y7395682D01*
X9540152Y7383212D01*
X9537226Y7368502D01*
X9538137Y7363921D01*
X9530777Y7358990D01*
X9526440Y7357625D01*
X9515121Y7365188D01*
X9500411Y7368114D01*
X9485701Y7365188D01*
X9473231Y7356856D01*
X9464899Y7344385D01*
X9462460Y7332126D01*
X9455301Y7328286D01*
X9449539Y7327086D01*
X9428138Y7348487D01*
X9428439Y7350000D01*
X9425513Y7364710D01*
X9417180Y7377180D01*
X9404710Y7385513D01*
X9390000Y7388439D01*
X9375290Y7385513D01*
X9362820Y7377180D01*
X9354488Y7364710D01*
X9351561Y7350000D01*
X9354488Y7335290D01*
X9362820Y7322820D01*
X9375290Y7314488D01*
X9390000Y7311561D01*
X9391513Y7311862D01*
X9424109Y7279266D01*
Y7180015D01*
X9424810Y7176492D01*
Y7088442D01*
X9412109Y7078019D01*
X9410000Y7078438D01*
X9395290Y7075512D01*
X9387904Y7070577D01*
X9375203Y7076901D01*
Y7292715D01*
X9224810D01*
Y7067315D01*
X9367636D01*
X9374487Y7054710D01*
X9371561Y7040000D01*
X9374487Y7025290D01*
X9382820Y7012820D01*
X9395290Y7004487D01*
X9410000Y7001561D01*
X9424710Y7004487D01*
X9437180Y7012820D01*
X9445512Y7025290D01*
X9448439Y7040000D01*
X9445512Y7054710D01*
X9452364Y7067315D01*
X9654323D01*
X9657672Y7061397D01*
X9659515Y7054615D01*
X9652262Y7043761D01*
X9649336Y7029051D01*
X9652262Y7014341D01*
X9660594Y7001871D01*
X9673065Y6993538D01*
X9687775Y6990612D01*
X9702485Y6993538D01*
X9714955Y7001871D01*
X9723287Y7014341D01*
X9726213Y7029051D01*
X9723287Y7043761D01*
X9714955Y7056231D01*
X9702485Y7064563D01*
X9687775Y7067490D01*
X9675203Y7077938D01*
Y7175699D01*
X9676101Y7180212D01*
Y7274062D01*
X9682238Y7278162D01*
X9690570Y7290633D01*
X9693496Y7305343D01*
X9690570Y7320053D01*
X9682238Y7332523D01*
X9669767Y7340855D01*
X9655057Y7343781D01*
X9640347Y7340855D01*
X9638247Y7339452D01*
X9624324Y7345423D01*
X9623926Y7347420D01*
X9618312Y7355822D01*
X9612697Y7361437D01*
X9614103Y7368502D01*
X9611177Y7383212D01*
X9602844Y7395682D01*
X9590374Y7404014D01*
X9575664Y7406940D01*
D02*
G37*
G36*
X11096223Y7330082D02*
X11081513Y7327156D01*
X11069042Y7318823D01*
X11060710Y7306353D01*
X11057784Y7291643D01*
X11060710Y7276933D01*
X11069042Y7264463D01*
X11081513Y7256131D01*
X11096223Y7253204D01*
X11110933Y7256131D01*
X11123403Y7264463D01*
X11131735Y7276933D01*
X11134661Y7291643D01*
X11131735Y7306353D01*
X11123403Y7318823D01*
X11110933Y7327156D01*
X11096223Y7330082D01*
D02*
G37*
G36*
X11280000Y7218439D02*
X11265290Y7215513D01*
X11252820Y7207180D01*
X11244488Y7194710D01*
X11241561Y7180000D01*
X11244488Y7165290D01*
X11252820Y7152820D01*
X11265290Y7144488D01*
X11280000Y7141562D01*
X11294710Y7144488D01*
X11307180Y7152820D01*
X11315513Y7165290D01*
X11318439Y7180000D01*
X11315513Y7194710D01*
X11307180Y7207180D01*
X11294710Y7215513D01*
X11280000Y7218439D01*
D02*
G37*
G36*
X8325218Y7292715D02*
X8174825D01*
Y7067315D01*
X8325218D01*
Y7292715D01*
D02*
G37*
G36*
X8125219D02*
X7874825D01*
Y7067315D01*
X8125219D01*
Y7292715D01*
D02*
G37*
G36*
X7825219D02*
X7574826D01*
Y7067315D01*
X7825219D01*
Y7292715D01*
D02*
G37*
G36*
X7525220D02*
X7274827D01*
Y7067315D01*
X7525220D01*
Y7292715D01*
D02*
G37*
G36*
X7225220D02*
X7074827D01*
Y7067315D01*
X7225220D01*
Y7292715D01*
D02*
G37*
G36*
X10545001Y7126002D02*
X10529317Y7122882D01*
X10516021Y7113998D01*
X10507137Y7100703D01*
X10504018Y7085019D01*
X10507137Y7069336D01*
X10516021Y7056040D01*
X10529317Y7047156D01*
X10545001Y7044036D01*
X10560684Y7047156D01*
X10573980Y7056040D01*
X10582864Y7069336D01*
X10585983Y7085019D01*
X10582864Y7100703D01*
X10573980Y7113998D01*
X10560684Y7122882D01*
X10545001Y7126002D01*
D02*
G37*
G36*
X9155011D02*
X9139327Y7122882D01*
X9126032Y7113998D01*
X9117148Y7100703D01*
X9114028Y7085019D01*
X9117148Y7069336D01*
X9126032Y7056040D01*
X9139327Y7047156D01*
X9155011Y7044036D01*
X9170694Y7047156D01*
X9183990Y7056040D01*
X9192874Y7069336D01*
X9195994Y7085019D01*
X9192874Y7100703D01*
X9183990Y7113998D01*
X9170694Y7122882D01*
X9155011Y7126002D01*
D02*
G37*
G36*
X8395018D02*
X8379334Y7122882D01*
X8366038Y7113998D01*
X8357154Y7100703D01*
X8354035Y7085019D01*
X8357154Y7069336D01*
X8366038Y7056040D01*
X8379334Y7047156D01*
X8395018Y7044036D01*
X8410701Y7047156D01*
X8423997Y7056040D01*
X8432881Y7069336D01*
X8436000Y7085019D01*
X8432881Y7100703D01*
X8423997Y7113998D01*
X8410701Y7122882D01*
X8395018Y7126002D01*
D02*
G37*
G36*
X7005003D02*
X6989319Y7122882D01*
X6976023Y7113998D01*
X6967139Y7100703D01*
X6964020Y7085019D01*
X6967139Y7069336D01*
X6976023Y7056040D01*
X6989319Y7047156D01*
X7005003Y7044036D01*
X7020686Y7047156D01*
X7033982Y7056040D01*
X7042866Y7069336D01*
X7045985Y7085019D01*
X7042866Y7100703D01*
X7033982Y7113998D01*
X7020686Y7122882D01*
X7005003Y7126002D01*
D02*
G37*
G36*
X12650000Y7336261D02*
X12615613Y7332874D01*
X12582548Y7322844D01*
X12552074Y7306556D01*
X12525365Y7284635D01*
X12503444Y7257926D01*
X12487156Y7227452D01*
X12477126Y7194387D01*
X12473739Y7160000D01*
X12477126Y7125613D01*
X12487156Y7092548D01*
X12503444Y7062074D01*
X12525365Y7035364D01*
X12552074Y7013444D01*
X12582548Y6997156D01*
X12615613Y6987125D01*
X12650000Y6983739D01*
X12684387Y6987125D01*
X12717452Y6997156D01*
X12747926Y7013444D01*
X12774636Y7035364D01*
X12796556Y7062074D01*
X12812843Y7092548D01*
X12822874Y7125613D01*
X12826260Y7160000D01*
X12822874Y7194387D01*
X12812843Y7227452D01*
X12796556Y7257926D01*
X12774636Y7284635D01*
X12747926Y7306556D01*
X12717452Y7322844D01*
X12684387Y7332874D01*
X12650000Y7336261D01*
D02*
G37*
G36*
X6650012D02*
X6615625Y7332874D01*
X6582560Y7322844D01*
X6552086Y7306556D01*
X6525377Y7284635D01*
X6503456Y7257926D01*
X6487168Y7227452D01*
X6477138Y7194387D01*
X6473751Y7160000D01*
X6477138Y7125613D01*
X6487168Y7092548D01*
X6503456Y7062074D01*
X6525377Y7035364D01*
X6552086Y7013444D01*
X6582560Y6997156D01*
X6615625Y6987125D01*
X6650012Y6983739D01*
X6684399Y6987125D01*
X6717464Y6997156D01*
X6747938Y7013444D01*
X6774648Y7035364D01*
X6796568Y7062074D01*
X6812856Y7092548D01*
X6822887Y7125613D01*
X6826273Y7160000D01*
X6822887Y7194387D01*
X6812856Y7227452D01*
X6796568Y7257926D01*
X6774648Y7284635D01*
X6747938Y7306556D01*
X6717464Y7322844D01*
X6684399Y7332874D01*
X6650012Y7336261D01*
D02*
G37*
G36*
X8125219Y6852711D02*
X7874825D01*
Y6642865D01*
X7862125Y6636027D01*
X7850000Y6638439D01*
X7837920Y6636035D01*
X7825219Y6642895D01*
Y6852711D01*
X7574826D01*
Y6627311D01*
X7807633D01*
X7814488Y6614710D01*
X7811561Y6600000D01*
X7814488Y6585290D01*
X7822820Y6572820D01*
X7835290Y6564488D01*
X7850000Y6561561D01*
X7864710Y6564488D01*
X7877180Y6572820D01*
X7885513Y6585290D01*
X7888439Y6600000D01*
X7885513Y6614710D01*
X7892367Y6627311D01*
X8125219D01*
Y6852711D01*
D02*
G37*
G36*
X9375203D02*
X9224810D01*
Y6627311D01*
X9375203D01*
Y6852711D01*
D02*
G37*
G36*
X8325218D02*
X8174825D01*
Y6627311D01*
X8325218D01*
Y6852711D01*
D02*
G37*
G36*
X7525220D02*
X7274827D01*
Y6627311D01*
X7525220D01*
Y6852711D01*
D02*
G37*
G36*
X7225220D02*
X7074827D01*
Y6627311D01*
X7225220D01*
Y6852711D01*
D02*
G37*
G36*
X10410400Y6908439D02*
X10395690Y6905512D01*
X10383220Y6897180D01*
X10374888Y6884710D01*
X10371961Y6870000D01*
X10372874Y6865411D01*
X10362667Y6852711D01*
X10324808D01*
Y6743534D01*
X10324107Y6740011D01*
Y6600732D01*
X10279273Y6555897D01*
X10000682D01*
X9990771Y6553926D01*
X9982369Y6548312D01*
X9879955Y6445898D01*
X9833081D01*
X9826091Y6458598D01*
X9828439Y6470400D01*
X9825512Y6485110D01*
X9817180Y6497580D01*
X9804710Y6505913D01*
X9790000Y6508839D01*
X9775290Y6505913D01*
X9762820Y6497580D01*
X9754487Y6485110D01*
X9751561Y6470400D01*
X9753909Y6458598D01*
X9746919Y6445898D01*
X9718437D01*
X9717580Y6447180D01*
X9705110Y6455513D01*
X9690400Y6458439D01*
X9675690Y6455513D01*
X9663220Y6447180D01*
X9654887Y6434710D01*
X9651961Y6420000D01*
X9654238Y6408555D01*
X9648253Y6400134D01*
X9644834Y6397477D01*
X9640000Y6398439D01*
X9625290Y6395512D01*
X9612820Y6387180D01*
X9604488Y6374710D01*
X9601561Y6360000D01*
X9604488Y6345290D01*
X9612820Y6332820D01*
X9625290Y6324487D01*
X9640000Y6321561D01*
X9654710Y6324487D01*
X9667180Y6332820D01*
X9675513Y6345290D01*
X9678439Y6360000D01*
X9676162Y6371445D01*
X9682147Y6379866D01*
X9685566Y6382523D01*
X9690400Y6381562D01*
X9705110Y6384488D01*
X9717580Y6392820D01*
X9718437Y6394103D01*
X9890682D01*
X9900592Y6396074D01*
X9908994Y6401688D01*
X9922085Y6414779D01*
X9932766Y6407499D01*
X9931403Y6400644D01*
Y6365200D01*
X9862300D01*
Y6234800D01*
X9982700D01*
Y6332298D01*
X9983198Y6334800D01*
Y6389916D01*
X9986045Y6392764D01*
X9994710Y6394488D01*
X10007180Y6402820D01*
X10015513Y6415290D01*
X10018439Y6430000D01*
X10015513Y6444710D01*
X10007180Y6457180D01*
X9994710Y6465513D01*
X9991432Y6466165D01*
X9987252Y6479945D01*
X10011409Y6504102D01*
X10290000D01*
X10299911Y6506074D01*
X10308312Y6511688D01*
X10368317Y6571692D01*
X10370707Y6575270D01*
X10372465Y6576292D01*
X10384019Y6577735D01*
X10386135Y6577240D01*
X10411688Y6551688D01*
X10420089Y6546074D01*
X10430000Y6544102D01*
X10653512D01*
X10663422Y6546074D01*
X10671824Y6551688D01*
X10673103Y6552967D01*
X10680168Y6551561D01*
X10694878Y6554488D01*
X10707349Y6562820D01*
X10715681Y6575290D01*
X10718607Y6590000D01*
X10715681Y6604710D01*
X10707349Y6617180D01*
X10694878Y6625513D01*
X10680168Y6628439D01*
X10665458Y6625513D01*
X10652988Y6617180D01*
X10644656Y6604710D01*
X10642932Y6596045D01*
X10642785Y6595898D01*
X10440727D01*
X10425915Y6610710D01*
Y6627311D01*
X10475201D01*
Y6852711D01*
X10458301D01*
X10447926Y6865411D01*
X10448839Y6870000D01*
X10445913Y6884710D01*
X10437580Y6897180D01*
X10425110Y6905512D01*
X10410400Y6908439D01*
D02*
G37*
G36*
X10220000Y6398439D02*
X10205290Y6395512D01*
X10192820Y6387180D01*
X10184487Y6374710D01*
X10181561Y6360000D01*
X10184487Y6345290D01*
X10192820Y6332820D01*
X10205290Y6324487D01*
X10220000Y6321561D01*
X10234710Y6324487D01*
X10247180Y6332820D01*
X10255512Y6345290D01*
X10258438Y6360000D01*
X10255512Y6374710D01*
X10247180Y6387180D01*
X10234710Y6395512D01*
X10220000Y6398439D01*
D02*
G37*
G36*
X7036775Y6382141D02*
X7022065Y6379215D01*
X7009595Y6370883D01*
X7001262Y6358413D01*
X6998336Y6343703D01*
X7001262Y6328993D01*
X7009595Y6316523D01*
X7022065Y6308190D01*
X7036775Y6305264D01*
X7051485Y6308190D01*
X7063955Y6316523D01*
X7072287Y6328993D01*
X7075213Y6343703D01*
X7072287Y6358413D01*
X7063955Y6370883D01*
X7051485Y6379215D01*
X7036775Y6382141D01*
D02*
G37*
G36*
X8460000Y6088439D02*
X8445290Y6085513D01*
X8432820Y6077180D01*
X8427056Y6068554D01*
X8425862Y6068156D01*
X8414138D01*
X8412944Y6068554D01*
X8407180Y6077180D01*
X8394710Y6085513D01*
X8380000Y6088439D01*
X8365290Y6085513D01*
X8352820Y6077180D01*
X8344488Y6064710D01*
X8341561Y6050000D01*
X8344488Y6035290D01*
X8352820Y6022820D01*
X8365290Y6014488D01*
X8380000Y6011562D01*
X8394710Y6014488D01*
X8407180Y6022820D01*
X8412944Y6031446D01*
X8414138Y6031844D01*
X8425862D01*
X8427056Y6031446D01*
X8432820Y6022820D01*
X8445290Y6014488D01*
X8460000Y6011562D01*
X8474710Y6014488D01*
X8487180Y6022820D01*
X8495513Y6035290D01*
X8498439Y6050000D01*
X8495513Y6064710D01*
X8487180Y6077180D01*
X8474710Y6085513D01*
X8460000Y6088439D01*
D02*
G37*
G36*
X9557700Y6235200D02*
X9437300D01*
Y6104801D01*
X9437299D01*
Y6095199D01*
X9437300D01*
Y6076223D01*
X9424600Y6067026D01*
X9417500Y6068438D01*
X9402790Y6065512D01*
X9390320Y6057180D01*
X9381987Y6044710D01*
X9379061Y6030000D01*
X9381987Y6015290D01*
X9390320Y6002820D01*
X9402790Y5994487D01*
X9417500Y5991561D01*
X9424600Y5992974D01*
X9437300Y5983777D01*
Y5964800D01*
X9557700D01*
Y6095199D01*
X9557700D01*
Y6104801D01*
X9557700D01*
Y6235200D01*
D02*
G37*
G36*
X11476223Y6120082D02*
X11461513Y6117156D01*
X11449042Y6108823D01*
X11440710Y6096353D01*
X11437784Y6081643D01*
X11440710Y6066933D01*
X11449042Y6054463D01*
X11461513Y6046131D01*
X11476223Y6043205D01*
X11490933Y6046131D01*
X11503403Y6054463D01*
X11511735Y6066933D01*
X11514661Y6081643D01*
X11511735Y6096353D01*
X11503403Y6108823D01*
X11490933Y6117156D01*
X11476223Y6120082D01*
D02*
G37*
G36*
X8290031Y6088798D02*
X8275321Y6085872D01*
X8262850Y6077540D01*
X8254518Y6065070D01*
X8251592Y6050360D01*
X8254518Y6035650D01*
X8262850Y6023179D01*
X8275321Y6014847D01*
X8290031Y6011921D01*
X8304741Y6014847D01*
X8317211Y6023179D01*
X8325543Y6035650D01*
X8328469Y6050360D01*
X8325543Y6065070D01*
X8317211Y6077540D01*
X8304741Y6085872D01*
X8290031Y6088798D01*
D02*
G37*
G36*
X10750000Y6078439D02*
X10735290Y6075513D01*
X10722820Y6067180D01*
X10714488Y6054710D01*
X10711562Y6040000D01*
X10714488Y6025290D01*
X10722820Y6012820D01*
X10735290Y6004488D01*
X10750000Y6001562D01*
X10764710Y6004488D01*
X10777180Y6012820D01*
X10785513Y6025290D01*
X10788439Y6040000D01*
X10785513Y6054710D01*
X10777180Y6067180D01*
X10764710Y6075513D01*
X10750000Y6078439D01*
D02*
G37*
G36*
X7825642Y6075374D02*
X7810932Y6072448D01*
X7798461Y6064116D01*
X7790129Y6051646D01*
X7787203Y6036936D01*
X7790129Y6022226D01*
X7798461Y6009755D01*
X7810932Y6001423D01*
X7825642Y5998497D01*
X7840352Y6001423D01*
X7852822Y6009755D01*
X7861154Y6022226D01*
X7864080Y6036936D01*
X7861154Y6051646D01*
X7852822Y6064116D01*
X7840352Y6072448D01*
X7825642Y6075374D01*
D02*
G37*
G36*
X13668077Y5994791D02*
X13653368Y5991865D01*
X13640897Y5983533D01*
X13632564Y5971063D01*
X13629639Y5956353D01*
X13632564Y5941643D01*
X13640897Y5929173D01*
X13653368Y5920840D01*
X13668077Y5917914D01*
X13682787Y5920840D01*
X13695258Y5929173D01*
X13703589Y5941643D01*
X13706516Y5956353D01*
X13703589Y5971063D01*
X13695258Y5983533D01*
X13682787Y5991865D01*
X13668077Y5994791D01*
D02*
G37*
G36*
X12436223Y5970082D02*
X12421513Y5967156D01*
X12409042Y5958823D01*
X12400710Y5946353D01*
X12397784Y5931643D01*
X12400710Y5916933D01*
X12409042Y5904463D01*
X12421513Y5896131D01*
X12436223Y5893205D01*
X12450933Y5896131D01*
X12463403Y5904463D01*
X12471735Y5916933D01*
X12474661Y5931643D01*
X12471735Y5946353D01*
X12463403Y5958823D01*
X12450933Y5967156D01*
X12436223Y5970082D01*
D02*
G37*
G36*
X8180000Y5958439D02*
X8165290Y5955513D01*
X8152820Y5947180D01*
X8144487Y5934710D01*
X8141561Y5920000D01*
X8144487Y5905290D01*
X8152820Y5892820D01*
X8154102Y5891963D01*
Y5750727D01*
X8101688Y5698312D01*
X8096074Y5689911D01*
X8094102Y5680000D01*
Y5580172D01*
X8096074Y5570262D01*
X8101688Y5561860D01*
X8116567Y5546981D01*
X8124969Y5541367D01*
X8134879Y5539396D01*
X8197944D01*
X8205290Y5534488D01*
X8220000Y5531561D01*
X8234710Y5534488D01*
X8247180Y5542820D01*
X8255513Y5555290D01*
X8258439Y5570000D01*
X8255513Y5584710D01*
X8247180Y5597180D01*
X8234710Y5605513D01*
X8220000Y5608439D01*
X8218433Y5619720D01*
X8218438Y5619998D01*
X8218438Y5620000D01*
X8215512Y5634710D01*
X8207180Y5647180D01*
X8194710Y5655512D01*
X8180000Y5658439D01*
X8165290Y5655512D01*
X8158598Y5651041D01*
X8147222Y5657122D01*
X8146213Y5669588D01*
X8198312Y5721688D01*
X8203926Y5730089D01*
X8205897Y5740000D01*
Y5891963D01*
X8207180Y5892820D01*
X8208037Y5894103D01*
X8643591D01*
X8663079Y5874614D01*
X8662562Y5868833D01*
X8650000Y5858598D01*
X8635290Y5855672D01*
X8622820Y5847340D01*
X8614487Y5834870D01*
X8611561Y5820160D01*
X8614487Y5805450D01*
X8622820Y5792980D01*
Y5784640D01*
X8614487Y5772170D01*
X8611561Y5757460D01*
X8614487Y5742750D01*
X8622820Y5730280D01*
X8635290Y5721947D01*
X8650000Y5719021D01*
X8739800D01*
Y5679800D01*
X8900200D01*
Y5800200D01*
X8739800D01*
Y5795898D01*
X8693242D01*
X8686139Y5808599D01*
X8688161Y5818767D01*
X8689468Y5820912D01*
X8699743Y5828427D01*
X8709368Y5826512D01*
X8724078Y5829438D01*
X8736548Y5837770D01*
X8744880Y5850241D01*
X8747806Y5864951D01*
X8744880Y5879661D01*
X8736548Y5892131D01*
X8724078Y5900463D01*
X8709368Y5903389D01*
X8707855Y5903088D01*
X8672631Y5938312D01*
X8664229Y5943926D01*
X8654318Y5945898D01*
X8208037D01*
X8207180Y5947180D01*
X8194710Y5955513D01*
X8180000Y5958439D01*
D02*
G37*
G36*
X9530000Y5878439D02*
X9515290Y5875513D01*
X9502820Y5867180D01*
X9494487Y5854710D01*
X9491561Y5840000D01*
X9494487Y5825290D01*
X9502820Y5812820D01*
X9515290Y5804488D01*
X9530000Y5801561D01*
X9544710Y5804488D01*
X9557180Y5812820D01*
X9565512Y5825290D01*
X9568439Y5840000D01*
X9565512Y5854710D01*
X9557180Y5867180D01*
X9544710Y5875513D01*
X9530000Y5878439D01*
D02*
G37*
G36*
X7290000Y5818439D02*
X7275290Y5815513D01*
X7262820Y5807180D01*
X7254487Y5794710D01*
X7251561Y5780000D01*
X7254487Y5765290D01*
X7262820Y5752820D01*
X7275290Y5744488D01*
X7290000Y5741562D01*
X7304710Y5744488D01*
X7317180Y5752820D01*
X7325512Y5765290D01*
X7328438Y5780000D01*
X7325512Y5794710D01*
X7317180Y5807180D01*
X7304710Y5815513D01*
X7290000Y5818439D01*
D02*
G37*
G36*
X6790000D02*
X6775290Y5815513D01*
X6762820Y5807180D01*
X6754487Y5794710D01*
X6751561Y5780000D01*
X6754487Y5765290D01*
X6762820Y5752820D01*
X6775290Y5744488D01*
X6790000Y5741562D01*
X6804710Y5744488D01*
X6817180Y5752820D01*
X6825512Y5765290D01*
X6828438Y5780000D01*
X6825512Y5794710D01*
X6817180Y5807180D01*
X6804710Y5815513D01*
X6790000Y5818439D01*
D02*
G37*
G36*
X8090000Y5808438D02*
X8075290Y5805512D01*
X8062820Y5797180D01*
X8054488Y5784710D01*
X8051561Y5770000D01*
X8054488Y5755290D01*
X8062820Y5742820D01*
X8075290Y5734487D01*
X8090000Y5731561D01*
X8104710Y5734487D01*
X8117180Y5742820D01*
X8125513Y5755290D01*
X8128439Y5770000D01*
X8125513Y5784710D01*
X8117180Y5797180D01*
X8104710Y5805512D01*
X8090000Y5808438D01*
D02*
G37*
G36*
X9990000Y5758439D02*
X9975290Y5755512D01*
X9962820Y5747180D01*
X9954488Y5734710D01*
X9951562Y5720000D01*
X9954488Y5705290D01*
X9962820Y5692820D01*
X9975290Y5684487D01*
X9990000Y5681561D01*
X10004710Y5684487D01*
X10017180Y5692820D01*
X10025513Y5705290D01*
X10028439Y5720000D01*
X10025513Y5734710D01*
X10017180Y5747180D01*
X10004710Y5755512D01*
X9990000Y5758439D01*
D02*
G37*
G36*
X11140000Y5708439D02*
X11125290Y5705513D01*
X11112820Y5697180D01*
X11104488Y5684710D01*
X11101561Y5670000D01*
X11104488Y5655290D01*
X11112820Y5642820D01*
X11125290Y5634488D01*
X11140000Y5631562D01*
X11154710Y5634488D01*
X11167180Y5642820D01*
X11175513Y5655290D01*
X11178439Y5670000D01*
X11175513Y5684710D01*
X11167180Y5697180D01*
X11154710Y5705513D01*
X11140000Y5708439D01*
D02*
G37*
G36*
X9680000Y5788439D02*
X9665290Y5785512D01*
X9652820Y5777180D01*
X9644487Y5764710D01*
X9641561Y5750000D01*
X9644487Y5735290D01*
X9652820Y5722820D01*
X9661446Y5717056D01*
X9661844Y5715862D01*
Y5704138D01*
X9661446Y5702944D01*
X9652820Y5697180D01*
X9644487Y5684710D01*
X9641561Y5670000D01*
X9644487Y5655290D01*
X9652820Y5642820D01*
X9665290Y5634488D01*
X9680000Y5631562D01*
X9694710Y5634488D01*
X9707180Y5642820D01*
X9715512Y5655290D01*
X9718439Y5670000D01*
X9715512Y5684710D01*
X9707180Y5697180D01*
X9698554Y5702944D01*
X9698156Y5704138D01*
Y5715862D01*
X9698554Y5717056D01*
X9707180Y5722820D01*
X9715512Y5735290D01*
X9718439Y5750000D01*
X9715512Y5764710D01*
X9707180Y5777180D01*
X9694710Y5785512D01*
X9680000Y5788439D01*
D02*
G37*
G36*
X10222204Y5695063D02*
X10207494Y5692137D01*
X10195023Y5683804D01*
X10186691Y5671334D01*
X10183765Y5656624D01*
X10186691Y5641914D01*
X10195023Y5629444D01*
X10207494Y5621112D01*
X10222204Y5618186D01*
X10236913Y5621112D01*
X10249384Y5629444D01*
X10257716Y5641914D01*
X10260642Y5656624D01*
X10257716Y5671334D01*
X10249384Y5683804D01*
X10236913Y5692137D01*
X10222204Y5695063D01*
D02*
G37*
G36*
X6250000Y5688438D02*
X6235290Y5685512D01*
X6222820Y5677180D01*
X6214487Y5664710D01*
X6211561Y5650000D01*
X6214487Y5635290D01*
X6222820Y5622820D01*
X6235290Y5614487D01*
X6250000Y5611561D01*
X6264710Y5614487D01*
X6277180Y5622820D01*
X6285512Y5635290D01*
X6288439Y5650000D01*
X6285512Y5664710D01*
X6277180Y5677180D01*
X6264710Y5685512D01*
X6250000Y5688438D01*
D02*
G37*
G36*
X10866223Y5650082D02*
X10851513Y5647156D01*
X10839043Y5638823D01*
X10830710Y5626353D01*
X10827784Y5611643D01*
X10830710Y5596933D01*
X10839043Y5584463D01*
X10851513Y5576131D01*
X10866223Y5573204D01*
X10880933Y5576131D01*
X10893403Y5584463D01*
X10901735Y5596933D01*
X10904661Y5611643D01*
X10901735Y5626353D01*
X10893403Y5638823D01*
X10880933Y5647156D01*
X10866223Y5650082D01*
D02*
G37*
G36*
X11776223Y5640082D02*
X11761513Y5637156D01*
X11749043Y5628823D01*
X11740710Y5616353D01*
X11737784Y5601643D01*
X11740710Y5586933D01*
X11749043Y5574463D01*
X11761513Y5566131D01*
X11776223Y5563205D01*
X11790933Y5566131D01*
X11803403Y5574463D01*
X11811735Y5586933D01*
X11814661Y5601643D01*
X11811735Y5616353D01*
X11803403Y5628823D01*
X11790933Y5637156D01*
X11776223Y5640082D01*
D02*
G37*
G36*
X14520000Y5598439D02*
X14505290Y5595513D01*
X14492821Y5587180D01*
X14484486Y5574710D01*
X14481561Y5560000D01*
X14484486Y5545290D01*
X14492821Y5532820D01*
X14505290Y5524488D01*
X14520000Y5521561D01*
X14534711Y5524488D01*
X14547180Y5532820D01*
X14555511Y5545290D01*
X14558438Y5560000D01*
X14555511Y5574710D01*
X14547180Y5587180D01*
X14534711Y5595513D01*
X14520000Y5598439D01*
D02*
G37*
G36*
X8369368Y5543389D02*
X8354658Y5540463D01*
X8342188Y5532131D01*
X8333856Y5519661D01*
X8330929Y5504951D01*
X8333856Y5490241D01*
X8342188Y5477770D01*
X8354658Y5469438D01*
X8369368Y5466512D01*
X8384078Y5469438D01*
X8389253Y5472896D01*
X8404552Y5472670D01*
X8407261Y5470943D01*
X8417150Y5464336D01*
X8431860Y5461409D01*
X8446570Y5464336D01*
X8459040Y5472668D01*
X8467372Y5485138D01*
X8470299Y5499848D01*
X8467372Y5514558D01*
X8459040Y5527028D01*
X8446570Y5535361D01*
X8431860Y5538287D01*
X8417150Y5535361D01*
X8411975Y5531903D01*
X8396676Y5532129D01*
X8393967Y5533856D01*
X8384078Y5540463D01*
X8369368Y5543389D01*
D02*
G37*
G36*
X14345349Y5381747D02*
X14330640Y5378821D01*
X14318169Y5370489D01*
X14309837Y5358018D01*
X14306911Y5343309D01*
X14309837Y5328599D01*
X14318169Y5316128D01*
X14330640Y5307796D01*
X14345349Y5304870D01*
X14360059Y5307796D01*
X14372530Y5316128D01*
X14380862Y5328599D01*
X14383788Y5343309D01*
X14380862Y5358018D01*
X14372530Y5370489D01*
X14360059Y5378821D01*
X14345349Y5381747D01*
D02*
G37*
G36*
X9418515Y5361668D02*
X9403805Y5358742D01*
X9391335Y5350410D01*
X9383003Y5337940D01*
X9380076Y5323230D01*
X9383003Y5308520D01*
X9391335Y5296050D01*
X9403805Y5287717D01*
X9418515Y5284791D01*
X9433225Y5287717D01*
X9445695Y5296050D01*
X9454028Y5308520D01*
X9456954Y5323230D01*
X9454028Y5337940D01*
X9445695Y5350410D01*
X9433225Y5358742D01*
X9418515Y5361668D01*
D02*
G37*
G36*
X13516223Y5360082D02*
X13501514Y5357156D01*
X13489043Y5348823D01*
X13480710Y5336353D01*
X13477785Y5321643D01*
X13480710Y5306933D01*
X13489043Y5294463D01*
X13501514Y5286131D01*
X13516223Y5283205D01*
X13530933Y5286131D01*
X13543404Y5294463D01*
X13551735Y5306933D01*
X13554662Y5321643D01*
X13551735Y5336353D01*
X13543404Y5348823D01*
X13530933Y5357156D01*
X13516223Y5360082D01*
D02*
G37*
G36*
X9579011Y5246472D02*
X9458611D01*
Y5215198D01*
X9445911Y5212557D01*
X9434078Y5220463D01*
X9419368Y5223389D01*
X9404658Y5220463D01*
X9392188Y5212131D01*
X9383856Y5199660D01*
X9380930Y5184951D01*
X9383856Y5170241D01*
X9392188Y5157770D01*
X9404658Y5149438D01*
X9419368Y5146512D01*
X9434078Y5149438D01*
X9445911Y5157344D01*
X9458611Y5154703D01*
Y5116072D01*
X9579011D01*
Y5246472D01*
D02*
G37*
G36*
X9982700Y5245200D02*
X9862300D01*
Y5114800D01*
X9982700D01*
Y5136878D01*
X9995400Y5147301D01*
X9999368Y5146512D01*
X10014078Y5149438D01*
X10026548Y5157770D01*
X10034881Y5170241D01*
X10037807Y5184951D01*
X10034881Y5199660D01*
X10026548Y5212131D01*
X10014078Y5220463D01*
X9999368Y5223389D01*
X9995400Y5222600D01*
X9982700Y5233023D01*
Y5245200D01*
D02*
G37*
G36*
X15417700Y4607700D02*
X15242300D01*
Y4432300D01*
X15417700D01*
Y4607700D01*
D02*
G37*
G36*
X9310000Y4468439D02*
X9295290Y4465513D01*
X9282820Y4457180D01*
X9274487Y4444710D01*
X9271561Y4430000D01*
X9274487Y4415290D01*
X9282820Y4402820D01*
X9295290Y4394488D01*
X9310000Y4391561D01*
X9324710Y4394488D01*
X9337180Y4402820D01*
X9345512Y4415290D01*
X9348439Y4430000D01*
X9345512Y4444710D01*
X9337180Y4457180D01*
X9324710Y4465513D01*
X9310000Y4468439D01*
D02*
G37*
G36*
X7306223Y4330082D02*
X7291513Y4327156D01*
X7279043Y4318823D01*
X7270710Y4306353D01*
X7267784Y4291643D01*
X7270710Y4276933D01*
X7279043Y4264463D01*
X7291513Y4256131D01*
X7306223Y4253205D01*
X7320933Y4256131D01*
X7333403Y4264463D01*
X7341735Y4276933D01*
X7344661Y4291643D01*
X7341735Y4306353D01*
X7333403Y4318823D01*
X7320933Y4327156D01*
X7306223Y4330082D01*
D02*
G37*
G36*
X13086475Y4330570D02*
X13071765Y4327644D01*
X13059294Y4319311D01*
X13050961Y4306841D01*
X13048036Y4292131D01*
X13050961Y4277421D01*
X13059294Y4264951D01*
X13060815Y4263935D01*
X13060866Y4263809D01*
X13059946Y4249242D01*
X13052820Y4244480D01*
X13044487Y4232010D01*
X13041560Y4217300D01*
X13044487Y4202590D01*
X13052820Y4190120D01*
X13057326Y4187109D01*
Y4171835D01*
X13052820Y4168824D01*
X13044487Y4156353D01*
X13041560Y4141643D01*
X13044487Y4126933D01*
X13052820Y4114463D01*
X13065289Y4106131D01*
X13066656Y4105859D01*
X13068379Y4097061D01*
X13067976Y4092647D01*
X13056625Y4085063D01*
X13048294Y4072593D01*
X13045367Y4057883D01*
X13048294Y4043173D01*
X13056625Y4030702D01*
X13069096Y4022370D01*
X13083807Y4019444D01*
X13098517Y4022370D01*
X13110986Y4030702D01*
X13119319Y4043173D01*
X13122244Y4057883D01*
X13119319Y4072593D01*
X13110986Y4085063D01*
X13098517Y4093395D01*
X13097150Y4093667D01*
X13095428Y4102465D01*
X13095828Y4106879D01*
X13107179Y4114463D01*
X13115514Y4126933D01*
X13118439Y4141643D01*
X13115514Y4156353D01*
X13107179Y4168824D01*
X13102673Y4171835D01*
Y4187109D01*
X13107179Y4190120D01*
X13115514Y4202590D01*
X13118439Y4217300D01*
X13115514Y4232010D01*
X13107179Y4244480D01*
X13105659Y4245497D01*
X13105609Y4245622D01*
X13106529Y4260190D01*
X13113655Y4264951D01*
X13121986Y4277421D01*
X13124913Y4292131D01*
X13121986Y4306841D01*
X13113655Y4319311D01*
X13101186Y4327644D01*
X13086475Y4330570D01*
D02*
G37*
G36*
X10776223Y4050082D02*
X10761513Y4047156D01*
X10749043Y4038824D01*
X10740710Y4026353D01*
X10737784Y4011643D01*
X10740710Y3996933D01*
X10749043Y3984463D01*
X10761513Y3976131D01*
X10776223Y3973205D01*
X10790933Y3976131D01*
X10803403Y3984463D01*
X10811735Y3996933D01*
X10814661Y4011643D01*
X10811735Y4026353D01*
X10803403Y4038824D01*
X10790933Y4047156D01*
X10776223Y4050082D01*
D02*
G37*
G36*
X8400000Y3938439D02*
X8385290Y3935513D01*
X8372820Y3927180D01*
X8364487Y3914710D01*
X8361561Y3900000D01*
X8364487Y3885290D01*
X8372820Y3872820D01*
X8385290Y3864488D01*
X8400000Y3861561D01*
X8414710Y3864488D01*
X8427180Y3872820D01*
X8435512Y3885290D01*
X8438439Y3900000D01*
X8435512Y3914710D01*
X8427180Y3927180D01*
X8414710Y3935513D01*
X8400000Y3938439D01*
D02*
G37*
G36*
X10106223Y3890082D02*
X10091513Y3887156D01*
X10079043Y3878823D01*
X10070710Y3866353D01*
X10067784Y3851643D01*
X10070710Y3836933D01*
X10079043Y3824463D01*
X10091513Y3816131D01*
X10106223Y3813204D01*
X10120933Y3816131D01*
X10133403Y3824463D01*
X10141735Y3836933D01*
X10144661Y3851643D01*
X10141735Y3866353D01*
X10133403Y3878823D01*
X10120933Y3887156D01*
X10106223Y3890082D01*
D02*
G37*
G36*
X8800000Y3738439D02*
X8785290Y3735512D01*
X8772820Y3727180D01*
X8764487Y3714710D01*
X8761561Y3700000D01*
X8764487Y3685290D01*
X8772820Y3672820D01*
X8785290Y3664487D01*
X8800000Y3661561D01*
X8814710Y3664487D01*
X8827180Y3672820D01*
X8835512Y3685290D01*
X8838439Y3700000D01*
X8835512Y3714710D01*
X8827180Y3727180D01*
X8814710Y3735512D01*
X8800000Y3738439D01*
D02*
G37*
G36*
X10875201Y3692722D02*
X10724807D01*
Y3467323D01*
X10875201D01*
Y3692722D01*
D02*
G37*
G36*
X10675201D02*
X10424808D01*
Y3467323D01*
X10675201D01*
Y3692722D01*
D02*
G37*
G36*
X10375201D02*
X10124808D01*
Y3467323D01*
X10375201D01*
Y3692722D01*
D02*
G37*
G36*
X10075202D02*
X9824809D01*
Y3467323D01*
X10075202D01*
Y3692722D01*
D02*
G37*
G36*
X9775203D02*
X9624809D01*
Y3467323D01*
X9775203D01*
Y3692722D01*
D02*
G37*
G36*
X8325218D02*
X8174825D01*
Y3467323D01*
X8325218D01*
Y3692722D01*
D02*
G37*
G36*
X8125219D02*
X7874825D01*
Y3467323D01*
X8125219D01*
Y3692722D01*
D02*
G37*
G36*
X7825219D02*
X7574826D01*
Y3467323D01*
X7825219D01*
Y3692722D01*
D02*
G37*
G36*
X7525220D02*
X7274827D01*
Y3467323D01*
X7525220D01*
Y3692722D01*
D02*
G37*
G36*
X7225220D02*
X7074827D01*
Y3467323D01*
X7225220D01*
Y3692722D01*
D02*
G37*
G36*
X10945025Y3525984D02*
X10929342Y3522864D01*
X10916046Y3513980D01*
X10907162Y3500684D01*
X10904042Y3485001D01*
X10907162Y3469317D01*
X10916046Y3456022D01*
X10929342Y3447138D01*
X10945025Y3444018D01*
X10960709Y3447138D01*
X10974004Y3456022D01*
X10982888Y3469317D01*
X10986008Y3485001D01*
X10982888Y3500684D01*
X10974004Y3513980D01*
X10960709Y3522864D01*
X10945025Y3525984D01*
D02*
G37*
G36*
X9555010D02*
X9539327Y3522864D01*
X9526031Y3513980D01*
X9517147Y3500684D01*
X9514027Y3485001D01*
X9517147Y3469317D01*
X9526031Y3456022D01*
X9539327Y3447138D01*
X9555010Y3444018D01*
X9570694Y3447138D01*
X9583989Y3456022D01*
X9592873Y3469317D01*
X9595993Y3485001D01*
X9592873Y3500684D01*
X9583989Y3513980D01*
X9570694Y3522864D01*
X9555010Y3525984D01*
D02*
G37*
G36*
X8395018D02*
X8379334Y3522864D01*
X8366038Y3513980D01*
X8357154Y3500684D01*
X8354035Y3485001D01*
X8357154Y3469317D01*
X8366038Y3456022D01*
X8379334Y3447138D01*
X8395018Y3444018D01*
X8410701Y3447138D01*
X8423997Y3456022D01*
X8432881Y3469317D01*
X8436000Y3485001D01*
X8432881Y3500684D01*
X8423997Y3513980D01*
X8410701Y3522864D01*
X8395018Y3525984D01*
D02*
G37*
G36*
X7005003D02*
X6989319Y3522864D01*
X6976023Y3513980D01*
X6967139Y3500684D01*
X6964020Y3485001D01*
X6967139Y3469317D01*
X6976023Y3456022D01*
X6989319Y3447138D01*
X7005003Y3444018D01*
X7020686Y3447138D01*
X7033982Y3456022D01*
X7042866Y3469317D01*
X7045985Y3485001D01*
X7042866Y3500684D01*
X7033982Y3513980D01*
X7020686Y3522864D01*
X7005003Y3525984D01*
D02*
G37*
G36*
X8550000Y3508438D02*
X8535290Y3505512D01*
X8522820Y3497180D01*
X8514487Y3484710D01*
X8511561Y3470000D01*
X8514487Y3455290D01*
X8522820Y3442820D01*
X8535290Y3434487D01*
X8550000Y3431561D01*
X8564710Y3434487D01*
X8577180Y3442820D01*
X8585512Y3455290D01*
X8588438Y3470000D01*
X8585512Y3484710D01*
X8577180Y3497180D01*
X8564710Y3505512D01*
X8550000Y3508438D01*
D02*
G37*
G36*
X9596223Y3340082D02*
X9581513Y3337156D01*
X9569043Y3328823D01*
X9560710Y3316353D01*
X9557784Y3301643D01*
X9560710Y3286933D01*
X9569043Y3274463D01*
X9581513Y3266131D01*
X9596223Y3263205D01*
X9610933Y3266131D01*
X9623403Y3274463D01*
X9631735Y3286933D01*
X9634661Y3301643D01*
X9631735Y3316353D01*
X9623403Y3328823D01*
X9610933Y3337156D01*
X9596223Y3340082D01*
D02*
G37*
G36*
X10875201Y3252718D02*
X10724807D01*
Y3027318D01*
X10875201D01*
Y3252718D01*
D02*
G37*
G36*
X10675201D02*
X10424808D01*
Y3027318D01*
X10675201D01*
Y3252718D01*
D02*
G37*
G36*
X10375201D02*
X10124808D01*
Y3027318D01*
X10375201D01*
Y3252718D01*
D02*
G37*
G36*
X10075202D02*
X9824809D01*
Y3027318D01*
X10075202D01*
Y3252718D01*
D02*
G37*
G36*
X9775203D02*
X9624809D01*
Y3027318D01*
X9775203D01*
Y3252718D01*
D02*
G37*
G36*
X8325218D02*
X8174825D01*
Y3027318D01*
X8325218D01*
Y3252718D01*
D02*
G37*
G36*
X8125219D02*
X7874825D01*
Y3027318D01*
X8125219D01*
Y3252718D01*
D02*
G37*
G36*
X7825219D02*
X7574826D01*
Y3027318D01*
X7825219D01*
Y3252718D01*
D02*
G37*
G36*
X7525220D02*
X7274827D01*
Y3027318D01*
X7525220D01*
Y3252718D01*
D02*
G37*
G36*
X7225220D02*
X7074827D01*
Y3027318D01*
X7225220D01*
Y3252718D01*
D02*
G37*
G36*
X12650000Y3336269D02*
X12615613Y3332882D01*
X12582548Y3322852D01*
X12552074Y3306564D01*
X12525365Y3284643D01*
X12503444Y3257934D01*
X12487156Y3227460D01*
X12477126Y3194395D01*
X12473739Y3160008D01*
X12477126Y3125621D01*
X12487156Y3092556D01*
X12503444Y3062082D01*
X12525365Y3035372D01*
X12552074Y3013452D01*
X12582548Y2997164D01*
X12615613Y2987133D01*
X12650000Y2983747D01*
X12684387Y2987133D01*
X12717452Y2997164D01*
X12747926Y3013452D01*
X12774636Y3035372D01*
X12796556Y3062082D01*
X12812843Y3092556D01*
X12822874Y3125621D01*
X12826260Y3160008D01*
X12822874Y3194395D01*
X12812843Y3227460D01*
X12796556Y3257934D01*
X12774636Y3284643D01*
X12747926Y3306564D01*
X12717452Y3322852D01*
X12684387Y3332882D01*
X12650000Y3336269D01*
D02*
G37*
G36*
X6650012D02*
X6615625Y3332882D01*
X6582560Y3322852D01*
X6552086Y3306564D01*
X6525377Y3284643D01*
X6503456Y3257934D01*
X6487168Y3227460D01*
X6477138Y3194395D01*
X6473751Y3160008D01*
X6477138Y3125621D01*
X6487168Y3092556D01*
X6503456Y3062082D01*
X6525377Y3035372D01*
X6552086Y3013452D01*
X6582560Y2997164D01*
X6615625Y2987133D01*
X6650012Y2983747D01*
X6684399Y2987133D01*
X6717464Y2997164D01*
X6747938Y3013452D01*
X6774648Y3035372D01*
X6796568Y3062082D01*
X6812856Y3092556D01*
X6822887Y3125621D01*
X6826273Y3160008D01*
X6822887Y3194395D01*
X6812856Y3227460D01*
X6796568Y3257934D01*
X6774648Y3284643D01*
X6747938Y3306564D01*
X6717464Y3322852D01*
X6684399Y3332882D01*
X6650012Y3336269D01*
D02*
G37*
G36*
X15437700Y3157700D02*
X15262300D01*
Y2982300D01*
X15437700D01*
Y3157700D01*
D02*
G37*
G36*
X13080000Y3230082D02*
X13065289Y3227156D01*
X13052820Y3218823D01*
X13044487Y3206353D01*
X13041560Y3191643D01*
X13044487Y3176933D01*
X13052820Y3164463D01*
X13061446Y3158699D01*
X13061844Y3157505D01*
Y3145781D01*
X13061446Y3144587D01*
X13052820Y3138823D01*
X13044487Y3126353D01*
X13041560Y3111643D01*
X13044487Y3096933D01*
X13052820Y3084463D01*
X13061446Y3078699D01*
X13061844Y3077505D01*
Y3065781D01*
X13061446Y3064587D01*
X13052820Y3058823D01*
X13044487Y3046353D01*
X13041560Y3031643D01*
X13044487Y3016933D01*
X13052820Y3004463D01*
X13062675Y2997877D01*
X13063739Y2992849D01*
Y2988794D01*
X13062675Y2983766D01*
X13052820Y2977180D01*
X13044487Y2964710D01*
X13041560Y2950000D01*
X13044487Y2935290D01*
X13052820Y2922820D01*
X13065289Y2914487D01*
X13080000Y2911561D01*
X13094710Y2914487D01*
X13107179Y2922820D01*
X13115514Y2935290D01*
X13118439Y2950000D01*
X13115514Y2964710D01*
X13107179Y2977180D01*
X13097324Y2983766D01*
X13096262Y2988794D01*
Y2992849D01*
X13097324Y2997877D01*
X13107179Y3004463D01*
X13115514Y3016933D01*
X13118439Y3031643D01*
X13115514Y3046353D01*
X13107179Y3058823D01*
X13098553Y3064587D01*
X13098157Y3065781D01*
Y3077505D01*
X13098553Y3078699D01*
X13107179Y3084463D01*
X13115514Y3096933D01*
X13118439Y3111643D01*
X13115514Y3126353D01*
X13107179Y3138823D01*
X13098553Y3144587D01*
X13098157Y3145781D01*
Y3157505D01*
X13098553Y3158699D01*
X13107179Y3164463D01*
X13115514Y3176933D01*
X13118439Y3191643D01*
X13115514Y3206353D01*
X13107179Y3218823D01*
X13094710Y3227156D01*
X13080000Y3230082D01*
D02*
G37*
G36*
X10110000Y4848439D02*
X10095290Y4845513D01*
X10082820Y4837180D01*
X10074488Y4824710D01*
X10071561Y4810000D01*
X10074488Y4795290D01*
X10082820Y4782820D01*
X11131561Y3734078D01*
Y2975922D01*
X11052820Y2897180D01*
X11044487Y2884710D01*
X11041561Y2870000D01*
X11044487Y2855290D01*
X11052820Y2842820D01*
X11065290Y2834488D01*
X11080000Y2831561D01*
X11094710Y2834488D01*
X11107180Y2842820D01*
X11197180Y2932819D01*
X11197180Y2932820D01*
X11205513Y2945291D01*
X11208439Y2960000D01*
X11208439Y2960001D01*
Y3749999D01*
X11208439Y3750000D01*
X11205513Y3764710D01*
X11197180Y3777180D01*
X11197180Y3777181D01*
X10137180Y4837180D01*
X10124710Y4845513D01*
X10122269Y4845998D01*
X10110000Y4848439D01*
D02*
G37*
G36*
X9057160Y3220030D02*
X9036876Y3217360D01*
X9017974Y3209531D01*
X9001743Y3197076D01*
X8989289Y3180845D01*
X8981460Y3161943D01*
X8978789Y3141660D01*
X8981460Y3121376D01*
X8989289Y3102474D01*
X9001743Y3086244D01*
X9017974Y3073789D01*
X9031262Y3068285D01*
Y2744260D01*
X8955860D01*
Y2573860D01*
X9101260D01*
Y2744260D01*
X9083057D01*
Y3068285D01*
X9096345Y3073789D01*
X9112576Y3086244D01*
X9125031Y3102474D01*
X9132860Y3121376D01*
X9135530Y3141660D01*
X9132860Y3161943D01*
X9125031Y3180845D01*
X9112576Y3197076D01*
X9096345Y3209531D01*
X9077443Y3217360D01*
X9057160Y3220030D01*
D02*
G37*
G36*
X8880860Y3219360D02*
X8725460D01*
Y3063960D01*
X8802662D01*
Y2744260D01*
X8755860D01*
Y2573860D01*
X8901260D01*
Y2744260D01*
X8854457D01*
Y3063960D01*
X8880860D01*
Y3219360D01*
D02*
G37*
%LPD*%
D11*
X6800024Y7160000D02*
G03*
X6800024Y7160000I-150012J0D01*
G01*
Y3160008D02*
G03*
X6800024Y3160008I-150012J0D01*
G01*
X12800012D02*
G03*
X12800012Y3160008I-150012J0D01*
G01*
Y7160000D02*
G03*
X12800012Y7160000I-150012J0D01*
G01*
D28*
X8820000Y5740000D02*
D03*
Y5590000D02*
D03*
D30*
X8828560Y2659060D02*
D03*
X9028560D02*
D03*
D57*
X11170000Y2960000D02*
Y3750000D01*
X11080000Y2870000D02*
X11170000Y2960000D01*
X10110000Y4810000D02*
X11170000Y3750000D01*
X8802540Y5757460D02*
X8820000Y5740000D01*
X8650000Y5757460D02*
X8802540D01*
X3183000Y5099500D02*
X3340500D01*
X3341000Y5099000D01*
X3182500Y5100000D02*
X3183000Y5099500D01*
X2977500Y5112500D02*
X3076960Y5211960D01*
Y5342960D02*
X3087000Y5353000D01*
X3076960Y5211960D02*
Y5342960D01*
X2977500Y5100000D02*
Y5112500D01*
D58*
X9881596Y7335824D02*
X9882953Y7337181D01*
X9881596Y7296843D02*
Y7335824D01*
X9882953Y7337181D02*
Y7354576D01*
X9887660Y7359283D01*
X9850000Y7480000D02*
X9987500D01*
X10430000Y6570000D02*
X10653512D01*
X10673512Y6590000D02*
X10680168D01*
X10653512Y6570000D02*
X10673512Y6590000D01*
X10400017Y6599983D02*
X10430000Y6570000D01*
X9450006Y7180015D02*
Y7289994D01*
X9390000Y7350000D02*
X9450006Y7289994D01*
X9500215Y7329479D02*
X9500411Y7329675D01*
X9500215Y7180211D02*
Y7329479D01*
X9500019Y7180015D02*
X9500215Y7180211D01*
X9650203Y7293832D02*
X9655057Y7298686D01*
Y7305343D01*
X9650203Y7180212D02*
Y7293832D01*
X9575664Y7361845D02*
Y7368502D01*
X9600000Y7180034D02*
Y7337509D01*
X9575664Y7361845D02*
X9600000Y7337509D01*
X8134879Y5565293D02*
X8215293D01*
X8220000Y5570000D01*
X8120000Y5580172D02*
X8134879Y5565293D01*
X8120000Y5580172D02*
Y5680000D01*
X8180000Y5740000D01*
Y5920000D01*
X8654318D02*
X8709368Y5864951D01*
X8180000Y5920000D02*
X8654318D01*
X10049368Y7289124D02*
Y7370000D01*
X10049802Y7180218D02*
Y7288690D01*
X10049368Y7289124D02*
X10049802Y7288690D01*
X9750000Y7180021D02*
Y7370000D01*
X10249802Y7180218D02*
Y7310413D01*
Y7180218D02*
X10250005Y7180015D01*
X10249768Y7310447D02*
X10249802Y7310413D01*
X10249768Y7310447D02*
Y7360400D01*
X9881596Y7296843D02*
X9887902Y7290536D01*
X9931996Y7308291D02*
Y7314947D01*
X9949802Y7180218D02*
Y7290484D01*
X9900018Y7180015D02*
Y7267112D01*
X9887902Y7279228D02*
X9900018Y7267112D01*
X9931996Y7308291D02*
X9949802Y7290484D01*
X9887902Y7279228D02*
Y7290536D01*
X9949802Y7180218D02*
X9950005Y7180015D01*
X10308806Y6978806D02*
X10346491D01*
X10200018Y6740011D02*
Y6941294D01*
X10299362Y7040638D01*
X10200018Y7069494D02*
X10222869Y7046644D01*
X10200018Y7069494D02*
Y7180015D01*
X10346491Y6978806D02*
X10410000Y7042315D01*
X10222869Y7045274D02*
Y7046644D01*
X10250005Y6740011D02*
Y6920005D01*
X10308806Y6978806D01*
X10410400Y6863343D02*
Y6870000D01*
X10400017Y6740011D02*
X10400220Y6740214D01*
Y6853164D01*
X10410400Y6863343D01*
X10400017Y6599983D02*
Y6740011D01*
X9497500Y6032500D02*
X9500000Y6030000D01*
X9497500Y6032500D02*
Y6170000D01*
X9814362Y6893562D02*
X9821018D01*
X9857457Y6930000D01*
X9954060D01*
X9800222Y7066955D02*
X9872303Y6994874D01*
X9800222Y7066955D02*
Y7179812D01*
X9800019Y7180015D02*
X9800222Y7179812D01*
X9954060Y6930000D02*
X10100018Y7075958D01*
Y7180015D01*
X9690400Y6420000D02*
X9890682D01*
X10000682Y6530000D02*
X10290000D01*
X10350005Y6590005D02*
Y6740011D01*
X10290000Y6530000D02*
X10350005Y6590005D01*
X9890682Y6420000D02*
X10000682Y6530000D01*
X9800209Y7309809D02*
X9800400Y7310000D01*
X9800209Y7180206D02*
Y7309809D01*
X9750000Y7180021D02*
X9750006Y7180015D01*
X9800019D02*
X9800209Y7180206D01*
X9650006Y7180015D02*
X9650203Y7180212D01*
X9600000Y7180034D02*
X9600019Y7180015D01*
X10349368Y7289124D02*
Y7370000D01*
X10049802Y7180218D02*
X10050005Y7180015D01*
X10399893Y7180140D02*
X10400017Y7180015D01*
X10399893Y7180140D02*
Y7309875D01*
X10349801Y7180218D02*
Y7288690D01*
X10399768Y7310000D02*
X10399893Y7309875D01*
X10349801Y7180218D02*
X10350005Y7180015D01*
X10349368Y7289124D02*
X10349801Y7288690D01*
X9927451Y5184951D02*
X9999368D01*
X9922500Y5180000D02*
X9927451Y5184951D01*
X9419368D02*
X9515133D01*
X9518811Y5181272D01*
X9417500Y6030000D02*
X9497500D01*
X9922500Y6300000D02*
X9957300Y6334800D01*
Y6400644D02*
X9980000Y6423344D01*
Y6430000D01*
X9957300Y6334800D02*
Y6400644D01*
X8828560Y2659060D02*
Y3116260D01*
X8803160Y3141660D02*
X8828560Y3116260D01*
X9028560Y2659060D02*
X9057160Y2687660D01*
Y3141660D01*
D60*
X15350000Y3070000D02*
D03*
X15330000Y3930000D02*
D03*
Y4520000D02*
D03*
Y3650000D02*
D03*
D61*
X10545001Y7085019D02*
D03*
X9155011D02*
D03*
X8395018D02*
D03*
X7005003D02*
D03*
X10945025Y3485001D02*
D03*
X9555010D02*
D03*
X8395018D02*
D03*
X7005003D02*
D03*
D62*
X6650012Y7160000D02*
D03*
Y3160008D02*
D03*
X12650000D02*
D03*
Y7160000D02*
D03*
D63*
X3341000Y5099000D02*
D03*
X2579000D02*
D03*
Y5861000D02*
D03*
X3341000D02*
D03*
X3087000Y5353000D02*
D03*
X3087000Y5607000D02*
D03*
D64*
X8803160Y3141660D02*
D03*
D65*
X9057160D02*
D03*
X8930160Y3268660D02*
D03*
Y3014660D02*
D03*
D66*
X9887660Y7359283D02*
D03*
X9850000Y7480000D02*
D03*
X15549995Y7299998D02*
D03*
X15399995Y6999998D02*
D03*
X15549995Y6699998D02*
D03*
X15399995Y6399998D02*
D03*
X15549995Y6099998D02*
D03*
X15399995Y5799998D02*
D03*
X15549995Y5499998D02*
D03*
X15399995Y5199998D02*
D03*
X15549995Y4899999D02*
D03*
Y4299999D02*
D03*
Y3699999D02*
D03*
X15399995Y3399999D02*
D03*
X15549995Y3099999D02*
D03*
X15399995Y2799999D02*
D03*
X15249995Y7299998D02*
D03*
X15099995Y6999998D02*
D03*
X15249995Y6699998D02*
D03*
X15099995Y6399998D02*
D03*
X15249995Y6099998D02*
D03*
X15099995Y5799998D02*
D03*
X15249995Y5499998D02*
D03*
X15099995Y5199998D02*
D03*
X15249995Y4899999D02*
D03*
Y4299999D02*
D03*
X15099995Y3399999D02*
D03*
Y2799999D02*
D03*
X14949995Y7299998D02*
D03*
X14799995Y6999998D02*
D03*
X14949995Y6699998D02*
D03*
X14799995Y6399998D02*
D03*
X14949995Y6099998D02*
D03*
X14799995Y5799998D02*
D03*
X14949995Y5499998D02*
D03*
X14799995Y5199998D02*
D03*
X14949995Y4899999D02*
D03*
X14799995Y4599999D02*
D03*
Y3999999D02*
D03*
Y3399999D02*
D03*
Y2799999D02*
D03*
X14649995Y7299998D02*
D03*
X14499995Y6999998D02*
D03*
X14649995Y6699998D02*
D03*
X14499995Y6399998D02*
D03*
X14649995Y6099998D02*
D03*
Y5499998D02*
D03*
X14499995Y5199998D02*
D03*
X14649995Y4899999D02*
D03*
X14499995Y4599999D02*
D03*
Y3999999D02*
D03*
X14649995Y3699999D02*
D03*
X14499995Y3399999D02*
D03*
X14649995Y3099999D02*
D03*
X14499995Y2799999D02*
D03*
X14349995Y7299998D02*
D03*
X14199995Y6999998D02*
D03*
X14349995Y6699998D02*
D03*
X14199995Y5199998D02*
D03*
X14349995Y4899999D02*
D03*
X14199995Y4599999D02*
D03*
Y3999999D02*
D03*
Y2799999D02*
D03*
X14049995Y7299998D02*
D03*
X13899995Y6999998D02*
D03*
X14049995Y6699998D02*
D03*
X13899995Y6399998D02*
D03*
X14049995Y6099998D02*
D03*
X13899995Y5199998D02*
D03*
X14049995Y4899999D02*
D03*
Y4299999D02*
D03*
X13899995Y3399999D02*
D03*
Y2799999D02*
D03*
X13749995Y7299998D02*
D03*
X13599995Y6399998D02*
D03*
X13749995Y6099998D02*
D03*
X13599995Y5199998D02*
D03*
X13749995Y4899999D02*
D03*
Y3699999D02*
D03*
X13599995Y2799999D02*
D03*
X13449995Y7299998D02*
D03*
X13299995Y6999998D02*
D03*
X13449995Y6699998D02*
D03*
X13299995Y6399998D02*
D03*
X13449995Y6099998D02*
D03*
X13299995Y5199998D02*
D03*
X13449995Y4899999D02*
D03*
X13299995Y4599999D02*
D03*
X13449995Y4299999D02*
D03*
X12999995Y6999998D02*
D03*
X13149995Y6699998D02*
D03*
X12999995Y6399998D02*
D03*
X13149995Y6099998D02*
D03*
Y5499998D02*
D03*
X12999995Y5199998D02*
D03*
Y4599999D02*
D03*
Y3999999D02*
D03*
X13149995Y3699999D02*
D03*
X12999995Y2799999D02*
D03*
X12849995Y7299998D02*
D03*
Y6699998D02*
D03*
X12699996Y6399998D02*
D03*
X12849995Y6099998D02*
D03*
Y5499998D02*
D03*
X12699996Y5199998D02*
D03*
Y4599999D02*
D03*
Y3999999D02*
D03*
X12849995Y3699999D02*
D03*
X12699996Y2799999D02*
D03*
X12399996Y6999998D02*
D03*
X12549996Y6699998D02*
D03*
X12399996Y6399998D02*
D03*
X12549996Y4899999D02*
D03*
X12399996Y4599999D02*
D03*
Y3999999D02*
D03*
X12549996Y3699999D02*
D03*
X12399996Y2799999D02*
D03*
X12249996Y7299998D02*
D03*
X12099996Y6999998D02*
D03*
X12249996Y6699998D02*
D03*
X12099996Y6399998D02*
D03*
X12249996Y4899999D02*
D03*
X12099996Y4599999D02*
D03*
Y3999999D02*
D03*
X12249996Y3699999D02*
D03*
Y3099999D02*
D03*
X12099996Y2799999D02*
D03*
X11949996Y7299998D02*
D03*
X11799996Y6999998D02*
D03*
X11949996Y6699998D02*
D03*
X11799996Y6399998D02*
D03*
Y5199998D02*
D03*
X11949996Y4899999D02*
D03*
X11799996Y4599999D02*
D03*
Y3999999D02*
D03*
X11949996Y3699999D02*
D03*
X11799996Y2799999D02*
D03*
X11649997Y7299998D02*
D03*
Y6699998D02*
D03*
X11499997Y5199998D02*
D03*
X11649997Y4899999D02*
D03*
X11499997Y4599999D02*
D03*
Y3999999D02*
D03*
X11649997Y3699999D02*
D03*
X11499997Y2799999D02*
D03*
X11199997Y6999998D02*
D03*
X11349997Y6699998D02*
D03*
X11199997Y6399998D02*
D03*
Y5199998D02*
D03*
X11349997Y4899999D02*
D03*
X11199997Y4599999D02*
D03*
Y3999999D02*
D03*
X11349997Y3699999D02*
D03*
X11199997Y2799999D02*
D03*
X10899997Y6999998D02*
D03*
Y6399998D02*
D03*
X11049997Y5499998D02*
D03*
X10899997Y5199998D02*
D03*
X11049997Y4899999D02*
D03*
X10899997Y4599999D02*
D03*
X11049997Y3699999D02*
D03*
X10749997Y7299998D02*
D03*
X10599997Y6999998D02*
D03*
Y6399998D02*
D03*
X10749997Y5499998D02*
D03*
X10599997Y5199998D02*
D03*
X10749997Y4899999D02*
D03*
X10599997Y4599999D02*
D03*
Y3999999D02*
D03*
X10299997Y6399998D02*
D03*
Y5799998D02*
D03*
Y5199998D02*
D03*
X10449997Y4899999D02*
D03*
X10299997Y3999999D02*
D03*
Y2799999D02*
D03*
X10149997Y4899999D02*
D03*
X9999997Y3999999D02*
D03*
Y2799999D02*
D03*
X9699997Y4599999D02*
D03*
Y3999999D02*
D03*
Y2799999D02*
D03*
X9549997Y4899999D02*
D03*
X9399997Y3999999D02*
D03*
X9549997Y3699999D02*
D03*
X9399997Y2799999D02*
D03*
X9099997Y6399998D02*
D03*
X9249997Y4899999D02*
D03*
Y3699999D02*
D03*
X8949997Y7299998D02*
D03*
X8799997Y6999998D02*
D03*
Y6399998D02*
D03*
Y5199998D02*
D03*
X8949997Y4899999D02*
D03*
X8799997Y4599999D02*
D03*
X8649997Y7299998D02*
D03*
X8499997Y6999998D02*
D03*
Y6399998D02*
D03*
Y5199998D02*
D03*
X8649997Y4899999D02*
D03*
X8499997Y4599999D02*
D03*
Y3999999D02*
D03*
Y2799999D02*
D03*
X8349998Y7299998D02*
D03*
X8199998Y6999998D02*
D03*
Y6399998D02*
D03*
Y5199998D02*
D03*
X8349998Y4899999D02*
D03*
X8199998Y4599999D02*
D03*
Y3999999D02*
D03*
Y2799999D02*
D03*
X7899998Y6999998D02*
D03*
X8049998Y5499998D02*
D03*
X7899998Y5199998D02*
D03*
X8049998Y4899999D02*
D03*
X7899998Y4599999D02*
D03*
Y3999999D02*
D03*
Y3399999D02*
D03*
Y2799999D02*
D03*
X7599998Y6999998D02*
D03*
X7749998Y5499998D02*
D03*
X7599998Y5199998D02*
D03*
Y4599999D02*
D03*
Y3399999D02*
D03*
Y2799999D02*
D03*
X7299998Y6999998D02*
D03*
Y6399998D02*
D03*
X7449998Y6099998D02*
D03*
Y5499998D02*
D03*
X7299998Y5199998D02*
D03*
X7449998Y4899999D02*
D03*
X7299998Y4599999D02*
D03*
Y3999999D02*
D03*
Y3399999D02*
D03*
Y2799999D02*
D03*
X6999998Y6999998D02*
D03*
Y6399998D02*
D03*
Y3999999D02*
D03*
Y3399999D02*
D03*
Y2799999D02*
D03*
X6849998Y7299998D02*
D03*
Y6699998D02*
D03*
X6699998Y6399998D02*
D03*
Y5799998D02*
D03*
Y3999999D02*
D03*
X6849998Y3699999D02*
D03*
X6699998Y3399999D02*
D03*
X6849998Y3099999D02*
D03*
X6699998Y2799999D02*
D03*
X6399998Y6999998D02*
D03*
X6549998Y6699998D02*
D03*
X6399998Y6399998D02*
D03*
Y5199998D02*
D03*
Y3999999D02*
D03*
X6549998Y3699999D02*
D03*
X6399998Y3399999D02*
D03*
Y2799999D02*
D03*
X6249998Y7299998D02*
D03*
X6099998Y6999998D02*
D03*
X6249998Y6699998D02*
D03*
X6099998Y6399998D02*
D03*
X6249998Y6099998D02*
D03*
X6099998Y5799998D02*
D03*
Y5199998D02*
D03*
X6249998Y4899999D02*
D03*
X6099998Y4599999D02*
D03*
X6249998Y4299999D02*
D03*
X6099998Y3999999D02*
D03*
X6249998Y3699999D02*
D03*
X6099998Y3399999D02*
D03*
X6249998Y3099999D02*
D03*
X6099998Y2799999D02*
D03*
X5949998Y7299998D02*
D03*
X5799998Y6999998D02*
D03*
X5949998Y6699998D02*
D03*
X5799998Y6399998D02*
D03*
X5949998Y6099998D02*
D03*
X5799998Y5799998D02*
D03*
X5949998Y5499998D02*
D03*
X5799998Y5199998D02*
D03*
X5949998Y4899999D02*
D03*
X5799998Y4599999D02*
D03*
X5949998Y4299999D02*
D03*
X5799998Y3999999D02*
D03*
X5949998Y3699999D02*
D03*
X5799998Y3399999D02*
D03*
X5949998Y3099999D02*
D03*
X5799998Y2799999D02*
D03*
X7472203Y6296624D02*
D03*
X6902204Y6086624D02*
D03*
X9670000Y6090000D02*
D03*
X9742204Y5346624D02*
D03*
X9790963Y6352684D02*
D03*
X9880000Y6040000D02*
D03*
X9932204Y5926624D02*
D03*
X8431860Y5499848D02*
D03*
X13080000Y4217300D02*
D03*
X13083807Y4057883D02*
D03*
X9410000Y7040000D02*
D03*
X11080000Y2870000D02*
D03*
X10776223Y4011643D02*
D03*
X9310000Y4430000D02*
D03*
X10110000Y4810000D02*
D03*
X13668077Y5956353D02*
D03*
X13516223Y5321643D02*
D03*
X10106223Y3851643D02*
D03*
X9596223Y3301643D02*
D03*
X12436223Y5931643D02*
D03*
X8650000Y5757460D02*
D03*
Y5820160D02*
D03*
X8090000Y5770000D02*
D03*
X9680000Y5670000D02*
D03*
X11476223Y6081643D02*
D03*
X11776223Y5601643D02*
D03*
X10866223Y5611643D02*
D03*
X11280000Y7180000D02*
D03*
X11096223Y7291643D02*
D03*
X7850000Y6600000D02*
D03*
X7825642Y6036936D02*
D03*
X6790000Y5780000D02*
D03*
X7306223Y4291643D02*
D03*
X8800000Y3700000D02*
D03*
X13086475Y4292131D02*
D03*
X13080000Y4141643D02*
D03*
X7290000Y5780000D02*
D03*
X6250000Y5650000D02*
D03*
X7036775Y6343703D02*
D03*
X13080000Y2950000D02*
D03*
Y3031643D02*
D03*
Y3191643D02*
D03*
Y3111643D02*
D03*
X8550000Y3470000D02*
D03*
X9530000Y5840000D02*
D03*
X9680000Y5750000D02*
D03*
X9390000Y7350000D02*
D03*
X9500411Y7329675D02*
D03*
X9655057Y7305343D02*
D03*
X9575664Y7368502D02*
D03*
X8220000Y5570000D02*
D03*
X8180000Y5620000D02*
D03*
X8709368Y5864951D02*
D03*
X8180000Y5920000D02*
D03*
X8460000Y6050000D02*
D03*
X8290031Y6050360D02*
D03*
X8380000Y6050000D02*
D03*
X9750000Y7370000D02*
D03*
X10049368D02*
D03*
X10249768Y7360400D02*
D03*
X9931996Y7314947D02*
D03*
X10222869Y7045274D02*
D03*
X10299362Y7040638D02*
D03*
X10410000Y7042315D02*
D03*
X10410400Y6870000D02*
D03*
X10680168Y6590000D02*
D03*
X9990000Y5720000D02*
D03*
X14520000Y5560000D02*
D03*
X9795638Y6994362D02*
D03*
X9872303Y6994874D02*
D03*
X9690400Y6889124D02*
D03*
X9814362Y6893562D02*
D03*
X9687775Y7029051D02*
D03*
X10222204Y5656624D02*
D03*
X10220000Y6360000D02*
D03*
X9640000D02*
D03*
X9690400Y6420000D02*
D03*
X8369368Y5504951D02*
D03*
X9790000Y6470400D02*
D03*
X9800400Y7310000D02*
D03*
X10349368Y7370000D02*
D03*
X10399768Y7310000D02*
D03*
X9999368Y5184951D02*
D03*
X9419368D02*
D03*
X9417500Y6030000D02*
D03*
X9980000Y6430000D02*
D03*
X10750000Y6040000D02*
D03*
X11140000Y5670000D02*
D03*
X9418515Y5323230D02*
D03*
X14345349Y5343309D02*
D03*
X8400000Y3900000D02*
D03*
D67*
X10132500Y7480000D02*
D03*
X9987500D02*
D03*
D68*
X9250007Y7180015D02*
D03*
X9300019D02*
D03*
X9350007D02*
D03*
X9400019D02*
D03*
X9450006D02*
D03*
X9500019D02*
D03*
X9550006D02*
D03*
X9600019D02*
D03*
X9650006D02*
D03*
X9700019D02*
D03*
X9750006D02*
D03*
X9800019D02*
D03*
X10450005D02*
D03*
X10400017D02*
D03*
X10350005D02*
D03*
X10300017D02*
D03*
X10250005D02*
D03*
X10200018D02*
D03*
X10150005D02*
D03*
X10100018D02*
D03*
X10050005D02*
D03*
X10000018D02*
D03*
X9950005D02*
D03*
X9900018D02*
D03*
X9850006D02*
D03*
X10450005Y6740011D02*
D03*
X10400017D02*
D03*
X10350005D02*
D03*
X10300017D02*
D03*
X10250005D02*
D03*
X10200018D02*
D03*
X10150005D02*
D03*
X10100018D02*
D03*
X10050005D02*
D03*
X10000018D02*
D03*
X9950005D02*
D03*
X9900018D02*
D03*
X9250007D02*
D03*
X9300019D02*
D03*
X9350007D02*
D03*
X9400019D02*
D03*
X9450006D02*
D03*
X9500019D02*
D03*
X9550006D02*
D03*
X9600019D02*
D03*
X9650006D02*
D03*
X9700019D02*
D03*
X9750006D02*
D03*
X9800019D02*
D03*
X9850006D02*
D03*
X7100024Y7180015D02*
D03*
X7150011D02*
D03*
X7200024D02*
D03*
X7250011D02*
D03*
X7300024D02*
D03*
X7350011D02*
D03*
X7400023D02*
D03*
X7450010D02*
D03*
X7500023D02*
D03*
X7550010D02*
D03*
X7600023D02*
D03*
X7650010D02*
D03*
X8300021D02*
D03*
X8250009D02*
D03*
X8200022D02*
D03*
X8150009D02*
D03*
X8100022D02*
D03*
X8050009D02*
D03*
X8000022D02*
D03*
X7950010D02*
D03*
X7900022D02*
D03*
X7850010D02*
D03*
X7800023D02*
D03*
X7750010D02*
D03*
X7700023D02*
D03*
X8300021Y6740011D02*
D03*
X8250009D02*
D03*
X8200022D02*
D03*
X8150009D02*
D03*
X8100022D02*
D03*
X8050009D02*
D03*
X8000022D02*
D03*
X7950010D02*
D03*
X7900022D02*
D03*
X7850010D02*
D03*
X7800023D02*
D03*
X7750010D02*
D03*
X7100024D02*
D03*
X7150011D02*
D03*
X7200024D02*
D03*
X7250011D02*
D03*
X7300024D02*
D03*
X7350011D02*
D03*
X7400023D02*
D03*
X7450010D02*
D03*
X7500023D02*
D03*
X7550010D02*
D03*
X7600023D02*
D03*
X7650010D02*
D03*
X7700023D02*
D03*
X9650006Y3580022D02*
D03*
X9700019D02*
D03*
X9750006D02*
D03*
X9800019D02*
D03*
X9850006D02*
D03*
X9900018D02*
D03*
X9950005D02*
D03*
X10000018D02*
D03*
X10050005D02*
D03*
X10100018D02*
D03*
X10150005D02*
D03*
X10200018D02*
D03*
X10850004D02*
D03*
X10800016D02*
D03*
X10750004D02*
D03*
X10700017D02*
D03*
X10650004D02*
D03*
X10600017D02*
D03*
X10550004D02*
D03*
X10500017D02*
D03*
X10450005D02*
D03*
X10400017D02*
D03*
X10350005D02*
D03*
X10300017D02*
D03*
X10250005D02*
D03*
X10850004Y3140018D02*
D03*
X10800016D02*
D03*
X10750004D02*
D03*
X10700017D02*
D03*
X10650004D02*
D03*
X10600017D02*
D03*
X10550004D02*
D03*
X10500017D02*
D03*
X10450005D02*
D03*
X10400017D02*
D03*
X10350005D02*
D03*
X10300017D02*
D03*
X9650006D02*
D03*
X9700019D02*
D03*
X9750006D02*
D03*
X9800019D02*
D03*
X9850006D02*
D03*
X9900018D02*
D03*
X9950005D02*
D03*
X10000018D02*
D03*
X10050005D02*
D03*
X10100018D02*
D03*
X10150005D02*
D03*
X10200018D02*
D03*
X10250005D02*
D03*
X7100024Y3580022D02*
D03*
X7150011D02*
D03*
X7200024D02*
D03*
X7250011D02*
D03*
X7300024D02*
D03*
X7350011D02*
D03*
X7400023D02*
D03*
X7450010D02*
D03*
X7500023D02*
D03*
X7550010D02*
D03*
X7600023D02*
D03*
X7650010D02*
D03*
X8300021D02*
D03*
X8250009D02*
D03*
X8200022D02*
D03*
X8150009D02*
D03*
X8100022D02*
D03*
X8050009D02*
D03*
X8000022D02*
D03*
X7950010D02*
D03*
X7900022D02*
D03*
X7850010D02*
D03*
X7800023D02*
D03*
X7750010D02*
D03*
X7700023D02*
D03*
X8300021Y3140018D02*
D03*
X8250009D02*
D03*
X8200022D02*
D03*
X8150009D02*
D03*
X8100022D02*
D03*
X8050009D02*
D03*
X8000022D02*
D03*
X7950010D02*
D03*
X7900022D02*
D03*
X7850010D02*
D03*
X7800023D02*
D03*
X7750010D02*
D03*
X7100024D02*
D03*
X7150011D02*
D03*
X7200024D02*
D03*
X7250011D02*
D03*
X7300024D02*
D03*
X7350011D02*
D03*
X7400023D02*
D03*
X7450010D02*
D03*
X7500023D02*
D03*
X7550010D02*
D03*
X7600023D02*
D03*
X7650010D02*
D03*
X7700023D02*
D03*
D69*
X9497500Y6170000D02*
D03*
X9642500D02*
D03*
X9497500Y6030000D02*
D03*
X9642500D02*
D03*
X9518811Y5181272D02*
D03*
X9663812D02*
D03*
X9777500Y6300000D02*
D03*
X9922500D02*
D03*
X9777500Y5180000D02*
D03*
X9922500D02*
D03*
D70*
X2977500Y5100000D02*
D03*
X3182500Y5100000D02*
D03*
%TF.MD5,7da8ed6072fe029ee4ede5c8f70e7e84*%
M02*
