%TF.GenerationSoftware,Altium Limited,Altium Designer,22.2.1 (43)*%
G04 Layer_Color=65535*
%FSLAX45Y45*%
%MOMM*%
%TF.SameCoordinates,3546A09D-0AB3-465C-A5BE-671B47EBA127*%
%TF.FilePolarity,Positive*%
%TF.FileFunction,Legend,Top*%
%TF.Part,Single*%
G01*
G75*
%TA.AperFunction,NonConductor*%
%ADD71C,0.20000*%
%ADD72C,0.10000*%
%ADD82C,0.25000*%
%ADD83C,0.60000*%
%ADD84C,0.15000*%
%ADD85C,0.40000*%
%ADD86C,0.12700*%
D71*
X15210001Y3210000D02*
X15489999D01*
X15489999Y2930000D02*
Y3210000D01*
X15210001Y2930000D02*
X15489999D01*
X15210001Y2930000D02*
Y3210000D01*
X15189999Y2991000D02*
Y3751000D01*
X14730000Y2991000D02*
X14806000D01*
X15114000Y2991000D02*
X15189999Y2991000D01*
X14729999Y3751000D02*
X14730000Y2991000D01*
X14729999Y3751000D02*
X14806000Y3751000D01*
X15114000D02*
X15189999Y3751000D01*
X14960001Y2870999D02*
Y2931000D01*
X14929999Y2901000D02*
X14989999Y2901000D01*
X14030000Y3100000D02*
Y3360000D01*
X14129999Y3360000D01*
X14489999D02*
X14489999Y3100000D01*
X14389999Y3360000D02*
X14489999D01*
X13114999Y2880000D02*
X13225000D01*
X13114999Y3021100D02*
X13225000D01*
X13114999Y2960000D02*
X13225000D01*
X13114999Y3101100D02*
X13225000D01*
X13114999Y3040000D02*
X13225000D01*
X13114999Y3181100D02*
X13225000D01*
X13115001Y3120000D02*
X13225000D01*
X13114999Y3261100D02*
X13225000D01*
X13260001Y2710000D02*
Y3079999D01*
X13553999D02*
X13560001Y3079999D01*
X13260001Y3079999D02*
X13266000Y3079999D01*
X13560001Y2710000D02*
Y3079999D01*
X13553999Y2710000D02*
X13560001D01*
X13260001D02*
X13266000D01*
X13407500Y3194999D02*
X13407500Y3152499D01*
X13386082Y3173133D02*
X13428584Y3173132D01*
X13534032Y3095583D02*
Y3355583D01*
X13629031D01*
X13994031Y3095583D02*
Y3355583D01*
X13899030Y3355583D02*
X13994031Y3355583D01*
X13435001Y3775000D02*
X13435001Y3747500D01*
X14064999Y3775000D02*
X14064999Y3747500D01*
X13435001Y3425000D02*
Y3452500D01*
X14064999Y3425000D02*
X14064999Y3452500D01*
X13435001Y3775000D02*
X14064999D01*
X13435001Y3425000D02*
X14064999Y3425000D01*
X14065001Y3775000D02*
Y3802500D01*
X13435001Y3774999D02*
Y3802499D01*
X14065001Y4097500D02*
Y4125000D01*
X13435001Y4097500D02*
X13435001Y4125000D01*
X13435001Y3774999D02*
X14065001Y3775000D01*
X13435001Y4125000D02*
X14065001Y4125000D01*
X13125000Y3990000D02*
X13235001D01*
X13125000Y4131100D02*
X13235001D01*
X13121194Y4068205D02*
X13231194D01*
X13121193Y4209305D02*
X13231194D01*
X13125000Y4150000D02*
X13235001D01*
X13125000Y4291100D02*
X13235001D01*
X13127669Y4229224D02*
X13237668D01*
X13127669Y4370325D02*
X13237668D01*
X10539216Y3516619D02*
X10539216Y3826619D01*
X10639216Y3516619D02*
Y3826619D01*
X10539216D02*
X10639216D01*
X10539216Y3516619D02*
X10639216Y3516619D01*
X10810000Y4107499D02*
X11030000Y4107500D01*
X10810000Y3892500D02*
X11030000Y3892500D01*
X10087858Y3431837D02*
X10307858Y3431838D01*
X10087858Y3216838D02*
X10307857D01*
X10619499Y2765064D02*
X10919499D01*
X10619499Y3435064D02*
X10919499D01*
X10919499Y2765064D01*
X10619499D02*
Y3435064D01*
X14120000Y3717500D02*
X14339999Y3717499D01*
X14120000Y3502500D02*
X14339999D01*
X7834282Y6686347D02*
X7834283Y6906347D01*
X7619283D02*
X7619283Y6686347D01*
X7855268Y5931369D02*
X8075268Y5931368D01*
X7855268Y6146368D02*
X8075268Y6146368D01*
X7077500Y6075000D02*
X7077500Y6295000D01*
X6862500D02*
X6862500Y6075000D01*
X7364260Y6096760D02*
X7524260D01*
X7364260Y5596760D02*
X7524260D01*
X7364260D02*
Y6096760D01*
X7524260Y5596760D02*
Y6096760D01*
X7092361Y4231698D02*
X7112361D01*
X7092361Y4356698D02*
X7112361D01*
X7090000Y5067500D02*
X7110000D01*
X7090000Y5192500D02*
X7110000D01*
X9712900Y3812900D02*
Y4187900D01*
X9207900Y3812900D02*
X9232900D01*
X9687900D02*
X9712900D01*
X9207900D02*
Y4187900D01*
X9322900D01*
X9597900D02*
X9712900D01*
X9554400Y4372700D02*
X9874400D01*
X9554400Y4872700D02*
X9874400D01*
Y4372700D02*
Y4872700D01*
X9554400Y4372700D02*
Y4872700D01*
X10237500Y3807500D02*
Y4182500D01*
X9732500Y3807500D02*
X9757500D01*
X10212500D02*
X10237500D01*
X9732500D02*
Y4182500D01*
X9847500D01*
X10122500D02*
X10237500D01*
X6375000Y4622097D02*
X6865000D01*
Y4797903D01*
X6375000D02*
X6865000D01*
X6375000Y4622097D02*
Y4797903D01*
X4563751Y5445222D02*
X4846594Y5728064D01*
X4797096Y5211877D02*
X5079939Y5494719D01*
X4048575Y5479321D02*
X4331418Y5762164D01*
X4281921Y5245976D02*
X4564763Y5528819D01*
X5078927Y5411123D02*
X5361770Y5693965D01*
X5312272Y5177777D02*
X5595115Y5460620D01*
X5594103Y5377023D02*
X5876945Y5659866D01*
X5827448Y5143678D02*
X6110291Y5426521D01*
X10770000Y7072500D02*
X10990000D01*
X10770000Y7287500D02*
X10990000D01*
X11310000Y7072500D02*
X11530000D01*
X11310000Y7287500D02*
X11530000D01*
X11000000Y6845000D02*
Y7075000D01*
X11300000D01*
Y6845000D02*
Y7075000D01*
X11000000Y6845000D02*
X11300000D01*
X11000000Y6670000D02*
Y6810000D01*
X10324216Y3846619D02*
X10324217Y4066619D01*
X10539216Y3846620D02*
X10539216Y4066620D01*
X15189999Y3790000D02*
Y4070000D01*
X15189999Y3790000D02*
X15470000D01*
Y4070000D01*
X15189999Y4070000D02*
X15470000D01*
X14929999Y3750000D02*
X14989999D01*
X14960001Y3720000D02*
Y3780000D01*
X15113998Y4600000D02*
X15189999Y4599999D01*
X14730000Y4600000D02*
X14806000D01*
X14730000Y3840000D02*
Y4600000D01*
X15113998Y3840000D02*
X15189999D01*
X14730000D02*
X14806000D01*
X15189999Y4599999D02*
X15189999Y3840000D01*
X13042574Y4488506D02*
X13042575Y4531005D01*
X13020708Y4509921D02*
X13063208Y4509922D01*
X13505708Y4362422D02*
Y4368422D01*
X13505708Y4656422D02*
X13505708Y4662422D01*
X13135709Y4662422D02*
X13505708Y4662422D01*
X13135709Y4362422D02*
Y4368422D01*
Y4656422D02*
Y4662422D01*
Y4362422D02*
X13505708D01*
X15189999Y4380000D02*
Y4660000D01*
X15189999Y4380000D02*
X15470000D01*
Y4660000D01*
X15189999Y4660000D02*
X15470000D01*
X13531502Y4203490D02*
X13631502Y4203491D01*
X13531502Y4203490D02*
Y4463490D01*
X13891502Y4203491D02*
X13991502D01*
X13991502Y4463490D02*
X13991502Y4203491D01*
X14034792Y4196393D02*
X14134790Y4196393D01*
X14034792Y4196393D02*
Y4456393D01*
X14394791Y4196393D02*
X14494791Y4196393D01*
X14494791Y4456393D02*
X14494791Y4196393D01*
X15189999Y3510000D02*
Y3790000D01*
X15189999Y3510000D02*
X15470000D01*
Y3790000D01*
X15189999Y3790000D02*
X15470000D01*
X12362500Y6035000D02*
Y6255000D01*
X12577500Y6035000D02*
Y6255000D01*
X7347500Y5345000D02*
Y5565000D01*
X7132500Y5345000D02*
Y5565000D01*
X13639999Y5507500D02*
X13860001D01*
X13639999Y5292500D02*
X13860001D01*
X9210000Y5045000D02*
Y5155000D01*
X9068900Y5045000D02*
Y5155000D01*
X8890000Y5045000D02*
Y5155000D01*
X9031100Y5045000D02*
Y5155000D01*
X8733500Y3742500D02*
Y4062500D01*
X8233500Y3742500D02*
Y4062500D01*
X8733500D01*
X8233500Y3742500D02*
X8733500D01*
X8230660Y3488860D02*
Y3508860D01*
X8105660Y3488860D02*
Y3508860D01*
X8486760Y4423360D02*
X8506760D01*
X8486760Y4298360D02*
X8506760D01*
X8903760Y4046060D02*
Y4066060D01*
X8778760Y4046060D02*
Y4066060D01*
X8357500Y3260000D02*
Y3280000D01*
X8482500Y3260000D02*
Y3280000D01*
X8688577Y3465833D02*
X8779157Y3375253D01*
X8605987Y3383243D02*
X8696567Y3292662D01*
X8605987Y3383243D02*
X8688577Y3465833D01*
X13767644Y5315362D02*
X13782443D01*
X13767644Y5235379D02*
X13782443D01*
X13574649Y5314688D02*
X13589449D01*
X13574649Y5234704D02*
X13589449D01*
X13761804Y6290902D02*
X13776604D01*
X13761804Y6370886D02*
X13776604D01*
X13574535Y6290888D02*
X13589334D01*
X13574535Y6370872D02*
X13589334D01*
X13434860Y6140660D02*
X13594859D01*
Y5984660D02*
Y6140660D01*
X13434860Y5984660D02*
Y6140660D01*
Y5984660D02*
X13594859D01*
X13434860Y5632660D02*
X13594859D01*
Y5476660D02*
Y5632660D01*
X13434860Y5476660D02*
Y5632660D01*
Y5476660D02*
X13594859D01*
X14031158Y5990410D02*
X14166962D01*
Y5499910D02*
Y5990410D01*
X14031158Y5499910D02*
X14166962D01*
X14031158D02*
Y5990410D01*
X13328160Y5976860D02*
X13394160D01*
Y5895360D02*
Y5976860D01*
X13102161D02*
X13168159D01*
X13102161Y5895360D02*
Y5976860D01*
X12680460Y5975260D02*
X12746460D01*
Y5893760D02*
Y5975260D01*
X12454460D02*
X12520460D01*
X12454460Y5893760D02*
Y5975260D01*
X11994817Y5483124D02*
X12009617D01*
X11994817Y5563108D02*
X12009617D01*
X11996160Y5480343D02*
X12010960D01*
X11996160Y5400360D02*
X12010960D01*
X10617269Y5987849D02*
X10727268D01*
X10617269Y5846749D02*
X10727268D01*
X9642803Y6713702D02*
X9997803D01*
X9642803Y7223702D02*
X9997803D01*
X9642803Y5299769D02*
X9997803D01*
X9642803Y5809769D02*
X9997803D01*
X9642803Y6006735D02*
X9997803D01*
X9642803Y6516735D02*
X9997803D01*
X9045015Y5176438D02*
X9190015D01*
X9045015Y5346438D02*
X9190015D01*
X9048113Y5514093D02*
X9193113D01*
X9048113Y5684093D02*
X9193113D01*
X9048673Y5679910D02*
X9193673D01*
X9048673Y5849910D02*
X9193673D01*
X9049303Y5880402D02*
X9194303D01*
X9049303Y6050402D02*
X9194303D01*
X9049303Y6070902D02*
X9194303D01*
X9049303Y6240902D02*
X9194303D01*
X9049303Y6261402D02*
X9194303D01*
X9049303Y6431402D02*
X9194303D01*
X9049303Y6642402D02*
X9194303D01*
X9049303Y6812402D02*
X9194303D01*
X9049303Y6451902D02*
X9194303D01*
X9049303Y6621902D02*
X9194303D01*
X6790000Y5230000D02*
Y5280000D01*
X6710000Y5230000D02*
X6790000D01*
X6490000D02*
Y5280000D01*
Y5230000D02*
X6570000D01*
X7548735Y3862877D02*
X7562877Y3848735D01*
X7637123Y3951265D02*
X7651265Y3937123D01*
X9050177Y5345782D02*
X9195177D01*
X9050177Y5515782D02*
X9195177D01*
X3766745Y5280075D02*
X4049588Y5562918D01*
X3533400Y5513420D02*
X3816242Y5796263D01*
X7284260Y6655560D02*
X7604260D01*
X7284260Y6155560D02*
X7604260D01*
X7284260D02*
Y6655560D01*
X7604260Y6155560D02*
Y6655560D01*
X6614960Y6311368D02*
X6696460D01*
Y6245368D02*
Y6311368D01*
X6614960Y6019368D02*
X6696460D01*
Y6085368D01*
X6283960Y5978868D02*
X6436460D01*
X6471460Y5475868D02*
Y5965868D01*
Y5475868D02*
X6791460D01*
Y5965868D01*
X6471460D02*
X6791460D01*
X8042500Y4415000D02*
X8042500Y4195000D01*
X8257500D02*
X8257500Y4415000D01*
X8760000Y3492500D02*
X8980000D01*
X8760000Y3707500D02*
X8980000D01*
X11480186Y6050975D02*
X11700186D01*
X11480186Y6265975D02*
X11700186D01*
X13360001Y5442500D02*
X13580000D01*
X13360001Y5657500D02*
X13580000D01*
X10977500Y5370000D02*
Y5590000D01*
X10762500Y5370000D02*
Y5590000D01*
X11625000Y5412500D02*
X11845000D01*
X11625000Y5627500D02*
X11845000D01*
X11084960Y6317760D02*
X11194960D01*
X11084960Y6137760D02*
X11194960D01*
X11850000Y5600000D02*
X12170000D01*
X11850000Y6100000D02*
X12170000D01*
Y5600000D02*
Y6100000D01*
X11850000Y5600000D02*
Y6100000D01*
X10989553Y5600851D02*
X11309553D01*
X10989553Y6100851D02*
X11309553D01*
Y5600851D02*
Y6100851D01*
X10989553Y5600851D02*
Y6100851D01*
D72*
X13710043Y5335378D02*
G03*
X13710043Y5335378I-5000J0D01*
G01*
X13517049Y5334704D02*
G03*
X13517049Y5334704I-5000J0D01*
G01*
X13844205Y6270886D02*
G03*
X13844205Y6270886I-5000J0D01*
G01*
X13656934Y6270872D02*
G03*
X13656934Y6270872I-5000J0D01*
G01*
X12077217Y5463108D02*
G03*
X12077217Y5463108I-5000J0D01*
G01*
X11938560Y5500360D02*
G03*
X11938560Y5500360I-5000J0D01*
G01*
X2990348Y5302200D02*
X3037000D01*
X2990348Y5255549D01*
Y5243886D01*
X3002011Y5232223D01*
X3025337D01*
X3037000Y5243886D01*
Y5557000D02*
X3013674D01*
X3025337D01*
Y5487022D01*
X3037000Y5498685D01*
X7016697Y5225011D02*
Y5294989D01*
X7051685D01*
X7063348Y5283326D01*
Y5260000D01*
X7051685Y5248337D01*
X7016697D01*
X7040022D02*
X7063348Y5225011D01*
X7086674Y5283326D02*
X7098337Y5294989D01*
X7121663D01*
X7133326Y5283326D01*
Y5271663D01*
X7121663Y5260000D01*
X7110000D01*
X7121663D01*
X7133326Y5248337D01*
Y5236674D01*
X7121663Y5225011D01*
X7098337D01*
X7086674Y5236674D01*
X7156652Y5294989D02*
X7203303D01*
Y5283326D01*
X7156652Y5236674D01*
Y5225011D01*
X7051685Y4375011D02*
Y4444989D01*
X7086674D01*
X7098337Y4433326D01*
Y4410000D01*
X7086674Y4398337D01*
X7051685D01*
X7075011D02*
X7098337Y4375011D01*
X7121663Y4433326D02*
X7133326Y4444989D01*
X7156652D01*
X7168315Y4433326D01*
Y4421663D01*
X7156652Y4410000D01*
X7168315Y4398337D01*
Y4386674D01*
X7156652Y4375011D01*
X7133326D01*
X7121663Y4386674D01*
Y4398337D01*
X7133326Y4410000D01*
X7121663Y4421663D01*
Y4433326D01*
X7133326Y4410000D02*
X7156652D01*
X6086460Y4725026D02*
Y4771678D01*
X6074797Y4783341D01*
X6051471D01*
X6039808Y4771678D01*
Y4725026D01*
X6051471Y4713363D01*
X6074797D01*
X6063134Y4736689D02*
X6086460Y4713363D01*
X6074797D02*
X6086460Y4725026D01*
X6109786Y4713363D02*
X6133111D01*
X6121449D01*
Y4783341D01*
X6109786Y4771678D01*
X11024532Y7396375D02*
X11012869Y7408038D01*
X10989543D01*
X10977880Y7396375D01*
Y7384712D01*
X10989543Y7373049D01*
X11012869D01*
X11024532Y7361386D01*
Y7349723D01*
X11012869Y7338060D01*
X10989543D01*
X10977880Y7349723D01*
X11047858Y7338060D02*
X11071183D01*
X11059520D01*
Y7408038D01*
X11047858Y7396375D01*
X11087100Y6751320D02*
Y6821298D01*
X11122089D01*
X11133752Y6809635D01*
Y6786309D01*
X11122089Y6774646D01*
X11087100D01*
X11110426D02*
X11133752Y6751320D01*
X11203729Y6821298D02*
X11180403Y6809635D01*
X11157078Y6786309D01*
Y6762983D01*
X11168740Y6751320D01*
X11192066D01*
X11203729Y6762983D01*
Y6774646D01*
X11192066Y6786309D01*
X11157078D01*
X10336727Y3599148D02*
X10395042D01*
X10406705Y3610811D01*
Y3634136D01*
X10395042Y3645799D01*
X10336727D01*
X10406705Y3669125D02*
Y3692451D01*
Y3680788D01*
X10336727D01*
X10348390Y3669125D01*
X10395042Y3727440D02*
X10406705Y3739103D01*
Y3762429D01*
X10395042Y3774092D01*
X10348390D01*
X10336727Y3762429D01*
Y3739103D01*
X10348390Y3727440D01*
X10360053D01*
X10371716Y3739103D01*
Y3774092D01*
X10837472Y3465011D02*
Y3523326D01*
X10825809Y3534989D01*
X10802483D01*
X10790820Y3523326D01*
Y3465011D01*
X10767494Y3534989D02*
X10744168D01*
X10755831D01*
Y3465011D01*
X10767494Y3476674D01*
X10709179D02*
X10697517Y3465011D01*
X10674191D01*
X10662528Y3476674D01*
Y3488337D01*
X10674191Y3500000D01*
X10662528Y3511663D01*
Y3523326D01*
X10674191Y3534989D01*
X10697517D01*
X10709179Y3523326D01*
Y3511663D01*
X10697517Y3500000D01*
X10709179Y3488337D01*
Y3476674D01*
X10697517Y3500000D02*
X10674191D01*
X14033501Y4710558D02*
Y4652243D01*
X14045163Y4640580D01*
X14068489D01*
X14080151Y4652243D01*
Y4710558D01*
X14103477Y4640580D02*
X14126804D01*
X14115140D01*
Y4710558D01*
X14103477Y4698895D01*
X14161792Y4710558D02*
X14208444D01*
Y4698895D01*
X14161792Y4652243D01*
Y4640580D01*
X14381685Y3454989D02*
Y3396674D01*
X14393349Y3385011D01*
X14416673D01*
X14428337Y3396674D01*
Y3454989D01*
X14498315D02*
X14451663D01*
Y3420000D01*
X14474989Y3431663D01*
X14486652D01*
X14498315Y3420000D01*
Y3396674D01*
X14486652Y3385011D01*
X14463326D01*
X14451663Y3396674D01*
X13528040Y4715638D02*
Y4657323D01*
X13539703Y4645660D01*
X13563029D01*
X13574692Y4657323D01*
Y4715638D01*
X13633006Y4645660D02*
Y4715638D01*
X13598018Y4680649D01*
X13644669D01*
X13391685Y3274989D02*
Y3216674D01*
X13403348Y3205011D01*
X13426674D01*
X13438338Y3216674D01*
Y3274989D01*
X13461662Y3263326D02*
X13473326Y3274989D01*
X13496652D01*
X13508315Y3263326D01*
Y3251663D01*
X13496652Y3240000D01*
X13484988D01*
X13496652D01*
X13508315Y3228337D01*
Y3216674D01*
X13496652Y3205011D01*
X13473326D01*
X13461662Y3216674D01*
X10636705Y3863316D02*
X10566727D01*
Y3898305D01*
X10578390Y3909968D01*
X10601716D01*
X10613379Y3898305D01*
Y3863316D01*
Y3886642D02*
X10636705Y3909968D01*
X10566727Y3979945D02*
Y3933294D01*
X10601716D01*
X10590053Y3956619D01*
Y3968282D01*
X10601716Y3979945D01*
X10625042D01*
X10636705Y3968282D01*
Y3944957D01*
X10625042Y3933294D01*
X10578390Y4003271D02*
X10566727Y4014934D01*
Y4038260D01*
X10578390Y4049923D01*
X10590053D01*
X10601716Y4038260D01*
X10613379Y4049923D01*
X10625042D01*
X10636705Y4038260D01*
Y4014934D01*
X10625042Y4003271D01*
X10613379D01*
X10601716Y4014934D01*
X10590053Y4003271D01*
X10578390D01*
X10601716Y4014934D02*
Y4038260D01*
X10090807Y3676704D02*
Y3746681D01*
X10125795D01*
X10137458Y3735018D01*
Y3711693D01*
X10125795Y3700030D01*
X10090807D01*
X10114132D02*
X10137458Y3676704D01*
X10207436Y3746681D02*
X10160784D01*
Y3711693D01*
X10184110Y3723356D01*
X10195773D01*
X10207436Y3711693D01*
Y3688367D01*
X10195773Y3676704D01*
X10172447D01*
X10160784Y3688367D01*
X10230762Y3746681D02*
X10277413D01*
Y3735018D01*
X10230762Y3688367D01*
Y3676704D01*
X10876705Y3423316D02*
X10806727D01*
Y3458305D01*
X10818390Y3469968D01*
X10841716D01*
X10853379Y3458305D01*
Y3423316D01*
Y3446642D02*
X10876705Y3469968D01*
X10806727Y3539945D02*
Y3493293D01*
X10841716D01*
X10830053Y3516619D01*
Y3528282D01*
X10841716Y3539945D01*
X10865042D01*
X10876705Y3528282D01*
Y3504956D01*
X10865042Y3493293D01*
X10806727Y3609923D02*
X10818390Y3586597D01*
X10841716Y3563271D01*
X10865042D01*
X10876705Y3574934D01*
Y3598260D01*
X10865042Y3609923D01*
X10853379D01*
X10841716Y3598260D01*
Y3563271D01*
X10293303Y3024989D02*
Y2955011D01*
X10258315D01*
X10246652Y2966674D01*
Y2990000D01*
X10258315Y3001663D01*
X10293303D01*
X10269977D02*
X10246652Y3024989D01*
X10176674Y2955011D02*
X10223326D01*
Y2990000D01*
X10200000Y2978337D01*
X10188337D01*
X10176674Y2990000D01*
Y3013326D01*
X10188337Y3024989D01*
X10211663D01*
X10223326Y3013326D01*
X10106697Y2955011D02*
X10153348D01*
Y2990000D01*
X10130022Y2978337D01*
X10118359D01*
X10106697Y2990000D01*
Y3013326D01*
X10118359Y3024989D01*
X10141685D01*
X10153348Y3013326D01*
X10850803Y2794988D02*
Y2725011D01*
X10815815D01*
X10804152Y2736674D01*
Y2760000D01*
X10815815Y2771662D01*
X10850803D01*
X10827477D02*
X10804152Y2794988D01*
X10734174Y2725011D02*
X10780826D01*
Y2760000D01*
X10757500Y2748337D01*
X10745837D01*
X10734174Y2760000D01*
Y2783325D01*
X10745837Y2794988D01*
X10769163D01*
X10780826Y2783325D01*
X10675860Y2794988D02*
Y2725011D01*
X10710848Y2760000D01*
X10664197D01*
X15189200Y3939540D02*
Y4009518D01*
X15224190D01*
X15235852Y3997855D01*
Y3974529D01*
X15224190Y3962866D01*
X15189200D01*
X15259178Y4009518D02*
X15305829D01*
Y3997855D01*
X15259178Y3951203D01*
Y3939540D01*
X15189200Y4810760D02*
Y4880738D01*
X15224190D01*
X15235852Y4869075D01*
Y4845749D01*
X15224190Y4834086D01*
X15189200D01*
X15305829Y4880738D02*
X15259178D01*
Y4845749D01*
X15282503Y4857412D01*
X15294167D01*
X15305829Y4845749D01*
Y4822423D01*
X15294167Y4810760D01*
X15270840D01*
X15259178Y4822423D01*
X15189200Y4221480D02*
Y4291458D01*
X15224190D01*
X15235852Y4279795D01*
Y4256469D01*
X15224190Y4244806D01*
X15189200D01*
X15294167Y4221480D02*
Y4291458D01*
X15259178Y4256469D01*
X15305829D01*
X15289577Y2829416D02*
Y2899394D01*
X15324565D01*
X15336227Y2887731D01*
Y2864405D01*
X15324565Y2852742D01*
X15289577D01*
X15359554Y2887731D02*
X15371217Y2899394D01*
X15394542D01*
X15406206Y2887731D01*
Y2876068D01*
X15394542Y2864405D01*
X15382880D01*
X15394542D01*
X15406206Y2852742D01*
Y2841079D01*
X15394542Y2829416D01*
X15371217D01*
X15359554Y2841079D01*
X12876335Y4051228D02*
Y3981251D01*
X12922987D01*
X12946312D02*
X12969638D01*
X12957974D01*
Y4051228D01*
X12946312Y4039565D01*
X13039616Y3981251D02*
Y4051228D01*
X13004626Y4016240D01*
X13051279D01*
X12872528Y4144989D02*
Y4075011D01*
X12919180D01*
X12942506D02*
X12965833D01*
X12954169D01*
Y4144989D01*
X12942506Y4133326D01*
X13000819D02*
X13012483Y4144989D01*
X13035809D01*
X13047472Y4133326D01*
Y4121663D01*
X13035809Y4110000D01*
X13024146D01*
X13035809D01*
X13047472Y4098337D01*
Y4086674D01*
X13035809Y4075011D01*
X13012483D01*
X13000819Y4086674D01*
X12876335Y4242339D02*
Y4172362D01*
X12922987D01*
X12946312D02*
X12969638D01*
X12957974D01*
Y4242339D01*
X12946312Y4230677D01*
X13051279Y4172362D02*
X13004626D01*
X13051279Y4219014D01*
Y4230677D01*
X13039616Y4242339D01*
X13016290D01*
X13004626Y4230677D01*
X12880666Y4337120D02*
Y4267142D01*
X12927318D01*
X12950642D02*
X12973969D01*
X12962306D01*
Y4337120D01*
X12950642Y4325457D01*
X13008958Y4267142D02*
X13032285D01*
X13020621D01*
Y4337120D01*
X13008958Y4325457D01*
X12902528Y3144989D02*
Y3075011D01*
X12949181D01*
X12972507D02*
X12995831D01*
X12984169D01*
Y3144989D01*
X12972507Y3133326D01*
X13030820D02*
X13042484Y3144989D01*
X13065810D01*
X13077472Y3133326D01*
Y3086674D01*
X13065810Y3075011D01*
X13042484D01*
X13030820Y3086674D01*
Y3133326D01*
X12901685Y3054989D02*
Y2985011D01*
X12948337D01*
X12971663Y2996674D02*
X12983327Y2985011D01*
X13006651D01*
X13018315Y2996674D01*
Y3043326D01*
X13006651Y3054989D01*
X12983327D01*
X12971663Y3043326D01*
Y3031663D01*
X12983327Y3020000D01*
X13018315D01*
X12901685Y2964989D02*
Y2895011D01*
X12948337D01*
X12971663Y2953326D02*
X12983327Y2964989D01*
X13006651D01*
X13018315Y2953326D01*
Y2941663D01*
X13006651Y2930000D01*
X13018315Y2918337D01*
Y2906674D01*
X13006651Y2895011D01*
X12983327D01*
X12971663Y2906674D01*
Y2918337D01*
X12983327Y2930000D01*
X12971663Y2941663D01*
Y2953326D01*
X12983327Y2930000D02*
X13006651D01*
X12901685Y3224989D02*
Y3155011D01*
X12948337D01*
X12971663Y3224989D02*
X13018315D01*
Y3213326D01*
X12971663Y3166674D01*
Y3155011D01*
X10965820Y3806674D02*
X10977483Y3795011D01*
X11000809D01*
X11012472Y3806674D01*
Y3853326D01*
X11000809Y3864988D01*
X10977483D01*
X10965820Y3853326D01*
X10942494Y3864988D02*
X10919168D01*
X10930831D01*
Y3795011D01*
X10942494Y3806674D01*
X10884180D02*
X10872517Y3795011D01*
X10849191D01*
X10837528Y3806674D01*
Y3818337D01*
X10849191Y3830000D01*
X10837528Y3841663D01*
Y3853326D01*
X10849191Y3864988D01*
X10872517D01*
X10884180Y3853326D01*
Y3841663D01*
X10872517Y3830000D01*
X10884180Y3818337D01*
Y3806674D01*
X10872517Y3830000D02*
X10849191D01*
X10371752Y4226455D02*
X10360089Y4238118D01*
X10336763D01*
X10325100Y4226455D01*
Y4179803D01*
X10336763Y4168140D01*
X10360089D01*
X10371752Y4179803D01*
X10395078Y4168140D02*
X10418403D01*
X10406740D01*
Y4238118D01*
X10395078Y4226455D01*
X10500044Y4238118D02*
X10476718Y4226455D01*
X10453392Y4203129D01*
Y4179803D01*
X10465055Y4168140D01*
X10488381D01*
X10500044Y4179803D01*
Y4191466D01*
X10488381Y4203129D01*
X10453392D01*
X10230820Y3476674D02*
X10242483Y3465011D01*
X10265809D01*
X10277471Y3476674D01*
Y3523326D01*
X10265809Y3534989D01*
X10242483D01*
X10230820Y3523326D01*
X10207494Y3534989D02*
X10184168D01*
X10195831D01*
Y3465011D01*
X10207494Y3476674D01*
X10102528Y3465011D02*
X10149179D01*
Y3500000D01*
X10125854Y3488337D01*
X10114191D01*
X10102528Y3500000D01*
Y3523326D01*
X10114191Y3534989D01*
X10137516D01*
X10149179Y3523326D01*
X14189180Y3803326D02*
X14177518Y3814989D01*
X14154192D01*
X14142528Y3803326D01*
Y3756674D01*
X14154192Y3745011D01*
X14177518D01*
X14189180Y3756674D01*
X14212506Y3745011D02*
X14235832D01*
X14224168D01*
Y3814989D01*
X14212506Y3803326D01*
X14305809Y3745011D02*
Y3814989D01*
X14270821Y3780000D01*
X14317471D01*
X13199181Y3943326D02*
X13187517Y3954989D01*
X13164191D01*
X13152528Y3943326D01*
Y3896674D01*
X13164191Y3885011D01*
X13187517D01*
X13199181Y3896674D01*
X13222507Y3885011D02*
X13245831D01*
X13234169D01*
Y3954989D01*
X13222507Y3943326D01*
X13280820D02*
X13292484Y3954989D01*
X13315810D01*
X13327472Y3943326D01*
Y3896674D01*
X13315810Y3885011D01*
X13292484D01*
X13280820Y3896674D01*
Y3943326D01*
X13248337Y3613326D02*
X13236674Y3624989D01*
X13213348D01*
X13201685Y3613326D01*
Y3566674D01*
X13213348Y3555011D01*
X13236674D01*
X13248337Y3566674D01*
X13271663Y3613326D02*
X13283327Y3624989D01*
X13306651D01*
X13318314Y3613326D01*
Y3601663D01*
X13306651Y3590000D01*
X13318314Y3578337D01*
Y3566674D01*
X13306651Y3555011D01*
X13283327D01*
X13271663Y3566674D01*
Y3578337D01*
X13283327Y3590000D01*
X13271663Y3601663D01*
Y3613326D01*
X13283327Y3590000D02*
X13306651D01*
X13066692Y4803035D02*
X13055029Y4814698D01*
X13031703D01*
X13020039Y4803035D01*
Y4756383D01*
X13031703Y4744720D01*
X13055029D01*
X13066692Y4756383D01*
X13136668Y4814698D02*
X13113342Y4803035D01*
X13090018Y4779709D01*
Y4756383D01*
X13101680Y4744720D01*
X13125006D01*
X13136668Y4756383D01*
Y4768046D01*
X13125006Y4779709D01*
X13090018D01*
X14763412Y4762395D02*
X14751749Y4774058D01*
X14728423D01*
X14716760Y4762395D01*
Y4715743D01*
X14728423Y4704080D01*
X14751749D01*
X14763412Y4715743D01*
X14833389Y4774058D02*
X14786739D01*
Y4739069D01*
X14810063Y4750732D01*
X14821725D01*
X14833389Y4739069D01*
Y4715743D01*
X14821725Y4704080D01*
X14798399D01*
X14786739Y4715743D01*
X13596674Y2828337D02*
X13585011Y2816674D01*
Y2793348D01*
X13596674Y2781686D01*
X13643326D01*
X13654988Y2793348D01*
Y2816674D01*
X13643326Y2828337D01*
X13596674Y2851663D02*
X13585011Y2863326D01*
Y2886652D01*
X13596674Y2898315D01*
X13608337D01*
X13620000Y2886652D01*
Y2874989D01*
Y2886652D01*
X13631664Y2898315D01*
X13643326D01*
X13654988Y2886652D01*
Y2863326D01*
X13643326Y2851663D01*
X14656674Y3648337D02*
X14645010Y3636674D01*
Y3613348D01*
X14656674Y3601685D01*
X14703326D01*
X14714989Y3613348D01*
Y3636674D01*
X14703326Y3648337D01*
X14714989Y3718314D02*
Y3671663D01*
X14668336Y3718314D01*
X14656674D01*
X14645010Y3706651D01*
Y3683326D01*
X14656674Y3671663D01*
X1174412Y6201538D02*
X1151086D01*
X1162749D01*
Y6143223D01*
X1151086Y6131560D01*
X1139423D01*
X1127760Y6143223D01*
X1197738Y6131560D02*
X1221063D01*
X1209400D01*
Y6201538D01*
X1197738Y6189875D01*
X8988474Y3449571D02*
Y3507886D01*
X8976811Y3519548D01*
X8953486D01*
X8941823Y3507886D01*
Y3449571D01*
X8871845Y3519548D02*
X8918497D01*
X8871845Y3472897D01*
Y3461234D01*
X8883508Y3449571D01*
X8906834D01*
X8918497Y3461234D01*
X8143711Y3932048D02*
X8202026D01*
X8213688Y3943711D01*
Y3967037D01*
X8202026Y3978700D01*
X8143711D01*
X8213688Y4002026D02*
Y4025352D01*
Y4013689D01*
X8143711D01*
X8155374Y4002026D01*
X8315288Y3200585D02*
X8245311D01*
Y3235574D01*
X8256974Y3247237D01*
X8280300D01*
X8291963Y3235574D01*
Y3200585D01*
Y3223911D02*
X8315288Y3247237D01*
X8245311Y3317214D02*
Y3270563D01*
X8280300D01*
X8268637Y3293889D01*
Y3305551D01*
X8280300Y3317214D01*
X8303626D01*
X8315288Y3305551D01*
Y3282226D01*
X8303626Y3270563D01*
X8876248Y3691345D02*
X8806271D01*
Y3726334D01*
X8817934Y3737997D01*
X8841259D01*
X8852922Y3726334D01*
Y3691345D01*
Y3714671D02*
X8876248Y3737997D01*
Y3796312D02*
X8806271D01*
X8841259Y3761323D01*
Y3807975D01*
X8223274Y4395848D02*
Y4325871D01*
X8188286D01*
X8176623Y4337534D01*
Y4360860D01*
X8188286Y4372523D01*
X8223274D01*
X8199949D02*
X8176623Y4395848D01*
X8153297Y4337534D02*
X8141634Y4325871D01*
X8118308D01*
X8106645Y4337534D01*
Y4349197D01*
X8118308Y4360860D01*
X8129971D01*
X8118308D01*
X8106645Y4372523D01*
Y4384186D01*
X8118308Y4395848D01*
X8141634D01*
X8153297Y4384186D01*
X8133171Y3785774D02*
X8203148D01*
Y3750785D01*
X8191485Y3739122D01*
X8168159D01*
X8156497Y3750785D01*
Y3785774D01*
Y3762448D02*
X8133171Y3739122D01*
Y3669145D02*
Y3715796D01*
X8179822Y3669145D01*
X8191485D01*
X8203148Y3680808D01*
Y3704134D01*
X8191485Y3715796D01*
X9807703Y4282911D02*
Y4341226D01*
X9796040Y4352889D01*
X9772714D01*
X9761051Y4341226D01*
Y4282911D01*
X9737725Y4294574D02*
X9726062Y4282911D01*
X9702736D01*
X9691074Y4294574D01*
Y4306237D01*
X9702736Y4317900D01*
X9714399D01*
X9702736D01*
X9691074Y4329563D01*
Y4341226D01*
X9702736Y4352889D01*
X9726062D01*
X9737725Y4341226D01*
X9667748Y4294574D02*
X9656085Y4282911D01*
X9632759D01*
X9621096Y4294574D01*
Y4341226D01*
X9632759Y4352889D01*
X9656085D01*
X9667748Y4341226D01*
Y4294574D01*
X6861685Y5344989D02*
Y5286674D01*
X6873348Y5275011D01*
X6896674D01*
X6908337Y5286674D01*
Y5344989D01*
X6931663Y5333326D02*
X6943326Y5344989D01*
X6966652D01*
X6978314Y5333326D01*
Y5321663D01*
X6966652Y5310000D01*
X6978314Y5298337D01*
Y5286674D01*
X6966652Y5275011D01*
X6943326D01*
X6931663Y5286674D01*
Y5298337D01*
X6943326Y5310000D01*
X6931663Y5321663D01*
Y5333326D01*
X6943326Y5310000D02*
X6966652D01*
X10073111Y5109761D02*
X10143089D01*
Y5074772D01*
X10131426Y5063109D01*
X10108100D01*
X10096437Y5074772D01*
Y5109761D01*
Y5086435D02*
X10073111Y5063109D01*
Y5039783D02*
Y5016457D01*
Y5028120D01*
X10143089D01*
X10131426Y5039783D01*
X10073111Y4946480D02*
X10143089D01*
X10108100Y4981469D01*
Y4934817D01*
X10131426Y4911491D02*
X10143089Y4899828D01*
Y4876502D01*
X10131426Y4864839D01*
X10119763D01*
X10108100Y4876502D01*
X10096437Y4864839D01*
X10084774D01*
X10073111Y4876502D01*
Y4899828D01*
X10084774Y4911491D01*
X10096437D01*
X10108100Y4899828D01*
X10119763Y4911491D01*
X10131426D01*
X10108100Y4899828D02*
Y4876502D01*
X10094761Y3737888D02*
Y3667911D01*
X10059772D01*
X10048109Y3679574D01*
Y3702899D01*
X10059772Y3714562D01*
X10094761D01*
X10071435D02*
X10048109Y3737888D01*
X10024783D02*
X10001457D01*
X10013120D01*
Y3667911D01*
X10024783Y3679574D01*
X9931480Y3737888D02*
Y3667911D01*
X9966469Y3702899D01*
X9919817D01*
X9896491Y3667911D02*
X9849839D01*
Y3679574D01*
X9896491Y3726225D01*
Y3737888D01*
X9285711Y5109761D02*
X9355689D01*
Y5074772D01*
X9344026Y5063109D01*
X9320700D01*
X9309037Y5074772D01*
Y5109761D01*
Y5086435D02*
X9285711Y5063109D01*
Y5039783D02*
Y5016457D01*
Y5028120D01*
X9355689D01*
X9344026Y5039783D01*
X9285711Y4946480D02*
X9355689D01*
X9320700Y4981469D01*
Y4934817D01*
X9355689Y4864839D02*
X9344026Y4888165D01*
X9320700Y4911491D01*
X9297374D01*
X9285711Y4899828D01*
Y4876502D01*
X9297374Y4864839D01*
X9309037D01*
X9320700Y4876502D01*
Y4911491D01*
X9582860Y3755989D02*
Y3686011D01*
X9547872D01*
X9536209Y3697674D01*
Y3721000D01*
X9547872Y3732663D01*
X9582860D01*
X9559535D02*
X9536209Y3755989D01*
X9512883D02*
X9489557D01*
X9501220D01*
Y3686011D01*
X9512883Y3697674D01*
X9419580Y3755989D02*
Y3686011D01*
X9454568Y3721000D01*
X9407917D01*
X9337939Y3686011D02*
X9384591D01*
Y3721000D01*
X9361265Y3709337D01*
X9349602D01*
X9337939Y3721000D01*
Y3744326D01*
X9349602Y3755989D01*
X9372928D01*
X9384591Y3744326D01*
X8684311Y5249161D02*
Y5319139D01*
X8719300D01*
X8730963Y5307476D01*
Y5284150D01*
X8719300Y5272487D01*
X8684311D01*
X8707637D02*
X8730963Y5249161D01*
X8800940Y5319139D02*
X8754289D01*
Y5284150D01*
X8777615Y5295813D01*
X8789278D01*
X8800940Y5284150D01*
Y5260824D01*
X8789278Y5249161D01*
X8765952D01*
X8754289Y5260824D01*
X8824266Y5307476D02*
X8835929Y5319139D01*
X8859255D01*
X8870918Y5307476D01*
Y5260824D01*
X8859255Y5249161D01*
X8835929D01*
X8824266Y5260824D01*
Y5307476D01*
X8729531Y5930413D02*
Y6000391D01*
X8764520D01*
X8776183Y5988728D01*
Y5965402D01*
X8764520Y5953739D01*
X8729531D01*
X8752857D02*
X8776183Y5930413D01*
X8799508D02*
X8822834D01*
X8811171D01*
Y6000391D01*
X8799508Y5988728D01*
X8857823Y5942076D02*
X8869486Y5930413D01*
X8892812D01*
X8904475Y5942076D01*
Y5988728D01*
X8892812Y6000391D01*
X8869486D01*
X8857823Y5988728D01*
Y5977065D01*
X8869486Y5965402D01*
X8904475D01*
X8716831Y6133613D02*
Y6203591D01*
X8751820D01*
X8763483Y6191928D01*
Y6168602D01*
X8751820Y6156939D01*
X8716831D01*
X8740157D02*
X8763483Y6133613D01*
X8786808D02*
X8810134D01*
X8798471D01*
Y6203591D01*
X8786808Y6191928D01*
X8845123D02*
X8856786Y6203591D01*
X8880112D01*
X8891775Y6191928D01*
Y6180265D01*
X8880112Y6168602D01*
X8891775Y6156939D01*
Y6145276D01*
X8880112Y6133613D01*
X8856786D01*
X8845123Y6145276D01*
Y6156939D01*
X8856786Y6168602D01*
X8845123Y6180265D01*
Y6191928D01*
X8856786Y6168602D02*
X8880112D01*
X8704131Y6311413D02*
Y6381391D01*
X8739120D01*
X8750783Y6369728D01*
Y6346402D01*
X8739120Y6334739D01*
X8704131D01*
X8727457D02*
X8750783Y6311413D01*
X8774108D02*
X8797434D01*
X8785771D01*
Y6381391D01*
X8774108Y6369728D01*
X8832423D02*
X8844086Y6381391D01*
X8867412D01*
X8879075Y6369728D01*
Y6358065D01*
X8867412Y6346402D01*
X8855749D01*
X8867412D01*
X8879075Y6334739D01*
Y6323076D01*
X8867412Y6311413D01*
X8844086D01*
X8832423Y6323076D01*
X8704131Y6501913D02*
Y6571891D01*
X8739120D01*
X8750783Y6560228D01*
Y6536902D01*
X8739120Y6525239D01*
X8704131D01*
X8727457D02*
X8750783Y6501913D01*
X8774108D02*
X8797434D01*
X8785771D01*
Y6571891D01*
X8774108Y6560228D01*
X8832423D02*
X8844086Y6571891D01*
X8867412D01*
X8879075Y6560228D01*
Y6513576D01*
X8867412Y6501913D01*
X8844086D01*
X8832423Y6513576D01*
Y6560228D01*
X8771388Y6705113D02*
Y6775091D01*
X8806377D01*
X8818040Y6763428D01*
Y6740102D01*
X8806377Y6728439D01*
X8771388D01*
X8794714D02*
X8818040Y6705113D01*
X8841366Y6716776D02*
X8853029Y6705113D01*
X8876354D01*
X8888017Y6716776D01*
Y6763428D01*
X8876354Y6775091D01*
X8853029D01*
X8841366Y6763428D01*
Y6751765D01*
X8853029Y6740102D01*
X8888017D01*
X6288951Y6072248D02*
X6312277D01*
X6300614D01*
Y6002271D01*
X6288951D01*
X6312277D01*
X6393917Y6060586D02*
X6382254Y6072248D01*
X6358928D01*
X6347265Y6060586D01*
Y6013934D01*
X6358928Y6002271D01*
X6382254D01*
X6393917Y6013934D01*
X6417243Y6002271D02*
X6440569D01*
X6428906D01*
Y6072248D01*
X6417243Y6060586D01*
X8283888Y5437248D02*
X8307214D01*
X8295551D01*
Y5367271D01*
X8283888D01*
X8307214D01*
X8388854Y5425586D02*
X8377191Y5437248D01*
X8353865D01*
X8342203Y5425586D01*
Y5378934D01*
X8353865Y5367271D01*
X8377191D01*
X8388854Y5378934D01*
X8458832Y5367271D02*
X8412180D01*
X8458832Y5413923D01*
Y5425586D01*
X8447169Y5437248D01*
X8423843D01*
X8412180Y5425586D01*
X10023788Y5284848D02*
Y5226534D01*
X10035451Y5214871D01*
X10058777D01*
X10070440Y5226534D01*
Y5284848D01*
X10093765Y5214871D02*
X10117091D01*
X10105428D01*
Y5284848D01*
X10093765Y5273186D01*
X10198732Y5284848D02*
X10152080D01*
Y5249860D01*
X10175406Y5261523D01*
X10187069D01*
X10198732Y5249860D01*
Y5226534D01*
X10187069Y5214871D01*
X10163743D01*
X10152080Y5226534D01*
X11602720Y6282818D02*
Y6224503D01*
X11614383Y6212840D01*
X11637709D01*
X11649372Y6224503D01*
Y6282818D01*
X11672698Y6212840D02*
X11696023D01*
X11684360D01*
Y6282818D01*
X11672698Y6271155D01*
X11766001Y6212840D02*
Y6282818D01*
X11731012Y6247829D01*
X11777664D01*
X10741660Y6285358D02*
Y6227043D01*
X10753323Y6215380D01*
X10776649D01*
X10788312Y6227043D01*
Y6285358D01*
X10811638Y6215380D02*
X10834963D01*
X10823300D01*
Y6285358D01*
X10811638Y6273695D01*
X10869952D02*
X10881615Y6285358D01*
X10904941D01*
X10916604Y6273695D01*
Y6262032D01*
X10904941Y6250369D01*
X10893278D01*
X10904941D01*
X10916604Y6238706D01*
Y6227043D01*
X10904941Y6215380D01*
X10881615D01*
X10869952Y6227043D01*
X13998888Y6084948D02*
Y6026634D01*
X14010551Y6014971D01*
X14033878D01*
X14045540Y6026634D01*
Y6084948D01*
X14068864Y6014971D02*
X14092191D01*
X14080528D01*
Y6084948D01*
X14068864Y6073286D01*
X14173833Y6014971D02*
X14127180D01*
X14173833Y6061623D01*
Y6073286D01*
X14162169Y6084948D01*
X14138843D01*
X14127180Y6073286D01*
X10048151Y5996048D02*
Y5937734D01*
X10059814Y5926071D01*
X10083140D01*
X10094803Y5937734D01*
Y5996048D01*
X10118128Y5926071D02*
X10141454D01*
X10129791D01*
Y5996048D01*
X10118128Y5984386D01*
X10176443Y5926071D02*
X10199769D01*
X10188106D01*
Y5996048D01*
X10176443Y5984386D01*
X10281031Y6780691D02*
Y6722376D01*
X10292694Y6710713D01*
X10316020D01*
X10327683Y6722376D01*
Y6780691D01*
X10351009Y6710713D02*
X10374334D01*
X10362671D01*
Y6780691D01*
X10351009Y6769028D01*
X10409323D02*
X10420986Y6780691D01*
X10444312D01*
X10455975Y6769028D01*
Y6722376D01*
X10444312Y6710713D01*
X10420986D01*
X10409323Y6722376D01*
Y6769028D01*
X7489874Y5506971D02*
Y5565286D01*
X7478211Y5576948D01*
X7454886D01*
X7443223Y5565286D01*
Y5506971D01*
X7419897D02*
X7373245D01*
Y5518634D01*
X7419897Y5565286D01*
Y5576948D01*
X7518315Y6685011D02*
Y6743326D01*
X7506652Y6754989D01*
X7483326D01*
X7471663Y6743326D01*
Y6685011D01*
X7401685D02*
X7425011Y6696674D01*
X7448337Y6720000D01*
Y6743326D01*
X7436674Y6754989D01*
X7413348D01*
X7401685Y6743326D01*
Y6731663D01*
X7413348Y6720000D01*
X7448337D01*
X10497797Y5435011D02*
Y5504989D01*
X10532785D01*
X10544448Y5493326D01*
Y5470000D01*
X10532785Y5458337D01*
X10497797D01*
X10521122D02*
X10544448Y5435011D01*
X10602763D02*
Y5504989D01*
X10567774Y5470000D01*
X10614426D01*
X10637752Y5446674D02*
X10649415Y5435011D01*
X10672740D01*
X10684403Y5446674D01*
Y5493326D01*
X10672740Y5504989D01*
X10649415D01*
X10637752Y5493326D01*
Y5481663D01*
X10649415Y5470000D01*
X10684403D01*
X10495605Y5263305D02*
Y5333283D01*
X10530594D01*
X10542257Y5321620D01*
Y5298294D01*
X10530594Y5286631D01*
X10495605D01*
X10518931D02*
X10542257Y5263305D01*
X10600572D02*
Y5333283D01*
X10565583Y5298294D01*
X10612235D01*
X10635560Y5321620D02*
X10647223Y5333283D01*
X10670549D01*
X10682212Y5321620D01*
Y5309957D01*
X10670549Y5298294D01*
X10682212Y5286631D01*
Y5274968D01*
X10670549Y5263305D01*
X10647223D01*
X10635560Y5274968D01*
Y5286631D01*
X10647223Y5298294D01*
X10635560Y5309957D01*
Y5321620D01*
X10647223Y5298294D02*
X10670549D01*
X9669780Y6052820D02*
Y6122798D01*
X9704769D01*
X9716432Y6111135D01*
Y6087809D01*
X9704769Y6076146D01*
X9669780D01*
X9693106D02*
X9716432Y6052820D01*
X9774746D02*
Y6122798D01*
X9739758Y6087809D01*
X9786409D01*
X9856387Y6122798D02*
X9833061Y6111135D01*
X9809735Y6087809D01*
Y6064483D01*
X9821398Y6052820D01*
X9844724D01*
X9856387Y6064483D01*
Y6076146D01*
X9844724Y6087809D01*
X9809735D01*
X13700957Y5367271D02*
Y5437248D01*
X13735945D01*
X13747607Y5425586D01*
Y5402260D01*
X13735945Y5390597D01*
X13700957D01*
X13724281D02*
X13747607Y5367271D01*
X13805923D02*
Y5437248D01*
X13770934Y5402260D01*
X13817586D01*
X13840910Y5425586D02*
X13852574Y5437248D01*
X13875900D01*
X13887563Y5425586D01*
Y5378934D01*
X13875900Y5367271D01*
X13852574D01*
X13840910Y5378934D01*
Y5425586D01*
X12148477Y5290252D02*
Y5360229D01*
X12183466D01*
X12195129Y5348566D01*
Y5325240D01*
X12183466Y5313577D01*
X12148477D01*
X12171803D02*
X12195129Y5290252D01*
X12218454Y5348566D02*
X12230117Y5360229D01*
X12253443D01*
X12265106Y5348566D01*
Y5336903D01*
X12253443Y5325240D01*
X12241780D01*
X12253443D01*
X12265106Y5313577D01*
Y5301914D01*
X12253443Y5290252D01*
X12230117D01*
X12218454Y5301914D01*
X12335084Y5360229D02*
X12311758Y5348566D01*
X12288432Y5325240D01*
Y5301914D01*
X12300095Y5290252D01*
X12323421D01*
X12335084Y5301914D01*
Y5313577D01*
X12323421Y5325240D01*
X12288432D01*
X11444056Y5291071D02*
Y5361048D01*
X11479045D01*
X11490708Y5349386D01*
Y5326060D01*
X11479045Y5314397D01*
X11444056D01*
X11467382D02*
X11490708Y5291071D01*
X11514034Y5349386D02*
X11525697Y5361048D01*
X11549023D01*
X11560686Y5349386D01*
Y5337723D01*
X11549023Y5326060D01*
X11537360D01*
X11549023D01*
X11560686Y5314397D01*
Y5302734D01*
X11549023Y5291071D01*
X11525697D01*
X11514034Y5302734D01*
X11584011Y5349386D02*
X11595674Y5361048D01*
X11619000D01*
X11630663Y5349386D01*
Y5302734D01*
X11619000Y5291071D01*
X11595674D01*
X11584011Y5302734D01*
Y5349386D01*
X14412157Y5367271D02*
Y5437248D01*
X14447145D01*
X14458807Y5425586D01*
Y5402260D01*
X14447145Y5390597D01*
X14412157D01*
X14435481D02*
X14458807Y5367271D01*
X14528786D02*
X14482133D01*
X14528786Y5413923D01*
Y5425586D01*
X14517123Y5437248D01*
X14493797D01*
X14482133Y5425586D01*
X14552110Y5378934D02*
X14563774Y5367271D01*
X14587100D01*
X14598763Y5378934D01*
Y5425586D01*
X14587100Y5437248D01*
X14563774D01*
X14552110Y5425586D01*
Y5413923D01*
X14563774Y5402260D01*
X14598763D01*
X12824657Y5532371D02*
Y5602348D01*
X12859645D01*
X12871307Y5590686D01*
Y5567360D01*
X12859645Y5555697D01*
X12824657D01*
X12847981D02*
X12871307Y5532371D01*
X12941286D02*
X12894633D01*
X12941286Y5579023D01*
Y5590686D01*
X12929623Y5602348D01*
X12906297D01*
X12894633Y5590686D01*
X12964610D02*
X12976274Y5602348D01*
X12999600D01*
X13011263Y5590686D01*
Y5579023D01*
X12999600Y5567360D01*
X13011263Y5555697D01*
Y5544034D01*
X12999600Y5532371D01*
X12976274D01*
X12964610Y5544034D01*
Y5555697D01*
X12976274Y5567360D01*
X12964610Y5579023D01*
Y5590686D01*
X12976274Y5567360D02*
X12999600D01*
X10507571Y6141421D02*
Y6211399D01*
X10542560D01*
X10554222Y6199736D01*
Y6176410D01*
X10542560Y6164747D01*
X10507571D01*
X10530897D02*
X10554222Y6141421D01*
X10624200D02*
X10577548D01*
X10624200Y6188073D01*
Y6199736D01*
X10612537Y6211399D01*
X10589211D01*
X10577548Y6199736D01*
X10647526Y6211399D02*
X10694177D01*
Y6199736D01*
X10647526Y6153084D01*
Y6141421D01*
X12824657Y5341871D02*
Y5411848D01*
X12859645D01*
X12871307Y5400186D01*
Y5376860D01*
X12859645Y5365197D01*
X12824657D01*
X12847981D02*
X12871307Y5341871D01*
X12941286D02*
X12894633D01*
X12941286Y5388523D01*
Y5400186D01*
X12929623Y5411848D01*
X12906297D01*
X12894633Y5400186D01*
X13011263Y5411848D02*
X12987936Y5400186D01*
X12964610Y5376860D01*
Y5353534D01*
X12976274Y5341871D01*
X12999600D01*
X13011263Y5353534D01*
Y5365197D01*
X12999600Y5376860D01*
X12964610D01*
X11600156Y5494271D02*
Y5564248D01*
X11635145D01*
X11646808Y5552586D01*
Y5529260D01*
X11635145Y5517597D01*
X11600156D01*
X11623482D02*
X11646808Y5494271D01*
X11716786D02*
X11670134D01*
X11716786Y5540923D01*
Y5552586D01*
X11705123Y5564248D01*
X11681797D01*
X11670134Y5552586D01*
X11786763Y5564248D02*
X11740111D01*
Y5529260D01*
X11763437Y5540923D01*
X11775100D01*
X11786763Y5529260D01*
Y5505934D01*
X11775100Y5494271D01*
X11751774D01*
X11740111Y5505934D01*
X10890556Y5494271D02*
Y5564248D01*
X10925545D01*
X10937208Y5552586D01*
Y5529260D01*
X10925545Y5517597D01*
X10890556D01*
X10913882D02*
X10937208Y5494271D01*
X11007186D02*
X10960534D01*
X11007186Y5540923D01*
Y5552586D01*
X10995523Y5564248D01*
X10972197D01*
X10960534Y5552586D01*
X11065500Y5494271D02*
Y5564248D01*
X11030511Y5529260D01*
X11077163D01*
X10508938Y5982657D02*
Y6052634D01*
X10543927D01*
X10555590Y6040971D01*
Y6017646D01*
X10543927Y6005983D01*
X10508938D01*
X10532264D02*
X10555590Y5982657D01*
X10625568D02*
X10578916D01*
X10625568Y6029308D01*
Y6040971D01*
X10613905Y6052634D01*
X10590579D01*
X10578916Y6040971D01*
X10648893D02*
X10660556Y6052634D01*
X10683882D01*
X10695545Y6040971D01*
Y6029308D01*
X10683882Y6017646D01*
X10672219D01*
X10683882D01*
X10695545Y6005983D01*
Y5994320D01*
X10683882Y5982657D01*
X10660556D01*
X10648893Y5994320D01*
X12824657Y5430771D02*
Y5500748D01*
X12859645D01*
X12871307Y5489086D01*
Y5465760D01*
X12859645Y5454097D01*
X12824657D01*
X12847981D02*
X12871307Y5430771D01*
X12941286D02*
X12894633D01*
X12941286Y5477423D01*
Y5489086D01*
X12929623Y5500748D01*
X12906297D01*
X12894633Y5489086D01*
X13011263Y5430771D02*
X12964610D01*
X13011263Y5477423D01*
Y5489086D01*
X12999600Y5500748D01*
X12976274D01*
X12964610Y5489086D01*
X9954456Y6573771D02*
Y6643748D01*
X9989445D01*
X10001108Y6632086D01*
Y6608760D01*
X9989445Y6597097D01*
X9954456D01*
X9977782D02*
X10001108Y6573771D01*
X10071086D02*
X10024434D01*
X10071086Y6620423D01*
Y6632086D01*
X10059423Y6643748D01*
X10036097D01*
X10024434Y6632086D01*
X10094411D02*
X10106074Y6643748D01*
X10129400D01*
X10141063Y6632086D01*
Y6585434D01*
X10129400Y6573771D01*
X10106074D01*
X10094411Y6585434D01*
Y6632086D01*
X10500245Y6507092D02*
Y6577070D01*
X10535233D01*
X10546896Y6565407D01*
Y6542081D01*
X10535233Y6530418D01*
X10500245D01*
X10523571D02*
X10546896Y6507092D01*
X10570222D02*
X10593548D01*
X10581885D01*
Y6577070D01*
X10570222Y6565407D01*
X10628537Y6577070D02*
X10675188D01*
Y6565407D01*
X10628537Y6518755D01*
Y6507092D01*
X11333480Y6614160D02*
Y6684138D01*
X11368469D01*
X11380132Y6672475D01*
Y6649149D01*
X11368469Y6637486D01*
X11333480D01*
X11356806D02*
X11380132Y6614160D01*
X11403458D02*
X11426783D01*
X11415120D01*
Y6684138D01*
X11403458Y6672475D01*
X11508424Y6684138D02*
X11485098Y6672475D01*
X11461772Y6649149D01*
Y6625823D01*
X11473435Y6614160D01*
X11496761D01*
X11508424Y6625823D01*
Y6637486D01*
X11496761Y6649149D01*
X11461772D01*
X10501128Y6645011D02*
Y6714989D01*
X10536117D01*
X10547780Y6703326D01*
Y6680000D01*
X10536117Y6668337D01*
X10501128D01*
X10524454D02*
X10547780Y6645011D01*
X10571106D02*
X10594432D01*
X10582769D01*
Y6714989D01*
X10571106Y6703326D01*
X10676072Y6714989D02*
X10629420D01*
Y6680000D01*
X10652746Y6691663D01*
X10664409D01*
X10676072Y6680000D01*
Y6656674D01*
X10664409Y6645011D01*
X10641083D01*
X10629420Y6656674D01*
X10740028Y6455011D02*
Y6524989D01*
X10775017D01*
X10786680Y6513326D01*
Y6490000D01*
X10775017Y6478337D01*
X10740028D01*
X10763354D02*
X10786680Y6455011D01*
X10810006D02*
X10833331D01*
X10821668D01*
Y6524989D01*
X10810006Y6513326D01*
X10903309Y6455011D02*
Y6524989D01*
X10868320Y6490000D01*
X10914972D01*
X9072880Y7106920D02*
Y7176898D01*
X9107869D01*
X9119532Y7165235D01*
Y7141909D01*
X9107869Y7130246D01*
X9072880D01*
X9096206D02*
X9119532Y7106920D01*
X9142858D02*
X9166183D01*
X9154520D01*
Y7176898D01*
X9142858Y7165235D01*
X9247824Y7106920D02*
X9201172D01*
X9247824Y7153572D01*
Y7165235D01*
X9236161Y7176898D01*
X9212835D01*
X9201172Y7165235D01*
X8711874Y5395793D02*
Y5465771D01*
X8746863D01*
X8758526Y5454108D01*
Y5430782D01*
X8746863Y5419119D01*
X8711874D01*
X8735200D02*
X8758526Y5395793D01*
X8816840D02*
Y5465771D01*
X8781851Y5430782D01*
X8828503D01*
X8851829Y5465771D02*
X8898481D01*
Y5454108D01*
X8851829Y5407456D01*
Y5395793D01*
X8697109Y5576804D02*
Y5646782D01*
X8732098D01*
X8743761Y5635119D01*
Y5611793D01*
X8732098Y5600130D01*
X8697109D01*
X8720435D02*
X8743761Y5576804D01*
X8802076D02*
Y5646782D01*
X8767087Y5611793D01*
X8813739D01*
X8883716Y5646782D02*
X8837064D01*
Y5611793D01*
X8860390Y5623456D01*
X8872053D01*
X8883716Y5611793D01*
Y5588467D01*
X8872053Y5576804D01*
X8848727D01*
X8837064Y5588467D01*
X8697669Y5729921D02*
Y5799899D01*
X8732658D01*
X8744321Y5788236D01*
Y5764910D01*
X8732658Y5753247D01*
X8697669D01*
X8720995D02*
X8744321Y5729921D01*
X8802636D02*
Y5799899D01*
X8767647Y5764910D01*
X8814299D01*
X8872613Y5729921D02*
Y5799899D01*
X8837624Y5764910D01*
X8884276D01*
X7599086Y4031037D02*
X7648568Y4080518D01*
X7673309Y4055778D01*
Y4039284D01*
X7656815Y4022790D01*
X7640321D01*
X7615580Y4047531D01*
X7632074Y4031037D02*
Y3998049D01*
X7673309Y3956815D02*
X7722790Y4006296D01*
X7673309D01*
X7706297Y3973308D01*
X7739284D02*
X7755778D01*
X7772272Y3956815D01*
Y3940321D01*
X7764025Y3932074D01*
X7747531D01*
X7739284Y3940321D01*
X7747531Y3932074D01*
Y3915580D01*
X7739284Y3907333D01*
X7722790D01*
X7706297Y3923827D01*
Y3940321D01*
X5836362Y5755556D02*
X5786880Y5805037D01*
X5811621Y5829778D01*
X5828115D01*
X5844609Y5813285D01*
Y5796791D01*
X5819868Y5772050D01*
X5836362Y5788544D02*
X5869349D01*
X5844609Y5846272D02*
Y5862766D01*
X5861103Y5879260D01*
X5877596D01*
X5885843Y5871013D01*
Y5854519D01*
X5877596Y5846272D01*
X5885843Y5854519D01*
X5902337D01*
X5910584Y5846272D01*
Y5829778D01*
X5894090Y5813285D01*
X5877596D01*
X5918831Y5936988D02*
X5885843Y5904001D01*
X5910584Y5879260D01*
X5918831Y5904001D01*
X5927078Y5912248D01*
X5943572D01*
X5960066Y5895754D01*
Y5879260D01*
X5943572Y5862766D01*
X5927078D01*
X5328362Y5780956D02*
X5278880Y5830437D01*
X5303621Y5855178D01*
X5320115D01*
X5336609Y5838685D01*
Y5822191D01*
X5311868Y5797450D01*
X5328362Y5813944D02*
X5361349D01*
X5336609Y5871672D02*
Y5888166D01*
X5353103Y5904660D01*
X5369596D01*
X5377843Y5896413D01*
Y5879919D01*
X5369596Y5871672D01*
X5377843Y5879919D01*
X5394337D01*
X5402584Y5871672D01*
Y5855178D01*
X5386090Y5838685D01*
X5369596D01*
X5452066Y5904660D02*
X5402584Y5954142D01*
Y5904660D01*
X5435572Y5937648D01*
X4807662Y5819056D02*
X4758180Y5868537D01*
X4782921Y5893278D01*
X4799415D01*
X4815909Y5876785D01*
Y5860291D01*
X4791168Y5835550D01*
X4807662Y5852044D02*
X4840649D01*
X4815909Y5909772D02*
Y5926266D01*
X4832403Y5942760D01*
X4848896D01*
X4857143Y5934513D01*
Y5918019D01*
X4848896Y5909772D01*
X4857143Y5918019D01*
X4873637D01*
X4881884Y5909772D01*
Y5893278D01*
X4865390Y5876785D01*
X4848896D01*
X4865390Y5959254D02*
Y5975748D01*
X4881884Y5992242D01*
X4898378D01*
X4906625Y5983994D01*
Y5967501D01*
X4898378Y5959254D01*
X4906625Y5967501D01*
X4923119D01*
X4931366Y5959254D01*
Y5942760D01*
X4914872Y5926266D01*
X4898378D01*
X4274262Y5831756D02*
X4224780Y5881237D01*
X4249521Y5905978D01*
X4266015D01*
X4282509Y5889485D01*
Y5872991D01*
X4257768Y5848250D01*
X4274262Y5864744D02*
X4307249D01*
X4282509Y5922472D02*
Y5938966D01*
X4299003Y5955460D01*
X4315496D01*
X4323743Y5947213D01*
Y5930719D01*
X4315496Y5922472D01*
X4323743Y5930719D01*
X4340237D01*
X4348484Y5922472D01*
Y5905978D01*
X4331990Y5889485D01*
X4315496D01*
X4406213Y5963707D02*
X4373225Y5930719D01*
Y5996694D01*
X4364978Y6004942D01*
X4348484D01*
X4331990Y5988448D01*
Y5971954D01*
X3672909Y5827303D02*
X3623427Y5876784D01*
X3648168Y5901525D01*
X3664662D01*
X3681155Y5885031D01*
Y5868537D01*
X3656415Y5843796D01*
X3672909Y5860290D02*
X3705896D01*
X3681155Y5918019D02*
Y5934513D01*
X3697649Y5951006D01*
X3714143D01*
X3722390Y5942760D01*
Y5926266D01*
X3714143Y5918019D01*
X3722390Y5926266D01*
X3738884D01*
X3747131Y5918019D01*
Y5901525D01*
X3730637Y5885031D01*
X3714143D01*
X3771872Y5926266D02*
X3788366Y5942760D01*
X3780119Y5934513D01*
X3730637Y5983994D01*
Y5967500D01*
X13249197Y6091734D02*
Y6138385D01*
X13237534Y6150048D01*
X13214207D01*
X13202545Y6138385D01*
Y6091734D01*
X13214207Y6080071D01*
X13237534D01*
X13225871Y6103397D02*
X13249197Y6080071D01*
X13237534D02*
X13249197Y6091734D01*
X13272523Y6150048D02*
X13319174D01*
Y6138385D01*
X13272523Y6091734D01*
Y6080071D01*
X12588337Y5686674D02*
Y5733326D01*
X12576674Y5744989D01*
X12553348D01*
X12541685Y5733326D01*
Y5686674D01*
X12553348Y5675011D01*
X12576674D01*
X12565011Y5698337D02*
X12588337Y5675011D01*
X12576674D02*
X12588337Y5686674D01*
X12658315Y5744989D02*
X12634989Y5733326D01*
X12611663Y5710000D01*
Y5686674D01*
X12623326Y5675011D01*
X12646652D01*
X12658315Y5686674D01*
Y5698337D01*
X12646652Y5710000D01*
X12611663D01*
X6376674Y6201663D02*
X6423326D01*
X6434989Y6213326D01*
Y6236651D01*
X6423326Y6248314D01*
X6376674D01*
X6365011Y6236651D01*
Y6213326D01*
X6388337Y6224989D02*
X6365011Y6201663D01*
Y6213326D02*
X6376674Y6201663D01*
X6365011Y6131685D02*
Y6178337D01*
X6411663Y6131685D01*
X6423326D01*
X6434989Y6143348D01*
Y6166674D01*
X6423326Y6178337D01*
X8925011Y4893685D02*
X8994989D01*
Y4940337D01*
X8936674Y4963663D02*
X8925011Y4975326D01*
Y4998652D01*
X8936674Y5010315D01*
X8948337D01*
X8960000Y4998652D01*
Y4986989D01*
Y4998652D01*
X8971663Y5010315D01*
X8983326D01*
X8994989Y4998652D01*
Y4975326D01*
X8983326Y4963663D01*
X10472045Y5957948D02*
Y5887971D01*
X10518697D01*
X10588674D02*
X10542023D01*
X10588674Y5934623D01*
Y5946286D01*
X10577011Y5957948D01*
X10553686D01*
X10542023Y5946286D01*
X9105011Y4926348D02*
X9174989D01*
Y4973000D01*
Y4996326D02*
Y5019651D01*
Y5007988D01*
X9105011D01*
X9116674Y4996326D01*
X12119288Y5564248D02*
Y5494271D01*
X12154277D01*
X12165940Y5505934D01*
Y5552586D01*
X12154277Y5564248D01*
X12119288D01*
X12189265Y5494271D02*
X12212591D01*
X12200928D01*
Y5564248D01*
X12189265Y5552586D01*
X12294232Y5494271D02*
X12247580D01*
X12294232Y5540923D01*
Y5552586D01*
X12282569Y5564248D01*
X12259243D01*
X12247580Y5552586D01*
X13877034Y5310367D02*
Y5240390D01*
X13912022D01*
X13923686Y5252053D01*
Y5298704D01*
X13912022Y5310367D01*
X13877034D01*
X13947012Y5240390D02*
X13970338D01*
X13958675D01*
Y5310367D01*
X13947012Y5298704D01*
X14005327Y5240390D02*
X14028651D01*
X14016989D01*
Y5310367D01*
X14005327Y5298704D01*
X12119288Y5462648D02*
Y5392671D01*
X12154277D01*
X12165940Y5404334D01*
Y5450986D01*
X12154277Y5462648D01*
X12119288D01*
X12189265Y5392671D02*
X12212591D01*
X12200928D01*
Y5462648D01*
X12189265Y5450986D01*
X12247580D02*
X12259243Y5462648D01*
X12282569D01*
X12294232Y5450986D01*
Y5404334D01*
X12282569Y5392671D01*
X12259243D01*
X12247580Y5404334D01*
Y5450986D01*
X13358633Y5309693D02*
Y5239715D01*
X13393623D01*
X13405286Y5251378D01*
Y5298030D01*
X13393623Y5309693D01*
X13358633D01*
X13428612Y5251378D02*
X13440276Y5239715D01*
X13463600D01*
X13475262Y5251378D01*
Y5298030D01*
X13463600Y5309693D01*
X13440276D01*
X13428612Y5298030D01*
Y5286367D01*
X13440276Y5274704D01*
X13475262D01*
X13340170Y5496345D02*
X13410149D01*
Y5531334D01*
X13398486Y5542997D01*
X13351834D01*
X13340170Y5531334D01*
Y5496345D01*
X13351834Y5566323D02*
X13340170Y5577986D01*
Y5601311D01*
X13351834Y5612974D01*
X13363496D01*
X13375160Y5601311D01*
X13386823Y5612974D01*
X13398486D01*
X13410149Y5601311D01*
Y5577986D01*
X13398486Y5566323D01*
X13386823D01*
X13375160Y5577986D01*
X13363496Y5566323D01*
X13351834D01*
X13375160Y5577986D02*
Y5601311D01*
X13619571Y6004345D02*
X13689548D01*
Y6039334D01*
X13677885Y6050997D01*
X13631235D01*
X13619571Y6039334D01*
Y6004345D01*
Y6074323D02*
Y6120974D01*
X13631235D01*
X13677885Y6074323D01*
X13689548D01*
X13342245Y6364348D02*
Y6294371D01*
X13377234D01*
X13388898Y6306034D01*
Y6352686D01*
X13377234Y6364348D01*
X13342245D01*
X13458875D02*
X13435548Y6352686D01*
X13412222Y6329360D01*
Y6306034D01*
X13423886Y6294371D01*
X13447211D01*
X13458875Y6306034D01*
Y6317697D01*
X13447211Y6329360D01*
X13412222D01*
X13875645Y6364348D02*
Y6294371D01*
X13910634D01*
X13922298Y6306034D01*
Y6352686D01*
X13910634Y6364348D01*
X13875645D01*
X13992274D02*
X13945622D01*
Y6329360D01*
X13968948Y6341023D01*
X13980611D01*
X13992274Y6329360D01*
Y6306034D01*
X13980611Y6294371D01*
X13957286D01*
X13945622Y6306034D01*
X13376572Y5786015D02*
X13364909Y5797678D01*
X13341583D01*
X13329919Y5786015D01*
Y5739363D01*
X13341583Y5727700D01*
X13364909D01*
X13376572Y5739363D01*
X13446548Y5797678D02*
X13399898D01*
Y5762689D01*
X13423222Y5774352D01*
X13434886D01*
X13446548Y5762689D01*
Y5739363D01*
X13434886Y5727700D01*
X13411560D01*
X13399898Y5739363D01*
X13469875D02*
X13481538Y5727700D01*
X13504865D01*
X13516527Y5739363D01*
Y5786015D01*
X13504865Y5797678D01*
X13481538D01*
X13469875Y5786015D01*
Y5774352D01*
X13481538Y5762689D01*
X13516527D01*
X10808632Y5747915D02*
X10796969Y5759578D01*
X10773643D01*
X10761980Y5747915D01*
Y5701263D01*
X10773643Y5689600D01*
X10796969D01*
X10808632Y5701263D01*
X10878609Y5759578D02*
X10831958D01*
Y5724589D01*
X10855283Y5736252D01*
X10866946D01*
X10878609Y5724589D01*
Y5701263D01*
X10866946Y5689600D01*
X10843620D01*
X10831958Y5701263D01*
X10901935Y5747915D02*
X10913598Y5759578D01*
X10936924D01*
X10948587Y5747915D01*
Y5736252D01*
X10936924Y5724589D01*
X10948587Y5712926D01*
Y5701263D01*
X10936924Y5689600D01*
X10913598D01*
X10901935Y5701263D01*
Y5712926D01*
X10913598Y5724589D01*
X10901935Y5736252D01*
Y5747915D01*
X10913598Y5724589D02*
X10936924D01*
X11603348Y7193326D02*
X11591685Y7204989D01*
X11568360D01*
X11556697Y7193326D01*
Y7146674D01*
X11568360Y7135011D01*
X11591685D01*
X11603348Y7146674D01*
X11673326Y7204989D02*
X11626674D01*
Y7170000D01*
X11650000Y7181663D01*
X11661663D01*
X11673326Y7170000D01*
Y7146674D01*
X11661663Y7135011D01*
X11638337D01*
X11626674Y7146674D01*
X11696652Y7204989D02*
X11743303D01*
Y7193326D01*
X11696652Y7146674D01*
Y7135011D01*
X11641752Y5755535D02*
X11630089Y5767198D01*
X11606763D01*
X11595100Y5755535D01*
Y5708883D01*
X11606763Y5697220D01*
X11630089D01*
X11641752Y5708883D01*
X11711729Y5767198D02*
X11665078D01*
Y5732209D01*
X11688403Y5743872D01*
X11700066D01*
X11711729Y5732209D01*
Y5708883D01*
X11700066Y5697220D01*
X11676740D01*
X11665078Y5708883D01*
X11781707Y5767198D02*
X11758381Y5755535D01*
X11735055Y5732209D01*
Y5708883D01*
X11746718Y5697220D01*
X11770044D01*
X11781707Y5708883D01*
Y5720546D01*
X11770044Y5732209D01*
X11735055D01*
X7876674Y6743348D02*
X7865011Y6731685D01*
Y6708359D01*
X7876674Y6696697D01*
X7923325D01*
X7934988Y6708359D01*
Y6731685D01*
X7923325Y6743348D01*
X7865011Y6813326D02*
Y6766674D01*
X7899999D01*
X7888337Y6790000D01*
Y6801663D01*
X7899999Y6813326D01*
X7923325D01*
X7934988Y6801663D01*
Y6778337D01*
X7923325Y6766674D01*
X7865011Y6883303D02*
Y6836652D01*
X7899999D01*
X7888337Y6859977D01*
Y6871640D01*
X7899999Y6883303D01*
X7923325D01*
X7934988Y6871640D01*
Y6848314D01*
X7923325Y6836652D01*
X7913348Y6233326D02*
X7901685Y6244989D01*
X7878360D01*
X7866697Y6233326D01*
Y6186674D01*
X7878360Y6175011D01*
X7901685D01*
X7913348Y6186674D01*
X7983326Y6244989D02*
X7936674D01*
Y6210000D01*
X7960000Y6221663D01*
X7971663D01*
X7983326Y6210000D01*
Y6186674D01*
X7971663Y6175011D01*
X7948337D01*
X7936674Y6186674D01*
X8041641Y6175011D02*
Y6244989D01*
X8006652Y6210000D01*
X8053303D01*
X10696652Y7156674D02*
X10708315Y7145011D01*
X10731640D01*
X10743303Y7156674D01*
Y7203326D01*
X10731640Y7214989D01*
X10708315D01*
X10696652Y7203326D01*
X10626674Y7145011D02*
X10673326D01*
Y7180000D01*
X10650000Y7168337D01*
X10638337D01*
X10626674Y7180000D01*
Y7203326D01*
X10638337Y7214989D01*
X10661663D01*
X10673326Y7203326D01*
X10603348Y7156674D02*
X10591685Y7145011D01*
X10568360D01*
X10556697Y7156674D01*
Y7203326D01*
X10568360Y7214989D01*
X10591685D01*
X10603348Y7203326D01*
Y7156674D01*
X11496972Y6395615D02*
X11485309Y6407278D01*
X11461983D01*
X11450320Y6395615D01*
Y6348963D01*
X11461983Y6337300D01*
X11485309D01*
X11496972Y6348963D01*
X11555286Y6337300D02*
Y6407278D01*
X11520298Y6372289D01*
X11566949D01*
X11590275Y6348963D02*
X11601938Y6337300D01*
X11625264D01*
X11636927Y6348963D01*
Y6395615D01*
X11625264Y6407278D01*
X11601938D01*
X11590275Y6395615D01*
Y6383952D01*
X11601938Y6372289D01*
X11636927D01*
X12423348Y6368326D02*
X12411685Y6379989D01*
X12388360D01*
X12376697Y6368326D01*
Y6321674D01*
X12388360Y6310011D01*
X12411685D01*
X12423348Y6321674D01*
X12481663Y6310011D02*
Y6379989D01*
X12446674Y6345000D01*
X12493326D01*
X12516652Y6368326D02*
X12528315Y6379989D01*
X12551640D01*
X12563303Y6368326D01*
Y6356663D01*
X12551640Y6345000D01*
X12563303Y6333337D01*
Y6321674D01*
X12551640Y6310011D01*
X12528315D01*
X12516652Y6321674D01*
Y6333337D01*
X12528315Y6345000D01*
X12516652Y6356663D01*
Y6368326D01*
X12528315Y6345000D02*
X12551640D01*
X6923348Y6383326D02*
X6911685Y6394989D01*
X6888360D01*
X6876697Y6383326D01*
Y6336674D01*
X6888360Y6325011D01*
X6911685D01*
X6923348Y6336674D01*
X6981663Y6325011D02*
Y6394989D01*
X6946674Y6360000D01*
X6993326D01*
X7016652Y6394989D02*
X7063303D01*
Y6383326D01*
X7016652Y6336674D01*
Y6325011D01*
X7433326Y5436651D02*
X7444989Y5448314D01*
Y5471640D01*
X7433326Y5483303D01*
X7386674D01*
X7375011Y5471640D01*
Y5448314D01*
X7386674Y5436651D01*
X7375011Y5378337D02*
X7444989D01*
X7410000Y5413325D01*
Y5366674D01*
X7444989Y5296696D02*
Y5343348D01*
X7410000D01*
X7421663Y5320022D01*
Y5308359D01*
X7410000Y5296696D01*
X7386674D01*
X7375011Y5308359D01*
Y5331685D01*
X7386674Y5343348D01*
X8776632Y3837835D02*
X8764969Y3849498D01*
X8741643D01*
X8729980Y3837835D01*
Y3791183D01*
X8741643Y3779520D01*
X8764969D01*
X8776632Y3791183D01*
X8799958Y3837835D02*
X8811620Y3849498D01*
X8834946D01*
X8846609Y3837835D01*
Y3826172D01*
X8834946Y3814509D01*
X8823283D01*
X8834946D01*
X8846609Y3802846D01*
Y3791183D01*
X8834946Y3779520D01*
X8811620D01*
X8799958Y3791183D01*
X8869935D02*
X8881598Y3779520D01*
X8904924D01*
X8916587Y3791183D01*
Y3837835D01*
X8904924Y3849498D01*
X8881598D01*
X8869935Y3837835D01*
Y3826172D01*
X8881598Y3814509D01*
X8916587D01*
X8088292Y4574435D02*
X8076629Y4586098D01*
X8053303D01*
X8041640Y4574435D01*
Y4527783D01*
X8053303Y4516120D01*
X8076629D01*
X8088292Y4527783D01*
X8111618Y4574435D02*
X8123280Y4586098D01*
X8146606D01*
X8158269Y4574435D01*
Y4562772D01*
X8146606Y4551109D01*
X8134943D01*
X8146606D01*
X8158269Y4539446D01*
Y4527783D01*
X8146606Y4516120D01*
X8123280D01*
X8111618Y4527783D01*
X8228247Y4516120D02*
X8181595D01*
X8228247Y4562772D01*
Y4574435D01*
X8216584Y4586098D01*
X8193258D01*
X8181595Y4574435D01*
X13723080Y5601126D02*
X13711417Y5612789D01*
X13688091D01*
X13676428Y5601126D01*
Y5554474D01*
X13688091Y5542811D01*
X13711417D01*
X13723080Y5554474D01*
X13746407Y5542811D02*
X13769731D01*
X13758067D01*
Y5612789D01*
X13746407Y5601126D01*
X13804720Y5612789D02*
X13851372D01*
Y5601126D01*
X13804720Y5554474D01*
Y5542811D01*
X10986432Y6456575D02*
X10974769Y6468238D01*
X10951443D01*
X10939780Y6456575D01*
Y6409923D01*
X10951443Y6398260D01*
X10974769D01*
X10986432Y6409923D01*
X11044746Y6398260D02*
Y6468238D01*
X11009758Y6433249D01*
X11056409D01*
X6410960Y7540118D02*
Y7470140D01*
X6445949D01*
X6457612Y7481803D01*
Y7493466D01*
X6445949Y7505129D01*
X6410960D01*
X6445949D01*
X6457612Y7516792D01*
Y7528455D01*
X6445949Y7540118D01*
X6410960D01*
X6480938Y7470140D02*
X6504263D01*
X6492600D01*
Y7540118D01*
X6480938Y7528455D01*
D82*
X15362500Y3275000D02*
G03*
X15362500Y3275000I-12500J0D01*
G01*
X14042500Y3035000D02*
G03*
X14042500Y3035000I-12500J0D01*
G01*
X13541530Y3030583D02*
G03*
X13541530Y3030583I-12500J0D01*
G01*
X10729216Y3494119D02*
G03*
X10729216Y3494119I-12500J0D01*
G01*
X10496999Y3430064D02*
G03*
X10496999Y3430064I-12500J0D01*
G01*
X7701760Y5566260D02*
G03*
X7701760Y5566260I-12500J0D01*
G01*
X9444400Y4900700D02*
G03*
X9444400Y4900700I-12500J0D01*
G01*
X6442000Y4299690D02*
G03*
X6442000Y4299690I-12500J0D01*
G01*
X15342500Y4135000D02*
G03*
X15342500Y4135000I-12500J0D01*
G01*
Y4725000D02*
G03*
X15342500Y4725000I-12500J0D01*
G01*
X14004002Y4528491D02*
G03*
X14004002Y4528491I-12500J0D01*
G01*
X14507291Y4521392D02*
G03*
X14507291Y4521392I-12500J0D01*
G01*
X15342500Y3855000D02*
G03*
X15342500Y3855000I-12500J0D01*
G01*
X8218000Y3620000D02*
G03*
X8218000Y3620000I-12500J0D01*
G01*
X8617660Y3141660D02*
G03*
X8617660Y3141660I-12500J0D01*
G01*
X13643359Y6226160D02*
G03*
X13643359Y6226160I-12500J0D01*
G01*
Y5718160D02*
G03*
X13643359Y5718160I-12500J0D01*
G01*
X13691742Y5935660D02*
G03*
X13691742Y5935660I-12500J0D01*
G01*
X13070660Y5811860D02*
G03*
X13070660Y5811860I-12500J0D01*
G01*
X12422960Y5810260D02*
G03*
X12422960Y5810260I-12500J0D01*
G01*
X10257803Y6738702D02*
G03*
X10257803Y6738702I-12500J0D01*
G01*
Y5324769D02*
G03*
X10257803Y5324769I-12500J0D01*
G01*
Y6031735D02*
G03*
X10257803Y6031735I-12500J0D01*
G01*
X6832500Y5385000D02*
G03*
X6832500Y5385000I-12500J0D01*
G01*
X8146360Y5945560D02*
G03*
X8146360Y5945560I-12500J0D01*
G01*
X7739260Y6127560D02*
G03*
X7739260Y6127560I-12500J0D01*
G01*
X6543960Y6355368D02*
G03*
X6543960Y6355368I-12500J0D01*
G01*
X11740000Y6128000D02*
G03*
X11740000Y6128000I-12500J0D01*
G01*
X10879553Y6128851D02*
G03*
X10879553Y6128851I-12500J0D01*
G01*
D83*
X9684400Y4772700D02*
G03*
X9684400Y4772700I-30000J0D01*
G01*
X8363500Y3842500D02*
G03*
X8363500Y3842500I-30000J0D01*
G01*
X7534260Y6255560D02*
G03*
X7534260Y6255560I-30000J0D01*
G01*
X11980000Y6000000D02*
G03*
X11980000Y6000000I-30000J0D01*
G01*
X11119553Y6000851D02*
G03*
X11119553Y6000851I-30000J0D01*
G01*
D84*
X9208310Y3141660D02*
G03*
X9208310Y3141660I-278150J0D01*
G01*
D85*
X14137492Y3424992D02*
Y3774992D01*
X13362509Y3775008D02*
X13362509Y4125008D01*
D86*
X1138820Y4893260D02*
X1138820Y6065000D01*
X3641000Y4893260D02*
X3641000Y6065000D01*
X1138820D02*
X3641000D01*
X1138820Y4893260D02*
X3641000D01*
%TF.MD5,19e579e377d77b31dde27e679f989363*%
M02*
